M48
; DRILL file {KiCad (5.1.7)-1} date 10/05/20 16:07:11
; FORMAT={-:-/ absolute / inch / decimal}
; #@! TF.CreationDate,2020-10-05T16:07:11+02:00
; #@! TF.GenerationSoftware,Kicad,Pcbnew,(5.1.7)-1
; #@! TF.FileFunction,Plated,1,2,PTH
FMAT,2
INCH
T1C0.0157
T2C0.0429
T3C0.0469
T4C0.0512
T5C0.0551
%
G90
G05
T1
X4.0945Y-4.1339
X4.2913Y-3.3314
X4.3809Y-3.751
X4.499Y-3.6142
X4.499Y-3.6929
X4.5561Y-3.5551
X4.563Y-3.752
X4.5709Y-3.6181
X4.5709Y-3.6654
X4.5945Y-3.4213
X4.626Y-4.1535
X4.6339Y-3.8425
X4.7402Y-3.4843
X4.8081Y-4.4242
X4.9094Y-3.5433
X4.937Y-3.8661
X4.9546Y-3.8309
X5.0079Y-4.4518
X5.1024Y-3.5984
X5.122Y-3.8504
X5.126Y-4.4724
X5.2795Y-3.9252
X5.2835Y-4.0512
X5.4921Y-4.1339
X5.5551Y-3.9213
X5.6732Y-3.6299
X5.7992Y-3.4409
T2
X5.3843Y-4.3268
X5.4843Y-4.3268
X5.5843Y-4.3268
X5.6843Y-4.3268
T3
X3.9764Y-3.937
X3.9764Y-4.037
X3.9764Y-4.3268
X3.9764Y-4.4268
X3.9764Y-3.1496
X3.9764Y-3.2496
X5.8583Y-3.1559
X5.8583Y-3.2559
X3.9764Y-3.5433
X3.9764Y-3.6433
T4
X5.1969Y-3.0512
X5.2969Y-3.3512
X5.4969Y-3.0512
X5.8969Y-3.0512
X5.8969Y-3.3512
T5
X4.7244Y-3.1496
X4.9213Y-3.1496
T0
M30
