%TF.GenerationSoftware,KiCad,Pcbnew,(5.1.7)-1*%
%TF.CreationDate,2020-10-05T16:07:03+02:00*%
%TF.ProjectId,Templogger,54656d70-6c6f-4676-9765-722e6b696361,rev?*%
%TF.SameCoordinates,Original*%
%TF.FileFunction,Soldermask,Top*%
%TF.FilePolarity,Negative*%
%FSLAX46Y46*%
G04 Gerber Fmt 4.6, Leading zero omitted, Abs format (unit mm)*
G04 Created by KiCad (PCBNEW (5.1.7)-1) date 2020-10-05 16:07:03*
%MOMM*%
%LPD*%
G01*
G04 APERTURE LIST*
%ADD10C,1.840000*%
%ADD11O,2.290000X1.840000*%
%ADD12C,2.400000*%
%ADD13C,1.000000*%
%ADD14O,2.100000X3.700000*%
G04 APERTURE END LIST*
%TO.C,R3*%
G36*
G01*
X134618750Y-104237500D02*
X135581250Y-104237500D01*
G75*
G02*
X135850000Y-104506250I0J-268750D01*
G01*
X135850000Y-105043750D01*
G75*
G02*
X135581250Y-105312500I-268750J0D01*
G01*
X134618750Y-105312500D01*
G75*
G02*
X134350000Y-105043750I0J268750D01*
G01*
X134350000Y-104506250D01*
G75*
G02*
X134618750Y-104237500I268750J0D01*
G01*
G37*
G36*
G01*
X134618750Y-102362500D02*
X135581250Y-102362500D01*
G75*
G02*
X135850000Y-102631250I0J-268750D01*
G01*
X135850000Y-103168750D01*
G75*
G02*
X135581250Y-103437500I-268750J0D01*
G01*
X134618750Y-103437500D01*
G75*
G02*
X134350000Y-103168750I0J268750D01*
G01*
X134350000Y-102631250D01*
G75*
G02*
X134618750Y-102362500I268750J0D01*
G01*
G37*
%TD*%
%TO.C,R2*%
G36*
G01*
X132618750Y-104237500D02*
X133581250Y-104237500D01*
G75*
G02*
X133850000Y-104506250I0J-268750D01*
G01*
X133850000Y-105043750D01*
G75*
G02*
X133581250Y-105312500I-268750J0D01*
G01*
X132618750Y-105312500D01*
G75*
G02*
X132350000Y-105043750I0J268750D01*
G01*
X132350000Y-104506250D01*
G75*
G02*
X132618750Y-104237500I268750J0D01*
G01*
G37*
G36*
G01*
X132618750Y-102362500D02*
X133581250Y-102362500D01*
G75*
G02*
X133850000Y-102631250I0J-268750D01*
G01*
X133850000Y-103168750D01*
G75*
G02*
X133581250Y-103437500I-268750J0D01*
G01*
X132618750Y-103437500D01*
G75*
G02*
X132350000Y-103168750I0J268750D01*
G01*
X132350000Y-102631250D01*
G75*
G02*
X132618750Y-102362500I268750J0D01*
G01*
G37*
%TD*%
D10*
%TO.C,J9*%
X144380000Y-109900000D03*
X141840000Y-109900000D03*
X139300000Y-109900000D03*
G36*
G01*
X135840000Y-110555634D02*
X135840000Y-109244366D01*
G75*
G02*
X136104366Y-108980000I264366J0D01*
G01*
X137415634Y-108980000D01*
G75*
G02*
X137680000Y-109244366I0J-264366D01*
G01*
X137680000Y-110555634D01*
G75*
G02*
X137415634Y-110820000I-264366J0D01*
G01*
X136104366Y-110820000D01*
G75*
G02*
X135840000Y-110555634I0J264366D01*
G01*
G37*
%TD*%
D11*
%TO.C,J8*%
X148800000Y-80160000D03*
G36*
G01*
X149680634Y-83620000D02*
X147919366Y-83620000D01*
G75*
G02*
X147655000Y-83355634I0J264366D01*
G01*
X147655000Y-82044366D01*
G75*
G02*
X147919366Y-81780000I264366J0D01*
G01*
X149680634Y-81780000D01*
G75*
G02*
X149945000Y-82044366I0J-264366D01*
G01*
X149945000Y-83355634D01*
G75*
G02*
X149680634Y-83620000I-264366J0D01*
G01*
G37*
%TD*%
%TO.C,C8*%
G36*
G01*
X107662500Y-95318750D02*
X107662500Y-96281250D01*
G75*
G02*
X107393750Y-96550000I-268750J0D01*
G01*
X106856250Y-96550000D01*
G75*
G02*
X106587500Y-96281250I0J268750D01*
G01*
X106587500Y-95318750D01*
G75*
G02*
X106856250Y-95050000I268750J0D01*
G01*
X107393750Y-95050000D01*
G75*
G02*
X107662500Y-95318750I0J-268750D01*
G01*
G37*
G36*
G01*
X109537500Y-95318750D02*
X109537500Y-96281250D01*
G75*
G02*
X109268750Y-96550000I-268750J0D01*
G01*
X108731250Y-96550000D01*
G75*
G02*
X108462500Y-96281250I0J268750D01*
G01*
X108462500Y-95318750D01*
G75*
G02*
X108731250Y-95050000I268750J0D01*
G01*
X109268750Y-95050000D01*
G75*
G02*
X109537500Y-95318750I0J-268750D01*
G01*
G37*
%TD*%
%TO.C,C7*%
G36*
G01*
X107737500Y-85718750D02*
X107737500Y-86681250D01*
G75*
G02*
X107468750Y-86950000I-268750J0D01*
G01*
X106931250Y-86950000D01*
G75*
G02*
X106662500Y-86681250I0J268750D01*
G01*
X106662500Y-85718750D01*
G75*
G02*
X106931250Y-85450000I268750J0D01*
G01*
X107468750Y-85450000D01*
G75*
G02*
X107737500Y-85718750I0J-268750D01*
G01*
G37*
G36*
G01*
X109612500Y-85718750D02*
X109612500Y-86681250D01*
G75*
G02*
X109343750Y-86950000I-268750J0D01*
G01*
X108806250Y-86950000D01*
G75*
G02*
X108537500Y-86681250I0J268750D01*
G01*
X108537500Y-85718750D01*
G75*
G02*
X108806250Y-85450000I268750J0D01*
G01*
X109343750Y-85450000D01*
G75*
G02*
X109612500Y-85718750I0J-268750D01*
G01*
G37*
%TD*%
%TO.C,C6*%
G36*
G01*
X107537500Y-105618750D02*
X107537500Y-106581250D01*
G75*
G02*
X107268750Y-106850000I-268750J0D01*
G01*
X106731250Y-106850000D01*
G75*
G02*
X106462500Y-106581250I0J268750D01*
G01*
X106462500Y-105618750D01*
G75*
G02*
X106731250Y-105350000I268750J0D01*
G01*
X107268750Y-105350000D01*
G75*
G02*
X107537500Y-105618750I0J-268750D01*
G01*
G37*
G36*
G01*
X109412500Y-105618750D02*
X109412500Y-106581250D01*
G75*
G02*
X109143750Y-106850000I-268750J0D01*
G01*
X108606250Y-106850000D01*
G75*
G02*
X108337500Y-106581250I0J268750D01*
G01*
X108337500Y-105618750D01*
G75*
G02*
X108606250Y-105350000I268750J0D01*
G01*
X109143750Y-105350000D01*
G75*
G02*
X109412500Y-105618750I0J-268750D01*
G01*
G37*
%TD*%
%TO.C,C5*%
G36*
G01*
X120062500Y-101718750D02*
X120062500Y-102681250D01*
G75*
G02*
X119793750Y-102950000I-268750J0D01*
G01*
X119256250Y-102950000D01*
G75*
G02*
X118987500Y-102681250I0J268750D01*
G01*
X118987500Y-101718750D01*
G75*
G02*
X119256250Y-101450000I268750J0D01*
G01*
X119793750Y-101450000D01*
G75*
G02*
X120062500Y-101718750I0J-268750D01*
G01*
G37*
G36*
G01*
X121937500Y-101718750D02*
X121937500Y-102681250D01*
G75*
G02*
X121668750Y-102950000I-268750J0D01*
G01*
X121131250Y-102950000D01*
G75*
G02*
X120862500Y-102681250I0J268750D01*
G01*
X120862500Y-101718750D01*
G75*
G02*
X121131250Y-101450000I268750J0D01*
G01*
X121668750Y-101450000D01*
G75*
G02*
X121937500Y-101718750I0J-268750D01*
G01*
G37*
%TD*%
%TO.C,C4*%
G36*
G01*
X125862500Y-87518750D02*
X125862500Y-88481250D01*
G75*
G02*
X125593750Y-88750000I-268750J0D01*
G01*
X125056250Y-88750000D01*
G75*
G02*
X124787500Y-88481250I0J268750D01*
G01*
X124787500Y-87518750D01*
G75*
G02*
X125056250Y-87250000I268750J0D01*
G01*
X125593750Y-87250000D01*
G75*
G02*
X125862500Y-87518750I0J-268750D01*
G01*
G37*
G36*
G01*
X127737500Y-87518750D02*
X127737500Y-88481250D01*
G75*
G02*
X127468750Y-88750000I-268750J0D01*
G01*
X126931250Y-88750000D01*
G75*
G02*
X126662500Y-88481250I0J268750D01*
G01*
X126662500Y-87518750D01*
G75*
G02*
X126931250Y-87250000I268750J0D01*
G01*
X127468750Y-87250000D01*
G75*
G02*
X127737500Y-87518750I0J-268750D01*
G01*
G37*
%TD*%
%TO.C,U3*%
G36*
G01*
X138080000Y-97125000D02*
X138080000Y-97775000D01*
G75*
G02*
X138030000Y-97825000I-50000J0D01*
G01*
X136970000Y-97825000D01*
G75*
G02*
X136920000Y-97775000I0J50000D01*
G01*
X136920000Y-97125000D01*
G75*
G02*
X136970000Y-97075000I50000J0D01*
G01*
X138030000Y-97075000D01*
G75*
G02*
X138080000Y-97125000I0J-50000D01*
G01*
G37*
G36*
G01*
X138080000Y-95225000D02*
X138080000Y-95875000D01*
G75*
G02*
X138030000Y-95925000I-50000J0D01*
G01*
X136970000Y-95925000D01*
G75*
G02*
X136920000Y-95875000I0J50000D01*
G01*
X136920000Y-95225000D01*
G75*
G02*
X136970000Y-95175000I50000J0D01*
G01*
X138030000Y-95175000D01*
G75*
G02*
X138080000Y-95225000I0J-50000D01*
G01*
G37*
G36*
G01*
X140280000Y-95225000D02*
X140280000Y-95875000D01*
G75*
G02*
X140230000Y-95925000I-50000J0D01*
G01*
X139170000Y-95925000D01*
G75*
G02*
X139120000Y-95875000I0J50000D01*
G01*
X139120000Y-95225000D01*
G75*
G02*
X139170000Y-95175000I50000J0D01*
G01*
X140230000Y-95175000D01*
G75*
G02*
X140280000Y-95225000I0J-50000D01*
G01*
G37*
G36*
G01*
X140280000Y-96175000D02*
X140280000Y-96825000D01*
G75*
G02*
X140230000Y-96875000I-50000J0D01*
G01*
X139170000Y-96875000D01*
G75*
G02*
X139120000Y-96825000I0J50000D01*
G01*
X139120000Y-96175000D01*
G75*
G02*
X139170000Y-96125000I50000J0D01*
G01*
X140230000Y-96125000D01*
G75*
G02*
X140280000Y-96175000I0J-50000D01*
G01*
G37*
G36*
G01*
X140280000Y-97125000D02*
X140280000Y-97775000D01*
G75*
G02*
X140230000Y-97825000I-50000J0D01*
G01*
X139170000Y-97825000D01*
G75*
G02*
X139120000Y-97775000I0J50000D01*
G01*
X139120000Y-97125000D01*
G75*
G02*
X139170000Y-97075000I50000J0D01*
G01*
X140230000Y-97075000D01*
G75*
G02*
X140280000Y-97125000I0J-50000D01*
G01*
G37*
%TD*%
%TO.C,U2*%
G36*
G01*
X138920000Y-101325000D02*
X138920000Y-100675000D01*
G75*
G02*
X138970000Y-100625000I50000J0D01*
G01*
X140030000Y-100625000D01*
G75*
G02*
X140080000Y-100675000I0J-50000D01*
G01*
X140080000Y-101325000D01*
G75*
G02*
X140030000Y-101375000I-50000J0D01*
G01*
X138970000Y-101375000D01*
G75*
G02*
X138920000Y-101325000I0J50000D01*
G01*
G37*
G36*
G01*
X138920000Y-100375000D02*
X138920000Y-99725000D01*
G75*
G02*
X138970000Y-99675000I50000J0D01*
G01*
X140030000Y-99675000D01*
G75*
G02*
X140080000Y-99725000I0J-50000D01*
G01*
X140080000Y-100375000D01*
G75*
G02*
X140030000Y-100425000I-50000J0D01*
G01*
X138970000Y-100425000D01*
G75*
G02*
X138920000Y-100375000I0J50000D01*
G01*
G37*
G36*
G01*
X138920000Y-102275000D02*
X138920000Y-101625000D01*
G75*
G02*
X138970000Y-101575000I50000J0D01*
G01*
X140030000Y-101575000D01*
G75*
G02*
X140080000Y-101625000I0J-50000D01*
G01*
X140080000Y-102275000D01*
G75*
G02*
X140030000Y-102325000I-50000J0D01*
G01*
X138970000Y-102325000D01*
G75*
G02*
X138920000Y-102275000I0J50000D01*
G01*
G37*
G36*
G01*
X136720000Y-102275000D02*
X136720000Y-101625000D01*
G75*
G02*
X136770000Y-101575000I50000J0D01*
G01*
X137830000Y-101575000D01*
G75*
G02*
X137880000Y-101625000I0J-50000D01*
G01*
X137880000Y-102275000D01*
G75*
G02*
X137830000Y-102325000I-50000J0D01*
G01*
X136770000Y-102325000D01*
G75*
G02*
X136720000Y-102275000I0J50000D01*
G01*
G37*
G36*
G01*
X136720000Y-101325000D02*
X136720000Y-100675000D01*
G75*
G02*
X136770000Y-100625000I50000J0D01*
G01*
X137830000Y-100625000D01*
G75*
G02*
X137880000Y-100675000I0J-50000D01*
G01*
X137880000Y-101325000D01*
G75*
G02*
X137830000Y-101375000I-50000J0D01*
G01*
X136770000Y-101375000D01*
G75*
G02*
X136720000Y-101325000I0J50000D01*
G01*
G37*
G36*
G01*
X136720000Y-100375000D02*
X136720000Y-99725000D01*
G75*
G02*
X136770000Y-99675000I50000J0D01*
G01*
X137830000Y-99675000D01*
G75*
G02*
X137880000Y-99725000I0J-50000D01*
G01*
X137880000Y-100375000D01*
G75*
G02*
X137830000Y-100425000I-50000J0D01*
G01*
X136770000Y-100425000D01*
G75*
G02*
X136720000Y-100375000I0J50000D01*
G01*
G37*
%TD*%
%TO.C,U1*%
G36*
G01*
X127825000Y-92575000D02*
X129125000Y-92575000D01*
G75*
G02*
X129275000Y-92725000I0J-150000D01*
G01*
X129275000Y-93025000D01*
G75*
G02*
X129125000Y-93175000I-150000J0D01*
G01*
X127825000Y-93175000D01*
G75*
G02*
X127675000Y-93025000I0J150000D01*
G01*
X127675000Y-92725000D01*
G75*
G02*
X127825000Y-92575000I150000J0D01*
G01*
G37*
G36*
G01*
X127825000Y-93375000D02*
X129125000Y-93375000D01*
G75*
G02*
X129275000Y-93525000I0J-150000D01*
G01*
X129275000Y-93825000D01*
G75*
G02*
X129125000Y-93975000I-150000J0D01*
G01*
X127825000Y-93975000D01*
G75*
G02*
X127675000Y-93825000I0J150000D01*
G01*
X127675000Y-93525000D01*
G75*
G02*
X127825000Y-93375000I150000J0D01*
G01*
G37*
G36*
G01*
X127825000Y-94175000D02*
X129125000Y-94175000D01*
G75*
G02*
X129275000Y-94325000I0J-150000D01*
G01*
X129275000Y-94625000D01*
G75*
G02*
X129125000Y-94775000I-150000J0D01*
G01*
X127825000Y-94775000D01*
G75*
G02*
X127675000Y-94625000I0J150000D01*
G01*
X127675000Y-94325000D01*
G75*
G02*
X127825000Y-94175000I150000J0D01*
G01*
G37*
G36*
G01*
X127825000Y-94975000D02*
X129125000Y-94975000D01*
G75*
G02*
X129275000Y-95125000I0J-150000D01*
G01*
X129275000Y-95425000D01*
G75*
G02*
X129125000Y-95575000I-150000J0D01*
G01*
X127825000Y-95575000D01*
G75*
G02*
X127675000Y-95425000I0J150000D01*
G01*
X127675000Y-95125000D01*
G75*
G02*
X127825000Y-94975000I150000J0D01*
G01*
G37*
G36*
G01*
X127825000Y-95775000D02*
X129125000Y-95775000D01*
G75*
G02*
X129275000Y-95925000I0J-150000D01*
G01*
X129275000Y-96225000D01*
G75*
G02*
X129125000Y-96375000I-150000J0D01*
G01*
X127825000Y-96375000D01*
G75*
G02*
X127675000Y-96225000I0J150000D01*
G01*
X127675000Y-95925000D01*
G75*
G02*
X127825000Y-95775000I150000J0D01*
G01*
G37*
G36*
G01*
X127825000Y-96575000D02*
X129125000Y-96575000D01*
G75*
G02*
X129275000Y-96725000I0J-150000D01*
G01*
X129275000Y-97025000D01*
G75*
G02*
X129125000Y-97175000I-150000J0D01*
G01*
X127825000Y-97175000D01*
G75*
G02*
X127675000Y-97025000I0J150000D01*
G01*
X127675000Y-96725000D01*
G75*
G02*
X127825000Y-96575000I150000J0D01*
G01*
G37*
G36*
G01*
X127825000Y-97375000D02*
X129125000Y-97375000D01*
G75*
G02*
X129275000Y-97525000I0J-150000D01*
G01*
X129275000Y-97825000D01*
G75*
G02*
X129125000Y-97975000I-150000J0D01*
G01*
X127825000Y-97975000D01*
G75*
G02*
X127675000Y-97825000I0J150000D01*
G01*
X127675000Y-97525000D01*
G75*
G02*
X127825000Y-97375000I150000J0D01*
G01*
G37*
G36*
G01*
X127825000Y-98175000D02*
X129125000Y-98175000D01*
G75*
G02*
X129275000Y-98325000I0J-150000D01*
G01*
X129275000Y-98625000D01*
G75*
G02*
X129125000Y-98775000I-150000J0D01*
G01*
X127825000Y-98775000D01*
G75*
G02*
X127675000Y-98625000I0J150000D01*
G01*
X127675000Y-98325000D01*
G75*
G02*
X127825000Y-98175000I150000J0D01*
G01*
G37*
G36*
G01*
X126950000Y-99050000D02*
X127250000Y-99050000D01*
G75*
G02*
X127400000Y-99200000I0J-150000D01*
G01*
X127400000Y-100500000D01*
G75*
G02*
X127250000Y-100650000I-150000J0D01*
G01*
X126950000Y-100650000D01*
G75*
G02*
X126800000Y-100500000I0J150000D01*
G01*
X126800000Y-99200000D01*
G75*
G02*
X126950000Y-99050000I150000J0D01*
G01*
G37*
G36*
G01*
X126150000Y-99050000D02*
X126450000Y-99050000D01*
G75*
G02*
X126600000Y-99200000I0J-150000D01*
G01*
X126600000Y-100500000D01*
G75*
G02*
X126450000Y-100650000I-150000J0D01*
G01*
X126150000Y-100650000D01*
G75*
G02*
X126000000Y-100500000I0J150000D01*
G01*
X126000000Y-99200000D01*
G75*
G02*
X126150000Y-99050000I150000J0D01*
G01*
G37*
G36*
G01*
X125350000Y-99050000D02*
X125650000Y-99050000D01*
G75*
G02*
X125800000Y-99200000I0J-150000D01*
G01*
X125800000Y-100500000D01*
G75*
G02*
X125650000Y-100650000I-150000J0D01*
G01*
X125350000Y-100650000D01*
G75*
G02*
X125200000Y-100500000I0J150000D01*
G01*
X125200000Y-99200000D01*
G75*
G02*
X125350000Y-99050000I150000J0D01*
G01*
G37*
G36*
G01*
X124550000Y-99050000D02*
X124850000Y-99050000D01*
G75*
G02*
X125000000Y-99200000I0J-150000D01*
G01*
X125000000Y-100500000D01*
G75*
G02*
X124850000Y-100650000I-150000J0D01*
G01*
X124550000Y-100650000D01*
G75*
G02*
X124400000Y-100500000I0J150000D01*
G01*
X124400000Y-99200000D01*
G75*
G02*
X124550000Y-99050000I150000J0D01*
G01*
G37*
G36*
G01*
X123750000Y-99050000D02*
X124050000Y-99050000D01*
G75*
G02*
X124200000Y-99200000I0J-150000D01*
G01*
X124200000Y-100500000D01*
G75*
G02*
X124050000Y-100650000I-150000J0D01*
G01*
X123750000Y-100650000D01*
G75*
G02*
X123600000Y-100500000I0J150000D01*
G01*
X123600000Y-99200000D01*
G75*
G02*
X123750000Y-99050000I150000J0D01*
G01*
G37*
G36*
G01*
X122950000Y-99050000D02*
X123250000Y-99050000D01*
G75*
G02*
X123400000Y-99200000I0J-150000D01*
G01*
X123400000Y-100500000D01*
G75*
G02*
X123250000Y-100650000I-150000J0D01*
G01*
X122950000Y-100650000D01*
G75*
G02*
X122800000Y-100500000I0J150000D01*
G01*
X122800000Y-99200000D01*
G75*
G02*
X122950000Y-99050000I150000J0D01*
G01*
G37*
G36*
G01*
X122150000Y-99050000D02*
X122450000Y-99050000D01*
G75*
G02*
X122600000Y-99200000I0J-150000D01*
G01*
X122600000Y-100500000D01*
G75*
G02*
X122450000Y-100650000I-150000J0D01*
G01*
X122150000Y-100650000D01*
G75*
G02*
X122000000Y-100500000I0J150000D01*
G01*
X122000000Y-99200000D01*
G75*
G02*
X122150000Y-99050000I150000J0D01*
G01*
G37*
G36*
G01*
X121350000Y-99050000D02*
X121650000Y-99050000D01*
G75*
G02*
X121800000Y-99200000I0J-150000D01*
G01*
X121800000Y-100500000D01*
G75*
G02*
X121650000Y-100650000I-150000J0D01*
G01*
X121350000Y-100650000D01*
G75*
G02*
X121200000Y-100500000I0J150000D01*
G01*
X121200000Y-99200000D01*
G75*
G02*
X121350000Y-99050000I150000J0D01*
G01*
G37*
G36*
G01*
X119475000Y-98175000D02*
X120775000Y-98175000D01*
G75*
G02*
X120925000Y-98325000I0J-150000D01*
G01*
X120925000Y-98625000D01*
G75*
G02*
X120775000Y-98775000I-150000J0D01*
G01*
X119475000Y-98775000D01*
G75*
G02*
X119325000Y-98625000I0J150000D01*
G01*
X119325000Y-98325000D01*
G75*
G02*
X119475000Y-98175000I150000J0D01*
G01*
G37*
G36*
G01*
X119475000Y-97375000D02*
X120775000Y-97375000D01*
G75*
G02*
X120925000Y-97525000I0J-150000D01*
G01*
X120925000Y-97825000D01*
G75*
G02*
X120775000Y-97975000I-150000J0D01*
G01*
X119475000Y-97975000D01*
G75*
G02*
X119325000Y-97825000I0J150000D01*
G01*
X119325000Y-97525000D01*
G75*
G02*
X119475000Y-97375000I150000J0D01*
G01*
G37*
G36*
G01*
X119475000Y-96575000D02*
X120775000Y-96575000D01*
G75*
G02*
X120925000Y-96725000I0J-150000D01*
G01*
X120925000Y-97025000D01*
G75*
G02*
X120775000Y-97175000I-150000J0D01*
G01*
X119475000Y-97175000D01*
G75*
G02*
X119325000Y-97025000I0J150000D01*
G01*
X119325000Y-96725000D01*
G75*
G02*
X119475000Y-96575000I150000J0D01*
G01*
G37*
G36*
G01*
X119475000Y-95775000D02*
X120775000Y-95775000D01*
G75*
G02*
X120925000Y-95925000I0J-150000D01*
G01*
X120925000Y-96225000D01*
G75*
G02*
X120775000Y-96375000I-150000J0D01*
G01*
X119475000Y-96375000D01*
G75*
G02*
X119325000Y-96225000I0J150000D01*
G01*
X119325000Y-95925000D01*
G75*
G02*
X119475000Y-95775000I150000J0D01*
G01*
G37*
G36*
G01*
X119475000Y-94975000D02*
X120775000Y-94975000D01*
G75*
G02*
X120925000Y-95125000I0J-150000D01*
G01*
X120925000Y-95425000D01*
G75*
G02*
X120775000Y-95575000I-150000J0D01*
G01*
X119475000Y-95575000D01*
G75*
G02*
X119325000Y-95425000I0J150000D01*
G01*
X119325000Y-95125000D01*
G75*
G02*
X119475000Y-94975000I150000J0D01*
G01*
G37*
G36*
G01*
X119475000Y-94175000D02*
X120775000Y-94175000D01*
G75*
G02*
X120925000Y-94325000I0J-150000D01*
G01*
X120925000Y-94625000D01*
G75*
G02*
X120775000Y-94775000I-150000J0D01*
G01*
X119475000Y-94775000D01*
G75*
G02*
X119325000Y-94625000I0J150000D01*
G01*
X119325000Y-94325000D01*
G75*
G02*
X119475000Y-94175000I150000J0D01*
G01*
G37*
G36*
G01*
X119475000Y-93375000D02*
X120775000Y-93375000D01*
G75*
G02*
X120925000Y-93525000I0J-150000D01*
G01*
X120925000Y-93825000D01*
G75*
G02*
X120775000Y-93975000I-150000J0D01*
G01*
X119475000Y-93975000D01*
G75*
G02*
X119325000Y-93825000I0J150000D01*
G01*
X119325000Y-93525000D01*
G75*
G02*
X119475000Y-93375000I150000J0D01*
G01*
G37*
G36*
G01*
X119475000Y-92575000D02*
X120775000Y-92575000D01*
G75*
G02*
X120925000Y-92725000I0J-150000D01*
G01*
X120925000Y-93025000D01*
G75*
G02*
X120775000Y-93175000I-150000J0D01*
G01*
X119475000Y-93175000D01*
G75*
G02*
X119325000Y-93025000I0J150000D01*
G01*
X119325000Y-92725000D01*
G75*
G02*
X119475000Y-92575000I150000J0D01*
G01*
G37*
G36*
G01*
X121350000Y-90700000D02*
X121650000Y-90700000D01*
G75*
G02*
X121800000Y-90850000I0J-150000D01*
G01*
X121800000Y-92150000D01*
G75*
G02*
X121650000Y-92300000I-150000J0D01*
G01*
X121350000Y-92300000D01*
G75*
G02*
X121200000Y-92150000I0J150000D01*
G01*
X121200000Y-90850000D01*
G75*
G02*
X121350000Y-90700000I150000J0D01*
G01*
G37*
G36*
G01*
X122150000Y-90700000D02*
X122450000Y-90700000D01*
G75*
G02*
X122600000Y-90850000I0J-150000D01*
G01*
X122600000Y-92150000D01*
G75*
G02*
X122450000Y-92300000I-150000J0D01*
G01*
X122150000Y-92300000D01*
G75*
G02*
X122000000Y-92150000I0J150000D01*
G01*
X122000000Y-90850000D01*
G75*
G02*
X122150000Y-90700000I150000J0D01*
G01*
G37*
G36*
G01*
X122950000Y-90700000D02*
X123250000Y-90700000D01*
G75*
G02*
X123400000Y-90850000I0J-150000D01*
G01*
X123400000Y-92150000D01*
G75*
G02*
X123250000Y-92300000I-150000J0D01*
G01*
X122950000Y-92300000D01*
G75*
G02*
X122800000Y-92150000I0J150000D01*
G01*
X122800000Y-90850000D01*
G75*
G02*
X122950000Y-90700000I150000J0D01*
G01*
G37*
G36*
G01*
X123750000Y-90700000D02*
X124050000Y-90700000D01*
G75*
G02*
X124200000Y-90850000I0J-150000D01*
G01*
X124200000Y-92150000D01*
G75*
G02*
X124050000Y-92300000I-150000J0D01*
G01*
X123750000Y-92300000D01*
G75*
G02*
X123600000Y-92150000I0J150000D01*
G01*
X123600000Y-90850000D01*
G75*
G02*
X123750000Y-90700000I150000J0D01*
G01*
G37*
G36*
G01*
X124550000Y-90700000D02*
X124850000Y-90700000D01*
G75*
G02*
X125000000Y-90850000I0J-150000D01*
G01*
X125000000Y-92150000D01*
G75*
G02*
X124850000Y-92300000I-150000J0D01*
G01*
X124550000Y-92300000D01*
G75*
G02*
X124400000Y-92150000I0J150000D01*
G01*
X124400000Y-90850000D01*
G75*
G02*
X124550000Y-90700000I150000J0D01*
G01*
G37*
G36*
G01*
X125350000Y-90700000D02*
X125650000Y-90700000D01*
G75*
G02*
X125800000Y-90850000I0J-150000D01*
G01*
X125800000Y-92150000D01*
G75*
G02*
X125650000Y-92300000I-150000J0D01*
G01*
X125350000Y-92300000D01*
G75*
G02*
X125200000Y-92150000I0J150000D01*
G01*
X125200000Y-90850000D01*
G75*
G02*
X125350000Y-90700000I150000J0D01*
G01*
G37*
G36*
G01*
X126150000Y-90700000D02*
X126450000Y-90700000D01*
G75*
G02*
X126600000Y-90850000I0J-150000D01*
G01*
X126600000Y-92150000D01*
G75*
G02*
X126450000Y-92300000I-150000J0D01*
G01*
X126150000Y-92300000D01*
G75*
G02*
X126000000Y-92150000I0J150000D01*
G01*
X126000000Y-90850000D01*
G75*
G02*
X126150000Y-90700000I150000J0D01*
G01*
G37*
G36*
G01*
X126950000Y-90700000D02*
X127250000Y-90700000D01*
G75*
G02*
X127400000Y-90850000I0J-150000D01*
G01*
X127400000Y-92150000D01*
G75*
G02*
X127250000Y-92300000I-150000J0D01*
G01*
X126950000Y-92300000D01*
G75*
G02*
X126800000Y-92150000I0J150000D01*
G01*
X126800000Y-90850000D01*
G75*
G02*
X126950000Y-90700000I150000J0D01*
G01*
G37*
%TD*%
%TO.C,R1*%
G36*
G01*
X131837500Y-94481250D02*
X131837500Y-93518750D01*
G75*
G02*
X132106250Y-93250000I268750J0D01*
G01*
X132643750Y-93250000D01*
G75*
G02*
X132912500Y-93518750I0J-268750D01*
G01*
X132912500Y-94481250D01*
G75*
G02*
X132643750Y-94750000I-268750J0D01*
G01*
X132106250Y-94750000D01*
G75*
G02*
X131837500Y-94481250I0J268750D01*
G01*
G37*
G36*
G01*
X129962500Y-94481250D02*
X129962500Y-93518750D01*
G75*
G02*
X130231250Y-93250000I268750J0D01*
G01*
X130768750Y-93250000D01*
G75*
G02*
X131037500Y-93518750I0J-268750D01*
G01*
X131037500Y-94481250D01*
G75*
G02*
X130768750Y-94750000I-268750J0D01*
G01*
X130231250Y-94750000D01*
G75*
G02*
X129962500Y-94481250I0J268750D01*
G01*
G37*
%TD*%
%TO.C,Q1*%
G36*
G01*
X145500000Y-90600000D02*
X145500000Y-91400000D01*
G75*
G02*
X145450000Y-91450000I-50000J0D01*
G01*
X144550000Y-91450000D01*
G75*
G02*
X144500000Y-91400000I0J50000D01*
G01*
X144500000Y-90600000D01*
G75*
G02*
X144550000Y-90550000I50000J0D01*
G01*
X145450000Y-90550000D01*
G75*
G02*
X145500000Y-90600000I0J-50000D01*
G01*
G37*
G36*
G01*
X147500000Y-89650000D02*
X147500000Y-90450000D01*
G75*
G02*
X147450000Y-90500000I-50000J0D01*
G01*
X146550000Y-90500000D01*
G75*
G02*
X146500000Y-90450000I0J50000D01*
G01*
X146500000Y-89650000D01*
G75*
G02*
X146550000Y-89600000I50000J0D01*
G01*
X147450000Y-89600000D01*
G75*
G02*
X147500000Y-89650000I0J-50000D01*
G01*
G37*
G36*
G01*
X147500000Y-91550000D02*
X147500000Y-92350000D01*
G75*
G02*
X147450000Y-92400000I-50000J0D01*
G01*
X146550000Y-92400000D01*
G75*
G02*
X146500000Y-92350000I0J50000D01*
G01*
X146500000Y-91550000D01*
G75*
G02*
X146550000Y-91500000I50000J0D01*
G01*
X147450000Y-91500000D01*
G75*
G02*
X147500000Y-91550000I0J-50000D01*
G01*
G37*
%TD*%
D12*
%TO.C,K1*%
X149780000Y-85120000D03*
X134540000Y-85120000D03*
X132000000Y-77500000D03*
X139620000Y-77500000D03*
G36*
G01*
X148580000Y-78650000D02*
X148580000Y-76350000D01*
G75*
G02*
X148630000Y-76300000I50000J0D01*
G01*
X150930000Y-76300000D01*
G75*
G02*
X150980000Y-76350000I0J-50000D01*
G01*
X150980000Y-78650000D01*
G75*
G02*
X150930000Y-78700000I-50000J0D01*
G01*
X148630000Y-78700000D01*
G75*
G02*
X148580000Y-78650000I0J50000D01*
G01*
G37*
%TD*%
D13*
%TO.C,J7*%
X145600000Y-98200000D03*
X145600000Y-102600000D03*
G36*
G01*
X144250000Y-99100000D02*
X141750000Y-99100000D01*
G75*
G02*
X141700000Y-99050000I0J50000D01*
G01*
X141700000Y-98550000D01*
G75*
G02*
X141750000Y-98500000I50000J0D01*
G01*
X144250000Y-98500000D01*
G75*
G02*
X144300000Y-98550000I0J-50000D01*
G01*
X144300000Y-99050000D01*
G75*
G02*
X144250000Y-99100000I-50000J0D01*
G01*
G37*
G36*
G01*
X144250000Y-99900000D02*
X141750000Y-99900000D01*
G75*
G02*
X141700000Y-99850000I0J50000D01*
G01*
X141700000Y-99350000D01*
G75*
G02*
X141750000Y-99300000I50000J0D01*
G01*
X144250000Y-99300000D01*
G75*
G02*
X144300000Y-99350000I0J-50000D01*
G01*
X144300000Y-99850000D01*
G75*
G02*
X144250000Y-99900000I-50000J0D01*
G01*
G37*
G36*
G01*
X144250000Y-100700000D02*
X141750000Y-100700000D01*
G75*
G02*
X141700000Y-100650000I0J50000D01*
G01*
X141700000Y-100150000D01*
G75*
G02*
X141750000Y-100100000I50000J0D01*
G01*
X144250000Y-100100000D01*
G75*
G02*
X144300000Y-100150000I0J-50000D01*
G01*
X144300000Y-100650000D01*
G75*
G02*
X144250000Y-100700000I-50000J0D01*
G01*
G37*
G36*
G01*
X144250000Y-101500000D02*
X141750000Y-101500000D01*
G75*
G02*
X141700000Y-101450000I0J50000D01*
G01*
X141700000Y-100950000D01*
G75*
G02*
X141750000Y-100900000I50000J0D01*
G01*
X144250000Y-100900000D01*
G75*
G02*
X144300000Y-100950000I0J-50000D01*
G01*
X144300000Y-101450000D01*
G75*
G02*
X144250000Y-101500000I-50000J0D01*
G01*
G37*
G36*
G01*
X144250000Y-102300000D02*
X141750000Y-102300000D01*
G75*
G02*
X141700000Y-102250000I0J50000D01*
G01*
X141700000Y-101750000D01*
G75*
G02*
X141750000Y-101700000I50000J0D01*
G01*
X144250000Y-101700000D01*
G75*
G02*
X144300000Y-101750000I0J-50000D01*
G01*
X144300000Y-102250000D01*
G75*
G02*
X144250000Y-102300000I-50000J0D01*
G01*
G37*
G36*
G01*
X144250000Y-97050000D02*
X141750000Y-97050000D01*
G75*
G02*
X141700000Y-97000000I0J50000D01*
G01*
X141700000Y-95000000D01*
G75*
G02*
X141750000Y-94950000I50000J0D01*
G01*
X144250000Y-94950000D01*
G75*
G02*
X144300000Y-95000000I0J-50000D01*
G01*
X144300000Y-97000000D01*
G75*
G02*
X144250000Y-97050000I-50000J0D01*
G01*
G37*
G36*
G01*
X144250000Y-105850000D02*
X141750000Y-105850000D01*
G75*
G02*
X141700000Y-105800000I0J50000D01*
G01*
X141700000Y-103800000D01*
G75*
G02*
X141750000Y-103750000I50000J0D01*
G01*
X144250000Y-103750000D01*
G75*
G02*
X144300000Y-103800000I0J-50000D01*
G01*
X144300000Y-105800000D01*
G75*
G02*
X144250000Y-105850000I-50000J0D01*
G01*
G37*
G36*
G01*
X149750000Y-97050000D02*
X147250000Y-97050000D01*
G75*
G02*
X147200000Y-97000000I0J50000D01*
G01*
X147200000Y-95000000D01*
G75*
G02*
X147250000Y-94950000I50000J0D01*
G01*
X149750000Y-94950000D01*
G75*
G02*
X149800000Y-95000000I0J-50000D01*
G01*
X149800000Y-97000000D01*
G75*
G02*
X149750000Y-97050000I-50000J0D01*
G01*
G37*
G36*
G01*
X149750000Y-105850000D02*
X147250000Y-105850000D01*
G75*
G02*
X147200000Y-105800000I0J50000D01*
G01*
X147200000Y-103800000D01*
G75*
G02*
X147250000Y-103750000I50000J0D01*
G01*
X149750000Y-103750000D01*
G75*
G02*
X149800000Y-103800000I0J-50000D01*
G01*
X149800000Y-105800000D01*
G75*
G02*
X149750000Y-105850000I-50000J0D01*
G01*
G37*
%TD*%
%TO.C,J6*%
G36*
G01*
X123090000Y-110250000D02*
X123830000Y-110250000D01*
G75*
G02*
X123880000Y-110300000I0J-50000D01*
G01*
X123880000Y-112700000D01*
G75*
G02*
X123830000Y-112750000I-50000J0D01*
G01*
X123090000Y-112750000D01*
G75*
G02*
X123040000Y-112700000I0J50000D01*
G01*
X123040000Y-110300000D01*
G75*
G02*
X123090000Y-110250000I50000J0D01*
G01*
G37*
G36*
G01*
X123090000Y-106350000D02*
X123830000Y-106350000D01*
G75*
G02*
X123880000Y-106400000I0J-50000D01*
G01*
X123880000Y-108800000D01*
G75*
G02*
X123830000Y-108850000I-50000J0D01*
G01*
X123090000Y-108850000D01*
G75*
G02*
X123040000Y-108800000I0J50000D01*
G01*
X123040000Y-106400000D01*
G75*
G02*
X123090000Y-106350000I50000J0D01*
G01*
G37*
G36*
G01*
X124360000Y-110250000D02*
X125100000Y-110250000D01*
G75*
G02*
X125150000Y-110300000I0J-50000D01*
G01*
X125150000Y-112700000D01*
G75*
G02*
X125100000Y-112750000I-50000J0D01*
G01*
X124360000Y-112750000D01*
G75*
G02*
X124310000Y-112700000I0J50000D01*
G01*
X124310000Y-110300000D01*
G75*
G02*
X124360000Y-110250000I50000J0D01*
G01*
G37*
G36*
G01*
X124360000Y-106350000D02*
X125100000Y-106350000D01*
G75*
G02*
X125150000Y-106400000I0J-50000D01*
G01*
X125150000Y-108800000D01*
G75*
G02*
X125100000Y-108850000I-50000J0D01*
G01*
X124360000Y-108850000D01*
G75*
G02*
X124310000Y-108800000I0J50000D01*
G01*
X124310000Y-106400000D01*
G75*
G02*
X124360000Y-106350000I50000J0D01*
G01*
G37*
G36*
G01*
X125630000Y-110250000D02*
X126370000Y-110250000D01*
G75*
G02*
X126420000Y-110300000I0J-50000D01*
G01*
X126420000Y-112700000D01*
G75*
G02*
X126370000Y-112750000I-50000J0D01*
G01*
X125630000Y-112750000D01*
G75*
G02*
X125580000Y-112700000I0J50000D01*
G01*
X125580000Y-110300000D01*
G75*
G02*
X125630000Y-110250000I50000J0D01*
G01*
G37*
G36*
G01*
X125630000Y-106350000D02*
X126370000Y-106350000D01*
G75*
G02*
X126420000Y-106400000I0J-50000D01*
G01*
X126420000Y-108800000D01*
G75*
G02*
X126370000Y-108850000I-50000J0D01*
G01*
X125630000Y-108850000D01*
G75*
G02*
X125580000Y-108800000I0J50000D01*
G01*
X125580000Y-106400000D01*
G75*
G02*
X125630000Y-106350000I50000J0D01*
G01*
G37*
G36*
G01*
X126900000Y-110250000D02*
X127640000Y-110250000D01*
G75*
G02*
X127690000Y-110300000I0J-50000D01*
G01*
X127690000Y-112700000D01*
G75*
G02*
X127640000Y-112750000I-50000J0D01*
G01*
X126900000Y-112750000D01*
G75*
G02*
X126850000Y-112700000I0J50000D01*
G01*
X126850000Y-110300000D01*
G75*
G02*
X126900000Y-110250000I50000J0D01*
G01*
G37*
G36*
G01*
X126900000Y-106350000D02*
X127640000Y-106350000D01*
G75*
G02*
X127690000Y-106400000I0J-50000D01*
G01*
X127690000Y-108800000D01*
G75*
G02*
X127640000Y-108850000I-50000J0D01*
G01*
X126900000Y-108850000D01*
G75*
G02*
X126850000Y-108800000I0J50000D01*
G01*
X126850000Y-106400000D01*
G75*
G02*
X126900000Y-106350000I50000J0D01*
G01*
G37*
G36*
G01*
X128170000Y-110250000D02*
X128910000Y-110250000D01*
G75*
G02*
X128960000Y-110300000I0J-50000D01*
G01*
X128960000Y-112700000D01*
G75*
G02*
X128910000Y-112750000I-50000J0D01*
G01*
X128170000Y-112750000D01*
G75*
G02*
X128120000Y-112700000I0J50000D01*
G01*
X128120000Y-110300000D01*
G75*
G02*
X128170000Y-110250000I50000J0D01*
G01*
G37*
G36*
G01*
X128170000Y-106350000D02*
X128910000Y-106350000D01*
G75*
G02*
X128960000Y-106400000I0J-50000D01*
G01*
X128960000Y-108800000D01*
G75*
G02*
X128910000Y-108850000I-50000J0D01*
G01*
X128170000Y-108850000D01*
G75*
G02*
X128120000Y-108800000I0J50000D01*
G01*
X128120000Y-106400000D01*
G75*
G02*
X128170000Y-106350000I50000J0D01*
G01*
G37*
%TD*%
D14*
%TO.C,J5*%
X120000000Y-80000000D03*
G36*
G01*
X126050000Y-78412500D02*
X126050000Y-81587500D01*
G75*
G02*
X125787500Y-81850000I-262500J0D01*
G01*
X124212500Y-81850000D01*
G75*
G02*
X123950000Y-81587500I0J262500D01*
G01*
X123950000Y-78412500D01*
G75*
G02*
X124212500Y-78150000I262500J0D01*
G01*
X125787500Y-78150000D01*
G75*
G02*
X126050000Y-78412500I0J-262500D01*
G01*
G37*
%TD*%
D11*
%TO.C,J4*%
X101000000Y-112440000D03*
G36*
G01*
X100119366Y-108980000D02*
X101880634Y-108980000D01*
G75*
G02*
X102145000Y-109244366I0J-264366D01*
G01*
X102145000Y-110555634D01*
G75*
G02*
X101880634Y-110820000I-264366J0D01*
G01*
X100119366Y-110820000D01*
G75*
G02*
X99855000Y-110555634I0J264366D01*
G01*
X99855000Y-109244366D01*
G75*
G02*
X100119366Y-108980000I264366J0D01*
G01*
G37*
%TD*%
%TO.C,J3*%
X101000000Y-102540000D03*
G36*
G01*
X100119366Y-99080000D02*
X101880634Y-99080000D01*
G75*
G02*
X102145000Y-99344366I0J-264366D01*
G01*
X102145000Y-100655634D01*
G75*
G02*
X101880634Y-100920000I-264366J0D01*
G01*
X100119366Y-100920000D01*
G75*
G02*
X99855000Y-100655634I0J264366D01*
G01*
X99855000Y-99344366D01*
G75*
G02*
X100119366Y-99080000I264366J0D01*
G01*
G37*
%TD*%
%TO.C,J2*%
X101000000Y-92540000D03*
G36*
G01*
X100119366Y-89080000D02*
X101880634Y-89080000D01*
G75*
G02*
X102145000Y-89344366I0J-264366D01*
G01*
X102145000Y-90655634D01*
G75*
G02*
X101880634Y-90920000I-264366J0D01*
G01*
X100119366Y-90920000D01*
G75*
G02*
X99855000Y-90655634I0J264366D01*
G01*
X99855000Y-89344366D01*
G75*
G02*
X100119366Y-89080000I264366J0D01*
G01*
G37*
%TD*%
%TO.C,J1*%
X101000000Y-82540000D03*
G36*
G01*
X100119366Y-79080000D02*
X101880634Y-79080000D01*
G75*
G02*
X102145000Y-79344366I0J-264366D01*
G01*
X102145000Y-80655634D01*
G75*
G02*
X101880634Y-80920000I-264366J0D01*
G01*
X100119366Y-80920000D01*
G75*
G02*
X99855000Y-80655634I0J264366D01*
G01*
X99855000Y-79344366D01*
G75*
G02*
X100119366Y-79080000I264366J0D01*
G01*
G37*
%TD*%
%TO.C,IC4*%
G36*
G01*
X113474500Y-109470000D02*
X111949500Y-109470000D01*
G75*
G02*
X111899500Y-109420000I0J50000D01*
G01*
X111899500Y-108770000D01*
G75*
G02*
X111949500Y-108720000I50000J0D01*
G01*
X113474500Y-108720000D01*
G75*
G02*
X113524500Y-108770000I0J-50000D01*
G01*
X113524500Y-109420000D01*
G75*
G02*
X113474500Y-109470000I-50000J0D01*
G01*
G37*
G36*
G01*
X113474500Y-110740000D02*
X111949500Y-110740000D01*
G75*
G02*
X111899500Y-110690000I0J50000D01*
G01*
X111899500Y-110040000D01*
G75*
G02*
X111949500Y-109990000I50000J0D01*
G01*
X113474500Y-109990000D01*
G75*
G02*
X113524500Y-110040000I0J-50000D01*
G01*
X113524500Y-110690000D01*
G75*
G02*
X113474500Y-110740000I-50000J0D01*
G01*
G37*
G36*
G01*
X113474500Y-112010000D02*
X111949500Y-112010000D01*
G75*
G02*
X111899500Y-111960000I0J50000D01*
G01*
X111899500Y-111310000D01*
G75*
G02*
X111949500Y-111260000I50000J0D01*
G01*
X113474500Y-111260000D01*
G75*
G02*
X113524500Y-111310000I0J-50000D01*
G01*
X113524500Y-111960000D01*
G75*
G02*
X113474500Y-112010000I-50000J0D01*
G01*
G37*
G36*
G01*
X113474500Y-113280000D02*
X111949500Y-113280000D01*
G75*
G02*
X111899500Y-113230000I0J50000D01*
G01*
X111899500Y-112580000D01*
G75*
G02*
X111949500Y-112530000I50000J0D01*
G01*
X113474500Y-112530000D01*
G75*
G02*
X113524500Y-112580000I0J-50000D01*
G01*
X113524500Y-113230000D01*
G75*
G02*
X113474500Y-113280000I-50000J0D01*
G01*
G37*
G36*
G01*
X108050500Y-113280000D02*
X106525500Y-113280000D01*
G75*
G02*
X106475500Y-113230000I0J50000D01*
G01*
X106475500Y-112580000D01*
G75*
G02*
X106525500Y-112530000I50000J0D01*
G01*
X108050500Y-112530000D01*
G75*
G02*
X108100500Y-112580000I0J-50000D01*
G01*
X108100500Y-113230000D01*
G75*
G02*
X108050500Y-113280000I-50000J0D01*
G01*
G37*
G36*
G01*
X108050500Y-112010000D02*
X106525500Y-112010000D01*
G75*
G02*
X106475500Y-111960000I0J50000D01*
G01*
X106475500Y-111310000D01*
G75*
G02*
X106525500Y-111260000I50000J0D01*
G01*
X108050500Y-111260000D01*
G75*
G02*
X108100500Y-111310000I0J-50000D01*
G01*
X108100500Y-111960000D01*
G75*
G02*
X108050500Y-112010000I-50000J0D01*
G01*
G37*
G36*
G01*
X108050500Y-110740000D02*
X106525500Y-110740000D01*
G75*
G02*
X106475500Y-110690000I0J50000D01*
G01*
X106475500Y-110040000D01*
G75*
G02*
X106525500Y-109990000I50000J0D01*
G01*
X108050500Y-109990000D01*
G75*
G02*
X108100500Y-110040000I0J-50000D01*
G01*
X108100500Y-110690000D01*
G75*
G02*
X108050500Y-110740000I-50000J0D01*
G01*
G37*
G36*
G01*
X108050500Y-109470000D02*
X106525500Y-109470000D01*
G75*
G02*
X106475500Y-109420000I0J50000D01*
G01*
X106475500Y-108770000D01*
G75*
G02*
X106525500Y-108720000I50000J0D01*
G01*
X108050500Y-108720000D01*
G75*
G02*
X108100500Y-108770000I0J-50000D01*
G01*
X108100500Y-109420000D01*
G75*
G02*
X108050500Y-109470000I-50000J0D01*
G01*
G37*
%TD*%
%TO.C,IC3*%
G36*
G01*
X113474500Y-99470000D02*
X111949500Y-99470000D01*
G75*
G02*
X111899500Y-99420000I0J50000D01*
G01*
X111899500Y-98770000D01*
G75*
G02*
X111949500Y-98720000I50000J0D01*
G01*
X113474500Y-98720000D01*
G75*
G02*
X113524500Y-98770000I0J-50000D01*
G01*
X113524500Y-99420000D01*
G75*
G02*
X113474500Y-99470000I-50000J0D01*
G01*
G37*
G36*
G01*
X113474500Y-100740000D02*
X111949500Y-100740000D01*
G75*
G02*
X111899500Y-100690000I0J50000D01*
G01*
X111899500Y-100040000D01*
G75*
G02*
X111949500Y-99990000I50000J0D01*
G01*
X113474500Y-99990000D01*
G75*
G02*
X113524500Y-100040000I0J-50000D01*
G01*
X113524500Y-100690000D01*
G75*
G02*
X113474500Y-100740000I-50000J0D01*
G01*
G37*
G36*
G01*
X113474500Y-102010000D02*
X111949500Y-102010000D01*
G75*
G02*
X111899500Y-101960000I0J50000D01*
G01*
X111899500Y-101310000D01*
G75*
G02*
X111949500Y-101260000I50000J0D01*
G01*
X113474500Y-101260000D01*
G75*
G02*
X113524500Y-101310000I0J-50000D01*
G01*
X113524500Y-101960000D01*
G75*
G02*
X113474500Y-102010000I-50000J0D01*
G01*
G37*
G36*
G01*
X113474500Y-103280000D02*
X111949500Y-103280000D01*
G75*
G02*
X111899500Y-103230000I0J50000D01*
G01*
X111899500Y-102580000D01*
G75*
G02*
X111949500Y-102530000I50000J0D01*
G01*
X113474500Y-102530000D01*
G75*
G02*
X113524500Y-102580000I0J-50000D01*
G01*
X113524500Y-103230000D01*
G75*
G02*
X113474500Y-103280000I-50000J0D01*
G01*
G37*
G36*
G01*
X108050500Y-103280000D02*
X106525500Y-103280000D01*
G75*
G02*
X106475500Y-103230000I0J50000D01*
G01*
X106475500Y-102580000D01*
G75*
G02*
X106525500Y-102530000I50000J0D01*
G01*
X108050500Y-102530000D01*
G75*
G02*
X108100500Y-102580000I0J-50000D01*
G01*
X108100500Y-103230000D01*
G75*
G02*
X108050500Y-103280000I-50000J0D01*
G01*
G37*
G36*
G01*
X108050500Y-102010000D02*
X106525500Y-102010000D01*
G75*
G02*
X106475500Y-101960000I0J50000D01*
G01*
X106475500Y-101310000D01*
G75*
G02*
X106525500Y-101260000I50000J0D01*
G01*
X108050500Y-101260000D01*
G75*
G02*
X108100500Y-101310000I0J-50000D01*
G01*
X108100500Y-101960000D01*
G75*
G02*
X108050500Y-102010000I-50000J0D01*
G01*
G37*
G36*
G01*
X108050500Y-100740000D02*
X106525500Y-100740000D01*
G75*
G02*
X106475500Y-100690000I0J50000D01*
G01*
X106475500Y-100040000D01*
G75*
G02*
X106525500Y-99990000I50000J0D01*
G01*
X108050500Y-99990000D01*
G75*
G02*
X108100500Y-100040000I0J-50000D01*
G01*
X108100500Y-100690000D01*
G75*
G02*
X108050500Y-100740000I-50000J0D01*
G01*
G37*
G36*
G01*
X108050500Y-99470000D02*
X106525500Y-99470000D01*
G75*
G02*
X106475500Y-99420000I0J50000D01*
G01*
X106475500Y-98770000D01*
G75*
G02*
X106525500Y-98720000I50000J0D01*
G01*
X108050500Y-98720000D01*
G75*
G02*
X108100500Y-98770000I0J-50000D01*
G01*
X108100500Y-99420000D01*
G75*
G02*
X108050500Y-99470000I-50000J0D01*
G01*
G37*
%TD*%
%TO.C,IC2*%
G36*
G01*
X113474500Y-89470000D02*
X111949500Y-89470000D01*
G75*
G02*
X111899500Y-89420000I0J50000D01*
G01*
X111899500Y-88770000D01*
G75*
G02*
X111949500Y-88720000I50000J0D01*
G01*
X113474500Y-88720000D01*
G75*
G02*
X113524500Y-88770000I0J-50000D01*
G01*
X113524500Y-89420000D01*
G75*
G02*
X113474500Y-89470000I-50000J0D01*
G01*
G37*
G36*
G01*
X113474500Y-90740000D02*
X111949500Y-90740000D01*
G75*
G02*
X111899500Y-90690000I0J50000D01*
G01*
X111899500Y-90040000D01*
G75*
G02*
X111949500Y-89990000I50000J0D01*
G01*
X113474500Y-89990000D01*
G75*
G02*
X113524500Y-90040000I0J-50000D01*
G01*
X113524500Y-90690000D01*
G75*
G02*
X113474500Y-90740000I-50000J0D01*
G01*
G37*
G36*
G01*
X113474500Y-92010000D02*
X111949500Y-92010000D01*
G75*
G02*
X111899500Y-91960000I0J50000D01*
G01*
X111899500Y-91310000D01*
G75*
G02*
X111949500Y-91260000I50000J0D01*
G01*
X113474500Y-91260000D01*
G75*
G02*
X113524500Y-91310000I0J-50000D01*
G01*
X113524500Y-91960000D01*
G75*
G02*
X113474500Y-92010000I-50000J0D01*
G01*
G37*
G36*
G01*
X113474500Y-93280000D02*
X111949500Y-93280000D01*
G75*
G02*
X111899500Y-93230000I0J50000D01*
G01*
X111899500Y-92580000D01*
G75*
G02*
X111949500Y-92530000I50000J0D01*
G01*
X113474500Y-92530000D01*
G75*
G02*
X113524500Y-92580000I0J-50000D01*
G01*
X113524500Y-93230000D01*
G75*
G02*
X113474500Y-93280000I-50000J0D01*
G01*
G37*
G36*
G01*
X108050500Y-93280000D02*
X106525500Y-93280000D01*
G75*
G02*
X106475500Y-93230000I0J50000D01*
G01*
X106475500Y-92580000D01*
G75*
G02*
X106525500Y-92530000I50000J0D01*
G01*
X108050500Y-92530000D01*
G75*
G02*
X108100500Y-92580000I0J-50000D01*
G01*
X108100500Y-93230000D01*
G75*
G02*
X108050500Y-93280000I-50000J0D01*
G01*
G37*
G36*
G01*
X108050500Y-92010000D02*
X106525500Y-92010000D01*
G75*
G02*
X106475500Y-91960000I0J50000D01*
G01*
X106475500Y-91310000D01*
G75*
G02*
X106525500Y-91260000I50000J0D01*
G01*
X108050500Y-91260000D01*
G75*
G02*
X108100500Y-91310000I0J-50000D01*
G01*
X108100500Y-91960000D01*
G75*
G02*
X108050500Y-92010000I-50000J0D01*
G01*
G37*
G36*
G01*
X108050500Y-90740000D02*
X106525500Y-90740000D01*
G75*
G02*
X106475500Y-90690000I0J50000D01*
G01*
X106475500Y-90040000D01*
G75*
G02*
X106525500Y-89990000I50000J0D01*
G01*
X108050500Y-89990000D01*
G75*
G02*
X108100500Y-90040000I0J-50000D01*
G01*
X108100500Y-90690000D01*
G75*
G02*
X108050500Y-90740000I-50000J0D01*
G01*
G37*
G36*
G01*
X108050500Y-89470000D02*
X106525500Y-89470000D01*
G75*
G02*
X106475500Y-89420000I0J50000D01*
G01*
X106475500Y-88770000D01*
G75*
G02*
X106525500Y-88720000I50000J0D01*
G01*
X108050500Y-88720000D01*
G75*
G02*
X108100500Y-88770000I0J-50000D01*
G01*
X108100500Y-89420000D01*
G75*
G02*
X108050500Y-89470000I-50000J0D01*
G01*
G37*
%TD*%
%TO.C,IC1*%
G36*
G01*
X113474500Y-79470000D02*
X111949500Y-79470000D01*
G75*
G02*
X111899500Y-79420000I0J50000D01*
G01*
X111899500Y-78770000D01*
G75*
G02*
X111949500Y-78720000I50000J0D01*
G01*
X113474500Y-78720000D01*
G75*
G02*
X113524500Y-78770000I0J-50000D01*
G01*
X113524500Y-79420000D01*
G75*
G02*
X113474500Y-79470000I-50000J0D01*
G01*
G37*
G36*
G01*
X113474500Y-80740000D02*
X111949500Y-80740000D01*
G75*
G02*
X111899500Y-80690000I0J50000D01*
G01*
X111899500Y-80040000D01*
G75*
G02*
X111949500Y-79990000I50000J0D01*
G01*
X113474500Y-79990000D01*
G75*
G02*
X113524500Y-80040000I0J-50000D01*
G01*
X113524500Y-80690000D01*
G75*
G02*
X113474500Y-80740000I-50000J0D01*
G01*
G37*
G36*
G01*
X113474500Y-82010000D02*
X111949500Y-82010000D01*
G75*
G02*
X111899500Y-81960000I0J50000D01*
G01*
X111899500Y-81310000D01*
G75*
G02*
X111949500Y-81260000I50000J0D01*
G01*
X113474500Y-81260000D01*
G75*
G02*
X113524500Y-81310000I0J-50000D01*
G01*
X113524500Y-81960000D01*
G75*
G02*
X113474500Y-82010000I-50000J0D01*
G01*
G37*
G36*
G01*
X113474500Y-83280000D02*
X111949500Y-83280000D01*
G75*
G02*
X111899500Y-83230000I0J50000D01*
G01*
X111899500Y-82580000D01*
G75*
G02*
X111949500Y-82530000I50000J0D01*
G01*
X113474500Y-82530000D01*
G75*
G02*
X113524500Y-82580000I0J-50000D01*
G01*
X113524500Y-83230000D01*
G75*
G02*
X113474500Y-83280000I-50000J0D01*
G01*
G37*
G36*
G01*
X108050500Y-83280000D02*
X106525500Y-83280000D01*
G75*
G02*
X106475500Y-83230000I0J50000D01*
G01*
X106475500Y-82580000D01*
G75*
G02*
X106525500Y-82530000I50000J0D01*
G01*
X108050500Y-82530000D01*
G75*
G02*
X108100500Y-82580000I0J-50000D01*
G01*
X108100500Y-83230000D01*
G75*
G02*
X108050500Y-83280000I-50000J0D01*
G01*
G37*
G36*
G01*
X108050500Y-82010000D02*
X106525500Y-82010000D01*
G75*
G02*
X106475500Y-81960000I0J50000D01*
G01*
X106475500Y-81310000D01*
G75*
G02*
X106525500Y-81260000I50000J0D01*
G01*
X108050500Y-81260000D01*
G75*
G02*
X108100500Y-81310000I0J-50000D01*
G01*
X108100500Y-81960000D01*
G75*
G02*
X108050500Y-82010000I-50000J0D01*
G01*
G37*
G36*
G01*
X108050500Y-80740000D02*
X106525500Y-80740000D01*
G75*
G02*
X106475500Y-80690000I0J50000D01*
G01*
X106475500Y-80040000D01*
G75*
G02*
X106525500Y-79990000I50000J0D01*
G01*
X108050500Y-79990000D01*
G75*
G02*
X108100500Y-80040000I0J-50000D01*
G01*
X108100500Y-80690000D01*
G75*
G02*
X108050500Y-80740000I-50000J0D01*
G01*
G37*
G36*
G01*
X108050500Y-79470000D02*
X106525500Y-79470000D01*
G75*
G02*
X106475500Y-79420000I0J50000D01*
G01*
X106475500Y-78770000D01*
G75*
G02*
X106525500Y-78720000I50000J0D01*
G01*
X108050500Y-78720000D01*
G75*
G02*
X108100500Y-78770000I0J-50000D01*
G01*
X108100500Y-79420000D01*
G75*
G02*
X108050500Y-79470000I-50000J0D01*
G01*
G37*
%TD*%
%TO.C,D1*%
G36*
G01*
X150500000Y-91450000D02*
X150500000Y-90650000D01*
G75*
G02*
X150550000Y-90600000I50000J0D01*
G01*
X151450000Y-90600000D01*
G75*
G02*
X151500000Y-90650000I0J-50000D01*
G01*
X151500000Y-91450000D01*
G75*
G02*
X151450000Y-91500000I-50000J0D01*
G01*
X150550000Y-91500000D01*
G75*
G02*
X150500000Y-91450000I0J50000D01*
G01*
G37*
G36*
G01*
X148500000Y-92400000D02*
X148500000Y-91600000D01*
G75*
G02*
X148550000Y-91550000I50000J0D01*
G01*
X149450000Y-91550000D01*
G75*
G02*
X149500000Y-91600000I0J-50000D01*
G01*
X149500000Y-92400000D01*
G75*
G02*
X149450000Y-92450000I-50000J0D01*
G01*
X148550000Y-92450000D01*
G75*
G02*
X148500000Y-92400000I0J50000D01*
G01*
G37*
G36*
G01*
X148500000Y-90500000D02*
X148500000Y-89700000D01*
G75*
G02*
X148550000Y-89650000I50000J0D01*
G01*
X149450000Y-89650000D01*
G75*
G02*
X149500000Y-89700000I0J-50000D01*
G01*
X149500000Y-90500000D01*
G75*
G02*
X149450000Y-90550000I-50000J0D01*
G01*
X148550000Y-90550000D01*
G75*
G02*
X148500000Y-90500000I0J50000D01*
G01*
G37*
%TD*%
%TO.C,C3*%
G36*
G01*
X138162500Y-93018750D02*
X138162500Y-93981250D01*
G75*
G02*
X137893750Y-94250000I-268750J0D01*
G01*
X137356250Y-94250000D01*
G75*
G02*
X137087500Y-93981250I0J268750D01*
G01*
X137087500Y-93018750D01*
G75*
G02*
X137356250Y-92750000I268750J0D01*
G01*
X137893750Y-92750000D01*
G75*
G02*
X138162500Y-93018750I0J-268750D01*
G01*
G37*
G36*
G01*
X140037500Y-93018750D02*
X140037500Y-93981250D01*
G75*
G02*
X139768750Y-94250000I-268750J0D01*
G01*
X139231250Y-94250000D01*
G75*
G02*
X138962500Y-93981250I0J268750D01*
G01*
X138962500Y-93018750D01*
G75*
G02*
X139231250Y-92750000I268750J0D01*
G01*
X139768750Y-92750000D01*
G75*
G02*
X140037500Y-93018750I0J-268750D01*
G01*
G37*
%TD*%
%TO.C,C2*%
G36*
G01*
X135981250Y-96162500D02*
X135018750Y-96162500D01*
G75*
G02*
X134750000Y-95893750I0J268750D01*
G01*
X134750000Y-95356250D01*
G75*
G02*
X135018750Y-95087500I268750J0D01*
G01*
X135981250Y-95087500D01*
G75*
G02*
X136250000Y-95356250I0J-268750D01*
G01*
X136250000Y-95893750D01*
G75*
G02*
X135981250Y-96162500I-268750J0D01*
G01*
G37*
G36*
G01*
X135981250Y-98037500D02*
X135018750Y-98037500D01*
G75*
G02*
X134750000Y-97768750I0J268750D01*
G01*
X134750000Y-97231250D01*
G75*
G02*
X135018750Y-96962500I268750J0D01*
G01*
X135981250Y-96962500D01*
G75*
G02*
X136250000Y-97231250I0J-268750D01*
G01*
X136250000Y-97768750D01*
G75*
G02*
X135981250Y-98037500I-268750J0D01*
G01*
G37*
%TD*%
%TO.C,C1*%
G36*
G01*
X120981250Y-111037500D02*
X120018750Y-111037500D01*
G75*
G02*
X119750000Y-110768750I0J268750D01*
G01*
X119750000Y-110231250D01*
G75*
G02*
X120018750Y-109962500I268750J0D01*
G01*
X120981250Y-109962500D01*
G75*
G02*
X121250000Y-110231250I0J-268750D01*
G01*
X121250000Y-110768750D01*
G75*
G02*
X120981250Y-111037500I-268750J0D01*
G01*
G37*
G36*
G01*
X120981250Y-112912500D02*
X120018750Y-112912500D01*
G75*
G02*
X119750000Y-112643750I0J268750D01*
G01*
X119750000Y-112106250D01*
G75*
G02*
X120018750Y-111837500I268750J0D01*
G01*
X120981250Y-111837500D01*
G75*
G02*
X121250000Y-112106250I0J-268750D01*
G01*
X121250000Y-112643750D01*
G75*
G02*
X120981250Y-112912500I-268750J0D01*
G01*
G37*
%TD*%
M02*
