%TF.GenerationSoftware,KiCad,Pcbnew,(5.1.7)-1*%
%TF.CreationDate,2020-10-05T16:06:58+02:00*%
%TF.ProjectId,Templogger,54656d70-6c6f-4676-9765-722e6b696361,rev?*%
%TF.SameCoordinates,Original*%
%TF.FileFunction,Copper,L1,Top*%
%TF.FilePolarity,Positive*%
%FSLAX46Y46*%
G04 Gerber Fmt 4.6, Leading zero omitted, Abs format (unit mm)*
G04 Created by KiCad (PCBNEW (5.1.7)-1) date 2020-10-05 16:06:58*
%MOMM*%
%LPD*%
G01*
G04 APERTURE LIST*
%TA.AperFunction,ComponentPad*%
%ADD10C,1.740000*%
%TD*%
%TA.AperFunction,ComponentPad*%
%ADD11O,2.190000X1.740000*%
%TD*%
%TA.AperFunction,SMDPad,CuDef*%
%ADD12R,1.060000X0.650000*%
%TD*%
%TA.AperFunction,SMDPad,CuDef*%
%ADD13R,0.900000X0.800000*%
%TD*%
%TA.AperFunction,ComponentPad*%
%ADD14C,2.300000*%
%TD*%
%TA.AperFunction,ComponentPad*%
%ADD15R,2.300000X2.300000*%
%TD*%
%TA.AperFunction,SMDPad,CuDef*%
%ADD16R,2.500000X0.500000*%
%TD*%
%TA.AperFunction,SMDPad,CuDef*%
%ADD17R,2.500000X2.000000*%
%TD*%
%TA.AperFunction,SMDPad,CuDef*%
%ADD18R,0.740000X2.400000*%
%TD*%
%TA.AperFunction,ComponentPad*%
%ADD19O,2.000000X3.600000*%
%TD*%
%TA.AperFunction,SMDPad,CuDef*%
%ADD20R,1.525000X0.650000*%
%TD*%
%TA.AperFunction,ViaPad*%
%ADD21C,0.800000*%
%TD*%
%TA.AperFunction,Conductor*%
%ADD22C,0.250000*%
%TD*%
%TA.AperFunction,Conductor*%
%ADD23C,0.500000*%
%TD*%
%TA.AperFunction,Conductor*%
%ADD24C,0.200000*%
%TD*%
%TA.AperFunction,Conductor*%
%ADD25C,0.254000*%
%TD*%
%TA.AperFunction,Conductor*%
%ADD26C,0.100000*%
%TD*%
G04 APERTURE END LIST*
%TO.P,R3,2*%
%TO.N,SDA*%
%TA.AperFunction,SMDPad,CuDef*%
G36*
G01*
X134643750Y-104287500D02*
X135556250Y-104287500D01*
G75*
G02*
X135800000Y-104531250I0J-243750D01*
G01*
X135800000Y-105018750D01*
G75*
G02*
X135556250Y-105262500I-243750J0D01*
G01*
X134643750Y-105262500D01*
G75*
G02*
X134400000Y-105018750I0J243750D01*
G01*
X134400000Y-104531250D01*
G75*
G02*
X134643750Y-104287500I243750J0D01*
G01*
G37*
%TD.AperFunction*%
%TO.P,R3,1*%
%TO.N,+3V3*%
%TA.AperFunction,SMDPad,CuDef*%
G36*
G01*
X134643750Y-102412500D02*
X135556250Y-102412500D01*
G75*
G02*
X135800000Y-102656250I0J-243750D01*
G01*
X135800000Y-103143750D01*
G75*
G02*
X135556250Y-103387500I-243750J0D01*
G01*
X134643750Y-103387500D01*
G75*
G02*
X134400000Y-103143750I0J243750D01*
G01*
X134400000Y-102656250D01*
G75*
G02*
X134643750Y-102412500I243750J0D01*
G01*
G37*
%TD.AperFunction*%
%TD*%
%TO.P,R2,2*%
%TO.N,SCL*%
%TA.AperFunction,SMDPad,CuDef*%
G36*
G01*
X132643750Y-104287500D02*
X133556250Y-104287500D01*
G75*
G02*
X133800000Y-104531250I0J-243750D01*
G01*
X133800000Y-105018750D01*
G75*
G02*
X133556250Y-105262500I-243750J0D01*
G01*
X132643750Y-105262500D01*
G75*
G02*
X132400000Y-105018750I0J243750D01*
G01*
X132400000Y-104531250D01*
G75*
G02*
X132643750Y-104287500I243750J0D01*
G01*
G37*
%TD.AperFunction*%
%TO.P,R2,1*%
%TO.N,+3V3*%
%TA.AperFunction,SMDPad,CuDef*%
G36*
G01*
X132643750Y-102412500D02*
X133556250Y-102412500D01*
G75*
G02*
X133800000Y-102656250I0J-243750D01*
G01*
X133800000Y-103143750D01*
G75*
G02*
X133556250Y-103387500I-243750J0D01*
G01*
X132643750Y-103387500D01*
G75*
G02*
X132400000Y-103143750I0J243750D01*
G01*
X132400000Y-102656250D01*
G75*
G02*
X132643750Y-102412500I243750J0D01*
G01*
G37*
%TD.AperFunction*%
%TD*%
D10*
%TO.P,J9,4*%
%TO.N,GNDD*%
X144380000Y-109900000D03*
%TO.P,J9,3*%
%TO.N,SDA*%
X141840000Y-109900000D03*
%TO.P,J9,2*%
%TO.N,SCL*%
X139300000Y-109900000D03*
%TO.P,J9,1*%
%TO.N,+3V3*%
%TA.AperFunction,ComponentPad*%
G36*
G01*
X135890000Y-110520001D02*
X135890000Y-109279999D01*
G75*
G02*
X136139999Y-109030000I249999J0D01*
G01*
X137380001Y-109030000D01*
G75*
G02*
X137630000Y-109279999I0J-249999D01*
G01*
X137630000Y-110520001D01*
G75*
G02*
X137380001Y-110770000I-249999J0D01*
G01*
X136139999Y-110770000D01*
G75*
G02*
X135890000Y-110520001I0J249999D01*
G01*
G37*
%TD.AperFunction*%
%TD*%
D11*
%TO.P,J8,2*%
%TO.N,Net-(D1-Pad3)*%
X148800000Y-80160000D03*
%TO.P,J8,1*%
%TO.N,+5V*%
%TA.AperFunction,ComponentPad*%
G36*
G01*
X149645001Y-83570000D02*
X147954999Y-83570000D01*
G75*
G02*
X147705000Y-83320001I0J249999D01*
G01*
X147705000Y-82079999D01*
G75*
G02*
X147954999Y-81830000I249999J0D01*
G01*
X149645001Y-81830000D01*
G75*
G02*
X149895000Y-82079999I0J-249999D01*
G01*
X149895000Y-83320001D01*
G75*
G02*
X149645001Y-83570000I-249999J0D01*
G01*
G37*
%TD.AperFunction*%
%TD*%
%TO.P,C8,2*%
%TO.N,GNDD*%
%TA.AperFunction,SMDPad,CuDef*%
G36*
G01*
X107612500Y-95343750D02*
X107612500Y-96256250D01*
G75*
G02*
X107368750Y-96500000I-243750J0D01*
G01*
X106881250Y-96500000D01*
G75*
G02*
X106637500Y-96256250I0J243750D01*
G01*
X106637500Y-95343750D01*
G75*
G02*
X106881250Y-95100000I243750J0D01*
G01*
X107368750Y-95100000D01*
G75*
G02*
X107612500Y-95343750I0J-243750D01*
G01*
G37*
%TD.AperFunction*%
%TO.P,C8,1*%
%TO.N,+3V3*%
%TA.AperFunction,SMDPad,CuDef*%
G36*
G01*
X109487500Y-95343750D02*
X109487500Y-96256250D01*
G75*
G02*
X109243750Y-96500000I-243750J0D01*
G01*
X108756250Y-96500000D01*
G75*
G02*
X108512500Y-96256250I0J243750D01*
G01*
X108512500Y-95343750D01*
G75*
G02*
X108756250Y-95100000I243750J0D01*
G01*
X109243750Y-95100000D01*
G75*
G02*
X109487500Y-95343750I0J-243750D01*
G01*
G37*
%TD.AperFunction*%
%TD*%
%TO.P,C7,2*%
%TO.N,GNDD*%
%TA.AperFunction,SMDPad,CuDef*%
G36*
G01*
X107687500Y-85743750D02*
X107687500Y-86656250D01*
G75*
G02*
X107443750Y-86900000I-243750J0D01*
G01*
X106956250Y-86900000D01*
G75*
G02*
X106712500Y-86656250I0J243750D01*
G01*
X106712500Y-85743750D01*
G75*
G02*
X106956250Y-85500000I243750J0D01*
G01*
X107443750Y-85500000D01*
G75*
G02*
X107687500Y-85743750I0J-243750D01*
G01*
G37*
%TD.AperFunction*%
%TO.P,C7,1*%
%TO.N,+3V3*%
%TA.AperFunction,SMDPad,CuDef*%
G36*
G01*
X109562500Y-85743750D02*
X109562500Y-86656250D01*
G75*
G02*
X109318750Y-86900000I-243750J0D01*
G01*
X108831250Y-86900000D01*
G75*
G02*
X108587500Y-86656250I0J243750D01*
G01*
X108587500Y-85743750D01*
G75*
G02*
X108831250Y-85500000I243750J0D01*
G01*
X109318750Y-85500000D01*
G75*
G02*
X109562500Y-85743750I0J-243750D01*
G01*
G37*
%TD.AperFunction*%
%TD*%
%TO.P,C6,2*%
%TO.N,GNDD*%
%TA.AperFunction,SMDPad,CuDef*%
G36*
G01*
X107487500Y-105643750D02*
X107487500Y-106556250D01*
G75*
G02*
X107243750Y-106800000I-243750J0D01*
G01*
X106756250Y-106800000D01*
G75*
G02*
X106512500Y-106556250I0J243750D01*
G01*
X106512500Y-105643750D01*
G75*
G02*
X106756250Y-105400000I243750J0D01*
G01*
X107243750Y-105400000D01*
G75*
G02*
X107487500Y-105643750I0J-243750D01*
G01*
G37*
%TD.AperFunction*%
%TO.P,C6,1*%
%TO.N,+3V3*%
%TA.AperFunction,SMDPad,CuDef*%
G36*
G01*
X109362500Y-105643750D02*
X109362500Y-106556250D01*
G75*
G02*
X109118750Y-106800000I-243750J0D01*
G01*
X108631250Y-106800000D01*
G75*
G02*
X108387500Y-106556250I0J243750D01*
G01*
X108387500Y-105643750D01*
G75*
G02*
X108631250Y-105400000I243750J0D01*
G01*
X109118750Y-105400000D01*
G75*
G02*
X109362500Y-105643750I0J-243750D01*
G01*
G37*
%TD.AperFunction*%
%TD*%
%TO.P,C5,2*%
%TO.N,GNDD*%
%TA.AperFunction,SMDPad,CuDef*%
G36*
G01*
X120012500Y-101743750D02*
X120012500Y-102656250D01*
G75*
G02*
X119768750Y-102900000I-243750J0D01*
G01*
X119281250Y-102900000D01*
G75*
G02*
X119037500Y-102656250I0J243750D01*
G01*
X119037500Y-101743750D01*
G75*
G02*
X119281250Y-101500000I243750J0D01*
G01*
X119768750Y-101500000D01*
G75*
G02*
X120012500Y-101743750I0J-243750D01*
G01*
G37*
%TD.AperFunction*%
%TO.P,C5,1*%
%TO.N,+3V3*%
%TA.AperFunction,SMDPad,CuDef*%
G36*
G01*
X121887500Y-101743750D02*
X121887500Y-102656250D01*
G75*
G02*
X121643750Y-102900000I-243750J0D01*
G01*
X121156250Y-102900000D01*
G75*
G02*
X120912500Y-102656250I0J243750D01*
G01*
X120912500Y-101743750D01*
G75*
G02*
X121156250Y-101500000I243750J0D01*
G01*
X121643750Y-101500000D01*
G75*
G02*
X121887500Y-101743750I0J-243750D01*
G01*
G37*
%TD.AperFunction*%
%TD*%
%TO.P,C4,2*%
%TO.N,GNDD*%
%TA.AperFunction,SMDPad,CuDef*%
G36*
G01*
X125812500Y-87543750D02*
X125812500Y-88456250D01*
G75*
G02*
X125568750Y-88700000I-243750J0D01*
G01*
X125081250Y-88700000D01*
G75*
G02*
X124837500Y-88456250I0J243750D01*
G01*
X124837500Y-87543750D01*
G75*
G02*
X125081250Y-87300000I243750J0D01*
G01*
X125568750Y-87300000D01*
G75*
G02*
X125812500Y-87543750I0J-243750D01*
G01*
G37*
%TD.AperFunction*%
%TO.P,C4,1*%
%TO.N,+3V3*%
%TA.AperFunction,SMDPad,CuDef*%
G36*
G01*
X127687500Y-87543750D02*
X127687500Y-88456250D01*
G75*
G02*
X127443750Y-88700000I-243750J0D01*
G01*
X126956250Y-88700000D01*
G75*
G02*
X126712500Y-88456250I0J243750D01*
G01*
X126712500Y-87543750D01*
G75*
G02*
X126956250Y-87300000I243750J0D01*
G01*
X127443750Y-87300000D01*
G75*
G02*
X127687500Y-87543750I0J-243750D01*
G01*
G37*
%TD.AperFunction*%
%TD*%
D12*
%TO.P,U3,5*%
%TO.N,+3V3*%
X137500000Y-97450000D03*
%TO.P,U3,4*%
%TO.N,N/C*%
X137500000Y-95550000D03*
%TO.P,U3,3*%
%TO.N,+5V*%
X139700000Y-95550000D03*
%TO.P,U3,2*%
%TO.N,GNDD*%
X139700000Y-96500000D03*
%TO.P,U3,1*%
%TO.N,+5V*%
X139700000Y-97450000D03*
%TD*%
%TO.P,U2,5*%
%TO.N,+5V*%
X139500000Y-101000000D03*
%TO.P,U2,6*%
%TO.N,D_P*%
X139500000Y-100050000D03*
%TO.P,U2,4*%
%TO.N,D_N*%
X139500000Y-101950000D03*
%TO.P,U2,3*%
%TO.N,USB-*%
X137300000Y-101950000D03*
%TO.P,U2,2*%
%TO.N,GNDD*%
X137300000Y-101000000D03*
%TO.P,U2,1*%
%TO.N,USB+*%
X137300000Y-100050000D03*
%TD*%
%TO.P,U1,32*%
%TO.N,GNDD*%
%TA.AperFunction,SMDPad,CuDef*%
G36*
G01*
X127850000Y-92625000D02*
X129100000Y-92625000D01*
G75*
G02*
X129225000Y-92750000I0J-125000D01*
G01*
X129225000Y-93000000D01*
G75*
G02*
X129100000Y-93125000I-125000J0D01*
G01*
X127850000Y-93125000D01*
G75*
G02*
X127725000Y-93000000I0J125000D01*
G01*
X127725000Y-92750000D01*
G75*
G02*
X127850000Y-92625000I125000J0D01*
G01*
G37*
%TD.AperFunction*%
%TO.P,U1,31*%
%TO.N,Net-(R1-Pad1)*%
%TA.AperFunction,SMDPad,CuDef*%
G36*
G01*
X127850000Y-93425000D02*
X129100000Y-93425000D01*
G75*
G02*
X129225000Y-93550000I0J-125000D01*
G01*
X129225000Y-93800000D01*
G75*
G02*
X129100000Y-93925000I-125000J0D01*
G01*
X127850000Y-93925000D01*
G75*
G02*
X127725000Y-93800000I0J125000D01*
G01*
X127725000Y-93550000D01*
G75*
G02*
X127850000Y-93425000I125000J0D01*
G01*
G37*
%TD.AperFunction*%
%TO.P,U1,30*%
%TO.N,N/C*%
%TA.AperFunction,SMDPad,CuDef*%
G36*
G01*
X127850000Y-94225000D02*
X129100000Y-94225000D01*
G75*
G02*
X129225000Y-94350000I0J-125000D01*
G01*
X129225000Y-94600000D01*
G75*
G02*
X129100000Y-94725000I-125000J0D01*
G01*
X127850000Y-94725000D01*
G75*
G02*
X127725000Y-94600000I0J125000D01*
G01*
X127725000Y-94350000D01*
G75*
G02*
X127850000Y-94225000I125000J0D01*
G01*
G37*
%TD.AperFunction*%
%TO.P,U1,29*%
%TA.AperFunction,SMDPad,CuDef*%
G36*
G01*
X127850000Y-95025000D02*
X129100000Y-95025000D01*
G75*
G02*
X129225000Y-95150000I0J-125000D01*
G01*
X129225000Y-95400000D01*
G75*
G02*
X129100000Y-95525000I-125000J0D01*
G01*
X127850000Y-95525000D01*
G75*
G02*
X127725000Y-95400000I0J125000D01*
G01*
X127725000Y-95150000D01*
G75*
G02*
X127850000Y-95025000I125000J0D01*
G01*
G37*
%TD.AperFunction*%
%TO.P,U1,28*%
%TA.AperFunction,SMDPad,CuDef*%
G36*
G01*
X127850000Y-95825000D02*
X129100000Y-95825000D01*
G75*
G02*
X129225000Y-95950000I0J-125000D01*
G01*
X129225000Y-96200000D01*
G75*
G02*
X129100000Y-96325000I-125000J0D01*
G01*
X127850000Y-96325000D01*
G75*
G02*
X127725000Y-96200000I0J125000D01*
G01*
X127725000Y-95950000D01*
G75*
G02*
X127850000Y-95825000I125000J0D01*
G01*
G37*
%TD.AperFunction*%
%TO.P,U1,27*%
%TA.AperFunction,SMDPad,CuDef*%
G36*
G01*
X127850000Y-96625000D02*
X129100000Y-96625000D01*
G75*
G02*
X129225000Y-96750000I0J-125000D01*
G01*
X129225000Y-97000000D01*
G75*
G02*
X129100000Y-97125000I-125000J0D01*
G01*
X127850000Y-97125000D01*
G75*
G02*
X127725000Y-97000000I0J125000D01*
G01*
X127725000Y-96750000D01*
G75*
G02*
X127850000Y-96625000I125000J0D01*
G01*
G37*
%TD.AperFunction*%
%TO.P,U1,26*%
%TO.N,relay*%
%TA.AperFunction,SMDPad,CuDef*%
G36*
G01*
X127850000Y-97425000D02*
X129100000Y-97425000D01*
G75*
G02*
X129225000Y-97550000I0J-125000D01*
G01*
X129225000Y-97800000D01*
G75*
G02*
X129100000Y-97925000I-125000J0D01*
G01*
X127850000Y-97925000D01*
G75*
G02*
X127725000Y-97800000I0J125000D01*
G01*
X127725000Y-97550000D01*
G75*
G02*
X127850000Y-97425000I125000J0D01*
G01*
G37*
%TD.AperFunction*%
%TO.P,U1,25*%
%TO.N,N/C*%
%TA.AperFunction,SMDPad,CuDef*%
G36*
G01*
X127850000Y-98225000D02*
X129100000Y-98225000D01*
G75*
G02*
X129225000Y-98350000I0J-125000D01*
G01*
X129225000Y-98600000D01*
G75*
G02*
X129100000Y-98725000I-125000J0D01*
G01*
X127850000Y-98725000D01*
G75*
G02*
X127725000Y-98600000I0J125000D01*
G01*
X127725000Y-98350000D01*
G75*
G02*
X127850000Y-98225000I125000J0D01*
G01*
G37*
%TD.AperFunction*%
%TO.P,U1,24*%
%TO.N,SWCLK*%
%TA.AperFunction,SMDPad,CuDef*%
G36*
G01*
X126975000Y-99100000D02*
X127225000Y-99100000D01*
G75*
G02*
X127350000Y-99225000I0J-125000D01*
G01*
X127350000Y-100475000D01*
G75*
G02*
X127225000Y-100600000I-125000J0D01*
G01*
X126975000Y-100600000D01*
G75*
G02*
X126850000Y-100475000I0J125000D01*
G01*
X126850000Y-99225000D01*
G75*
G02*
X126975000Y-99100000I125000J0D01*
G01*
G37*
%TD.AperFunction*%
%TO.P,U1,23*%
%TO.N,SWDIO*%
%TA.AperFunction,SMDPad,CuDef*%
G36*
G01*
X126175000Y-99100000D02*
X126425000Y-99100000D01*
G75*
G02*
X126550000Y-99225000I0J-125000D01*
G01*
X126550000Y-100475000D01*
G75*
G02*
X126425000Y-100600000I-125000J0D01*
G01*
X126175000Y-100600000D01*
G75*
G02*
X126050000Y-100475000I0J125000D01*
G01*
X126050000Y-99225000D01*
G75*
G02*
X126175000Y-99100000I125000J0D01*
G01*
G37*
%TD.AperFunction*%
%TO.P,U1,22*%
%TO.N,USB+*%
%TA.AperFunction,SMDPad,CuDef*%
G36*
G01*
X125375000Y-99100000D02*
X125625000Y-99100000D01*
G75*
G02*
X125750000Y-99225000I0J-125000D01*
G01*
X125750000Y-100475000D01*
G75*
G02*
X125625000Y-100600000I-125000J0D01*
G01*
X125375000Y-100600000D01*
G75*
G02*
X125250000Y-100475000I0J125000D01*
G01*
X125250000Y-99225000D01*
G75*
G02*
X125375000Y-99100000I125000J0D01*
G01*
G37*
%TD.AperFunction*%
%TO.P,U1,21*%
%TO.N,USB-*%
%TA.AperFunction,SMDPad,CuDef*%
G36*
G01*
X124575000Y-99100000D02*
X124825000Y-99100000D01*
G75*
G02*
X124950000Y-99225000I0J-125000D01*
G01*
X124950000Y-100475000D01*
G75*
G02*
X124825000Y-100600000I-125000J0D01*
G01*
X124575000Y-100600000D01*
G75*
G02*
X124450000Y-100475000I0J125000D01*
G01*
X124450000Y-99225000D01*
G75*
G02*
X124575000Y-99100000I125000J0D01*
G01*
G37*
%TD.AperFunction*%
%TO.P,U1,20*%
%TO.N,SDA*%
%TA.AperFunction,SMDPad,CuDef*%
G36*
G01*
X123775000Y-99100000D02*
X124025000Y-99100000D01*
G75*
G02*
X124150000Y-99225000I0J-125000D01*
G01*
X124150000Y-100475000D01*
G75*
G02*
X124025000Y-100600000I-125000J0D01*
G01*
X123775000Y-100600000D01*
G75*
G02*
X123650000Y-100475000I0J125000D01*
G01*
X123650000Y-99225000D01*
G75*
G02*
X123775000Y-99100000I125000J0D01*
G01*
G37*
%TD.AperFunction*%
%TO.P,U1,19*%
%TO.N,SCL*%
%TA.AperFunction,SMDPad,CuDef*%
G36*
G01*
X122975000Y-99100000D02*
X123225000Y-99100000D01*
G75*
G02*
X123350000Y-99225000I0J-125000D01*
G01*
X123350000Y-100475000D01*
G75*
G02*
X123225000Y-100600000I-125000J0D01*
G01*
X122975000Y-100600000D01*
G75*
G02*
X122850000Y-100475000I0J125000D01*
G01*
X122850000Y-99225000D01*
G75*
G02*
X122975000Y-99100000I125000J0D01*
G01*
G37*
%TD.AperFunction*%
%TO.P,U1,18*%
%TO.N,N/C*%
%TA.AperFunction,SMDPad,CuDef*%
G36*
G01*
X122175000Y-99100000D02*
X122425000Y-99100000D01*
G75*
G02*
X122550000Y-99225000I0J-125000D01*
G01*
X122550000Y-100475000D01*
G75*
G02*
X122425000Y-100600000I-125000J0D01*
G01*
X122175000Y-100600000D01*
G75*
G02*
X122050000Y-100475000I0J125000D01*
G01*
X122050000Y-99225000D01*
G75*
G02*
X122175000Y-99100000I125000J0D01*
G01*
G37*
%TD.AperFunction*%
%TO.P,U1,17*%
%TO.N,+3V3*%
%TA.AperFunction,SMDPad,CuDef*%
G36*
G01*
X121375000Y-99100000D02*
X121625000Y-99100000D01*
G75*
G02*
X121750000Y-99225000I0J-125000D01*
G01*
X121750000Y-100475000D01*
G75*
G02*
X121625000Y-100600000I-125000J0D01*
G01*
X121375000Y-100600000D01*
G75*
G02*
X121250000Y-100475000I0J125000D01*
G01*
X121250000Y-99225000D01*
G75*
G02*
X121375000Y-99100000I125000J0D01*
G01*
G37*
%TD.AperFunction*%
%TO.P,U1,16*%
%TO.N,GNDD*%
%TA.AperFunction,SMDPad,CuDef*%
G36*
G01*
X119500000Y-98225000D02*
X120750000Y-98225000D01*
G75*
G02*
X120875000Y-98350000I0J-125000D01*
G01*
X120875000Y-98600000D01*
G75*
G02*
X120750000Y-98725000I-125000J0D01*
G01*
X119500000Y-98725000D01*
G75*
G02*
X119375000Y-98600000I0J125000D01*
G01*
X119375000Y-98350000D01*
G75*
G02*
X119500000Y-98225000I125000J0D01*
G01*
G37*
%TD.AperFunction*%
%TO.P,U1,15*%
%TO.N,CS4*%
%TA.AperFunction,SMDPad,CuDef*%
G36*
G01*
X119500000Y-97425000D02*
X120750000Y-97425000D01*
G75*
G02*
X120875000Y-97550000I0J-125000D01*
G01*
X120875000Y-97800000D01*
G75*
G02*
X120750000Y-97925000I-125000J0D01*
G01*
X119500000Y-97925000D01*
G75*
G02*
X119375000Y-97800000I0J125000D01*
G01*
X119375000Y-97550000D01*
G75*
G02*
X119500000Y-97425000I125000J0D01*
G01*
G37*
%TD.AperFunction*%
%TO.P,U1,14*%
%TO.N,CS3*%
%TA.AperFunction,SMDPad,CuDef*%
G36*
G01*
X119500000Y-96625000D02*
X120750000Y-96625000D01*
G75*
G02*
X120875000Y-96750000I0J-125000D01*
G01*
X120875000Y-97000000D01*
G75*
G02*
X120750000Y-97125000I-125000J0D01*
G01*
X119500000Y-97125000D01*
G75*
G02*
X119375000Y-97000000I0J125000D01*
G01*
X119375000Y-96750000D01*
G75*
G02*
X119500000Y-96625000I125000J0D01*
G01*
G37*
%TD.AperFunction*%
%TO.P,U1,13*%
%TO.N,N/C*%
%TA.AperFunction,SMDPad,CuDef*%
G36*
G01*
X119500000Y-95825000D02*
X120750000Y-95825000D01*
G75*
G02*
X120875000Y-95950000I0J-125000D01*
G01*
X120875000Y-96200000D01*
G75*
G02*
X120750000Y-96325000I-125000J0D01*
G01*
X119500000Y-96325000D01*
G75*
G02*
X119375000Y-96200000I0J125000D01*
G01*
X119375000Y-95950000D01*
G75*
G02*
X119500000Y-95825000I125000J0D01*
G01*
G37*
%TD.AperFunction*%
%TO.P,U1,12*%
%TO.N,MISO*%
%TA.AperFunction,SMDPad,CuDef*%
G36*
G01*
X119500000Y-95025000D02*
X120750000Y-95025000D01*
G75*
G02*
X120875000Y-95150000I0J-125000D01*
G01*
X120875000Y-95400000D01*
G75*
G02*
X120750000Y-95525000I-125000J0D01*
G01*
X119500000Y-95525000D01*
G75*
G02*
X119375000Y-95400000I0J125000D01*
G01*
X119375000Y-95150000D01*
G75*
G02*
X119500000Y-95025000I125000J0D01*
G01*
G37*
%TD.AperFunction*%
%TO.P,U1,11*%
%TO.N,SCK*%
%TA.AperFunction,SMDPad,CuDef*%
G36*
G01*
X119500000Y-94225000D02*
X120750000Y-94225000D01*
G75*
G02*
X120875000Y-94350000I0J-125000D01*
G01*
X120875000Y-94600000D01*
G75*
G02*
X120750000Y-94725000I-125000J0D01*
G01*
X119500000Y-94725000D01*
G75*
G02*
X119375000Y-94600000I0J125000D01*
G01*
X119375000Y-94350000D01*
G75*
G02*
X119500000Y-94225000I125000J0D01*
G01*
G37*
%TD.AperFunction*%
%TO.P,U1,10*%
%TO.N,CS2*%
%TA.AperFunction,SMDPad,CuDef*%
G36*
G01*
X119500000Y-93425000D02*
X120750000Y-93425000D01*
G75*
G02*
X120875000Y-93550000I0J-125000D01*
G01*
X120875000Y-93800000D01*
G75*
G02*
X120750000Y-93925000I-125000J0D01*
G01*
X119500000Y-93925000D01*
G75*
G02*
X119375000Y-93800000I0J125000D01*
G01*
X119375000Y-93550000D01*
G75*
G02*
X119500000Y-93425000I125000J0D01*
G01*
G37*
%TD.AperFunction*%
%TO.P,U1,9*%
%TO.N,CS1*%
%TA.AperFunction,SMDPad,CuDef*%
G36*
G01*
X119500000Y-92625000D02*
X120750000Y-92625000D01*
G75*
G02*
X120875000Y-92750000I0J-125000D01*
G01*
X120875000Y-93000000D01*
G75*
G02*
X120750000Y-93125000I-125000J0D01*
G01*
X119500000Y-93125000D01*
G75*
G02*
X119375000Y-93000000I0J125000D01*
G01*
X119375000Y-92750000D01*
G75*
G02*
X119500000Y-92625000I125000J0D01*
G01*
G37*
%TD.AperFunction*%
%TO.P,U1,8*%
%TO.N,N/C*%
%TA.AperFunction,SMDPad,CuDef*%
G36*
G01*
X121375000Y-90750000D02*
X121625000Y-90750000D01*
G75*
G02*
X121750000Y-90875000I0J-125000D01*
G01*
X121750000Y-92125000D01*
G75*
G02*
X121625000Y-92250000I-125000J0D01*
G01*
X121375000Y-92250000D01*
G75*
G02*
X121250000Y-92125000I0J125000D01*
G01*
X121250000Y-90875000D01*
G75*
G02*
X121375000Y-90750000I125000J0D01*
G01*
G37*
%TD.AperFunction*%
%TO.P,U1,7*%
%TA.AperFunction,SMDPad,CuDef*%
G36*
G01*
X122175000Y-90750000D02*
X122425000Y-90750000D01*
G75*
G02*
X122550000Y-90875000I0J-125000D01*
G01*
X122550000Y-92125000D01*
G75*
G02*
X122425000Y-92250000I-125000J0D01*
G01*
X122175000Y-92250000D01*
G75*
G02*
X122050000Y-92125000I0J125000D01*
G01*
X122050000Y-90875000D01*
G75*
G02*
X122175000Y-90750000I125000J0D01*
G01*
G37*
%TD.AperFunction*%
%TO.P,U1,6*%
%TA.AperFunction,SMDPad,CuDef*%
G36*
G01*
X122975000Y-90750000D02*
X123225000Y-90750000D01*
G75*
G02*
X123350000Y-90875000I0J-125000D01*
G01*
X123350000Y-92125000D01*
G75*
G02*
X123225000Y-92250000I-125000J0D01*
G01*
X122975000Y-92250000D01*
G75*
G02*
X122850000Y-92125000I0J125000D01*
G01*
X122850000Y-90875000D01*
G75*
G02*
X122975000Y-90750000I125000J0D01*
G01*
G37*
%TD.AperFunction*%
%TO.P,U1,5*%
%TO.N,+3V3*%
%TA.AperFunction,SMDPad,CuDef*%
G36*
G01*
X123775000Y-90750000D02*
X124025000Y-90750000D01*
G75*
G02*
X124150000Y-90875000I0J-125000D01*
G01*
X124150000Y-92125000D01*
G75*
G02*
X124025000Y-92250000I-125000J0D01*
G01*
X123775000Y-92250000D01*
G75*
G02*
X123650000Y-92125000I0J125000D01*
G01*
X123650000Y-90875000D01*
G75*
G02*
X123775000Y-90750000I125000J0D01*
G01*
G37*
%TD.AperFunction*%
%TO.P,U1,4*%
%TO.N,NRST*%
%TA.AperFunction,SMDPad,CuDef*%
G36*
G01*
X124575000Y-90750000D02*
X124825000Y-90750000D01*
G75*
G02*
X124950000Y-90875000I0J-125000D01*
G01*
X124950000Y-92125000D01*
G75*
G02*
X124825000Y-92250000I-125000J0D01*
G01*
X124575000Y-92250000D01*
G75*
G02*
X124450000Y-92125000I0J125000D01*
G01*
X124450000Y-90875000D01*
G75*
G02*
X124575000Y-90750000I125000J0D01*
G01*
G37*
%TD.AperFunction*%
%TO.P,U1,3*%
%TO.N,N/C*%
%TA.AperFunction,SMDPad,CuDef*%
G36*
G01*
X125375000Y-90750000D02*
X125625000Y-90750000D01*
G75*
G02*
X125750000Y-90875000I0J-125000D01*
G01*
X125750000Y-92125000D01*
G75*
G02*
X125625000Y-92250000I-125000J0D01*
G01*
X125375000Y-92250000D01*
G75*
G02*
X125250000Y-92125000I0J125000D01*
G01*
X125250000Y-90875000D01*
G75*
G02*
X125375000Y-90750000I125000J0D01*
G01*
G37*
%TD.AperFunction*%
%TO.P,U1,2*%
%TA.AperFunction,SMDPad,CuDef*%
G36*
G01*
X126175000Y-90750000D02*
X126425000Y-90750000D01*
G75*
G02*
X126550000Y-90875000I0J-125000D01*
G01*
X126550000Y-92125000D01*
G75*
G02*
X126425000Y-92250000I-125000J0D01*
G01*
X126175000Y-92250000D01*
G75*
G02*
X126050000Y-92125000I0J125000D01*
G01*
X126050000Y-90875000D01*
G75*
G02*
X126175000Y-90750000I125000J0D01*
G01*
G37*
%TD.AperFunction*%
%TO.P,U1,1*%
%TO.N,+3V3*%
%TA.AperFunction,SMDPad,CuDef*%
G36*
G01*
X126975000Y-90750000D02*
X127225000Y-90750000D01*
G75*
G02*
X127350000Y-90875000I0J-125000D01*
G01*
X127350000Y-92125000D01*
G75*
G02*
X127225000Y-92250000I-125000J0D01*
G01*
X126975000Y-92250000D01*
G75*
G02*
X126850000Y-92125000I0J125000D01*
G01*
X126850000Y-90875000D01*
G75*
G02*
X126975000Y-90750000I125000J0D01*
G01*
G37*
%TD.AperFunction*%
%TD*%
%TO.P,R1,2*%
%TO.N,GNDD*%
%TA.AperFunction,SMDPad,CuDef*%
G36*
G01*
X131887500Y-94456250D02*
X131887500Y-93543750D01*
G75*
G02*
X132131250Y-93300000I243750J0D01*
G01*
X132618750Y-93300000D01*
G75*
G02*
X132862500Y-93543750I0J-243750D01*
G01*
X132862500Y-94456250D01*
G75*
G02*
X132618750Y-94700000I-243750J0D01*
G01*
X132131250Y-94700000D01*
G75*
G02*
X131887500Y-94456250I0J243750D01*
G01*
G37*
%TD.AperFunction*%
%TO.P,R1,1*%
%TO.N,Net-(R1-Pad1)*%
%TA.AperFunction,SMDPad,CuDef*%
G36*
G01*
X130012500Y-94456250D02*
X130012500Y-93543750D01*
G75*
G02*
X130256250Y-93300000I243750J0D01*
G01*
X130743750Y-93300000D01*
G75*
G02*
X130987500Y-93543750I0J-243750D01*
G01*
X130987500Y-94456250D01*
G75*
G02*
X130743750Y-94700000I-243750J0D01*
G01*
X130256250Y-94700000D01*
G75*
G02*
X130012500Y-94456250I0J243750D01*
G01*
G37*
%TD.AperFunction*%
%TD*%
D13*
%TO.P,Q1,3*%
%TO.N,Net-(D1-Pad3)*%
X145000000Y-91000000D03*
%TO.P,Q1,2*%
%TO.N,GNDD*%
X147000000Y-90050000D03*
%TO.P,Q1,1*%
%TO.N,relay*%
X147000000Y-91950000D03*
%TD*%
D14*
%TO.P,K1,5*%
%TO.N,+5V*%
X149780000Y-85120000D03*
%TO.P,K1,4*%
%TO.N,N/C*%
X134540000Y-85120000D03*
%TO.P,K1,3*%
%TO.N,Net-(J5-Pad1)*%
X132000000Y-77500000D03*
%TO.P,K1,2*%
%TO.N,Net-(J5-Pad2)*%
X139620000Y-77500000D03*
D15*
%TO.P,K1,1*%
%TO.N,Net-(D1-Pad3)*%
X149780000Y-77500000D03*
%TD*%
D16*
%TO.P,J7,5*%
%TO.N,N/C*%
X143000000Y-98800000D03*
%TO.P,J7,4*%
%TO.N,GNDD*%
X143000000Y-99600000D03*
%TO.P,J7,3*%
%TO.N,D_P*%
X143000000Y-100400000D03*
%TO.P,J7,2*%
%TO.N,D_N*%
X143000000Y-101200000D03*
%TO.P,J7,1*%
%TO.N,+5V*%
X143000000Y-102000000D03*
D17*
%TO.P,J7,6*%
%TO.N,N/C*%
X143000000Y-96000000D03*
X143000000Y-104800000D03*
X148500000Y-96000000D03*
X148500000Y-104800000D03*
%TD*%
D18*
%TO.P,J6,10*%
%TO.N,NRST*%
X123460000Y-111500000D03*
%TO.P,J6,9*%
%TO.N,GNDD*%
X123460000Y-107600000D03*
%TO.P,J6,8*%
%TO.N,N/C*%
X124730000Y-111500000D03*
%TO.P,J6,7*%
X124730000Y-107600000D03*
%TO.P,J6,6*%
X126000000Y-111500000D03*
%TO.P,J6,5*%
%TO.N,GNDD*%
X126000000Y-107600000D03*
%TO.P,J6,4*%
%TO.N,SWCLK*%
X127270000Y-111500000D03*
%TO.P,J6,3*%
%TO.N,GNDD*%
X127270000Y-107600000D03*
%TO.P,J6,2*%
%TO.N,SWDIO*%
X128540000Y-111500000D03*
%TO.P,J6,1*%
%TO.N,+3V3*%
X128540000Y-107600000D03*
%TD*%
D19*
%TO.P,J5,2*%
%TO.N,Net-(J5-Pad2)*%
X120000000Y-80000000D03*
%TO.P,J5,1*%
%TO.N,Net-(J5-Pad1)*%
%TA.AperFunction,ComponentPad*%
G36*
G01*
X126000000Y-78450000D02*
X126000000Y-81550000D01*
G75*
G02*
X125750000Y-81800000I-250000J0D01*
G01*
X124250000Y-81800000D01*
G75*
G02*
X124000000Y-81550000I0J250000D01*
G01*
X124000000Y-78450000D01*
G75*
G02*
X124250000Y-78200000I250000J0D01*
G01*
X125750000Y-78200000D01*
G75*
G02*
X126000000Y-78450000I0J-250000D01*
G01*
G37*
%TD.AperFunction*%
%TD*%
D11*
%TO.P,J4,2*%
%TO.N,Net-(IC4-Pad3)*%
X101000000Y-112440000D03*
%TO.P,J4,1*%
%TO.N,Net-(IC4-Pad2)*%
%TA.AperFunction,ComponentPad*%
G36*
G01*
X100154999Y-109030000D02*
X101845001Y-109030000D01*
G75*
G02*
X102095000Y-109279999I0J-249999D01*
G01*
X102095000Y-110520001D01*
G75*
G02*
X101845001Y-110770000I-249999J0D01*
G01*
X100154999Y-110770000D01*
G75*
G02*
X99905000Y-110520001I0J249999D01*
G01*
X99905000Y-109279999D01*
G75*
G02*
X100154999Y-109030000I249999J0D01*
G01*
G37*
%TD.AperFunction*%
%TD*%
%TO.P,J3,2*%
%TO.N,Net-(IC3-Pad3)*%
X101000000Y-102540000D03*
%TO.P,J3,1*%
%TO.N,Net-(IC3-Pad2)*%
%TA.AperFunction,ComponentPad*%
G36*
G01*
X100154999Y-99130000D02*
X101845001Y-99130000D01*
G75*
G02*
X102095000Y-99379999I0J-249999D01*
G01*
X102095000Y-100620001D01*
G75*
G02*
X101845001Y-100870000I-249999J0D01*
G01*
X100154999Y-100870000D01*
G75*
G02*
X99905000Y-100620001I0J249999D01*
G01*
X99905000Y-99379999D01*
G75*
G02*
X100154999Y-99130000I249999J0D01*
G01*
G37*
%TD.AperFunction*%
%TD*%
%TO.P,J2,2*%
%TO.N,Net-(IC2-Pad3)*%
X101000000Y-92540000D03*
%TO.P,J2,1*%
%TO.N,Net-(IC2-Pad2)*%
%TA.AperFunction,ComponentPad*%
G36*
G01*
X100154999Y-89130000D02*
X101845001Y-89130000D01*
G75*
G02*
X102095000Y-89379999I0J-249999D01*
G01*
X102095000Y-90620001D01*
G75*
G02*
X101845001Y-90870000I-249999J0D01*
G01*
X100154999Y-90870000D01*
G75*
G02*
X99905000Y-90620001I0J249999D01*
G01*
X99905000Y-89379999D01*
G75*
G02*
X100154999Y-89130000I249999J0D01*
G01*
G37*
%TD.AperFunction*%
%TD*%
%TO.P,J1,2*%
%TO.N,Net-(IC1-Pad3)*%
X101000000Y-82540000D03*
%TO.P,J1,1*%
%TO.N,Net-(IC1-Pad2)*%
%TA.AperFunction,ComponentPad*%
G36*
G01*
X100154999Y-79130000D02*
X101845001Y-79130000D01*
G75*
G02*
X102095000Y-79379999I0J-249999D01*
G01*
X102095000Y-80620001D01*
G75*
G02*
X101845001Y-80870000I-249999J0D01*
G01*
X100154999Y-80870000D01*
G75*
G02*
X99905000Y-80620001I0J249999D01*
G01*
X99905000Y-79379999D01*
G75*
G02*
X100154999Y-79130000I249999J0D01*
G01*
G37*
%TD.AperFunction*%
%TD*%
D20*
%TO.P,IC4,8*%
%TO.N,N/C*%
X112712000Y-109095000D03*
%TO.P,IC4,7*%
%TO.N,MISO*%
X112712000Y-110365000D03*
%TO.P,IC4,6*%
%TO.N,CS3*%
X112712000Y-111635000D03*
%TO.P,IC4,5*%
%TO.N,SCK*%
X112712000Y-112905000D03*
%TO.P,IC4,4*%
%TO.N,+3V3*%
X107288000Y-112905000D03*
%TO.P,IC4,3*%
%TO.N,Net-(IC4-Pad3)*%
X107288000Y-111635000D03*
%TO.P,IC4,2*%
%TO.N,Net-(IC4-Pad2)*%
X107288000Y-110365000D03*
%TO.P,IC4,1*%
%TO.N,GNDD*%
X107288000Y-109095000D03*
%TD*%
%TO.P,IC3,8*%
%TO.N,N/C*%
X112712000Y-99095000D03*
%TO.P,IC3,7*%
%TO.N,MISO*%
X112712000Y-100365000D03*
%TO.P,IC3,6*%
%TO.N,CS2*%
X112712000Y-101635000D03*
%TO.P,IC3,5*%
%TO.N,SCK*%
X112712000Y-102905000D03*
%TO.P,IC3,4*%
%TO.N,+3V3*%
X107288000Y-102905000D03*
%TO.P,IC3,3*%
%TO.N,Net-(IC3-Pad3)*%
X107288000Y-101635000D03*
%TO.P,IC3,2*%
%TO.N,Net-(IC3-Pad2)*%
X107288000Y-100365000D03*
%TO.P,IC3,1*%
%TO.N,GNDD*%
X107288000Y-99095000D03*
%TD*%
%TO.P,IC2,8*%
%TO.N,N/C*%
X112712000Y-89095000D03*
%TO.P,IC2,7*%
%TO.N,MISO*%
X112712000Y-90365000D03*
%TO.P,IC2,6*%
%TO.N,CS1*%
X112712000Y-91635000D03*
%TO.P,IC2,5*%
%TO.N,SCK*%
X112712000Y-92905000D03*
%TO.P,IC2,4*%
%TO.N,+3V3*%
X107288000Y-92905000D03*
%TO.P,IC2,3*%
%TO.N,Net-(IC2-Pad3)*%
X107288000Y-91635000D03*
%TO.P,IC2,2*%
%TO.N,Net-(IC2-Pad2)*%
X107288000Y-90365000D03*
%TO.P,IC2,1*%
%TO.N,GNDD*%
X107288000Y-89095000D03*
%TD*%
%TO.P,IC1,8*%
%TO.N,N/C*%
X112712000Y-79095000D03*
%TO.P,IC1,7*%
%TO.N,MISO*%
X112712000Y-80365000D03*
%TO.P,IC1,6*%
%TO.N,CS4*%
X112712000Y-81635000D03*
%TO.P,IC1,5*%
%TO.N,SCK*%
X112712000Y-82905000D03*
%TO.P,IC1,4*%
%TO.N,+3V3*%
X107288000Y-82905000D03*
%TO.P,IC1,3*%
%TO.N,Net-(IC1-Pad3)*%
X107288000Y-81635000D03*
%TO.P,IC1,2*%
%TO.N,Net-(IC1-Pad2)*%
X107288000Y-80365000D03*
%TO.P,IC1,1*%
%TO.N,GNDD*%
X107288000Y-79095000D03*
%TD*%
D13*
%TO.P,D1,3*%
%TO.N,Net-(D1-Pad3)*%
X151000000Y-91050000D03*
%TO.P,D1,2*%
%TO.N,+5V*%
X149000000Y-92000000D03*
%TO.P,D1,1*%
X149000000Y-90100000D03*
%TD*%
%TO.P,C3,2*%
%TO.N,GNDD*%
%TA.AperFunction,SMDPad,CuDef*%
G36*
G01*
X138112500Y-93043750D02*
X138112500Y-93956250D01*
G75*
G02*
X137868750Y-94200000I-243750J0D01*
G01*
X137381250Y-94200000D01*
G75*
G02*
X137137500Y-93956250I0J243750D01*
G01*
X137137500Y-93043750D01*
G75*
G02*
X137381250Y-92800000I243750J0D01*
G01*
X137868750Y-92800000D01*
G75*
G02*
X138112500Y-93043750I0J-243750D01*
G01*
G37*
%TD.AperFunction*%
%TO.P,C3,1*%
%TO.N,+5V*%
%TA.AperFunction,SMDPad,CuDef*%
G36*
G01*
X139987500Y-93043750D02*
X139987500Y-93956250D01*
G75*
G02*
X139743750Y-94200000I-243750J0D01*
G01*
X139256250Y-94200000D01*
G75*
G02*
X139012500Y-93956250I0J243750D01*
G01*
X139012500Y-93043750D01*
G75*
G02*
X139256250Y-92800000I243750J0D01*
G01*
X139743750Y-92800000D01*
G75*
G02*
X139987500Y-93043750I0J-243750D01*
G01*
G37*
%TD.AperFunction*%
%TD*%
%TO.P,C2,2*%
%TO.N,GNDD*%
%TA.AperFunction,SMDPad,CuDef*%
G36*
G01*
X135956250Y-96112500D02*
X135043750Y-96112500D01*
G75*
G02*
X134800000Y-95868750I0J243750D01*
G01*
X134800000Y-95381250D01*
G75*
G02*
X135043750Y-95137500I243750J0D01*
G01*
X135956250Y-95137500D01*
G75*
G02*
X136200000Y-95381250I0J-243750D01*
G01*
X136200000Y-95868750D01*
G75*
G02*
X135956250Y-96112500I-243750J0D01*
G01*
G37*
%TD.AperFunction*%
%TO.P,C2,1*%
%TO.N,+3V3*%
%TA.AperFunction,SMDPad,CuDef*%
G36*
G01*
X135956250Y-97987500D02*
X135043750Y-97987500D01*
G75*
G02*
X134800000Y-97743750I0J243750D01*
G01*
X134800000Y-97256250D01*
G75*
G02*
X135043750Y-97012500I243750J0D01*
G01*
X135956250Y-97012500D01*
G75*
G02*
X136200000Y-97256250I0J-243750D01*
G01*
X136200000Y-97743750D01*
G75*
G02*
X135956250Y-97987500I-243750J0D01*
G01*
G37*
%TD.AperFunction*%
%TD*%
%TO.P,C1,2*%
%TO.N,GNDD*%
%TA.AperFunction,SMDPad,CuDef*%
G36*
G01*
X120956250Y-110987500D02*
X120043750Y-110987500D01*
G75*
G02*
X119800000Y-110743750I0J243750D01*
G01*
X119800000Y-110256250D01*
G75*
G02*
X120043750Y-110012500I243750J0D01*
G01*
X120956250Y-110012500D01*
G75*
G02*
X121200000Y-110256250I0J-243750D01*
G01*
X121200000Y-110743750D01*
G75*
G02*
X120956250Y-110987500I-243750J0D01*
G01*
G37*
%TD.AperFunction*%
%TO.P,C1,1*%
%TO.N,NRST*%
%TA.AperFunction,SMDPad,CuDef*%
G36*
G01*
X120956250Y-112862500D02*
X120043750Y-112862500D01*
G75*
G02*
X119800000Y-112618750I0J243750D01*
G01*
X119800000Y-112131250D01*
G75*
G02*
X120043750Y-111887500I243750J0D01*
G01*
X120956250Y-111887500D01*
G75*
G02*
X121200000Y-112131250I0J-243750D01*
G01*
X121200000Y-112618750D01*
G75*
G02*
X120956250Y-112862500I-243750J0D01*
G01*
G37*
%TD.AperFunction*%
%TD*%
D21*
%TO.N,GNDD*%
X139500000Y-105000000D03*
X117500000Y-105500000D03*
X104000000Y-105000000D03*
X141100000Y-99600000D03*
X129600000Y-91400000D03*
X120400000Y-88500000D03*
X147300000Y-87400000D03*
%TO.N,NRST*%
X124700000Y-90000000D03*
X122125000Y-112375000D03*
%TO.N,+3V3*%
X116700000Y-86900000D03*
X109000000Y-84617000D03*
X134100000Y-99700000D03*
X134200000Y-102900000D03*
%TO.N,MISO*%
X115900000Y-95300000D03*
X111275000Y-95275000D03*
%TO.N,CS4*%
X115725000Y-90300000D03*
X117700000Y-97600000D03*
%TO.N,CS1*%
X116100000Y-91900000D03*
X114275000Y-91800000D03*
%TO.N,CS2*%
X116100000Y-93100000D03*
X114275000Y-93800000D03*
%TO.N,SWCLK*%
X125847214Y-97305571D03*
X127200000Y-113075000D03*
%TO.N,SWDIO*%
X125400000Y-98200000D03*
X130200000Y-113600000D03*
%TO.N,relay*%
X144100000Y-92200000D03*
X130100000Y-97800000D03*
%TD*%
D22*
%TO.N,GNDD*%
X138155001Y-101364999D02*
X138155001Y-103644999D01*
X137300000Y-101000000D02*
X137790002Y-101000000D01*
X137790002Y-101000000D02*
X138155001Y-101364999D01*
X139500000Y-104989998D02*
X139500000Y-105000000D01*
X138155001Y-103644999D02*
X139500000Y-104989998D01*
X143000000Y-99600000D02*
X141100000Y-99600000D01*
X120125000Y-101600000D02*
X119525000Y-102200000D01*
X120125000Y-98475000D02*
X120125000Y-101600000D01*
X128475000Y-92525000D02*
X129600000Y-91400000D01*
X128475000Y-92875000D02*
X128475000Y-92525000D01*
X139700000Y-96500000D02*
X140800000Y-96500000D01*
%TO.N,NRST*%
X122585000Y-112375000D02*
X123460000Y-111500000D01*
X124700000Y-91500000D02*
X124700000Y-90000000D01*
X120500000Y-112375000D02*
X122125000Y-112375000D01*
X122125000Y-112375000D02*
X122585000Y-112375000D01*
D23*
%TO.N,+3V3*%
X121500000Y-99850000D02*
X121500000Y-96700000D01*
X121500000Y-96700000D02*
X123900000Y-94300000D01*
X126700000Y-93500000D02*
X123900000Y-93500000D01*
X127100000Y-93100000D02*
X126700000Y-93500000D01*
X127100000Y-91500000D02*
X127100000Y-93100000D01*
X123900000Y-94300000D02*
X123900000Y-93500000D01*
X123900000Y-93500000D02*
X123900000Y-91500000D01*
X137450000Y-97500000D02*
X137500000Y-97450000D01*
X135500000Y-97500000D02*
X137450000Y-97500000D01*
X134349990Y-96349990D02*
X134349990Y-91349990D01*
X135500000Y-97500000D02*
X134349990Y-96349990D01*
X134349990Y-91349990D02*
X132400000Y-89400000D01*
X132400000Y-89400000D02*
X127500000Y-89400000D01*
X127100000Y-89800000D02*
X127100000Y-91500000D01*
X127500000Y-89400000D02*
X127100000Y-89800000D01*
X108550500Y-112905000D02*
X109000000Y-112455500D01*
X107288000Y-112905000D02*
X108550500Y-112905000D01*
X109000000Y-84617000D02*
X107288000Y-82905000D01*
X108905000Y-92905000D02*
X109000000Y-93000000D01*
X107288000Y-92905000D02*
X108905000Y-92905000D01*
X109000000Y-93000000D02*
X109000000Y-84617000D01*
X108905000Y-102905000D02*
X109000000Y-103000000D01*
X107288000Y-102905000D02*
X108905000Y-102905000D01*
X109000000Y-112455500D02*
X109000000Y-103000000D01*
X109000000Y-103000000D02*
X109000000Y-93000000D01*
X121400000Y-99950000D02*
X121500000Y-99850000D01*
X121400000Y-102200000D02*
X121400000Y-99950000D01*
X127100000Y-88100000D02*
X127200000Y-88000000D01*
X127100000Y-89800000D02*
X127100000Y-88100000D01*
X116750010Y-86849990D02*
X116700000Y-86900000D01*
X127200000Y-88000000D02*
X126049990Y-86849990D01*
X126049990Y-86849990D02*
X116750010Y-86849990D01*
D22*
X136760000Y-109900000D02*
X134800000Y-109900000D01*
X128540000Y-107600000D02*
X129200000Y-107600000D01*
X134800000Y-109900000D02*
X132500000Y-107600000D01*
X132500000Y-107600000D02*
X130700000Y-107600000D01*
X130700000Y-107600000D02*
X129200000Y-107600000D01*
X135500000Y-97500000D02*
X135500000Y-98300000D01*
X135500000Y-98300000D02*
X134100000Y-99700000D01*
X135100000Y-102900000D02*
X134200000Y-102900000D01*
X134200000Y-102900000D02*
X133100000Y-102900000D01*
X123970000Y-102200000D02*
X121400000Y-102200000D01*
X128540000Y-106770000D02*
X123970000Y-102200000D01*
X128540000Y-107600000D02*
X128540000Y-106770000D01*
D23*
%TO.N,+5V*%
X138719999Y-95814999D02*
X138984998Y-95550000D01*
X138984998Y-95550000D02*
X139700000Y-95550000D01*
X138719999Y-97185001D02*
X138719999Y-95814999D01*
X138984998Y-97450000D02*
X138719999Y-97185001D01*
X139700000Y-97450000D02*
X138984998Y-97450000D01*
X139500000Y-95350000D02*
X139700000Y-95550000D01*
X139500000Y-93500000D02*
X139500000Y-95350000D01*
X147500000Y-93500000D02*
X149000000Y-92000000D01*
X149000000Y-90100000D02*
X149000000Y-92000000D01*
X149000000Y-85900000D02*
X149780000Y-85120000D01*
X149000000Y-90100000D02*
X149000000Y-85900000D01*
X138850000Y-97450000D02*
X139700000Y-97450000D01*
X138480001Y-97819999D02*
X138850000Y-97450000D01*
X138480001Y-100695003D02*
X138480001Y-97819999D01*
X139500000Y-101000000D02*
X138784998Y-101000000D01*
X138784998Y-101000000D02*
X138480001Y-100695003D01*
X144867998Y-102000000D02*
X146800000Y-100067998D01*
X143000000Y-102000000D02*
X144867998Y-102000000D01*
X146800000Y-100067998D02*
X146800000Y-93600000D01*
X139500000Y-93500000D02*
X146900000Y-93500000D01*
X146800000Y-93600000D02*
X146900000Y-93500000D01*
X146900000Y-93500000D02*
X147500000Y-93500000D01*
X149780000Y-83680000D02*
X148800000Y-82700000D01*
X149780000Y-85120000D02*
X149780000Y-83680000D01*
%TO.N,Net-(D1-Pad3)*%
X151380001Y-85888001D02*
X151380001Y-82740001D01*
X151380001Y-82740001D02*
X148800000Y-80160000D01*
X151000000Y-86268002D02*
X151380001Y-85888001D01*
X151000000Y-91050000D02*
X151000000Y-86268002D01*
X149780000Y-79180000D02*
X148800000Y-80160000D01*
X149780000Y-77500000D02*
X149780000Y-79180000D01*
X145000000Y-91000000D02*
X145000000Y-80600000D01*
X145440000Y-80160000D02*
X148800000Y-80160000D01*
X145000000Y-80600000D02*
X145440000Y-80160000D01*
D22*
%TO.N,MISO*%
X111699500Y-80365000D02*
X111200000Y-80864500D01*
X112712000Y-80365000D02*
X111699500Y-80365000D01*
X111200000Y-109865500D02*
X111699500Y-110365000D01*
X111699500Y-110365000D02*
X112712000Y-110365000D01*
X112712000Y-100365000D02*
X111335000Y-100365000D01*
X111335000Y-100365000D02*
X111200000Y-100500000D01*
X111200000Y-100500000D02*
X111200000Y-109865500D01*
X112712000Y-90365000D02*
X111235000Y-90365000D01*
X111235000Y-90365000D02*
X111200000Y-90400000D01*
X111200000Y-80864500D02*
X111200000Y-90400000D01*
X111275000Y-95275000D02*
X111200000Y-95200000D01*
X111200000Y-90400000D02*
X111200000Y-95200000D01*
X111200000Y-95200000D02*
X111200000Y-100500000D01*
X120125000Y-95275000D02*
X115925000Y-95275000D01*
X115925000Y-95275000D02*
X115900000Y-95300000D01*
%TO.N,CS4*%
X113571410Y-81635000D02*
X115600000Y-83663590D01*
X112712000Y-81635000D02*
X113571410Y-81635000D01*
X115600000Y-83663590D02*
X115600000Y-90175000D01*
X115600000Y-90175000D02*
X115725000Y-90300000D01*
X120050000Y-97600000D02*
X120125000Y-97675000D01*
X117700000Y-97600000D02*
X120050000Y-97600000D01*
%TO.N,SCK*%
X112712000Y-112905000D02*
X114295000Y-112905000D01*
X114295000Y-112905000D02*
X115000000Y-112200000D01*
X114205000Y-82905000D02*
X112712000Y-82905000D01*
X115000000Y-83700000D02*
X114205000Y-82905000D01*
X114905000Y-92905000D02*
X115000000Y-93000000D01*
X112712000Y-92905000D02*
X114905000Y-92905000D01*
X115000000Y-93000000D02*
X115000000Y-83700000D01*
X114995000Y-102905000D02*
X115000000Y-102900000D01*
X112712000Y-102905000D02*
X114995000Y-102905000D01*
X115000000Y-112200000D02*
X115000000Y-102900000D01*
X120125000Y-94475000D02*
X115025000Y-94475000D01*
X115025000Y-94475000D02*
X115000000Y-94500000D01*
X115000000Y-102900000D02*
X115000000Y-94500000D01*
X115000000Y-94500000D02*
X115000000Y-93000000D01*
%TO.N,Net-(IC1-Pad3)*%
X101000000Y-82540000D02*
X103660000Y-82540000D01*
X104565000Y-81635000D02*
X107288000Y-81635000D01*
X103660000Y-82540000D02*
X104565000Y-81635000D01*
%TO.N,Net-(IC1-Pad2)*%
X107288000Y-80365000D02*
X104435000Y-80365000D01*
X104070000Y-80000000D02*
X101000000Y-80000000D01*
X104435000Y-80365000D02*
X104070000Y-80000000D01*
%TO.N,CS1*%
X120125000Y-92875000D02*
X117075000Y-92875000D01*
X117075000Y-92875000D02*
X116100000Y-91900000D01*
X112877000Y-91800000D02*
X112712000Y-91635000D01*
X114275000Y-91800000D02*
X112877000Y-91800000D01*
%TO.N,Net-(IC2-Pad3)*%
X101000000Y-92540000D02*
X103460000Y-92540000D01*
X104365000Y-91635000D02*
X107288000Y-91635000D01*
X103460000Y-92540000D02*
X104365000Y-91635000D01*
%TO.N,Net-(IC2-Pad2)*%
X107288000Y-90365000D02*
X104565000Y-90365000D01*
X104200000Y-90000000D02*
X101000000Y-90000000D01*
X104565000Y-90365000D02*
X104200000Y-90000000D01*
%TO.N,CS2*%
X120125000Y-93675000D02*
X116675000Y-93675000D01*
X116675000Y-93675000D02*
X116100000Y-93100000D01*
X114275000Y-101084500D02*
X113724500Y-101635000D01*
X113724500Y-101635000D02*
X112712000Y-101635000D01*
X114275000Y-93800000D02*
X114275000Y-101084500D01*
%TO.N,Net-(IC3-Pad3)*%
X101000000Y-102540000D02*
X103460000Y-102540000D01*
X104365000Y-101635000D02*
X107288000Y-101635000D01*
X103460000Y-102540000D02*
X104365000Y-101635000D01*
%TO.N,Net-(IC3-Pad2)*%
X107288000Y-100365000D02*
X104435000Y-100365000D01*
X104070000Y-100000000D02*
X101000000Y-100000000D01*
X104435000Y-100365000D02*
X104070000Y-100000000D01*
%TO.N,CS3*%
X114281409Y-113555001D02*
X115600000Y-112236410D01*
X112712000Y-111635000D02*
X111699500Y-111635000D01*
X111699500Y-111635000D02*
X111624499Y-111710001D01*
X111624499Y-113490001D02*
X111689499Y-113555001D01*
X111689499Y-113555001D02*
X114281409Y-113555001D01*
X111624499Y-111710001D02*
X111624499Y-113490001D01*
X115600000Y-112236410D02*
X115600000Y-98000000D01*
X116725000Y-96875000D02*
X120125000Y-96875000D01*
X115600000Y-98000000D02*
X116725000Y-96875000D01*
%TO.N,Net-(IC4-Pad3)*%
X101000000Y-112440000D02*
X103560000Y-112440000D01*
X104365000Y-111635000D02*
X107288000Y-111635000D01*
X103560000Y-112440000D02*
X104365000Y-111635000D01*
%TO.N,Net-(IC4-Pad2)*%
X101000000Y-109900000D02*
X103600000Y-109900000D01*
X104065000Y-110365000D02*
X107288000Y-110365000D01*
X103600000Y-109900000D02*
X104065000Y-110365000D01*
%TO.N,SWCLK*%
X127100000Y-99850000D02*
X127100000Y-98558357D01*
X127100000Y-98558357D02*
X125847214Y-97305571D01*
X127200000Y-111570000D02*
X127270000Y-111500000D01*
X127200000Y-113075000D02*
X127200000Y-111570000D01*
%TO.N,SWDIO*%
X126300000Y-99850000D02*
X126300000Y-99100000D01*
X126300000Y-99100000D02*
X125400000Y-98200000D01*
X128540000Y-111940000D02*
X128540000Y-111500000D01*
X130200000Y-113600000D02*
X128540000Y-111940000D01*
D24*
%TO.N,D_P*%
X141323607Y-100836391D02*
X141323607Y-101000008D01*
X141323607Y-101000008D02*
X140950000Y-101373615D01*
X143000000Y-100400000D02*
X142750001Y-100649999D01*
X140270001Y-100374999D02*
X139824999Y-100374999D01*
X141509999Y-100649999D02*
X141323607Y-100836391D01*
X142750001Y-100649999D02*
X141509999Y-100649999D01*
X140950000Y-101373615D02*
X140950000Y-101500000D01*
X139824999Y-100374999D02*
X139500000Y-100050000D01*
X140950000Y-101500000D02*
X140330001Y-100880001D01*
X140330001Y-100880001D02*
X140330001Y-100434999D01*
X140330001Y-100434999D02*
X140270001Y-100374999D01*
%TO.N,D_N*%
X140950000Y-101950000D02*
X139500000Y-101950000D01*
X141449999Y-101950000D02*
X140950000Y-101950000D01*
X141759998Y-101200000D02*
X141449999Y-101509999D01*
X141449999Y-101509999D02*
X141449999Y-101950000D01*
X143000000Y-101200000D02*
X141759998Y-101200000D01*
D22*
%TO.N,relay*%
X147000000Y-91950000D02*
X144350000Y-91950000D01*
X144350000Y-91950000D02*
X144100000Y-92200000D01*
X128600000Y-97800000D02*
X128475000Y-97675000D01*
X130100000Y-97800000D02*
X128600000Y-97800000D01*
%TO.N,Net-(R1-Pad1)*%
X130175000Y-93675000D02*
X128475000Y-93675000D01*
X130500000Y-94000000D02*
X130175000Y-93675000D01*
D24*
%TO.N,USB+*%
X136504999Y-100050000D02*
X135779999Y-100775000D01*
X137300000Y-100050000D02*
X136504999Y-100050000D01*
X135779999Y-100775000D02*
X129906800Y-100775000D01*
X129906800Y-100775000D02*
X128906800Y-101775000D01*
X125500000Y-100013603D02*
X125500000Y-99850000D01*
X125749990Y-100651046D02*
X125749990Y-100263593D01*
X125998954Y-100900010D02*
X125749990Y-100651046D01*
X126386407Y-100900010D02*
X125998954Y-100900010D01*
X127261397Y-101775000D02*
X126386407Y-100900010D01*
X128906800Y-101775000D02*
X127261397Y-101775000D01*
X125749990Y-100263593D02*
X125500000Y-100013603D01*
%TO.N,USB-*%
X135779999Y-101225000D02*
X130093200Y-101225000D01*
X137300000Y-101950000D02*
X136504999Y-101950000D01*
X136504999Y-101950000D02*
X135779999Y-101225000D01*
X130093200Y-101225000D02*
X129093200Y-102225000D01*
X124949990Y-100099990D02*
X124700000Y-99850000D01*
X124949990Y-100651046D02*
X124949990Y-100099990D01*
X125198954Y-100900010D02*
X124949990Y-100651046D01*
X125362571Y-100900010D02*
X125198954Y-100900010D01*
X129093200Y-102225000D02*
X127075000Y-102225000D01*
X127075000Y-102225000D02*
X126200001Y-101350001D01*
X126200001Y-101350001D02*
X125812562Y-101350001D01*
X125812562Y-101350001D02*
X125362571Y-100900010D01*
D22*
%TO.N,SCL*%
X127438590Y-104775000D02*
X133100000Y-104775000D01*
X123100000Y-100436410D02*
X127438590Y-104775000D01*
X123100000Y-99850000D02*
X123100000Y-100436410D01*
X134987510Y-105587510D02*
X139300000Y-109900000D01*
X133912510Y-105587510D02*
X134987510Y-105587510D01*
X133100000Y-104775000D02*
X133912510Y-105587510D01*
%TO.N,SDA*%
X134287490Y-103962490D02*
X135100000Y-104775000D01*
X127262490Y-103962490D02*
X134287490Y-103962490D01*
X123900000Y-100600000D02*
X127262490Y-103962490D01*
X123900000Y-99850000D02*
X123900000Y-100600000D01*
X136715000Y-104775000D02*
X141840000Y-109900000D01*
X135100000Y-104775000D02*
X136715000Y-104775000D01*
%TD*%
D25*
%TO.N,GNDD*%
X151340000Y-75865015D02*
X151284494Y-75819463D01*
X151174180Y-75760498D01*
X151054482Y-75724188D01*
X150930000Y-75711928D01*
X148630000Y-75711928D01*
X148505518Y-75724188D01*
X148385820Y-75760498D01*
X148275506Y-75819463D01*
X148178815Y-75898815D01*
X148099463Y-75995506D01*
X148040498Y-76105820D01*
X148004188Y-76225518D01*
X147991928Y-76350000D01*
X147991928Y-78650000D01*
X148002845Y-78760841D01*
X147996275Y-78762834D01*
X147734821Y-78902583D01*
X147505655Y-79090655D01*
X147354367Y-79275000D01*
X145483469Y-79275000D01*
X145440000Y-79270719D01*
X145396531Y-79275000D01*
X145396523Y-79275000D01*
X145281306Y-79286348D01*
X145266509Y-79287805D01*
X145215903Y-79303157D01*
X145099687Y-79338411D01*
X144945941Y-79420589D01*
X144811183Y-79531183D01*
X144783468Y-79564954D01*
X144404952Y-79943470D01*
X144371184Y-79971183D01*
X144343471Y-80004951D01*
X144343468Y-80004954D01*
X144260590Y-80105941D01*
X144178412Y-80259687D01*
X144127805Y-80426510D01*
X144110719Y-80600000D01*
X144115001Y-80643479D01*
X144115000Y-90135532D01*
X144098815Y-90148815D01*
X144019463Y-90245506D01*
X143960498Y-90355820D01*
X143924188Y-90475518D01*
X143911928Y-90600000D01*
X143911928Y-91182133D01*
X143798102Y-91204774D01*
X143609744Y-91282795D01*
X143440226Y-91396063D01*
X143296063Y-91540226D01*
X143182795Y-91709744D01*
X143104774Y-91898102D01*
X143065000Y-92098061D01*
X143065000Y-92301939D01*
X143104774Y-92501898D01*
X143151623Y-92615000D01*
X140509651Y-92615000D01*
X140476958Y-92553836D01*
X140367292Y-92420208D01*
X140233664Y-92310542D01*
X140081209Y-92229053D01*
X139915785Y-92178872D01*
X139743750Y-92161928D01*
X139256250Y-92161928D01*
X139084215Y-92178872D01*
X138918791Y-92229053D01*
X138766336Y-92310542D01*
X138632708Y-92420208D01*
X138627492Y-92426564D01*
X138563685Y-92348815D01*
X138466994Y-92269463D01*
X138356680Y-92210498D01*
X138236982Y-92174188D01*
X138112500Y-92161928D01*
X137910750Y-92165000D01*
X137752000Y-92323750D01*
X137752000Y-93373000D01*
X137772000Y-93373000D01*
X137772000Y-93627000D01*
X137752000Y-93627000D01*
X137752000Y-93647000D01*
X137498000Y-93647000D01*
X137498000Y-93627000D01*
X136661250Y-93627000D01*
X136502500Y-93785750D01*
X136499428Y-94200000D01*
X136511688Y-94324482D01*
X136547998Y-94444180D01*
X136606963Y-94554494D01*
X136686315Y-94651185D01*
X136690321Y-94654473D01*
X136643125Y-94679700D01*
X136554494Y-94606963D01*
X136444180Y-94547998D01*
X136324482Y-94511688D01*
X136200000Y-94499428D01*
X135785750Y-94502500D01*
X135627000Y-94661250D01*
X135627000Y-95498000D01*
X135647000Y-95498000D01*
X135647000Y-95752000D01*
X135627000Y-95752000D01*
X135627000Y-95772000D01*
X135373000Y-95772000D01*
X135373000Y-95752000D01*
X135353000Y-95752000D01*
X135353000Y-95498000D01*
X135373000Y-95498000D01*
X135373000Y-94661250D01*
X135234990Y-94523240D01*
X135234990Y-92800000D01*
X136499428Y-92800000D01*
X136502500Y-93214250D01*
X136661250Y-93373000D01*
X137498000Y-93373000D01*
X137498000Y-92323750D01*
X137339250Y-92165000D01*
X137137500Y-92161928D01*
X137013018Y-92174188D01*
X136893320Y-92210498D01*
X136783006Y-92269463D01*
X136686315Y-92348815D01*
X136606963Y-92445506D01*
X136547998Y-92555820D01*
X136511688Y-92675518D01*
X136499428Y-92800000D01*
X135234990Y-92800000D01*
X135234990Y-91393455D01*
X135239271Y-91349989D01*
X135234990Y-91306523D01*
X135234990Y-91306513D01*
X135222185Y-91176500D01*
X135171579Y-91009677D01*
X135089401Y-90855931D01*
X135047417Y-90804774D01*
X135006522Y-90754943D01*
X135006520Y-90754941D01*
X134978807Y-90721173D01*
X134945039Y-90693460D01*
X133056534Y-88804956D01*
X133028817Y-88771183D01*
X132894059Y-88660589D01*
X132740313Y-88578411D01*
X132573490Y-88527805D01*
X132443477Y-88515000D01*
X132443469Y-88515000D01*
X132400000Y-88510719D01*
X132356531Y-88515000D01*
X128319786Y-88515000D01*
X128325572Y-88456250D01*
X128325572Y-87543750D01*
X128308628Y-87371715D01*
X128258447Y-87206291D01*
X128176958Y-87053836D01*
X128067292Y-86920208D01*
X127933664Y-86810542D01*
X127781209Y-86729053D01*
X127615785Y-86678872D01*
X127443750Y-86661928D01*
X127113506Y-86661928D01*
X126706524Y-86254946D01*
X126678807Y-86221173D01*
X126544049Y-86110579D01*
X126390303Y-86028401D01*
X126223480Y-85977795D01*
X126093467Y-85964990D01*
X126093459Y-85964990D01*
X126049990Y-85960709D01*
X126006521Y-85964990D01*
X117147271Y-85964990D01*
X117001898Y-85904774D01*
X116801939Y-85865000D01*
X116598061Y-85865000D01*
X116398102Y-85904774D01*
X116360000Y-85920556D01*
X116360000Y-84944193D01*
X132755000Y-84944193D01*
X132755000Y-85295807D01*
X132823596Y-85640665D01*
X132958153Y-85965515D01*
X133153500Y-86257871D01*
X133402129Y-86506500D01*
X133694485Y-86701847D01*
X134019335Y-86836404D01*
X134364193Y-86905000D01*
X134715807Y-86905000D01*
X135060665Y-86836404D01*
X135385515Y-86701847D01*
X135677871Y-86506500D01*
X135926500Y-86257871D01*
X136121847Y-85965515D01*
X136256404Y-85640665D01*
X136325000Y-85295807D01*
X136325000Y-84944193D01*
X136256404Y-84599335D01*
X136121847Y-84274485D01*
X135926500Y-83982129D01*
X135677871Y-83733500D01*
X135385515Y-83538153D01*
X135060665Y-83403596D01*
X134715807Y-83335000D01*
X134364193Y-83335000D01*
X134019335Y-83403596D01*
X133694485Y-83538153D01*
X133402129Y-83733500D01*
X133153500Y-83982129D01*
X132958153Y-84274485D01*
X132823596Y-84599335D01*
X132755000Y-84944193D01*
X116360000Y-84944193D01*
X116360000Y-83700912D01*
X116363676Y-83663589D01*
X116360000Y-83626266D01*
X116360000Y-83626257D01*
X116349003Y-83514604D01*
X116305546Y-83371343D01*
X116234974Y-83239314D01*
X116200450Y-83197246D01*
X116163799Y-83152586D01*
X116163795Y-83152582D01*
X116140001Y-83123589D01*
X116111009Y-83099796D01*
X114135214Y-81124002D01*
X114111411Y-81094999D01*
X114054738Y-81048489D01*
X114028820Y-81000000D01*
X114064002Y-80934180D01*
X114100312Y-80814482D01*
X114112572Y-80690000D01*
X114112572Y-80040000D01*
X114100312Y-79915518D01*
X114064002Y-79795820D01*
X114028820Y-79730000D01*
X114064002Y-79664180D01*
X114100312Y-79544482D01*
X114112572Y-79420000D01*
X114112572Y-79119678D01*
X118365000Y-79119678D01*
X118365000Y-80880321D01*
X118388657Y-81120515D01*
X118482148Y-81428714D01*
X118633969Y-81712751D01*
X118838286Y-81961714D01*
X119087248Y-82166031D01*
X119371285Y-82317852D01*
X119679484Y-82411343D01*
X120000000Y-82442911D01*
X120320515Y-82411343D01*
X120628714Y-82317852D01*
X120912751Y-82166031D01*
X121161714Y-81961714D01*
X121366031Y-81712752D01*
X121517852Y-81428715D01*
X121611343Y-81120516D01*
X121635000Y-80880322D01*
X121635000Y-79119678D01*
X121611343Y-78879484D01*
X121517852Y-78571285D01*
X121453024Y-78450000D01*
X123361928Y-78450000D01*
X123361928Y-81550000D01*
X123378992Y-81723254D01*
X123429528Y-81889850D01*
X123511595Y-82043386D01*
X123622038Y-82177962D01*
X123756614Y-82288405D01*
X123910150Y-82370472D01*
X124076746Y-82421008D01*
X124250000Y-82438072D01*
X125750000Y-82438072D01*
X125923254Y-82421008D01*
X126089850Y-82370472D01*
X126243386Y-82288405D01*
X126377962Y-82177962D01*
X126488405Y-82043386D01*
X126570472Y-81889850D01*
X126621008Y-81723254D01*
X126638072Y-81550000D01*
X126638072Y-78450000D01*
X126621008Y-78276746D01*
X126570472Y-78110150D01*
X126488405Y-77956614D01*
X126377962Y-77822038D01*
X126243386Y-77711595D01*
X126089850Y-77629528D01*
X125923254Y-77578992D01*
X125750000Y-77561928D01*
X124250000Y-77561928D01*
X124076746Y-77578992D01*
X123910150Y-77629528D01*
X123756614Y-77711595D01*
X123622038Y-77822038D01*
X123511595Y-77956614D01*
X123429528Y-78110150D01*
X123378992Y-78276746D01*
X123361928Y-78450000D01*
X121453024Y-78450000D01*
X121366031Y-78287248D01*
X121161714Y-78038286D01*
X120912752Y-77833969D01*
X120628715Y-77682148D01*
X120320516Y-77588657D01*
X120000000Y-77557089D01*
X119679485Y-77588657D01*
X119371286Y-77682148D01*
X119087249Y-77833969D01*
X118838287Y-78038286D01*
X118633970Y-78287248D01*
X118482149Y-78571285D01*
X118388658Y-78879484D01*
X118365000Y-79119678D01*
X114112572Y-79119678D01*
X114112572Y-78770000D01*
X114100312Y-78645518D01*
X114064002Y-78525820D01*
X114005037Y-78415506D01*
X113925685Y-78318815D01*
X113828994Y-78239463D01*
X113718680Y-78180498D01*
X113598982Y-78144188D01*
X113474500Y-78131928D01*
X111949500Y-78131928D01*
X111825018Y-78144188D01*
X111705320Y-78180498D01*
X111595006Y-78239463D01*
X111498315Y-78318815D01*
X111418963Y-78415506D01*
X111359998Y-78525820D01*
X111323688Y-78645518D01*
X111311428Y-78770000D01*
X111311428Y-79420000D01*
X111323688Y-79544482D01*
X111359998Y-79664180D01*
X111368534Y-79680150D01*
X111275224Y-79730026D01*
X111159499Y-79824999D01*
X111135696Y-79854003D01*
X110689003Y-80300696D01*
X110659999Y-80324499D01*
X110626761Y-80365000D01*
X110565026Y-80440224D01*
X110494455Y-80572253D01*
X110494454Y-80572254D01*
X110450997Y-80715515D01*
X110440000Y-80827168D01*
X110440000Y-80827178D01*
X110436324Y-80864500D01*
X110440000Y-80901822D01*
X110440001Y-90362658D01*
X110440000Y-90362668D01*
X110440000Y-90362678D01*
X110436324Y-90400000D01*
X110440000Y-90437323D01*
X110440001Y-94661714D01*
X110357795Y-94784744D01*
X110279774Y-94973102D01*
X110240000Y-95173061D01*
X110240000Y-95376939D01*
X110279774Y-95576898D01*
X110357795Y-95765256D01*
X110440000Y-95888285D01*
X110440001Y-100462658D01*
X110440000Y-100462668D01*
X110440000Y-100462678D01*
X110436324Y-100500000D01*
X110440000Y-100537322D01*
X110440001Y-109828168D01*
X110436324Y-109865500D01*
X110440001Y-109902833D01*
X110450998Y-110014486D01*
X110461234Y-110048230D01*
X110494454Y-110157746D01*
X110565026Y-110289776D01*
X110633327Y-110373000D01*
X110660000Y-110405501D01*
X110688998Y-110429299D01*
X111135696Y-110875997D01*
X111159499Y-110905001D01*
X111275224Y-110999974D01*
X111275273Y-111000000D01*
X111275224Y-111000026D01*
X111159499Y-111094999D01*
X111135699Y-111123999D01*
X111113499Y-111146199D01*
X111084498Y-111170000D01*
X111029370Y-111237175D01*
X110989525Y-111285725D01*
X110933250Y-111391008D01*
X110918953Y-111417755D01*
X110875496Y-111561016D01*
X110864499Y-111672669D01*
X110864499Y-111672679D01*
X110860823Y-111710001D01*
X110864499Y-111747324D01*
X110864500Y-113452669D01*
X110860823Y-113490001D01*
X110864500Y-113527334D01*
X110875497Y-113638987D01*
X110880052Y-113654002D01*
X110918953Y-113782247D01*
X110949823Y-113840000D01*
X108227107Y-113840000D01*
X108294680Y-113819502D01*
X108349873Y-113790000D01*
X108507031Y-113790000D01*
X108550500Y-113794281D01*
X108593969Y-113790000D01*
X108593977Y-113790000D01*
X108723990Y-113777195D01*
X108890813Y-113726589D01*
X109044559Y-113644411D01*
X109179317Y-113533817D01*
X109207034Y-113500044D01*
X109595045Y-113112033D01*
X109628817Y-113084317D01*
X109739411Y-112949559D01*
X109821589Y-112795813D01*
X109872195Y-112628990D01*
X109885000Y-112498977D01*
X109885000Y-112498969D01*
X109889281Y-112455500D01*
X109885000Y-112412031D01*
X109885000Y-106984347D01*
X109933447Y-106893709D01*
X109983628Y-106728285D01*
X110000572Y-106556250D01*
X110000572Y-105643750D01*
X109983628Y-105471715D01*
X109933447Y-105306291D01*
X109885000Y-105215653D01*
X109885000Y-103043465D01*
X109889281Y-102999999D01*
X109885000Y-102956533D01*
X109885000Y-96858215D01*
X109976958Y-96746164D01*
X110058447Y-96593709D01*
X110108628Y-96428285D01*
X110125572Y-96256250D01*
X110125572Y-95343750D01*
X110108628Y-95171715D01*
X110058447Y-95006291D01*
X109976958Y-94853836D01*
X109885000Y-94741785D01*
X109885000Y-93043465D01*
X109889281Y-92999999D01*
X109885000Y-92956533D01*
X109885000Y-87326810D01*
X109942292Y-87279792D01*
X110051958Y-87146164D01*
X110133447Y-86993709D01*
X110183628Y-86828285D01*
X110200572Y-86656250D01*
X110200572Y-85743750D01*
X110183628Y-85571715D01*
X110133447Y-85406291D01*
X110051958Y-85253836D01*
X109942292Y-85120208D01*
X109919566Y-85101557D01*
X109995226Y-84918898D01*
X110035000Y-84718939D01*
X110035000Y-84515061D01*
X109995226Y-84315102D01*
X109917205Y-84126744D01*
X109803937Y-83957226D01*
X109659774Y-83813063D01*
X109490256Y-83699795D01*
X109301898Y-83621774D01*
X109245044Y-83610465D01*
X108688572Y-83053994D01*
X108688572Y-82580000D01*
X108676312Y-82455518D01*
X108640002Y-82335820D01*
X108604820Y-82270000D01*
X108640002Y-82204180D01*
X108676312Y-82084482D01*
X108688572Y-81960000D01*
X108688572Y-81310000D01*
X108676312Y-81185518D01*
X108640002Y-81065820D01*
X108604820Y-81000000D01*
X108640002Y-80934180D01*
X108676312Y-80814482D01*
X108688572Y-80690000D01*
X108688572Y-80040000D01*
X108676312Y-79915518D01*
X108640002Y-79795820D01*
X108604820Y-79730000D01*
X108640002Y-79664180D01*
X108676312Y-79544482D01*
X108688572Y-79420000D01*
X108685500Y-79380750D01*
X108526750Y-79222000D01*
X107415000Y-79222000D01*
X107415000Y-79242000D01*
X107161000Y-79242000D01*
X107161000Y-79222000D01*
X106049250Y-79222000D01*
X105890500Y-79380750D01*
X105887428Y-79420000D01*
X105899688Y-79544482D01*
X105918046Y-79605000D01*
X104749801Y-79605000D01*
X104633804Y-79489003D01*
X104610001Y-79459999D01*
X104494276Y-79365026D01*
X104362247Y-79294454D01*
X104218986Y-79250997D01*
X104107333Y-79240000D01*
X104107322Y-79240000D01*
X104070000Y-79236324D01*
X104032678Y-79240000D01*
X102719283Y-79240000D01*
X102716008Y-79206745D01*
X102665472Y-79040149D01*
X102583405Y-78886613D01*
X102487704Y-78770000D01*
X105887428Y-78770000D01*
X105890500Y-78809250D01*
X106049250Y-78968000D01*
X107161000Y-78968000D01*
X107161000Y-78293750D01*
X107415000Y-78293750D01*
X107415000Y-78968000D01*
X108526750Y-78968000D01*
X108685500Y-78809250D01*
X108688572Y-78770000D01*
X108676312Y-78645518D01*
X108640002Y-78525820D01*
X108581037Y-78415506D01*
X108501685Y-78318815D01*
X108404994Y-78239463D01*
X108294680Y-78180498D01*
X108174982Y-78144188D01*
X108050500Y-78131928D01*
X107573750Y-78135000D01*
X107415000Y-78293750D01*
X107161000Y-78293750D01*
X107002250Y-78135000D01*
X106525500Y-78131928D01*
X106401018Y-78144188D01*
X106281320Y-78180498D01*
X106171006Y-78239463D01*
X106074315Y-78318815D01*
X105994963Y-78415506D01*
X105935998Y-78525820D01*
X105899688Y-78645518D01*
X105887428Y-78770000D01*
X102487704Y-78770000D01*
X102472962Y-78752038D01*
X102338387Y-78641595D01*
X102184851Y-78559528D01*
X102018255Y-78508992D01*
X101845001Y-78491928D01*
X100154999Y-78491928D01*
X99981745Y-78508992D01*
X99815149Y-78559528D01*
X99661613Y-78641595D01*
X99527038Y-78752038D01*
X99416595Y-78886613D01*
X99334528Y-79040149D01*
X99283992Y-79206745D01*
X99266928Y-79379999D01*
X99266928Y-80620001D01*
X99283992Y-80793255D01*
X99334528Y-80959851D01*
X99416595Y-81113387D01*
X99527038Y-81247962D01*
X99661613Y-81358405D01*
X99771114Y-81416934D01*
X99705655Y-81470655D01*
X99517583Y-81699821D01*
X99377834Y-81961275D01*
X99291776Y-82244968D01*
X99262718Y-82540000D01*
X99291776Y-82835032D01*
X99377834Y-83118725D01*
X99517583Y-83380179D01*
X99705655Y-83609345D01*
X99934821Y-83797417D01*
X100196275Y-83937166D01*
X100479968Y-84023224D01*
X100701064Y-84045000D01*
X101298936Y-84045000D01*
X101520032Y-84023224D01*
X101803725Y-83937166D01*
X102065179Y-83797417D01*
X102294345Y-83609345D01*
X102482417Y-83380179D01*
X102525273Y-83300000D01*
X103622678Y-83300000D01*
X103660000Y-83303676D01*
X103697322Y-83300000D01*
X103697333Y-83300000D01*
X103808986Y-83289003D01*
X103952247Y-83245546D01*
X104084276Y-83174974D01*
X104200001Y-83080001D01*
X104223803Y-83050998D01*
X104879802Y-82395000D01*
X105918046Y-82395000D01*
X105899688Y-82455518D01*
X105887428Y-82580000D01*
X105887428Y-83230000D01*
X105899688Y-83354482D01*
X105935998Y-83474180D01*
X105994963Y-83584494D01*
X106074315Y-83681185D01*
X106171006Y-83760537D01*
X106281320Y-83819502D01*
X106401018Y-83855812D01*
X106525500Y-83868072D01*
X106999494Y-83868072D01*
X107993465Y-84862044D01*
X108004774Y-84918898D01*
X108021091Y-84958290D01*
X107931680Y-84910498D01*
X107811982Y-84874188D01*
X107687500Y-84861928D01*
X107485750Y-84865000D01*
X107327000Y-85023750D01*
X107327000Y-86073000D01*
X107347000Y-86073000D01*
X107347000Y-86327000D01*
X107327000Y-86327000D01*
X107327000Y-87376250D01*
X107485750Y-87535000D01*
X107687500Y-87538072D01*
X107811982Y-87525812D01*
X107931680Y-87489502D01*
X108041994Y-87430537D01*
X108115001Y-87370622D01*
X108115001Y-88138281D01*
X108050500Y-88131928D01*
X107573750Y-88135000D01*
X107415000Y-88293750D01*
X107415000Y-88968000D01*
X107435000Y-88968000D01*
X107435000Y-89222000D01*
X107415000Y-89222000D01*
X107415000Y-89242000D01*
X107161000Y-89242000D01*
X107161000Y-89222000D01*
X106049250Y-89222000D01*
X105890500Y-89380750D01*
X105887428Y-89420000D01*
X105899688Y-89544482D01*
X105918046Y-89605000D01*
X104879801Y-89605000D01*
X104763804Y-89489003D01*
X104740001Y-89459999D01*
X104624276Y-89365026D01*
X104492247Y-89294454D01*
X104348986Y-89250997D01*
X104237333Y-89240000D01*
X104237322Y-89240000D01*
X104200000Y-89236324D01*
X104162678Y-89240000D01*
X102719283Y-89240000D01*
X102716008Y-89206745D01*
X102665472Y-89040149D01*
X102583405Y-88886613D01*
X102487704Y-88770000D01*
X105887428Y-88770000D01*
X105890500Y-88809250D01*
X106049250Y-88968000D01*
X107161000Y-88968000D01*
X107161000Y-88293750D01*
X107002250Y-88135000D01*
X106525500Y-88131928D01*
X106401018Y-88144188D01*
X106281320Y-88180498D01*
X106171006Y-88239463D01*
X106074315Y-88318815D01*
X105994963Y-88415506D01*
X105935998Y-88525820D01*
X105899688Y-88645518D01*
X105887428Y-88770000D01*
X102487704Y-88770000D01*
X102472962Y-88752038D01*
X102338387Y-88641595D01*
X102184851Y-88559528D01*
X102018255Y-88508992D01*
X101845001Y-88491928D01*
X100154999Y-88491928D01*
X99981745Y-88508992D01*
X99815149Y-88559528D01*
X99661613Y-88641595D01*
X99527038Y-88752038D01*
X99416595Y-88886613D01*
X99334528Y-89040149D01*
X99283992Y-89206745D01*
X99266928Y-89379999D01*
X99266928Y-90620001D01*
X99283992Y-90793255D01*
X99334528Y-90959851D01*
X99416595Y-91113387D01*
X99527038Y-91247962D01*
X99661613Y-91358405D01*
X99771114Y-91416934D01*
X99705655Y-91470655D01*
X99517583Y-91699821D01*
X99377834Y-91961275D01*
X99291776Y-92244968D01*
X99262718Y-92540000D01*
X99291776Y-92835032D01*
X99377834Y-93118725D01*
X99517583Y-93380179D01*
X99705655Y-93609345D01*
X99934821Y-93797417D01*
X100196275Y-93937166D01*
X100479968Y-94023224D01*
X100701064Y-94045000D01*
X101298936Y-94045000D01*
X101520032Y-94023224D01*
X101803725Y-93937166D01*
X102065179Y-93797417D01*
X102294345Y-93609345D01*
X102482417Y-93380179D01*
X102525273Y-93300000D01*
X103422678Y-93300000D01*
X103460000Y-93303676D01*
X103497322Y-93300000D01*
X103497333Y-93300000D01*
X103608986Y-93289003D01*
X103752247Y-93245546D01*
X103884276Y-93174974D01*
X104000001Y-93080001D01*
X104023804Y-93050997D01*
X104679802Y-92395000D01*
X105918046Y-92395000D01*
X105899688Y-92455518D01*
X105887428Y-92580000D01*
X105887428Y-93230000D01*
X105899688Y-93354482D01*
X105935998Y-93474180D01*
X105994963Y-93584494D01*
X106074315Y-93681185D01*
X106171006Y-93760537D01*
X106281320Y-93819502D01*
X106401018Y-93855812D01*
X106525500Y-93868072D01*
X108050500Y-93868072D01*
X108115001Y-93861719D01*
X108115001Y-94711344D01*
X108063685Y-94648815D01*
X107966994Y-94569463D01*
X107856680Y-94510498D01*
X107736982Y-94474188D01*
X107612500Y-94461928D01*
X107410750Y-94465000D01*
X107252000Y-94623750D01*
X107252000Y-95673000D01*
X107272000Y-95673000D01*
X107272000Y-95927000D01*
X107252000Y-95927000D01*
X107252000Y-96976250D01*
X107410750Y-97135000D01*
X107612500Y-97138072D01*
X107736982Y-97125812D01*
X107856680Y-97089502D01*
X107966994Y-97030537D01*
X108063685Y-96951185D01*
X108115001Y-96888657D01*
X108115000Y-98138281D01*
X108050500Y-98131928D01*
X107573750Y-98135000D01*
X107415000Y-98293750D01*
X107415000Y-98968000D01*
X107435000Y-98968000D01*
X107435000Y-99222000D01*
X107415000Y-99222000D01*
X107415000Y-99242000D01*
X107161000Y-99242000D01*
X107161000Y-99222000D01*
X106049250Y-99222000D01*
X105890500Y-99380750D01*
X105887428Y-99420000D01*
X105899688Y-99544482D01*
X105918046Y-99605000D01*
X104749801Y-99605000D01*
X104633804Y-99489003D01*
X104610001Y-99459999D01*
X104494276Y-99365026D01*
X104362247Y-99294454D01*
X104218986Y-99250997D01*
X104107333Y-99240000D01*
X104107322Y-99240000D01*
X104070000Y-99236324D01*
X104032678Y-99240000D01*
X102719283Y-99240000D01*
X102716008Y-99206745D01*
X102665472Y-99040149D01*
X102583405Y-98886613D01*
X102487704Y-98770000D01*
X105887428Y-98770000D01*
X105890500Y-98809250D01*
X106049250Y-98968000D01*
X107161000Y-98968000D01*
X107161000Y-98293750D01*
X107002250Y-98135000D01*
X106525500Y-98131928D01*
X106401018Y-98144188D01*
X106281320Y-98180498D01*
X106171006Y-98239463D01*
X106074315Y-98318815D01*
X105994963Y-98415506D01*
X105935998Y-98525820D01*
X105899688Y-98645518D01*
X105887428Y-98770000D01*
X102487704Y-98770000D01*
X102472962Y-98752038D01*
X102338387Y-98641595D01*
X102184851Y-98559528D01*
X102018255Y-98508992D01*
X101845001Y-98491928D01*
X100154999Y-98491928D01*
X99981745Y-98508992D01*
X99815149Y-98559528D01*
X99661613Y-98641595D01*
X99527038Y-98752038D01*
X99416595Y-98886613D01*
X99334528Y-99040149D01*
X99283992Y-99206745D01*
X99266928Y-99379999D01*
X99266928Y-100620001D01*
X99283992Y-100793255D01*
X99334528Y-100959851D01*
X99416595Y-101113387D01*
X99527038Y-101247962D01*
X99661613Y-101358405D01*
X99771114Y-101416934D01*
X99705655Y-101470655D01*
X99517583Y-101699821D01*
X99377834Y-101961275D01*
X99291776Y-102244968D01*
X99262718Y-102540000D01*
X99291776Y-102835032D01*
X99377834Y-103118725D01*
X99517583Y-103380179D01*
X99705655Y-103609345D01*
X99934821Y-103797417D01*
X100196275Y-103937166D01*
X100479968Y-104023224D01*
X100701064Y-104045000D01*
X101298936Y-104045000D01*
X101520032Y-104023224D01*
X101803725Y-103937166D01*
X102065179Y-103797417D01*
X102294345Y-103609345D01*
X102482417Y-103380179D01*
X102525273Y-103300000D01*
X103422678Y-103300000D01*
X103460000Y-103303676D01*
X103497322Y-103300000D01*
X103497333Y-103300000D01*
X103608986Y-103289003D01*
X103752247Y-103245546D01*
X103884276Y-103174974D01*
X104000001Y-103080001D01*
X104023803Y-103050998D01*
X104679802Y-102395000D01*
X105918046Y-102395000D01*
X105899688Y-102455518D01*
X105887428Y-102580000D01*
X105887428Y-103230000D01*
X105899688Y-103354482D01*
X105935998Y-103474180D01*
X105994963Y-103584494D01*
X106074315Y-103681185D01*
X106171006Y-103760537D01*
X106281320Y-103819502D01*
X106401018Y-103855812D01*
X106525500Y-103868072D01*
X108050500Y-103868072D01*
X108115001Y-103861719D01*
X108115001Y-104932155D01*
X108007708Y-105020208D01*
X108002492Y-105026564D01*
X107938685Y-104948815D01*
X107841994Y-104869463D01*
X107731680Y-104810498D01*
X107611982Y-104774188D01*
X107487500Y-104761928D01*
X107285750Y-104765000D01*
X107127000Y-104923750D01*
X107127000Y-105973000D01*
X107147000Y-105973000D01*
X107147000Y-106227000D01*
X107127000Y-106227000D01*
X107127000Y-107276250D01*
X107285750Y-107435000D01*
X107487500Y-107438072D01*
X107611982Y-107425812D01*
X107731680Y-107389502D01*
X107841994Y-107330537D01*
X107938685Y-107251185D01*
X108002492Y-107173436D01*
X108007708Y-107179792D01*
X108115001Y-107267845D01*
X108115000Y-108138281D01*
X108050500Y-108131928D01*
X107573750Y-108135000D01*
X107415000Y-108293750D01*
X107415000Y-108968000D01*
X107435000Y-108968000D01*
X107435000Y-109222000D01*
X107415000Y-109222000D01*
X107415000Y-109242000D01*
X107161000Y-109242000D01*
X107161000Y-109222000D01*
X106049250Y-109222000D01*
X105890500Y-109380750D01*
X105887428Y-109420000D01*
X105899688Y-109544482D01*
X105918046Y-109605000D01*
X104379801Y-109605000D01*
X104163804Y-109389003D01*
X104140001Y-109359999D01*
X104024276Y-109265026D01*
X103892247Y-109194454D01*
X103748986Y-109150997D01*
X103637333Y-109140000D01*
X103637322Y-109140000D01*
X103600000Y-109136324D01*
X103562678Y-109140000D01*
X102719283Y-109140000D01*
X102716008Y-109106745D01*
X102665472Y-108940149D01*
X102583405Y-108786613D01*
X102569772Y-108770000D01*
X105887428Y-108770000D01*
X105890500Y-108809250D01*
X106049250Y-108968000D01*
X107161000Y-108968000D01*
X107161000Y-108293750D01*
X107002250Y-108135000D01*
X106525500Y-108131928D01*
X106401018Y-108144188D01*
X106281320Y-108180498D01*
X106171006Y-108239463D01*
X106074315Y-108318815D01*
X105994963Y-108415506D01*
X105935998Y-108525820D01*
X105899688Y-108645518D01*
X105887428Y-108770000D01*
X102569772Y-108770000D01*
X102472962Y-108652038D01*
X102338387Y-108541595D01*
X102184851Y-108459528D01*
X102018255Y-108408992D01*
X101845001Y-108391928D01*
X100154999Y-108391928D01*
X99981745Y-108408992D01*
X99815149Y-108459528D01*
X99661613Y-108541595D01*
X99527038Y-108652038D01*
X99416595Y-108786613D01*
X99334528Y-108940149D01*
X99283992Y-109106745D01*
X99266928Y-109279999D01*
X99266928Y-110520001D01*
X99283992Y-110693255D01*
X99334528Y-110859851D01*
X99416595Y-111013387D01*
X99527038Y-111147962D01*
X99661613Y-111258405D01*
X99771114Y-111316934D01*
X99705655Y-111370655D01*
X99517583Y-111599821D01*
X99377834Y-111861275D01*
X99291776Y-112144968D01*
X99262718Y-112440000D01*
X99291776Y-112735032D01*
X99377834Y-113018725D01*
X99517583Y-113280179D01*
X99705655Y-113509345D01*
X99934821Y-113697417D01*
X100196275Y-113837166D01*
X100205617Y-113840000D01*
X98160000Y-113840000D01*
X98160000Y-106800000D01*
X105874428Y-106800000D01*
X105886688Y-106924482D01*
X105922998Y-107044180D01*
X105981963Y-107154494D01*
X106061315Y-107251185D01*
X106158006Y-107330537D01*
X106268320Y-107389502D01*
X106388018Y-107425812D01*
X106512500Y-107438072D01*
X106714250Y-107435000D01*
X106873000Y-107276250D01*
X106873000Y-106227000D01*
X106036250Y-106227000D01*
X105877500Y-106385750D01*
X105874428Y-106800000D01*
X98160000Y-106800000D01*
X98160000Y-105400000D01*
X105874428Y-105400000D01*
X105877500Y-105814250D01*
X106036250Y-105973000D01*
X106873000Y-105973000D01*
X106873000Y-104923750D01*
X106714250Y-104765000D01*
X106512500Y-104761928D01*
X106388018Y-104774188D01*
X106268320Y-104810498D01*
X106158006Y-104869463D01*
X106061315Y-104948815D01*
X105981963Y-105045506D01*
X105922998Y-105155820D01*
X105886688Y-105275518D01*
X105874428Y-105400000D01*
X98160000Y-105400000D01*
X98160000Y-96500000D01*
X105999428Y-96500000D01*
X106011688Y-96624482D01*
X106047998Y-96744180D01*
X106106963Y-96854494D01*
X106186315Y-96951185D01*
X106283006Y-97030537D01*
X106393320Y-97089502D01*
X106513018Y-97125812D01*
X106637500Y-97138072D01*
X106839250Y-97135000D01*
X106998000Y-96976250D01*
X106998000Y-95927000D01*
X106161250Y-95927000D01*
X106002500Y-96085750D01*
X105999428Y-96500000D01*
X98160000Y-96500000D01*
X98160000Y-95100000D01*
X105999428Y-95100000D01*
X106002500Y-95514250D01*
X106161250Y-95673000D01*
X106998000Y-95673000D01*
X106998000Y-94623750D01*
X106839250Y-94465000D01*
X106637500Y-94461928D01*
X106513018Y-94474188D01*
X106393320Y-94510498D01*
X106283006Y-94569463D01*
X106186315Y-94648815D01*
X106106963Y-94745506D01*
X106047998Y-94855820D01*
X106011688Y-94975518D01*
X105999428Y-95100000D01*
X98160000Y-95100000D01*
X98160000Y-86900000D01*
X106074428Y-86900000D01*
X106086688Y-87024482D01*
X106122998Y-87144180D01*
X106181963Y-87254494D01*
X106261315Y-87351185D01*
X106358006Y-87430537D01*
X106468320Y-87489502D01*
X106588018Y-87525812D01*
X106712500Y-87538072D01*
X106914250Y-87535000D01*
X107073000Y-87376250D01*
X107073000Y-86327000D01*
X106236250Y-86327000D01*
X106077500Y-86485750D01*
X106074428Y-86900000D01*
X98160000Y-86900000D01*
X98160000Y-85500000D01*
X106074428Y-85500000D01*
X106077500Y-85914250D01*
X106236250Y-86073000D01*
X107073000Y-86073000D01*
X107073000Y-85023750D01*
X106914250Y-84865000D01*
X106712500Y-84861928D01*
X106588018Y-84874188D01*
X106468320Y-84910498D01*
X106358006Y-84969463D01*
X106261315Y-85048815D01*
X106181963Y-85145506D01*
X106122998Y-85255820D01*
X106086688Y-85375518D01*
X106074428Y-85500000D01*
X98160000Y-85500000D01*
X98160000Y-77324193D01*
X130215000Y-77324193D01*
X130215000Y-77675807D01*
X130283596Y-78020665D01*
X130418153Y-78345515D01*
X130613500Y-78637871D01*
X130862129Y-78886500D01*
X131154485Y-79081847D01*
X131479335Y-79216404D01*
X131824193Y-79285000D01*
X132175807Y-79285000D01*
X132520665Y-79216404D01*
X132845515Y-79081847D01*
X133137871Y-78886500D01*
X133386500Y-78637871D01*
X133581847Y-78345515D01*
X133716404Y-78020665D01*
X133785000Y-77675807D01*
X133785000Y-77324193D01*
X137835000Y-77324193D01*
X137835000Y-77675807D01*
X137903596Y-78020665D01*
X138038153Y-78345515D01*
X138233500Y-78637871D01*
X138482129Y-78886500D01*
X138774485Y-79081847D01*
X139099335Y-79216404D01*
X139444193Y-79285000D01*
X139795807Y-79285000D01*
X140140665Y-79216404D01*
X140465515Y-79081847D01*
X140757871Y-78886500D01*
X141006500Y-78637871D01*
X141201847Y-78345515D01*
X141336404Y-78020665D01*
X141405000Y-77675807D01*
X141405000Y-77324193D01*
X141336404Y-76979335D01*
X141201847Y-76654485D01*
X141006500Y-76362129D01*
X140757871Y-76113500D01*
X140465515Y-75918153D01*
X140140665Y-75783596D01*
X139795807Y-75715000D01*
X139444193Y-75715000D01*
X139099335Y-75783596D01*
X138774485Y-75918153D01*
X138482129Y-76113500D01*
X138233500Y-76362129D01*
X138038153Y-76654485D01*
X137903596Y-76979335D01*
X137835000Y-77324193D01*
X133785000Y-77324193D01*
X133716404Y-76979335D01*
X133581847Y-76654485D01*
X133386500Y-76362129D01*
X133137871Y-76113500D01*
X132845515Y-75918153D01*
X132520665Y-75783596D01*
X132175807Y-75715000D01*
X131824193Y-75715000D01*
X131479335Y-75783596D01*
X131154485Y-75918153D01*
X130862129Y-76113500D01*
X130613500Y-76362129D01*
X130418153Y-76654485D01*
X130283596Y-76979335D01*
X130215000Y-77324193D01*
X98160000Y-77324193D01*
X98160000Y-75660000D01*
X151340000Y-75660000D01*
X151340000Y-75865015D01*
%TA.AperFunction,Conductor*%
D26*
G36*
X151340000Y-75865015D02*
G01*
X151284494Y-75819463D01*
X151174180Y-75760498D01*
X151054482Y-75724188D01*
X150930000Y-75711928D01*
X148630000Y-75711928D01*
X148505518Y-75724188D01*
X148385820Y-75760498D01*
X148275506Y-75819463D01*
X148178815Y-75898815D01*
X148099463Y-75995506D01*
X148040498Y-76105820D01*
X148004188Y-76225518D01*
X147991928Y-76350000D01*
X147991928Y-78650000D01*
X148002845Y-78760841D01*
X147996275Y-78762834D01*
X147734821Y-78902583D01*
X147505655Y-79090655D01*
X147354367Y-79275000D01*
X145483469Y-79275000D01*
X145440000Y-79270719D01*
X145396531Y-79275000D01*
X145396523Y-79275000D01*
X145281306Y-79286348D01*
X145266509Y-79287805D01*
X145215903Y-79303157D01*
X145099687Y-79338411D01*
X144945941Y-79420589D01*
X144811183Y-79531183D01*
X144783468Y-79564954D01*
X144404952Y-79943470D01*
X144371184Y-79971183D01*
X144343471Y-80004951D01*
X144343468Y-80004954D01*
X144260590Y-80105941D01*
X144178412Y-80259687D01*
X144127805Y-80426510D01*
X144110719Y-80600000D01*
X144115001Y-80643479D01*
X144115000Y-90135532D01*
X144098815Y-90148815D01*
X144019463Y-90245506D01*
X143960498Y-90355820D01*
X143924188Y-90475518D01*
X143911928Y-90600000D01*
X143911928Y-91182133D01*
X143798102Y-91204774D01*
X143609744Y-91282795D01*
X143440226Y-91396063D01*
X143296063Y-91540226D01*
X143182795Y-91709744D01*
X143104774Y-91898102D01*
X143065000Y-92098061D01*
X143065000Y-92301939D01*
X143104774Y-92501898D01*
X143151623Y-92615000D01*
X140509651Y-92615000D01*
X140476958Y-92553836D01*
X140367292Y-92420208D01*
X140233664Y-92310542D01*
X140081209Y-92229053D01*
X139915785Y-92178872D01*
X139743750Y-92161928D01*
X139256250Y-92161928D01*
X139084215Y-92178872D01*
X138918791Y-92229053D01*
X138766336Y-92310542D01*
X138632708Y-92420208D01*
X138627492Y-92426564D01*
X138563685Y-92348815D01*
X138466994Y-92269463D01*
X138356680Y-92210498D01*
X138236982Y-92174188D01*
X138112500Y-92161928D01*
X137910750Y-92165000D01*
X137752000Y-92323750D01*
X137752000Y-93373000D01*
X137772000Y-93373000D01*
X137772000Y-93627000D01*
X137752000Y-93627000D01*
X137752000Y-93647000D01*
X137498000Y-93647000D01*
X137498000Y-93627000D01*
X136661250Y-93627000D01*
X136502500Y-93785750D01*
X136499428Y-94200000D01*
X136511688Y-94324482D01*
X136547998Y-94444180D01*
X136606963Y-94554494D01*
X136686315Y-94651185D01*
X136690321Y-94654473D01*
X136643125Y-94679700D01*
X136554494Y-94606963D01*
X136444180Y-94547998D01*
X136324482Y-94511688D01*
X136200000Y-94499428D01*
X135785750Y-94502500D01*
X135627000Y-94661250D01*
X135627000Y-95498000D01*
X135647000Y-95498000D01*
X135647000Y-95752000D01*
X135627000Y-95752000D01*
X135627000Y-95772000D01*
X135373000Y-95772000D01*
X135373000Y-95752000D01*
X135353000Y-95752000D01*
X135353000Y-95498000D01*
X135373000Y-95498000D01*
X135373000Y-94661250D01*
X135234990Y-94523240D01*
X135234990Y-92800000D01*
X136499428Y-92800000D01*
X136502500Y-93214250D01*
X136661250Y-93373000D01*
X137498000Y-93373000D01*
X137498000Y-92323750D01*
X137339250Y-92165000D01*
X137137500Y-92161928D01*
X137013018Y-92174188D01*
X136893320Y-92210498D01*
X136783006Y-92269463D01*
X136686315Y-92348815D01*
X136606963Y-92445506D01*
X136547998Y-92555820D01*
X136511688Y-92675518D01*
X136499428Y-92800000D01*
X135234990Y-92800000D01*
X135234990Y-91393455D01*
X135239271Y-91349989D01*
X135234990Y-91306523D01*
X135234990Y-91306513D01*
X135222185Y-91176500D01*
X135171579Y-91009677D01*
X135089401Y-90855931D01*
X135047417Y-90804774D01*
X135006522Y-90754943D01*
X135006520Y-90754941D01*
X134978807Y-90721173D01*
X134945039Y-90693460D01*
X133056534Y-88804956D01*
X133028817Y-88771183D01*
X132894059Y-88660589D01*
X132740313Y-88578411D01*
X132573490Y-88527805D01*
X132443477Y-88515000D01*
X132443469Y-88515000D01*
X132400000Y-88510719D01*
X132356531Y-88515000D01*
X128319786Y-88515000D01*
X128325572Y-88456250D01*
X128325572Y-87543750D01*
X128308628Y-87371715D01*
X128258447Y-87206291D01*
X128176958Y-87053836D01*
X128067292Y-86920208D01*
X127933664Y-86810542D01*
X127781209Y-86729053D01*
X127615785Y-86678872D01*
X127443750Y-86661928D01*
X127113506Y-86661928D01*
X126706524Y-86254946D01*
X126678807Y-86221173D01*
X126544049Y-86110579D01*
X126390303Y-86028401D01*
X126223480Y-85977795D01*
X126093467Y-85964990D01*
X126093459Y-85964990D01*
X126049990Y-85960709D01*
X126006521Y-85964990D01*
X117147271Y-85964990D01*
X117001898Y-85904774D01*
X116801939Y-85865000D01*
X116598061Y-85865000D01*
X116398102Y-85904774D01*
X116360000Y-85920556D01*
X116360000Y-84944193D01*
X132755000Y-84944193D01*
X132755000Y-85295807D01*
X132823596Y-85640665D01*
X132958153Y-85965515D01*
X133153500Y-86257871D01*
X133402129Y-86506500D01*
X133694485Y-86701847D01*
X134019335Y-86836404D01*
X134364193Y-86905000D01*
X134715807Y-86905000D01*
X135060665Y-86836404D01*
X135385515Y-86701847D01*
X135677871Y-86506500D01*
X135926500Y-86257871D01*
X136121847Y-85965515D01*
X136256404Y-85640665D01*
X136325000Y-85295807D01*
X136325000Y-84944193D01*
X136256404Y-84599335D01*
X136121847Y-84274485D01*
X135926500Y-83982129D01*
X135677871Y-83733500D01*
X135385515Y-83538153D01*
X135060665Y-83403596D01*
X134715807Y-83335000D01*
X134364193Y-83335000D01*
X134019335Y-83403596D01*
X133694485Y-83538153D01*
X133402129Y-83733500D01*
X133153500Y-83982129D01*
X132958153Y-84274485D01*
X132823596Y-84599335D01*
X132755000Y-84944193D01*
X116360000Y-84944193D01*
X116360000Y-83700912D01*
X116363676Y-83663589D01*
X116360000Y-83626266D01*
X116360000Y-83626257D01*
X116349003Y-83514604D01*
X116305546Y-83371343D01*
X116234974Y-83239314D01*
X116200450Y-83197246D01*
X116163799Y-83152586D01*
X116163795Y-83152582D01*
X116140001Y-83123589D01*
X116111009Y-83099796D01*
X114135214Y-81124002D01*
X114111411Y-81094999D01*
X114054738Y-81048489D01*
X114028820Y-81000000D01*
X114064002Y-80934180D01*
X114100312Y-80814482D01*
X114112572Y-80690000D01*
X114112572Y-80040000D01*
X114100312Y-79915518D01*
X114064002Y-79795820D01*
X114028820Y-79730000D01*
X114064002Y-79664180D01*
X114100312Y-79544482D01*
X114112572Y-79420000D01*
X114112572Y-79119678D01*
X118365000Y-79119678D01*
X118365000Y-80880321D01*
X118388657Y-81120515D01*
X118482148Y-81428714D01*
X118633969Y-81712751D01*
X118838286Y-81961714D01*
X119087248Y-82166031D01*
X119371285Y-82317852D01*
X119679484Y-82411343D01*
X120000000Y-82442911D01*
X120320515Y-82411343D01*
X120628714Y-82317852D01*
X120912751Y-82166031D01*
X121161714Y-81961714D01*
X121366031Y-81712752D01*
X121517852Y-81428715D01*
X121611343Y-81120516D01*
X121635000Y-80880322D01*
X121635000Y-79119678D01*
X121611343Y-78879484D01*
X121517852Y-78571285D01*
X121453024Y-78450000D01*
X123361928Y-78450000D01*
X123361928Y-81550000D01*
X123378992Y-81723254D01*
X123429528Y-81889850D01*
X123511595Y-82043386D01*
X123622038Y-82177962D01*
X123756614Y-82288405D01*
X123910150Y-82370472D01*
X124076746Y-82421008D01*
X124250000Y-82438072D01*
X125750000Y-82438072D01*
X125923254Y-82421008D01*
X126089850Y-82370472D01*
X126243386Y-82288405D01*
X126377962Y-82177962D01*
X126488405Y-82043386D01*
X126570472Y-81889850D01*
X126621008Y-81723254D01*
X126638072Y-81550000D01*
X126638072Y-78450000D01*
X126621008Y-78276746D01*
X126570472Y-78110150D01*
X126488405Y-77956614D01*
X126377962Y-77822038D01*
X126243386Y-77711595D01*
X126089850Y-77629528D01*
X125923254Y-77578992D01*
X125750000Y-77561928D01*
X124250000Y-77561928D01*
X124076746Y-77578992D01*
X123910150Y-77629528D01*
X123756614Y-77711595D01*
X123622038Y-77822038D01*
X123511595Y-77956614D01*
X123429528Y-78110150D01*
X123378992Y-78276746D01*
X123361928Y-78450000D01*
X121453024Y-78450000D01*
X121366031Y-78287248D01*
X121161714Y-78038286D01*
X120912752Y-77833969D01*
X120628715Y-77682148D01*
X120320516Y-77588657D01*
X120000000Y-77557089D01*
X119679485Y-77588657D01*
X119371286Y-77682148D01*
X119087249Y-77833969D01*
X118838287Y-78038286D01*
X118633970Y-78287248D01*
X118482149Y-78571285D01*
X118388658Y-78879484D01*
X118365000Y-79119678D01*
X114112572Y-79119678D01*
X114112572Y-78770000D01*
X114100312Y-78645518D01*
X114064002Y-78525820D01*
X114005037Y-78415506D01*
X113925685Y-78318815D01*
X113828994Y-78239463D01*
X113718680Y-78180498D01*
X113598982Y-78144188D01*
X113474500Y-78131928D01*
X111949500Y-78131928D01*
X111825018Y-78144188D01*
X111705320Y-78180498D01*
X111595006Y-78239463D01*
X111498315Y-78318815D01*
X111418963Y-78415506D01*
X111359998Y-78525820D01*
X111323688Y-78645518D01*
X111311428Y-78770000D01*
X111311428Y-79420000D01*
X111323688Y-79544482D01*
X111359998Y-79664180D01*
X111368534Y-79680150D01*
X111275224Y-79730026D01*
X111159499Y-79824999D01*
X111135696Y-79854003D01*
X110689003Y-80300696D01*
X110659999Y-80324499D01*
X110626761Y-80365000D01*
X110565026Y-80440224D01*
X110494455Y-80572253D01*
X110494454Y-80572254D01*
X110450997Y-80715515D01*
X110440000Y-80827168D01*
X110440000Y-80827178D01*
X110436324Y-80864500D01*
X110440000Y-80901822D01*
X110440001Y-90362658D01*
X110440000Y-90362668D01*
X110440000Y-90362678D01*
X110436324Y-90400000D01*
X110440000Y-90437323D01*
X110440001Y-94661714D01*
X110357795Y-94784744D01*
X110279774Y-94973102D01*
X110240000Y-95173061D01*
X110240000Y-95376939D01*
X110279774Y-95576898D01*
X110357795Y-95765256D01*
X110440000Y-95888285D01*
X110440001Y-100462658D01*
X110440000Y-100462668D01*
X110440000Y-100462678D01*
X110436324Y-100500000D01*
X110440000Y-100537322D01*
X110440001Y-109828168D01*
X110436324Y-109865500D01*
X110440001Y-109902833D01*
X110450998Y-110014486D01*
X110461234Y-110048230D01*
X110494454Y-110157746D01*
X110565026Y-110289776D01*
X110633327Y-110373000D01*
X110660000Y-110405501D01*
X110688998Y-110429299D01*
X111135696Y-110875997D01*
X111159499Y-110905001D01*
X111275224Y-110999974D01*
X111275273Y-111000000D01*
X111275224Y-111000026D01*
X111159499Y-111094999D01*
X111135699Y-111123999D01*
X111113499Y-111146199D01*
X111084498Y-111170000D01*
X111029370Y-111237175D01*
X110989525Y-111285725D01*
X110933250Y-111391008D01*
X110918953Y-111417755D01*
X110875496Y-111561016D01*
X110864499Y-111672669D01*
X110864499Y-111672679D01*
X110860823Y-111710001D01*
X110864499Y-111747324D01*
X110864500Y-113452669D01*
X110860823Y-113490001D01*
X110864500Y-113527334D01*
X110875497Y-113638987D01*
X110880052Y-113654002D01*
X110918953Y-113782247D01*
X110949823Y-113840000D01*
X108227107Y-113840000D01*
X108294680Y-113819502D01*
X108349873Y-113790000D01*
X108507031Y-113790000D01*
X108550500Y-113794281D01*
X108593969Y-113790000D01*
X108593977Y-113790000D01*
X108723990Y-113777195D01*
X108890813Y-113726589D01*
X109044559Y-113644411D01*
X109179317Y-113533817D01*
X109207034Y-113500044D01*
X109595045Y-113112033D01*
X109628817Y-113084317D01*
X109739411Y-112949559D01*
X109821589Y-112795813D01*
X109872195Y-112628990D01*
X109885000Y-112498977D01*
X109885000Y-112498969D01*
X109889281Y-112455500D01*
X109885000Y-112412031D01*
X109885000Y-106984347D01*
X109933447Y-106893709D01*
X109983628Y-106728285D01*
X110000572Y-106556250D01*
X110000572Y-105643750D01*
X109983628Y-105471715D01*
X109933447Y-105306291D01*
X109885000Y-105215653D01*
X109885000Y-103043465D01*
X109889281Y-102999999D01*
X109885000Y-102956533D01*
X109885000Y-96858215D01*
X109976958Y-96746164D01*
X110058447Y-96593709D01*
X110108628Y-96428285D01*
X110125572Y-96256250D01*
X110125572Y-95343750D01*
X110108628Y-95171715D01*
X110058447Y-95006291D01*
X109976958Y-94853836D01*
X109885000Y-94741785D01*
X109885000Y-93043465D01*
X109889281Y-92999999D01*
X109885000Y-92956533D01*
X109885000Y-87326810D01*
X109942292Y-87279792D01*
X110051958Y-87146164D01*
X110133447Y-86993709D01*
X110183628Y-86828285D01*
X110200572Y-86656250D01*
X110200572Y-85743750D01*
X110183628Y-85571715D01*
X110133447Y-85406291D01*
X110051958Y-85253836D01*
X109942292Y-85120208D01*
X109919566Y-85101557D01*
X109995226Y-84918898D01*
X110035000Y-84718939D01*
X110035000Y-84515061D01*
X109995226Y-84315102D01*
X109917205Y-84126744D01*
X109803937Y-83957226D01*
X109659774Y-83813063D01*
X109490256Y-83699795D01*
X109301898Y-83621774D01*
X109245044Y-83610465D01*
X108688572Y-83053994D01*
X108688572Y-82580000D01*
X108676312Y-82455518D01*
X108640002Y-82335820D01*
X108604820Y-82270000D01*
X108640002Y-82204180D01*
X108676312Y-82084482D01*
X108688572Y-81960000D01*
X108688572Y-81310000D01*
X108676312Y-81185518D01*
X108640002Y-81065820D01*
X108604820Y-81000000D01*
X108640002Y-80934180D01*
X108676312Y-80814482D01*
X108688572Y-80690000D01*
X108688572Y-80040000D01*
X108676312Y-79915518D01*
X108640002Y-79795820D01*
X108604820Y-79730000D01*
X108640002Y-79664180D01*
X108676312Y-79544482D01*
X108688572Y-79420000D01*
X108685500Y-79380750D01*
X108526750Y-79222000D01*
X107415000Y-79222000D01*
X107415000Y-79242000D01*
X107161000Y-79242000D01*
X107161000Y-79222000D01*
X106049250Y-79222000D01*
X105890500Y-79380750D01*
X105887428Y-79420000D01*
X105899688Y-79544482D01*
X105918046Y-79605000D01*
X104749801Y-79605000D01*
X104633804Y-79489003D01*
X104610001Y-79459999D01*
X104494276Y-79365026D01*
X104362247Y-79294454D01*
X104218986Y-79250997D01*
X104107333Y-79240000D01*
X104107322Y-79240000D01*
X104070000Y-79236324D01*
X104032678Y-79240000D01*
X102719283Y-79240000D01*
X102716008Y-79206745D01*
X102665472Y-79040149D01*
X102583405Y-78886613D01*
X102487704Y-78770000D01*
X105887428Y-78770000D01*
X105890500Y-78809250D01*
X106049250Y-78968000D01*
X107161000Y-78968000D01*
X107161000Y-78293750D01*
X107415000Y-78293750D01*
X107415000Y-78968000D01*
X108526750Y-78968000D01*
X108685500Y-78809250D01*
X108688572Y-78770000D01*
X108676312Y-78645518D01*
X108640002Y-78525820D01*
X108581037Y-78415506D01*
X108501685Y-78318815D01*
X108404994Y-78239463D01*
X108294680Y-78180498D01*
X108174982Y-78144188D01*
X108050500Y-78131928D01*
X107573750Y-78135000D01*
X107415000Y-78293750D01*
X107161000Y-78293750D01*
X107002250Y-78135000D01*
X106525500Y-78131928D01*
X106401018Y-78144188D01*
X106281320Y-78180498D01*
X106171006Y-78239463D01*
X106074315Y-78318815D01*
X105994963Y-78415506D01*
X105935998Y-78525820D01*
X105899688Y-78645518D01*
X105887428Y-78770000D01*
X102487704Y-78770000D01*
X102472962Y-78752038D01*
X102338387Y-78641595D01*
X102184851Y-78559528D01*
X102018255Y-78508992D01*
X101845001Y-78491928D01*
X100154999Y-78491928D01*
X99981745Y-78508992D01*
X99815149Y-78559528D01*
X99661613Y-78641595D01*
X99527038Y-78752038D01*
X99416595Y-78886613D01*
X99334528Y-79040149D01*
X99283992Y-79206745D01*
X99266928Y-79379999D01*
X99266928Y-80620001D01*
X99283992Y-80793255D01*
X99334528Y-80959851D01*
X99416595Y-81113387D01*
X99527038Y-81247962D01*
X99661613Y-81358405D01*
X99771114Y-81416934D01*
X99705655Y-81470655D01*
X99517583Y-81699821D01*
X99377834Y-81961275D01*
X99291776Y-82244968D01*
X99262718Y-82540000D01*
X99291776Y-82835032D01*
X99377834Y-83118725D01*
X99517583Y-83380179D01*
X99705655Y-83609345D01*
X99934821Y-83797417D01*
X100196275Y-83937166D01*
X100479968Y-84023224D01*
X100701064Y-84045000D01*
X101298936Y-84045000D01*
X101520032Y-84023224D01*
X101803725Y-83937166D01*
X102065179Y-83797417D01*
X102294345Y-83609345D01*
X102482417Y-83380179D01*
X102525273Y-83300000D01*
X103622678Y-83300000D01*
X103660000Y-83303676D01*
X103697322Y-83300000D01*
X103697333Y-83300000D01*
X103808986Y-83289003D01*
X103952247Y-83245546D01*
X104084276Y-83174974D01*
X104200001Y-83080001D01*
X104223803Y-83050998D01*
X104879802Y-82395000D01*
X105918046Y-82395000D01*
X105899688Y-82455518D01*
X105887428Y-82580000D01*
X105887428Y-83230000D01*
X105899688Y-83354482D01*
X105935998Y-83474180D01*
X105994963Y-83584494D01*
X106074315Y-83681185D01*
X106171006Y-83760537D01*
X106281320Y-83819502D01*
X106401018Y-83855812D01*
X106525500Y-83868072D01*
X106999494Y-83868072D01*
X107993465Y-84862044D01*
X108004774Y-84918898D01*
X108021091Y-84958290D01*
X107931680Y-84910498D01*
X107811982Y-84874188D01*
X107687500Y-84861928D01*
X107485750Y-84865000D01*
X107327000Y-85023750D01*
X107327000Y-86073000D01*
X107347000Y-86073000D01*
X107347000Y-86327000D01*
X107327000Y-86327000D01*
X107327000Y-87376250D01*
X107485750Y-87535000D01*
X107687500Y-87538072D01*
X107811982Y-87525812D01*
X107931680Y-87489502D01*
X108041994Y-87430537D01*
X108115001Y-87370622D01*
X108115001Y-88138281D01*
X108050500Y-88131928D01*
X107573750Y-88135000D01*
X107415000Y-88293750D01*
X107415000Y-88968000D01*
X107435000Y-88968000D01*
X107435000Y-89222000D01*
X107415000Y-89222000D01*
X107415000Y-89242000D01*
X107161000Y-89242000D01*
X107161000Y-89222000D01*
X106049250Y-89222000D01*
X105890500Y-89380750D01*
X105887428Y-89420000D01*
X105899688Y-89544482D01*
X105918046Y-89605000D01*
X104879801Y-89605000D01*
X104763804Y-89489003D01*
X104740001Y-89459999D01*
X104624276Y-89365026D01*
X104492247Y-89294454D01*
X104348986Y-89250997D01*
X104237333Y-89240000D01*
X104237322Y-89240000D01*
X104200000Y-89236324D01*
X104162678Y-89240000D01*
X102719283Y-89240000D01*
X102716008Y-89206745D01*
X102665472Y-89040149D01*
X102583405Y-88886613D01*
X102487704Y-88770000D01*
X105887428Y-88770000D01*
X105890500Y-88809250D01*
X106049250Y-88968000D01*
X107161000Y-88968000D01*
X107161000Y-88293750D01*
X107002250Y-88135000D01*
X106525500Y-88131928D01*
X106401018Y-88144188D01*
X106281320Y-88180498D01*
X106171006Y-88239463D01*
X106074315Y-88318815D01*
X105994963Y-88415506D01*
X105935998Y-88525820D01*
X105899688Y-88645518D01*
X105887428Y-88770000D01*
X102487704Y-88770000D01*
X102472962Y-88752038D01*
X102338387Y-88641595D01*
X102184851Y-88559528D01*
X102018255Y-88508992D01*
X101845001Y-88491928D01*
X100154999Y-88491928D01*
X99981745Y-88508992D01*
X99815149Y-88559528D01*
X99661613Y-88641595D01*
X99527038Y-88752038D01*
X99416595Y-88886613D01*
X99334528Y-89040149D01*
X99283992Y-89206745D01*
X99266928Y-89379999D01*
X99266928Y-90620001D01*
X99283992Y-90793255D01*
X99334528Y-90959851D01*
X99416595Y-91113387D01*
X99527038Y-91247962D01*
X99661613Y-91358405D01*
X99771114Y-91416934D01*
X99705655Y-91470655D01*
X99517583Y-91699821D01*
X99377834Y-91961275D01*
X99291776Y-92244968D01*
X99262718Y-92540000D01*
X99291776Y-92835032D01*
X99377834Y-93118725D01*
X99517583Y-93380179D01*
X99705655Y-93609345D01*
X99934821Y-93797417D01*
X100196275Y-93937166D01*
X100479968Y-94023224D01*
X100701064Y-94045000D01*
X101298936Y-94045000D01*
X101520032Y-94023224D01*
X101803725Y-93937166D01*
X102065179Y-93797417D01*
X102294345Y-93609345D01*
X102482417Y-93380179D01*
X102525273Y-93300000D01*
X103422678Y-93300000D01*
X103460000Y-93303676D01*
X103497322Y-93300000D01*
X103497333Y-93300000D01*
X103608986Y-93289003D01*
X103752247Y-93245546D01*
X103884276Y-93174974D01*
X104000001Y-93080001D01*
X104023804Y-93050997D01*
X104679802Y-92395000D01*
X105918046Y-92395000D01*
X105899688Y-92455518D01*
X105887428Y-92580000D01*
X105887428Y-93230000D01*
X105899688Y-93354482D01*
X105935998Y-93474180D01*
X105994963Y-93584494D01*
X106074315Y-93681185D01*
X106171006Y-93760537D01*
X106281320Y-93819502D01*
X106401018Y-93855812D01*
X106525500Y-93868072D01*
X108050500Y-93868072D01*
X108115001Y-93861719D01*
X108115001Y-94711344D01*
X108063685Y-94648815D01*
X107966994Y-94569463D01*
X107856680Y-94510498D01*
X107736982Y-94474188D01*
X107612500Y-94461928D01*
X107410750Y-94465000D01*
X107252000Y-94623750D01*
X107252000Y-95673000D01*
X107272000Y-95673000D01*
X107272000Y-95927000D01*
X107252000Y-95927000D01*
X107252000Y-96976250D01*
X107410750Y-97135000D01*
X107612500Y-97138072D01*
X107736982Y-97125812D01*
X107856680Y-97089502D01*
X107966994Y-97030537D01*
X108063685Y-96951185D01*
X108115001Y-96888657D01*
X108115000Y-98138281D01*
X108050500Y-98131928D01*
X107573750Y-98135000D01*
X107415000Y-98293750D01*
X107415000Y-98968000D01*
X107435000Y-98968000D01*
X107435000Y-99222000D01*
X107415000Y-99222000D01*
X107415000Y-99242000D01*
X107161000Y-99242000D01*
X107161000Y-99222000D01*
X106049250Y-99222000D01*
X105890500Y-99380750D01*
X105887428Y-99420000D01*
X105899688Y-99544482D01*
X105918046Y-99605000D01*
X104749801Y-99605000D01*
X104633804Y-99489003D01*
X104610001Y-99459999D01*
X104494276Y-99365026D01*
X104362247Y-99294454D01*
X104218986Y-99250997D01*
X104107333Y-99240000D01*
X104107322Y-99240000D01*
X104070000Y-99236324D01*
X104032678Y-99240000D01*
X102719283Y-99240000D01*
X102716008Y-99206745D01*
X102665472Y-99040149D01*
X102583405Y-98886613D01*
X102487704Y-98770000D01*
X105887428Y-98770000D01*
X105890500Y-98809250D01*
X106049250Y-98968000D01*
X107161000Y-98968000D01*
X107161000Y-98293750D01*
X107002250Y-98135000D01*
X106525500Y-98131928D01*
X106401018Y-98144188D01*
X106281320Y-98180498D01*
X106171006Y-98239463D01*
X106074315Y-98318815D01*
X105994963Y-98415506D01*
X105935998Y-98525820D01*
X105899688Y-98645518D01*
X105887428Y-98770000D01*
X102487704Y-98770000D01*
X102472962Y-98752038D01*
X102338387Y-98641595D01*
X102184851Y-98559528D01*
X102018255Y-98508992D01*
X101845001Y-98491928D01*
X100154999Y-98491928D01*
X99981745Y-98508992D01*
X99815149Y-98559528D01*
X99661613Y-98641595D01*
X99527038Y-98752038D01*
X99416595Y-98886613D01*
X99334528Y-99040149D01*
X99283992Y-99206745D01*
X99266928Y-99379999D01*
X99266928Y-100620001D01*
X99283992Y-100793255D01*
X99334528Y-100959851D01*
X99416595Y-101113387D01*
X99527038Y-101247962D01*
X99661613Y-101358405D01*
X99771114Y-101416934D01*
X99705655Y-101470655D01*
X99517583Y-101699821D01*
X99377834Y-101961275D01*
X99291776Y-102244968D01*
X99262718Y-102540000D01*
X99291776Y-102835032D01*
X99377834Y-103118725D01*
X99517583Y-103380179D01*
X99705655Y-103609345D01*
X99934821Y-103797417D01*
X100196275Y-103937166D01*
X100479968Y-104023224D01*
X100701064Y-104045000D01*
X101298936Y-104045000D01*
X101520032Y-104023224D01*
X101803725Y-103937166D01*
X102065179Y-103797417D01*
X102294345Y-103609345D01*
X102482417Y-103380179D01*
X102525273Y-103300000D01*
X103422678Y-103300000D01*
X103460000Y-103303676D01*
X103497322Y-103300000D01*
X103497333Y-103300000D01*
X103608986Y-103289003D01*
X103752247Y-103245546D01*
X103884276Y-103174974D01*
X104000001Y-103080001D01*
X104023803Y-103050998D01*
X104679802Y-102395000D01*
X105918046Y-102395000D01*
X105899688Y-102455518D01*
X105887428Y-102580000D01*
X105887428Y-103230000D01*
X105899688Y-103354482D01*
X105935998Y-103474180D01*
X105994963Y-103584494D01*
X106074315Y-103681185D01*
X106171006Y-103760537D01*
X106281320Y-103819502D01*
X106401018Y-103855812D01*
X106525500Y-103868072D01*
X108050500Y-103868072D01*
X108115001Y-103861719D01*
X108115001Y-104932155D01*
X108007708Y-105020208D01*
X108002492Y-105026564D01*
X107938685Y-104948815D01*
X107841994Y-104869463D01*
X107731680Y-104810498D01*
X107611982Y-104774188D01*
X107487500Y-104761928D01*
X107285750Y-104765000D01*
X107127000Y-104923750D01*
X107127000Y-105973000D01*
X107147000Y-105973000D01*
X107147000Y-106227000D01*
X107127000Y-106227000D01*
X107127000Y-107276250D01*
X107285750Y-107435000D01*
X107487500Y-107438072D01*
X107611982Y-107425812D01*
X107731680Y-107389502D01*
X107841994Y-107330537D01*
X107938685Y-107251185D01*
X108002492Y-107173436D01*
X108007708Y-107179792D01*
X108115001Y-107267845D01*
X108115000Y-108138281D01*
X108050500Y-108131928D01*
X107573750Y-108135000D01*
X107415000Y-108293750D01*
X107415000Y-108968000D01*
X107435000Y-108968000D01*
X107435000Y-109222000D01*
X107415000Y-109222000D01*
X107415000Y-109242000D01*
X107161000Y-109242000D01*
X107161000Y-109222000D01*
X106049250Y-109222000D01*
X105890500Y-109380750D01*
X105887428Y-109420000D01*
X105899688Y-109544482D01*
X105918046Y-109605000D01*
X104379801Y-109605000D01*
X104163804Y-109389003D01*
X104140001Y-109359999D01*
X104024276Y-109265026D01*
X103892247Y-109194454D01*
X103748986Y-109150997D01*
X103637333Y-109140000D01*
X103637322Y-109140000D01*
X103600000Y-109136324D01*
X103562678Y-109140000D01*
X102719283Y-109140000D01*
X102716008Y-109106745D01*
X102665472Y-108940149D01*
X102583405Y-108786613D01*
X102569772Y-108770000D01*
X105887428Y-108770000D01*
X105890500Y-108809250D01*
X106049250Y-108968000D01*
X107161000Y-108968000D01*
X107161000Y-108293750D01*
X107002250Y-108135000D01*
X106525500Y-108131928D01*
X106401018Y-108144188D01*
X106281320Y-108180498D01*
X106171006Y-108239463D01*
X106074315Y-108318815D01*
X105994963Y-108415506D01*
X105935998Y-108525820D01*
X105899688Y-108645518D01*
X105887428Y-108770000D01*
X102569772Y-108770000D01*
X102472962Y-108652038D01*
X102338387Y-108541595D01*
X102184851Y-108459528D01*
X102018255Y-108408992D01*
X101845001Y-108391928D01*
X100154999Y-108391928D01*
X99981745Y-108408992D01*
X99815149Y-108459528D01*
X99661613Y-108541595D01*
X99527038Y-108652038D01*
X99416595Y-108786613D01*
X99334528Y-108940149D01*
X99283992Y-109106745D01*
X99266928Y-109279999D01*
X99266928Y-110520001D01*
X99283992Y-110693255D01*
X99334528Y-110859851D01*
X99416595Y-111013387D01*
X99527038Y-111147962D01*
X99661613Y-111258405D01*
X99771114Y-111316934D01*
X99705655Y-111370655D01*
X99517583Y-111599821D01*
X99377834Y-111861275D01*
X99291776Y-112144968D01*
X99262718Y-112440000D01*
X99291776Y-112735032D01*
X99377834Y-113018725D01*
X99517583Y-113280179D01*
X99705655Y-113509345D01*
X99934821Y-113697417D01*
X100196275Y-113837166D01*
X100205617Y-113840000D01*
X98160000Y-113840000D01*
X98160000Y-106800000D01*
X105874428Y-106800000D01*
X105886688Y-106924482D01*
X105922998Y-107044180D01*
X105981963Y-107154494D01*
X106061315Y-107251185D01*
X106158006Y-107330537D01*
X106268320Y-107389502D01*
X106388018Y-107425812D01*
X106512500Y-107438072D01*
X106714250Y-107435000D01*
X106873000Y-107276250D01*
X106873000Y-106227000D01*
X106036250Y-106227000D01*
X105877500Y-106385750D01*
X105874428Y-106800000D01*
X98160000Y-106800000D01*
X98160000Y-105400000D01*
X105874428Y-105400000D01*
X105877500Y-105814250D01*
X106036250Y-105973000D01*
X106873000Y-105973000D01*
X106873000Y-104923750D01*
X106714250Y-104765000D01*
X106512500Y-104761928D01*
X106388018Y-104774188D01*
X106268320Y-104810498D01*
X106158006Y-104869463D01*
X106061315Y-104948815D01*
X105981963Y-105045506D01*
X105922998Y-105155820D01*
X105886688Y-105275518D01*
X105874428Y-105400000D01*
X98160000Y-105400000D01*
X98160000Y-96500000D01*
X105999428Y-96500000D01*
X106011688Y-96624482D01*
X106047998Y-96744180D01*
X106106963Y-96854494D01*
X106186315Y-96951185D01*
X106283006Y-97030537D01*
X106393320Y-97089502D01*
X106513018Y-97125812D01*
X106637500Y-97138072D01*
X106839250Y-97135000D01*
X106998000Y-96976250D01*
X106998000Y-95927000D01*
X106161250Y-95927000D01*
X106002500Y-96085750D01*
X105999428Y-96500000D01*
X98160000Y-96500000D01*
X98160000Y-95100000D01*
X105999428Y-95100000D01*
X106002500Y-95514250D01*
X106161250Y-95673000D01*
X106998000Y-95673000D01*
X106998000Y-94623750D01*
X106839250Y-94465000D01*
X106637500Y-94461928D01*
X106513018Y-94474188D01*
X106393320Y-94510498D01*
X106283006Y-94569463D01*
X106186315Y-94648815D01*
X106106963Y-94745506D01*
X106047998Y-94855820D01*
X106011688Y-94975518D01*
X105999428Y-95100000D01*
X98160000Y-95100000D01*
X98160000Y-86900000D01*
X106074428Y-86900000D01*
X106086688Y-87024482D01*
X106122998Y-87144180D01*
X106181963Y-87254494D01*
X106261315Y-87351185D01*
X106358006Y-87430537D01*
X106468320Y-87489502D01*
X106588018Y-87525812D01*
X106712500Y-87538072D01*
X106914250Y-87535000D01*
X107073000Y-87376250D01*
X107073000Y-86327000D01*
X106236250Y-86327000D01*
X106077500Y-86485750D01*
X106074428Y-86900000D01*
X98160000Y-86900000D01*
X98160000Y-85500000D01*
X106074428Y-85500000D01*
X106077500Y-85914250D01*
X106236250Y-86073000D01*
X107073000Y-86073000D01*
X107073000Y-85023750D01*
X106914250Y-84865000D01*
X106712500Y-84861928D01*
X106588018Y-84874188D01*
X106468320Y-84910498D01*
X106358006Y-84969463D01*
X106261315Y-85048815D01*
X106181963Y-85145506D01*
X106122998Y-85255820D01*
X106086688Y-85375518D01*
X106074428Y-85500000D01*
X98160000Y-85500000D01*
X98160000Y-77324193D01*
X130215000Y-77324193D01*
X130215000Y-77675807D01*
X130283596Y-78020665D01*
X130418153Y-78345515D01*
X130613500Y-78637871D01*
X130862129Y-78886500D01*
X131154485Y-79081847D01*
X131479335Y-79216404D01*
X131824193Y-79285000D01*
X132175807Y-79285000D01*
X132520665Y-79216404D01*
X132845515Y-79081847D01*
X133137871Y-78886500D01*
X133386500Y-78637871D01*
X133581847Y-78345515D01*
X133716404Y-78020665D01*
X133785000Y-77675807D01*
X133785000Y-77324193D01*
X137835000Y-77324193D01*
X137835000Y-77675807D01*
X137903596Y-78020665D01*
X138038153Y-78345515D01*
X138233500Y-78637871D01*
X138482129Y-78886500D01*
X138774485Y-79081847D01*
X139099335Y-79216404D01*
X139444193Y-79285000D01*
X139795807Y-79285000D01*
X140140665Y-79216404D01*
X140465515Y-79081847D01*
X140757871Y-78886500D01*
X141006500Y-78637871D01*
X141201847Y-78345515D01*
X141336404Y-78020665D01*
X141405000Y-77675807D01*
X141405000Y-77324193D01*
X141336404Y-76979335D01*
X141201847Y-76654485D01*
X141006500Y-76362129D01*
X140757871Y-76113500D01*
X140465515Y-75918153D01*
X140140665Y-75783596D01*
X139795807Y-75715000D01*
X139444193Y-75715000D01*
X139099335Y-75783596D01*
X138774485Y-75918153D01*
X138482129Y-76113500D01*
X138233500Y-76362129D01*
X138038153Y-76654485D01*
X137903596Y-76979335D01*
X137835000Y-77324193D01*
X133785000Y-77324193D01*
X133716404Y-76979335D01*
X133581847Y-76654485D01*
X133386500Y-76362129D01*
X133137871Y-76113500D01*
X132845515Y-75918153D01*
X132520665Y-75783596D01*
X132175807Y-75715000D01*
X131824193Y-75715000D01*
X131479335Y-75783596D01*
X131154485Y-75918153D01*
X130862129Y-76113500D01*
X130613500Y-76362129D01*
X130418153Y-76654485D01*
X130283596Y-76979335D01*
X130215000Y-77324193D01*
X98160000Y-77324193D01*
X98160000Y-75660000D01*
X151340000Y-75660000D01*
X151340000Y-75865015D01*
G37*
%TD.AperFunction*%
D25*
X150098815Y-91901185D02*
X150195506Y-91980537D01*
X150305820Y-92039502D01*
X150425518Y-92075812D01*
X150550000Y-92088072D01*
X151340000Y-92088072D01*
X151340001Y-113840000D01*
X131207538Y-113840000D01*
X131235000Y-113701939D01*
X131235000Y-113498061D01*
X131195226Y-113298102D01*
X131117205Y-113109744D01*
X131003937Y-112940226D01*
X130859774Y-112796063D01*
X130690256Y-112682795D01*
X130501898Y-112604774D01*
X130301939Y-112565000D01*
X130239802Y-112565000D01*
X129548072Y-111873271D01*
X129548072Y-110300000D01*
X129535812Y-110175518D01*
X129499502Y-110055820D01*
X129440537Y-109945506D01*
X129361185Y-109848815D01*
X129264494Y-109769463D01*
X129154180Y-109710498D01*
X129034482Y-109674188D01*
X128910000Y-109661928D01*
X128170000Y-109661928D01*
X128045518Y-109674188D01*
X127925820Y-109710498D01*
X127905000Y-109721627D01*
X127884180Y-109710498D01*
X127764482Y-109674188D01*
X127640000Y-109661928D01*
X126900000Y-109661928D01*
X126775518Y-109674188D01*
X126655820Y-109710498D01*
X126635000Y-109721627D01*
X126614180Y-109710498D01*
X126494482Y-109674188D01*
X126370000Y-109661928D01*
X125630000Y-109661928D01*
X125505518Y-109674188D01*
X125385820Y-109710498D01*
X125365000Y-109721627D01*
X125344180Y-109710498D01*
X125224482Y-109674188D01*
X125100000Y-109661928D01*
X124360000Y-109661928D01*
X124235518Y-109674188D01*
X124115820Y-109710498D01*
X124095000Y-109721627D01*
X124074180Y-109710498D01*
X123954482Y-109674188D01*
X123830000Y-109661928D01*
X123090000Y-109661928D01*
X122965518Y-109674188D01*
X122845820Y-109710498D01*
X122735506Y-109769463D01*
X122638815Y-109848815D01*
X122559463Y-109945506D01*
X122500498Y-110055820D01*
X122464188Y-110175518D01*
X122451928Y-110300000D01*
X122451928Y-111390142D01*
X122426898Y-111379774D01*
X122226939Y-111340000D01*
X122023061Y-111340000D01*
X121823102Y-111379774D01*
X121634744Y-111457795D01*
X121597909Y-111482407D01*
X121651185Y-111438685D01*
X121730537Y-111341994D01*
X121789502Y-111231680D01*
X121825812Y-111111982D01*
X121838072Y-110987500D01*
X121835000Y-110785750D01*
X121676250Y-110627000D01*
X120627000Y-110627000D01*
X120627000Y-110647000D01*
X120373000Y-110647000D01*
X120373000Y-110627000D01*
X119323750Y-110627000D01*
X119165000Y-110785750D01*
X119161928Y-110987500D01*
X119174188Y-111111982D01*
X119210498Y-111231680D01*
X119269463Y-111341994D01*
X119348815Y-111438685D01*
X119426564Y-111502492D01*
X119420208Y-111507708D01*
X119310542Y-111641336D01*
X119229053Y-111793791D01*
X119178872Y-111959215D01*
X119161928Y-112131250D01*
X119161928Y-112618750D01*
X119178872Y-112790785D01*
X119229053Y-112956209D01*
X119310542Y-113108664D01*
X119420208Y-113242292D01*
X119553836Y-113351958D01*
X119706291Y-113433447D01*
X119871715Y-113483628D01*
X120043750Y-113500572D01*
X120956250Y-113500572D01*
X121128285Y-113483628D01*
X121293709Y-113433447D01*
X121446164Y-113351958D01*
X121570929Y-113249565D01*
X121634744Y-113292205D01*
X121823102Y-113370226D01*
X122023061Y-113410000D01*
X122226939Y-113410000D01*
X122426898Y-113370226D01*
X122615256Y-113292205D01*
X122722959Y-113220240D01*
X122735506Y-113230537D01*
X122845820Y-113289502D01*
X122965518Y-113325812D01*
X123090000Y-113338072D01*
X123830000Y-113338072D01*
X123954482Y-113325812D01*
X124074180Y-113289502D01*
X124095000Y-113278373D01*
X124115820Y-113289502D01*
X124235518Y-113325812D01*
X124360000Y-113338072D01*
X125100000Y-113338072D01*
X125224482Y-113325812D01*
X125344180Y-113289502D01*
X125365000Y-113278373D01*
X125385820Y-113289502D01*
X125505518Y-113325812D01*
X125630000Y-113338072D01*
X126197051Y-113338072D01*
X126204774Y-113376898D01*
X126282795Y-113565256D01*
X126396063Y-113734774D01*
X126501289Y-113840000D01*
X115071211Y-113840000D01*
X116111004Y-112800208D01*
X116140001Y-112776411D01*
X116234974Y-112660686D01*
X116305546Y-112528657D01*
X116349003Y-112385396D01*
X116360000Y-112273743D01*
X116360000Y-112273734D01*
X116363676Y-112236411D01*
X116360000Y-112199088D01*
X116360000Y-110012500D01*
X119161928Y-110012500D01*
X119165000Y-110214250D01*
X119323750Y-110373000D01*
X120373000Y-110373000D01*
X120373000Y-109536250D01*
X120627000Y-109536250D01*
X120627000Y-110373000D01*
X121676250Y-110373000D01*
X121835000Y-110214250D01*
X121838072Y-110012500D01*
X121825812Y-109888018D01*
X121789502Y-109768320D01*
X121730537Y-109658006D01*
X121651185Y-109561315D01*
X121554494Y-109481963D01*
X121444180Y-109422998D01*
X121324482Y-109386688D01*
X121200000Y-109374428D01*
X120785750Y-109377500D01*
X120627000Y-109536250D01*
X120373000Y-109536250D01*
X120214250Y-109377500D01*
X119800000Y-109374428D01*
X119675518Y-109386688D01*
X119555820Y-109422998D01*
X119445506Y-109481963D01*
X119348815Y-109561315D01*
X119269463Y-109658006D01*
X119210498Y-109768320D01*
X119174188Y-109888018D01*
X119161928Y-110012500D01*
X116360000Y-110012500D01*
X116360000Y-108800000D01*
X122451928Y-108800000D01*
X122464188Y-108924482D01*
X122500498Y-109044180D01*
X122559463Y-109154494D01*
X122638815Y-109251185D01*
X122735506Y-109330537D01*
X122845820Y-109389502D01*
X122965518Y-109425812D01*
X123090000Y-109438072D01*
X123174250Y-109435000D01*
X123333000Y-109276250D01*
X123333000Y-107727000D01*
X122613750Y-107727000D01*
X122455000Y-107885750D01*
X122451928Y-108800000D01*
X116360000Y-108800000D01*
X116360000Y-106400000D01*
X122451928Y-106400000D01*
X122455000Y-107314250D01*
X122613750Y-107473000D01*
X123333000Y-107473000D01*
X123333000Y-105923750D01*
X123587000Y-105923750D01*
X123587000Y-107473000D01*
X123607000Y-107473000D01*
X123607000Y-107727000D01*
X123587000Y-107727000D01*
X123587000Y-109276250D01*
X123745750Y-109435000D01*
X123830000Y-109438072D01*
X123954482Y-109425812D01*
X124074180Y-109389502D01*
X124095000Y-109378373D01*
X124115820Y-109389502D01*
X124235518Y-109425812D01*
X124360000Y-109438072D01*
X125100000Y-109438072D01*
X125224482Y-109425812D01*
X125344180Y-109389502D01*
X125365000Y-109378373D01*
X125385820Y-109389502D01*
X125505518Y-109425812D01*
X125630000Y-109438072D01*
X125714250Y-109435000D01*
X125873000Y-109276250D01*
X125873000Y-107727000D01*
X126127000Y-107727000D01*
X126127000Y-109276250D01*
X126285750Y-109435000D01*
X126370000Y-109438072D01*
X126494482Y-109425812D01*
X126614180Y-109389502D01*
X126635000Y-109378373D01*
X126655820Y-109389502D01*
X126775518Y-109425812D01*
X126900000Y-109438072D01*
X126984250Y-109435000D01*
X127143000Y-109276250D01*
X127143000Y-107727000D01*
X126127000Y-107727000D01*
X125873000Y-107727000D01*
X125853000Y-107727000D01*
X125853000Y-107473000D01*
X125873000Y-107473000D01*
X125873000Y-105923750D01*
X125714250Y-105765000D01*
X125630000Y-105761928D01*
X125505518Y-105774188D01*
X125385820Y-105810498D01*
X125365000Y-105821627D01*
X125344180Y-105810498D01*
X125224482Y-105774188D01*
X125100000Y-105761928D01*
X124360000Y-105761928D01*
X124235518Y-105774188D01*
X124115820Y-105810498D01*
X124095000Y-105821627D01*
X124074180Y-105810498D01*
X123954482Y-105774188D01*
X123830000Y-105761928D01*
X123745750Y-105765000D01*
X123587000Y-105923750D01*
X123333000Y-105923750D01*
X123174250Y-105765000D01*
X123090000Y-105761928D01*
X122965518Y-105774188D01*
X122845820Y-105810498D01*
X122735506Y-105869463D01*
X122638815Y-105948815D01*
X122559463Y-106045506D01*
X122500498Y-106155820D01*
X122464188Y-106275518D01*
X122451928Y-106400000D01*
X116360000Y-106400000D01*
X116360000Y-102900000D01*
X118399428Y-102900000D01*
X118411688Y-103024482D01*
X118447998Y-103144180D01*
X118506963Y-103254494D01*
X118586315Y-103351185D01*
X118683006Y-103430537D01*
X118793320Y-103489502D01*
X118913018Y-103525812D01*
X119037500Y-103538072D01*
X119239250Y-103535000D01*
X119398000Y-103376250D01*
X119398000Y-102327000D01*
X118561250Y-102327000D01*
X118402500Y-102485750D01*
X118399428Y-102900000D01*
X116360000Y-102900000D01*
X116360000Y-101500000D01*
X118399428Y-101500000D01*
X118402500Y-101914250D01*
X118561250Y-102073000D01*
X119398000Y-102073000D01*
X119398000Y-101023750D01*
X119239250Y-100865000D01*
X119037500Y-100861928D01*
X118913018Y-100874188D01*
X118793320Y-100910498D01*
X118683006Y-100969463D01*
X118586315Y-101048815D01*
X118506963Y-101145506D01*
X118447998Y-101255820D01*
X118411688Y-101375518D01*
X118399428Y-101500000D01*
X116360000Y-101500000D01*
X116360000Y-98756750D01*
X118740000Y-98756750D01*
X118751109Y-98858773D01*
X118789194Y-98977918D01*
X118849792Y-99087343D01*
X118930574Y-99182844D01*
X119028434Y-99260750D01*
X119139613Y-99318067D01*
X119259838Y-99352593D01*
X119384488Y-99363001D01*
X119839250Y-99360000D01*
X119998000Y-99201250D01*
X119998000Y-98598000D01*
X118898750Y-98598000D01*
X118740000Y-98756750D01*
X116360000Y-98756750D01*
X116360000Y-98314801D01*
X116724729Y-97950073D01*
X116782795Y-98090256D01*
X116896063Y-98259774D01*
X117040226Y-98403937D01*
X117209744Y-98517205D01*
X117398102Y-98595226D01*
X117598061Y-98635000D01*
X117801939Y-98635000D01*
X118001898Y-98595226D01*
X118190256Y-98517205D01*
X118359774Y-98403937D01*
X118403711Y-98360000D01*
X118985317Y-98360000D01*
X119076060Y-98434471D01*
X119207985Y-98504987D01*
X119351132Y-98548410D01*
X119500000Y-98563072D01*
X120272000Y-98563072D01*
X120272000Y-98598000D01*
X120252000Y-98598000D01*
X120252000Y-99201250D01*
X120410750Y-99360000D01*
X120611928Y-99361328D01*
X120611928Y-99546982D01*
X120578412Y-99609687D01*
X120527805Y-99776510D01*
X120510719Y-99950000D01*
X120515001Y-99993479D01*
X120515000Y-101111343D01*
X120463685Y-101048815D01*
X120366994Y-100969463D01*
X120256680Y-100910498D01*
X120136982Y-100874188D01*
X120012500Y-100861928D01*
X119810750Y-100865000D01*
X119652000Y-101023750D01*
X119652000Y-102073000D01*
X119672000Y-102073000D01*
X119672000Y-102327000D01*
X119652000Y-102327000D01*
X119652000Y-103376250D01*
X119810750Y-103535000D01*
X120012500Y-103538072D01*
X120136982Y-103525812D01*
X120256680Y-103489502D01*
X120366994Y-103430537D01*
X120463685Y-103351185D01*
X120527492Y-103273436D01*
X120532708Y-103279792D01*
X120666336Y-103389458D01*
X120818791Y-103470947D01*
X120984215Y-103521128D01*
X121156250Y-103538072D01*
X121643750Y-103538072D01*
X121815785Y-103521128D01*
X121981209Y-103470947D01*
X122133664Y-103389458D01*
X122267292Y-103279792D01*
X122376958Y-103146164D01*
X122458447Y-102993709D01*
X122468673Y-102960000D01*
X123655199Y-102960000D01*
X126466645Y-105771446D01*
X126370000Y-105761928D01*
X126285750Y-105765000D01*
X126127000Y-105923750D01*
X126127000Y-107473000D01*
X127143000Y-107473000D01*
X127143000Y-107453000D01*
X127397000Y-107453000D01*
X127397000Y-107473000D01*
X127417000Y-107473000D01*
X127417000Y-107727000D01*
X127397000Y-107727000D01*
X127397000Y-109276250D01*
X127555750Y-109435000D01*
X127640000Y-109438072D01*
X127764482Y-109425812D01*
X127884180Y-109389502D01*
X127905000Y-109378373D01*
X127925820Y-109389502D01*
X128045518Y-109425812D01*
X128170000Y-109438072D01*
X128910000Y-109438072D01*
X129034482Y-109425812D01*
X129154180Y-109389502D01*
X129264494Y-109330537D01*
X129361185Y-109251185D01*
X129440537Y-109154494D01*
X129499502Y-109044180D01*
X129535812Y-108924482D01*
X129548072Y-108800000D01*
X129548072Y-108360000D01*
X132185199Y-108360000D01*
X134236200Y-110411002D01*
X134259999Y-110440001D01*
X134375724Y-110534974D01*
X134507753Y-110605546D01*
X134651014Y-110649003D01*
X134762667Y-110660000D01*
X134762676Y-110660000D01*
X134799999Y-110663676D01*
X134837322Y-110660000D01*
X135265717Y-110660000D01*
X135268992Y-110693255D01*
X135319528Y-110859851D01*
X135401595Y-111013387D01*
X135512038Y-111147962D01*
X135646613Y-111258405D01*
X135800149Y-111340472D01*
X135966745Y-111391008D01*
X136139999Y-111408072D01*
X137380001Y-111408072D01*
X137553255Y-111391008D01*
X137719851Y-111340472D01*
X137873387Y-111258405D01*
X138007962Y-111147962D01*
X138118405Y-111013387D01*
X138176433Y-110904825D01*
X138340618Y-111069010D01*
X138587115Y-111233714D01*
X138861008Y-111347164D01*
X139151770Y-111405000D01*
X139448230Y-111405000D01*
X139738992Y-111347164D01*
X140012885Y-111233714D01*
X140259382Y-111069010D01*
X140469010Y-110859382D01*
X140570000Y-110708240D01*
X140670990Y-110859382D01*
X140880618Y-111069010D01*
X141127115Y-111233714D01*
X141401008Y-111347164D01*
X141691770Y-111405000D01*
X141988230Y-111405000D01*
X142278992Y-111347164D01*
X142552885Y-111233714D01*
X142799382Y-111069010D01*
X142925720Y-110942672D01*
X143516933Y-110942672D01*
X143596988Y-111193789D01*
X143864439Y-111321687D01*
X144151703Y-111394950D01*
X144447740Y-111410764D01*
X144741174Y-111368520D01*
X145020728Y-111269841D01*
X145163012Y-111193789D01*
X145243067Y-110942672D01*
X144380000Y-110079605D01*
X143516933Y-110942672D01*
X142925720Y-110942672D01*
X143009010Y-110859382D01*
X143119719Y-110693694D01*
X143337328Y-110763067D01*
X144200395Y-109900000D01*
X144559605Y-109900000D01*
X145422672Y-110763067D01*
X145673789Y-110683012D01*
X145801687Y-110415561D01*
X145874950Y-110128297D01*
X145890764Y-109832260D01*
X145848520Y-109538826D01*
X145749841Y-109259272D01*
X145673789Y-109116988D01*
X145422672Y-109036933D01*
X144559605Y-109900000D01*
X144200395Y-109900000D01*
X143337328Y-109036933D01*
X143119719Y-109106306D01*
X143009010Y-108940618D01*
X142925720Y-108857328D01*
X143516933Y-108857328D01*
X144380000Y-109720395D01*
X145243067Y-108857328D01*
X145163012Y-108606211D01*
X144895561Y-108478313D01*
X144608297Y-108405050D01*
X144312260Y-108389236D01*
X144018826Y-108431480D01*
X143739272Y-108530159D01*
X143596988Y-108606211D01*
X143516933Y-108857328D01*
X142925720Y-108857328D01*
X142799382Y-108730990D01*
X142552885Y-108566286D01*
X142278992Y-108452836D01*
X141988230Y-108395000D01*
X141691770Y-108395000D01*
X141456583Y-108441781D01*
X137278804Y-104264003D01*
X137255001Y-104234999D01*
X137139276Y-104140026D01*
X137007247Y-104069454D01*
X136863986Y-104025997D01*
X136752333Y-104015000D01*
X136752322Y-104015000D01*
X136715000Y-104011324D01*
X136677678Y-104015000D01*
X136267845Y-104015000D01*
X136179792Y-103907708D01*
X136094244Y-103837500D01*
X136139937Y-103800000D01*
X141111928Y-103800000D01*
X141111928Y-105800000D01*
X141124188Y-105924482D01*
X141160498Y-106044180D01*
X141219463Y-106154494D01*
X141298815Y-106251185D01*
X141395506Y-106330537D01*
X141505820Y-106389502D01*
X141625518Y-106425812D01*
X141750000Y-106438072D01*
X144250000Y-106438072D01*
X144374482Y-106425812D01*
X144494180Y-106389502D01*
X144604494Y-106330537D01*
X144701185Y-106251185D01*
X144780537Y-106154494D01*
X144839502Y-106044180D01*
X144875812Y-105924482D01*
X144888072Y-105800000D01*
X144888072Y-103800000D01*
X146611928Y-103800000D01*
X146611928Y-105800000D01*
X146624188Y-105924482D01*
X146660498Y-106044180D01*
X146719463Y-106154494D01*
X146798815Y-106251185D01*
X146895506Y-106330537D01*
X147005820Y-106389502D01*
X147125518Y-106425812D01*
X147250000Y-106438072D01*
X149750000Y-106438072D01*
X149874482Y-106425812D01*
X149994180Y-106389502D01*
X150104494Y-106330537D01*
X150201185Y-106251185D01*
X150280537Y-106154494D01*
X150339502Y-106044180D01*
X150375812Y-105924482D01*
X150388072Y-105800000D01*
X150388072Y-103800000D01*
X150375812Y-103675518D01*
X150339502Y-103555820D01*
X150280537Y-103445506D01*
X150201185Y-103348815D01*
X150104494Y-103269463D01*
X149994180Y-103210498D01*
X149874482Y-103174188D01*
X149750000Y-103161928D01*
X147250000Y-103161928D01*
X147125518Y-103174188D01*
X147005820Y-103210498D01*
X146895506Y-103269463D01*
X146798815Y-103348815D01*
X146719463Y-103445506D01*
X146660498Y-103555820D01*
X146624188Y-103675518D01*
X146611928Y-103800000D01*
X144888072Y-103800000D01*
X144875812Y-103675518D01*
X144839502Y-103555820D01*
X144780537Y-103445506D01*
X144701185Y-103348815D01*
X144604494Y-103269463D01*
X144494180Y-103210498D01*
X144374482Y-103174188D01*
X144250000Y-103161928D01*
X141750000Y-103161928D01*
X141625518Y-103174188D01*
X141505820Y-103210498D01*
X141395506Y-103269463D01*
X141298815Y-103348815D01*
X141219463Y-103445506D01*
X141160498Y-103555820D01*
X141124188Y-103675518D01*
X141111928Y-103800000D01*
X136139937Y-103800000D01*
X136179792Y-103767292D01*
X136289458Y-103633664D01*
X136370947Y-103481209D01*
X136421128Y-103315785D01*
X136438072Y-103143750D01*
X136438072Y-102817599D01*
X136525820Y-102864502D01*
X136645518Y-102900812D01*
X136770000Y-102913072D01*
X137830000Y-102913072D01*
X137954482Y-102900812D01*
X138074180Y-102864502D01*
X138184494Y-102805537D01*
X138281185Y-102726185D01*
X138360537Y-102629494D01*
X138400000Y-102555665D01*
X138439463Y-102629494D01*
X138518815Y-102726185D01*
X138615506Y-102805537D01*
X138725820Y-102864502D01*
X138845518Y-102900812D01*
X138970000Y-102913072D01*
X140030000Y-102913072D01*
X140154482Y-102900812D01*
X140274180Y-102864502D01*
X140384494Y-102805537D01*
X140481185Y-102726185D01*
X140514985Y-102685000D01*
X141285532Y-102685000D01*
X141298815Y-102701185D01*
X141395506Y-102780537D01*
X141505820Y-102839502D01*
X141625518Y-102875812D01*
X141750000Y-102888072D01*
X144250000Y-102888072D01*
X144281192Y-102885000D01*
X144550434Y-102885000D01*
X144556696Y-102916483D01*
X144638485Y-103113940D01*
X144757225Y-103291647D01*
X144908353Y-103442775D01*
X145086060Y-103561515D01*
X145283517Y-103643304D01*
X145493137Y-103685000D01*
X145706863Y-103685000D01*
X145916483Y-103643304D01*
X146113940Y-103561515D01*
X146291647Y-103442775D01*
X146442775Y-103291647D01*
X146561515Y-103113940D01*
X146643304Y-102916483D01*
X146685000Y-102706863D01*
X146685000Y-102493137D01*
X146643304Y-102283517D01*
X146561515Y-102086060D01*
X146442775Y-101908353D01*
X146326999Y-101792577D01*
X147395050Y-100724527D01*
X147428817Y-100696815D01*
X147459288Y-100659687D01*
X147525656Y-100578817D01*
X147539411Y-100562057D01*
X147621589Y-100408311D01*
X147672195Y-100241488D01*
X147685000Y-100111475D01*
X147685000Y-100111465D01*
X147689281Y-100067999D01*
X147685000Y-100024533D01*
X147685000Y-97638072D01*
X149750000Y-97638072D01*
X149874482Y-97625812D01*
X149994180Y-97589502D01*
X150104494Y-97530537D01*
X150201185Y-97451185D01*
X150280537Y-97354494D01*
X150339502Y-97244180D01*
X150375812Y-97124482D01*
X150388072Y-97000000D01*
X150388072Y-95000000D01*
X150375812Y-94875518D01*
X150339502Y-94755820D01*
X150280537Y-94645506D01*
X150201185Y-94548815D01*
X150104494Y-94469463D01*
X149994180Y-94410498D01*
X149874482Y-94374188D01*
X149750000Y-94361928D01*
X147707335Y-94361928D01*
X147840313Y-94321589D01*
X147994059Y-94239411D01*
X148128817Y-94128817D01*
X148156534Y-94095044D01*
X149213507Y-93038072D01*
X149450000Y-93038072D01*
X149574482Y-93025812D01*
X149694180Y-92989502D01*
X149804494Y-92930537D01*
X149901185Y-92851185D01*
X149980537Y-92754494D01*
X150039502Y-92644180D01*
X150075812Y-92524482D01*
X150088072Y-92400000D01*
X150088072Y-91888095D01*
X150098815Y-91901185D01*
%TA.AperFunction,Conductor*%
D26*
G36*
X150098815Y-91901185D02*
G01*
X150195506Y-91980537D01*
X150305820Y-92039502D01*
X150425518Y-92075812D01*
X150550000Y-92088072D01*
X151340000Y-92088072D01*
X151340001Y-113840000D01*
X131207538Y-113840000D01*
X131235000Y-113701939D01*
X131235000Y-113498061D01*
X131195226Y-113298102D01*
X131117205Y-113109744D01*
X131003937Y-112940226D01*
X130859774Y-112796063D01*
X130690256Y-112682795D01*
X130501898Y-112604774D01*
X130301939Y-112565000D01*
X130239802Y-112565000D01*
X129548072Y-111873271D01*
X129548072Y-110300000D01*
X129535812Y-110175518D01*
X129499502Y-110055820D01*
X129440537Y-109945506D01*
X129361185Y-109848815D01*
X129264494Y-109769463D01*
X129154180Y-109710498D01*
X129034482Y-109674188D01*
X128910000Y-109661928D01*
X128170000Y-109661928D01*
X128045518Y-109674188D01*
X127925820Y-109710498D01*
X127905000Y-109721627D01*
X127884180Y-109710498D01*
X127764482Y-109674188D01*
X127640000Y-109661928D01*
X126900000Y-109661928D01*
X126775518Y-109674188D01*
X126655820Y-109710498D01*
X126635000Y-109721627D01*
X126614180Y-109710498D01*
X126494482Y-109674188D01*
X126370000Y-109661928D01*
X125630000Y-109661928D01*
X125505518Y-109674188D01*
X125385820Y-109710498D01*
X125365000Y-109721627D01*
X125344180Y-109710498D01*
X125224482Y-109674188D01*
X125100000Y-109661928D01*
X124360000Y-109661928D01*
X124235518Y-109674188D01*
X124115820Y-109710498D01*
X124095000Y-109721627D01*
X124074180Y-109710498D01*
X123954482Y-109674188D01*
X123830000Y-109661928D01*
X123090000Y-109661928D01*
X122965518Y-109674188D01*
X122845820Y-109710498D01*
X122735506Y-109769463D01*
X122638815Y-109848815D01*
X122559463Y-109945506D01*
X122500498Y-110055820D01*
X122464188Y-110175518D01*
X122451928Y-110300000D01*
X122451928Y-111390142D01*
X122426898Y-111379774D01*
X122226939Y-111340000D01*
X122023061Y-111340000D01*
X121823102Y-111379774D01*
X121634744Y-111457795D01*
X121597909Y-111482407D01*
X121651185Y-111438685D01*
X121730537Y-111341994D01*
X121789502Y-111231680D01*
X121825812Y-111111982D01*
X121838072Y-110987500D01*
X121835000Y-110785750D01*
X121676250Y-110627000D01*
X120627000Y-110627000D01*
X120627000Y-110647000D01*
X120373000Y-110647000D01*
X120373000Y-110627000D01*
X119323750Y-110627000D01*
X119165000Y-110785750D01*
X119161928Y-110987500D01*
X119174188Y-111111982D01*
X119210498Y-111231680D01*
X119269463Y-111341994D01*
X119348815Y-111438685D01*
X119426564Y-111502492D01*
X119420208Y-111507708D01*
X119310542Y-111641336D01*
X119229053Y-111793791D01*
X119178872Y-111959215D01*
X119161928Y-112131250D01*
X119161928Y-112618750D01*
X119178872Y-112790785D01*
X119229053Y-112956209D01*
X119310542Y-113108664D01*
X119420208Y-113242292D01*
X119553836Y-113351958D01*
X119706291Y-113433447D01*
X119871715Y-113483628D01*
X120043750Y-113500572D01*
X120956250Y-113500572D01*
X121128285Y-113483628D01*
X121293709Y-113433447D01*
X121446164Y-113351958D01*
X121570929Y-113249565D01*
X121634744Y-113292205D01*
X121823102Y-113370226D01*
X122023061Y-113410000D01*
X122226939Y-113410000D01*
X122426898Y-113370226D01*
X122615256Y-113292205D01*
X122722959Y-113220240D01*
X122735506Y-113230537D01*
X122845820Y-113289502D01*
X122965518Y-113325812D01*
X123090000Y-113338072D01*
X123830000Y-113338072D01*
X123954482Y-113325812D01*
X124074180Y-113289502D01*
X124095000Y-113278373D01*
X124115820Y-113289502D01*
X124235518Y-113325812D01*
X124360000Y-113338072D01*
X125100000Y-113338072D01*
X125224482Y-113325812D01*
X125344180Y-113289502D01*
X125365000Y-113278373D01*
X125385820Y-113289502D01*
X125505518Y-113325812D01*
X125630000Y-113338072D01*
X126197051Y-113338072D01*
X126204774Y-113376898D01*
X126282795Y-113565256D01*
X126396063Y-113734774D01*
X126501289Y-113840000D01*
X115071211Y-113840000D01*
X116111004Y-112800208D01*
X116140001Y-112776411D01*
X116234974Y-112660686D01*
X116305546Y-112528657D01*
X116349003Y-112385396D01*
X116360000Y-112273743D01*
X116360000Y-112273734D01*
X116363676Y-112236411D01*
X116360000Y-112199088D01*
X116360000Y-110012500D01*
X119161928Y-110012500D01*
X119165000Y-110214250D01*
X119323750Y-110373000D01*
X120373000Y-110373000D01*
X120373000Y-109536250D01*
X120627000Y-109536250D01*
X120627000Y-110373000D01*
X121676250Y-110373000D01*
X121835000Y-110214250D01*
X121838072Y-110012500D01*
X121825812Y-109888018D01*
X121789502Y-109768320D01*
X121730537Y-109658006D01*
X121651185Y-109561315D01*
X121554494Y-109481963D01*
X121444180Y-109422998D01*
X121324482Y-109386688D01*
X121200000Y-109374428D01*
X120785750Y-109377500D01*
X120627000Y-109536250D01*
X120373000Y-109536250D01*
X120214250Y-109377500D01*
X119800000Y-109374428D01*
X119675518Y-109386688D01*
X119555820Y-109422998D01*
X119445506Y-109481963D01*
X119348815Y-109561315D01*
X119269463Y-109658006D01*
X119210498Y-109768320D01*
X119174188Y-109888018D01*
X119161928Y-110012500D01*
X116360000Y-110012500D01*
X116360000Y-108800000D01*
X122451928Y-108800000D01*
X122464188Y-108924482D01*
X122500498Y-109044180D01*
X122559463Y-109154494D01*
X122638815Y-109251185D01*
X122735506Y-109330537D01*
X122845820Y-109389502D01*
X122965518Y-109425812D01*
X123090000Y-109438072D01*
X123174250Y-109435000D01*
X123333000Y-109276250D01*
X123333000Y-107727000D01*
X122613750Y-107727000D01*
X122455000Y-107885750D01*
X122451928Y-108800000D01*
X116360000Y-108800000D01*
X116360000Y-106400000D01*
X122451928Y-106400000D01*
X122455000Y-107314250D01*
X122613750Y-107473000D01*
X123333000Y-107473000D01*
X123333000Y-105923750D01*
X123587000Y-105923750D01*
X123587000Y-107473000D01*
X123607000Y-107473000D01*
X123607000Y-107727000D01*
X123587000Y-107727000D01*
X123587000Y-109276250D01*
X123745750Y-109435000D01*
X123830000Y-109438072D01*
X123954482Y-109425812D01*
X124074180Y-109389502D01*
X124095000Y-109378373D01*
X124115820Y-109389502D01*
X124235518Y-109425812D01*
X124360000Y-109438072D01*
X125100000Y-109438072D01*
X125224482Y-109425812D01*
X125344180Y-109389502D01*
X125365000Y-109378373D01*
X125385820Y-109389502D01*
X125505518Y-109425812D01*
X125630000Y-109438072D01*
X125714250Y-109435000D01*
X125873000Y-109276250D01*
X125873000Y-107727000D01*
X126127000Y-107727000D01*
X126127000Y-109276250D01*
X126285750Y-109435000D01*
X126370000Y-109438072D01*
X126494482Y-109425812D01*
X126614180Y-109389502D01*
X126635000Y-109378373D01*
X126655820Y-109389502D01*
X126775518Y-109425812D01*
X126900000Y-109438072D01*
X126984250Y-109435000D01*
X127143000Y-109276250D01*
X127143000Y-107727000D01*
X126127000Y-107727000D01*
X125873000Y-107727000D01*
X125853000Y-107727000D01*
X125853000Y-107473000D01*
X125873000Y-107473000D01*
X125873000Y-105923750D01*
X125714250Y-105765000D01*
X125630000Y-105761928D01*
X125505518Y-105774188D01*
X125385820Y-105810498D01*
X125365000Y-105821627D01*
X125344180Y-105810498D01*
X125224482Y-105774188D01*
X125100000Y-105761928D01*
X124360000Y-105761928D01*
X124235518Y-105774188D01*
X124115820Y-105810498D01*
X124095000Y-105821627D01*
X124074180Y-105810498D01*
X123954482Y-105774188D01*
X123830000Y-105761928D01*
X123745750Y-105765000D01*
X123587000Y-105923750D01*
X123333000Y-105923750D01*
X123174250Y-105765000D01*
X123090000Y-105761928D01*
X122965518Y-105774188D01*
X122845820Y-105810498D01*
X122735506Y-105869463D01*
X122638815Y-105948815D01*
X122559463Y-106045506D01*
X122500498Y-106155820D01*
X122464188Y-106275518D01*
X122451928Y-106400000D01*
X116360000Y-106400000D01*
X116360000Y-102900000D01*
X118399428Y-102900000D01*
X118411688Y-103024482D01*
X118447998Y-103144180D01*
X118506963Y-103254494D01*
X118586315Y-103351185D01*
X118683006Y-103430537D01*
X118793320Y-103489502D01*
X118913018Y-103525812D01*
X119037500Y-103538072D01*
X119239250Y-103535000D01*
X119398000Y-103376250D01*
X119398000Y-102327000D01*
X118561250Y-102327000D01*
X118402500Y-102485750D01*
X118399428Y-102900000D01*
X116360000Y-102900000D01*
X116360000Y-101500000D01*
X118399428Y-101500000D01*
X118402500Y-101914250D01*
X118561250Y-102073000D01*
X119398000Y-102073000D01*
X119398000Y-101023750D01*
X119239250Y-100865000D01*
X119037500Y-100861928D01*
X118913018Y-100874188D01*
X118793320Y-100910498D01*
X118683006Y-100969463D01*
X118586315Y-101048815D01*
X118506963Y-101145506D01*
X118447998Y-101255820D01*
X118411688Y-101375518D01*
X118399428Y-101500000D01*
X116360000Y-101500000D01*
X116360000Y-98756750D01*
X118740000Y-98756750D01*
X118751109Y-98858773D01*
X118789194Y-98977918D01*
X118849792Y-99087343D01*
X118930574Y-99182844D01*
X119028434Y-99260750D01*
X119139613Y-99318067D01*
X119259838Y-99352593D01*
X119384488Y-99363001D01*
X119839250Y-99360000D01*
X119998000Y-99201250D01*
X119998000Y-98598000D01*
X118898750Y-98598000D01*
X118740000Y-98756750D01*
X116360000Y-98756750D01*
X116360000Y-98314801D01*
X116724729Y-97950073D01*
X116782795Y-98090256D01*
X116896063Y-98259774D01*
X117040226Y-98403937D01*
X117209744Y-98517205D01*
X117398102Y-98595226D01*
X117598061Y-98635000D01*
X117801939Y-98635000D01*
X118001898Y-98595226D01*
X118190256Y-98517205D01*
X118359774Y-98403937D01*
X118403711Y-98360000D01*
X118985317Y-98360000D01*
X119076060Y-98434471D01*
X119207985Y-98504987D01*
X119351132Y-98548410D01*
X119500000Y-98563072D01*
X120272000Y-98563072D01*
X120272000Y-98598000D01*
X120252000Y-98598000D01*
X120252000Y-99201250D01*
X120410750Y-99360000D01*
X120611928Y-99361328D01*
X120611928Y-99546982D01*
X120578412Y-99609687D01*
X120527805Y-99776510D01*
X120510719Y-99950000D01*
X120515001Y-99993479D01*
X120515000Y-101111343D01*
X120463685Y-101048815D01*
X120366994Y-100969463D01*
X120256680Y-100910498D01*
X120136982Y-100874188D01*
X120012500Y-100861928D01*
X119810750Y-100865000D01*
X119652000Y-101023750D01*
X119652000Y-102073000D01*
X119672000Y-102073000D01*
X119672000Y-102327000D01*
X119652000Y-102327000D01*
X119652000Y-103376250D01*
X119810750Y-103535000D01*
X120012500Y-103538072D01*
X120136982Y-103525812D01*
X120256680Y-103489502D01*
X120366994Y-103430537D01*
X120463685Y-103351185D01*
X120527492Y-103273436D01*
X120532708Y-103279792D01*
X120666336Y-103389458D01*
X120818791Y-103470947D01*
X120984215Y-103521128D01*
X121156250Y-103538072D01*
X121643750Y-103538072D01*
X121815785Y-103521128D01*
X121981209Y-103470947D01*
X122133664Y-103389458D01*
X122267292Y-103279792D01*
X122376958Y-103146164D01*
X122458447Y-102993709D01*
X122468673Y-102960000D01*
X123655199Y-102960000D01*
X126466645Y-105771446D01*
X126370000Y-105761928D01*
X126285750Y-105765000D01*
X126127000Y-105923750D01*
X126127000Y-107473000D01*
X127143000Y-107473000D01*
X127143000Y-107453000D01*
X127397000Y-107453000D01*
X127397000Y-107473000D01*
X127417000Y-107473000D01*
X127417000Y-107727000D01*
X127397000Y-107727000D01*
X127397000Y-109276250D01*
X127555750Y-109435000D01*
X127640000Y-109438072D01*
X127764482Y-109425812D01*
X127884180Y-109389502D01*
X127905000Y-109378373D01*
X127925820Y-109389502D01*
X128045518Y-109425812D01*
X128170000Y-109438072D01*
X128910000Y-109438072D01*
X129034482Y-109425812D01*
X129154180Y-109389502D01*
X129264494Y-109330537D01*
X129361185Y-109251185D01*
X129440537Y-109154494D01*
X129499502Y-109044180D01*
X129535812Y-108924482D01*
X129548072Y-108800000D01*
X129548072Y-108360000D01*
X132185199Y-108360000D01*
X134236200Y-110411002D01*
X134259999Y-110440001D01*
X134375724Y-110534974D01*
X134507753Y-110605546D01*
X134651014Y-110649003D01*
X134762667Y-110660000D01*
X134762676Y-110660000D01*
X134799999Y-110663676D01*
X134837322Y-110660000D01*
X135265717Y-110660000D01*
X135268992Y-110693255D01*
X135319528Y-110859851D01*
X135401595Y-111013387D01*
X135512038Y-111147962D01*
X135646613Y-111258405D01*
X135800149Y-111340472D01*
X135966745Y-111391008D01*
X136139999Y-111408072D01*
X137380001Y-111408072D01*
X137553255Y-111391008D01*
X137719851Y-111340472D01*
X137873387Y-111258405D01*
X138007962Y-111147962D01*
X138118405Y-111013387D01*
X138176433Y-110904825D01*
X138340618Y-111069010D01*
X138587115Y-111233714D01*
X138861008Y-111347164D01*
X139151770Y-111405000D01*
X139448230Y-111405000D01*
X139738992Y-111347164D01*
X140012885Y-111233714D01*
X140259382Y-111069010D01*
X140469010Y-110859382D01*
X140570000Y-110708240D01*
X140670990Y-110859382D01*
X140880618Y-111069010D01*
X141127115Y-111233714D01*
X141401008Y-111347164D01*
X141691770Y-111405000D01*
X141988230Y-111405000D01*
X142278992Y-111347164D01*
X142552885Y-111233714D01*
X142799382Y-111069010D01*
X142925720Y-110942672D01*
X143516933Y-110942672D01*
X143596988Y-111193789D01*
X143864439Y-111321687D01*
X144151703Y-111394950D01*
X144447740Y-111410764D01*
X144741174Y-111368520D01*
X145020728Y-111269841D01*
X145163012Y-111193789D01*
X145243067Y-110942672D01*
X144380000Y-110079605D01*
X143516933Y-110942672D01*
X142925720Y-110942672D01*
X143009010Y-110859382D01*
X143119719Y-110693694D01*
X143337328Y-110763067D01*
X144200395Y-109900000D01*
X144559605Y-109900000D01*
X145422672Y-110763067D01*
X145673789Y-110683012D01*
X145801687Y-110415561D01*
X145874950Y-110128297D01*
X145890764Y-109832260D01*
X145848520Y-109538826D01*
X145749841Y-109259272D01*
X145673789Y-109116988D01*
X145422672Y-109036933D01*
X144559605Y-109900000D01*
X144200395Y-109900000D01*
X143337328Y-109036933D01*
X143119719Y-109106306D01*
X143009010Y-108940618D01*
X142925720Y-108857328D01*
X143516933Y-108857328D01*
X144380000Y-109720395D01*
X145243067Y-108857328D01*
X145163012Y-108606211D01*
X144895561Y-108478313D01*
X144608297Y-108405050D01*
X144312260Y-108389236D01*
X144018826Y-108431480D01*
X143739272Y-108530159D01*
X143596988Y-108606211D01*
X143516933Y-108857328D01*
X142925720Y-108857328D01*
X142799382Y-108730990D01*
X142552885Y-108566286D01*
X142278992Y-108452836D01*
X141988230Y-108395000D01*
X141691770Y-108395000D01*
X141456583Y-108441781D01*
X137278804Y-104264003D01*
X137255001Y-104234999D01*
X137139276Y-104140026D01*
X137007247Y-104069454D01*
X136863986Y-104025997D01*
X136752333Y-104015000D01*
X136752322Y-104015000D01*
X136715000Y-104011324D01*
X136677678Y-104015000D01*
X136267845Y-104015000D01*
X136179792Y-103907708D01*
X136094244Y-103837500D01*
X136139937Y-103800000D01*
X141111928Y-103800000D01*
X141111928Y-105800000D01*
X141124188Y-105924482D01*
X141160498Y-106044180D01*
X141219463Y-106154494D01*
X141298815Y-106251185D01*
X141395506Y-106330537D01*
X141505820Y-106389502D01*
X141625518Y-106425812D01*
X141750000Y-106438072D01*
X144250000Y-106438072D01*
X144374482Y-106425812D01*
X144494180Y-106389502D01*
X144604494Y-106330537D01*
X144701185Y-106251185D01*
X144780537Y-106154494D01*
X144839502Y-106044180D01*
X144875812Y-105924482D01*
X144888072Y-105800000D01*
X144888072Y-103800000D01*
X146611928Y-103800000D01*
X146611928Y-105800000D01*
X146624188Y-105924482D01*
X146660498Y-106044180D01*
X146719463Y-106154494D01*
X146798815Y-106251185D01*
X146895506Y-106330537D01*
X147005820Y-106389502D01*
X147125518Y-106425812D01*
X147250000Y-106438072D01*
X149750000Y-106438072D01*
X149874482Y-106425812D01*
X149994180Y-106389502D01*
X150104494Y-106330537D01*
X150201185Y-106251185D01*
X150280537Y-106154494D01*
X150339502Y-106044180D01*
X150375812Y-105924482D01*
X150388072Y-105800000D01*
X150388072Y-103800000D01*
X150375812Y-103675518D01*
X150339502Y-103555820D01*
X150280537Y-103445506D01*
X150201185Y-103348815D01*
X150104494Y-103269463D01*
X149994180Y-103210498D01*
X149874482Y-103174188D01*
X149750000Y-103161928D01*
X147250000Y-103161928D01*
X147125518Y-103174188D01*
X147005820Y-103210498D01*
X146895506Y-103269463D01*
X146798815Y-103348815D01*
X146719463Y-103445506D01*
X146660498Y-103555820D01*
X146624188Y-103675518D01*
X146611928Y-103800000D01*
X144888072Y-103800000D01*
X144875812Y-103675518D01*
X144839502Y-103555820D01*
X144780537Y-103445506D01*
X144701185Y-103348815D01*
X144604494Y-103269463D01*
X144494180Y-103210498D01*
X144374482Y-103174188D01*
X144250000Y-103161928D01*
X141750000Y-103161928D01*
X141625518Y-103174188D01*
X141505820Y-103210498D01*
X141395506Y-103269463D01*
X141298815Y-103348815D01*
X141219463Y-103445506D01*
X141160498Y-103555820D01*
X141124188Y-103675518D01*
X141111928Y-103800000D01*
X136139937Y-103800000D01*
X136179792Y-103767292D01*
X136289458Y-103633664D01*
X136370947Y-103481209D01*
X136421128Y-103315785D01*
X136438072Y-103143750D01*
X136438072Y-102817599D01*
X136525820Y-102864502D01*
X136645518Y-102900812D01*
X136770000Y-102913072D01*
X137830000Y-102913072D01*
X137954482Y-102900812D01*
X138074180Y-102864502D01*
X138184494Y-102805537D01*
X138281185Y-102726185D01*
X138360537Y-102629494D01*
X138400000Y-102555665D01*
X138439463Y-102629494D01*
X138518815Y-102726185D01*
X138615506Y-102805537D01*
X138725820Y-102864502D01*
X138845518Y-102900812D01*
X138970000Y-102913072D01*
X140030000Y-102913072D01*
X140154482Y-102900812D01*
X140274180Y-102864502D01*
X140384494Y-102805537D01*
X140481185Y-102726185D01*
X140514985Y-102685000D01*
X141285532Y-102685000D01*
X141298815Y-102701185D01*
X141395506Y-102780537D01*
X141505820Y-102839502D01*
X141625518Y-102875812D01*
X141750000Y-102888072D01*
X144250000Y-102888072D01*
X144281192Y-102885000D01*
X144550434Y-102885000D01*
X144556696Y-102916483D01*
X144638485Y-103113940D01*
X144757225Y-103291647D01*
X144908353Y-103442775D01*
X145086060Y-103561515D01*
X145283517Y-103643304D01*
X145493137Y-103685000D01*
X145706863Y-103685000D01*
X145916483Y-103643304D01*
X146113940Y-103561515D01*
X146291647Y-103442775D01*
X146442775Y-103291647D01*
X146561515Y-103113940D01*
X146643304Y-102916483D01*
X146685000Y-102706863D01*
X146685000Y-102493137D01*
X146643304Y-102283517D01*
X146561515Y-102086060D01*
X146442775Y-101908353D01*
X146326999Y-101792577D01*
X147395050Y-100724527D01*
X147428817Y-100696815D01*
X147459288Y-100659687D01*
X147525656Y-100578817D01*
X147539411Y-100562057D01*
X147621589Y-100408311D01*
X147672195Y-100241488D01*
X147685000Y-100111475D01*
X147685000Y-100111465D01*
X147689281Y-100067999D01*
X147685000Y-100024533D01*
X147685000Y-97638072D01*
X149750000Y-97638072D01*
X149874482Y-97625812D01*
X149994180Y-97589502D01*
X150104494Y-97530537D01*
X150201185Y-97451185D01*
X150280537Y-97354494D01*
X150339502Y-97244180D01*
X150375812Y-97124482D01*
X150388072Y-97000000D01*
X150388072Y-95000000D01*
X150375812Y-94875518D01*
X150339502Y-94755820D01*
X150280537Y-94645506D01*
X150201185Y-94548815D01*
X150104494Y-94469463D01*
X149994180Y-94410498D01*
X149874482Y-94374188D01*
X149750000Y-94361928D01*
X147707335Y-94361928D01*
X147840313Y-94321589D01*
X147994059Y-94239411D01*
X148128817Y-94128817D01*
X148156534Y-94095044D01*
X149213507Y-93038072D01*
X149450000Y-93038072D01*
X149574482Y-93025812D01*
X149694180Y-92989502D01*
X149804494Y-92930537D01*
X149901185Y-92851185D01*
X149980537Y-92754494D01*
X150039502Y-92644180D01*
X150075812Y-92524482D01*
X150088072Y-92400000D01*
X150088072Y-91888095D01*
X150098815Y-91901185D01*
G37*
%TD.AperFunction*%
D25*
X133464991Y-91716570D02*
X133464991Y-93098638D01*
X133452002Y-93055820D01*
X133393037Y-92945506D01*
X133313685Y-92848815D01*
X133216994Y-92769463D01*
X133106680Y-92710498D01*
X132986982Y-92674188D01*
X132862500Y-92661928D01*
X132660750Y-92665000D01*
X132502000Y-92823750D01*
X132502000Y-93873000D01*
X132522000Y-93873000D01*
X132522000Y-94127000D01*
X132502000Y-94127000D01*
X132502000Y-95176250D01*
X132660750Y-95335000D01*
X132862500Y-95338072D01*
X132986982Y-95325812D01*
X133106680Y-95289502D01*
X133216994Y-95230537D01*
X133313685Y-95151185D01*
X133393037Y-95054494D01*
X133452002Y-94944180D01*
X133464990Y-94901363D01*
X133464990Y-96306521D01*
X133460709Y-96349990D01*
X133464990Y-96393459D01*
X133464990Y-96393466D01*
X133476202Y-96507304D01*
X133477795Y-96523480D01*
X133490390Y-96565000D01*
X133528401Y-96690302D01*
X133610579Y-96844048D01*
X133721173Y-96978807D01*
X133754946Y-97006524D01*
X134161928Y-97413506D01*
X134161928Y-97743750D01*
X134178872Y-97915785D01*
X134229053Y-98081209D01*
X134310542Y-98233664D01*
X134392125Y-98333073D01*
X134060199Y-98665000D01*
X133998061Y-98665000D01*
X133798102Y-98704774D01*
X133609744Y-98782795D01*
X133440226Y-98896063D01*
X133296063Y-99040226D01*
X133182795Y-99209744D01*
X133104774Y-99398102D01*
X133065000Y-99598061D01*
X133065000Y-99801939D01*
X133104774Y-100001898D01*
X133120556Y-100040000D01*
X129942905Y-100040000D01*
X129906800Y-100036444D01*
X129762715Y-100050635D01*
X129624166Y-100092663D01*
X129502515Y-100157687D01*
X129496480Y-100160913D01*
X129384562Y-100252762D01*
X129361546Y-100280807D01*
X128602354Y-101040000D01*
X127733590Y-101040000D01*
X127764573Y-101014573D01*
X127859471Y-100898940D01*
X127929987Y-100767015D01*
X127973410Y-100623868D01*
X127988072Y-100475000D01*
X127988072Y-99363072D01*
X129100000Y-99363072D01*
X129248868Y-99348410D01*
X129392015Y-99304987D01*
X129523940Y-99234471D01*
X129639573Y-99139573D01*
X129734471Y-99023940D01*
X129804987Y-98892015D01*
X129832285Y-98802025D01*
X129998061Y-98835000D01*
X130201939Y-98835000D01*
X130401898Y-98795226D01*
X130590256Y-98717205D01*
X130759774Y-98603937D01*
X130903937Y-98459774D01*
X131017205Y-98290256D01*
X131095226Y-98101898D01*
X131135000Y-97901939D01*
X131135000Y-97698061D01*
X131095226Y-97498102D01*
X131017205Y-97309744D01*
X130903937Y-97140226D01*
X130759774Y-96996063D01*
X130590256Y-96882795D01*
X130401898Y-96804774D01*
X130201939Y-96765000D01*
X129998061Y-96765000D01*
X129863072Y-96791851D01*
X129863072Y-96750000D01*
X129848410Y-96601132D01*
X129810148Y-96475000D01*
X129848410Y-96348868D01*
X129863072Y-96200000D01*
X129863072Y-95950000D01*
X129848410Y-95801132D01*
X129810148Y-95675000D01*
X129848410Y-95548868D01*
X129863072Y-95400000D01*
X129863072Y-95241165D01*
X129918791Y-95270947D01*
X130084215Y-95321128D01*
X130256250Y-95338072D01*
X130743750Y-95338072D01*
X130915785Y-95321128D01*
X131081209Y-95270947D01*
X131233664Y-95189458D01*
X131367292Y-95079792D01*
X131372508Y-95073436D01*
X131436315Y-95151185D01*
X131533006Y-95230537D01*
X131643320Y-95289502D01*
X131763018Y-95325812D01*
X131887500Y-95338072D01*
X132089250Y-95335000D01*
X132248000Y-95176250D01*
X132248000Y-94127000D01*
X132228000Y-94127000D01*
X132228000Y-93873000D01*
X132248000Y-93873000D01*
X132248000Y-92823750D01*
X132089250Y-92665000D01*
X131887500Y-92661928D01*
X131763018Y-92674188D01*
X131643320Y-92710498D01*
X131533006Y-92769463D01*
X131436315Y-92848815D01*
X131372508Y-92926564D01*
X131367292Y-92920208D01*
X131233664Y-92810542D01*
X131081209Y-92729053D01*
X130915785Y-92678872D01*
X130743750Y-92661928D01*
X130256250Y-92661928D01*
X130084215Y-92678872D01*
X129918791Y-92729053D01*
X129860000Y-92760477D01*
X129860000Y-92747998D01*
X129705252Y-92747998D01*
X129860000Y-92593250D01*
X129848891Y-92491227D01*
X129810806Y-92372082D01*
X129750208Y-92262657D01*
X129669426Y-92167156D01*
X129571566Y-92089250D01*
X129460387Y-92031933D01*
X129340162Y-91997407D01*
X129215512Y-91986999D01*
X128760750Y-91990000D01*
X128602000Y-92148750D01*
X128602000Y-92752000D01*
X128622000Y-92752000D01*
X128622000Y-92786928D01*
X128328000Y-92786928D01*
X128328000Y-92752000D01*
X128348000Y-92752000D01*
X128348000Y-92148750D01*
X128189250Y-91990000D01*
X127988072Y-91988672D01*
X127988072Y-90875000D01*
X127985000Y-90843809D01*
X127985000Y-90285000D01*
X132033422Y-90285000D01*
X133464991Y-91716570D01*
%TA.AperFunction,Conductor*%
D26*
G36*
X133464991Y-91716570D02*
G01*
X133464991Y-93098638D01*
X133452002Y-93055820D01*
X133393037Y-92945506D01*
X133313685Y-92848815D01*
X133216994Y-92769463D01*
X133106680Y-92710498D01*
X132986982Y-92674188D01*
X132862500Y-92661928D01*
X132660750Y-92665000D01*
X132502000Y-92823750D01*
X132502000Y-93873000D01*
X132522000Y-93873000D01*
X132522000Y-94127000D01*
X132502000Y-94127000D01*
X132502000Y-95176250D01*
X132660750Y-95335000D01*
X132862500Y-95338072D01*
X132986982Y-95325812D01*
X133106680Y-95289502D01*
X133216994Y-95230537D01*
X133313685Y-95151185D01*
X133393037Y-95054494D01*
X133452002Y-94944180D01*
X133464990Y-94901363D01*
X133464990Y-96306521D01*
X133460709Y-96349990D01*
X133464990Y-96393459D01*
X133464990Y-96393466D01*
X133476202Y-96507304D01*
X133477795Y-96523480D01*
X133490390Y-96565000D01*
X133528401Y-96690302D01*
X133610579Y-96844048D01*
X133721173Y-96978807D01*
X133754946Y-97006524D01*
X134161928Y-97413506D01*
X134161928Y-97743750D01*
X134178872Y-97915785D01*
X134229053Y-98081209D01*
X134310542Y-98233664D01*
X134392125Y-98333073D01*
X134060199Y-98665000D01*
X133998061Y-98665000D01*
X133798102Y-98704774D01*
X133609744Y-98782795D01*
X133440226Y-98896063D01*
X133296063Y-99040226D01*
X133182795Y-99209744D01*
X133104774Y-99398102D01*
X133065000Y-99598061D01*
X133065000Y-99801939D01*
X133104774Y-100001898D01*
X133120556Y-100040000D01*
X129942905Y-100040000D01*
X129906800Y-100036444D01*
X129762715Y-100050635D01*
X129624166Y-100092663D01*
X129502515Y-100157687D01*
X129496480Y-100160913D01*
X129384562Y-100252762D01*
X129361546Y-100280807D01*
X128602354Y-101040000D01*
X127733590Y-101040000D01*
X127764573Y-101014573D01*
X127859471Y-100898940D01*
X127929987Y-100767015D01*
X127973410Y-100623868D01*
X127988072Y-100475000D01*
X127988072Y-99363072D01*
X129100000Y-99363072D01*
X129248868Y-99348410D01*
X129392015Y-99304987D01*
X129523940Y-99234471D01*
X129639573Y-99139573D01*
X129734471Y-99023940D01*
X129804987Y-98892015D01*
X129832285Y-98802025D01*
X129998061Y-98835000D01*
X130201939Y-98835000D01*
X130401898Y-98795226D01*
X130590256Y-98717205D01*
X130759774Y-98603937D01*
X130903937Y-98459774D01*
X131017205Y-98290256D01*
X131095226Y-98101898D01*
X131135000Y-97901939D01*
X131135000Y-97698061D01*
X131095226Y-97498102D01*
X131017205Y-97309744D01*
X130903937Y-97140226D01*
X130759774Y-96996063D01*
X130590256Y-96882795D01*
X130401898Y-96804774D01*
X130201939Y-96765000D01*
X129998061Y-96765000D01*
X129863072Y-96791851D01*
X129863072Y-96750000D01*
X129848410Y-96601132D01*
X129810148Y-96475000D01*
X129848410Y-96348868D01*
X129863072Y-96200000D01*
X129863072Y-95950000D01*
X129848410Y-95801132D01*
X129810148Y-95675000D01*
X129848410Y-95548868D01*
X129863072Y-95400000D01*
X129863072Y-95241165D01*
X129918791Y-95270947D01*
X130084215Y-95321128D01*
X130256250Y-95338072D01*
X130743750Y-95338072D01*
X130915785Y-95321128D01*
X131081209Y-95270947D01*
X131233664Y-95189458D01*
X131367292Y-95079792D01*
X131372508Y-95073436D01*
X131436315Y-95151185D01*
X131533006Y-95230537D01*
X131643320Y-95289502D01*
X131763018Y-95325812D01*
X131887500Y-95338072D01*
X132089250Y-95335000D01*
X132248000Y-95176250D01*
X132248000Y-94127000D01*
X132228000Y-94127000D01*
X132228000Y-93873000D01*
X132248000Y-93873000D01*
X132248000Y-92823750D01*
X132089250Y-92665000D01*
X131887500Y-92661928D01*
X131763018Y-92674188D01*
X131643320Y-92710498D01*
X131533006Y-92769463D01*
X131436315Y-92848815D01*
X131372508Y-92926564D01*
X131367292Y-92920208D01*
X131233664Y-92810542D01*
X131081209Y-92729053D01*
X130915785Y-92678872D01*
X130743750Y-92661928D01*
X130256250Y-92661928D01*
X130084215Y-92678872D01*
X129918791Y-92729053D01*
X129860000Y-92760477D01*
X129860000Y-92747998D01*
X129705252Y-92747998D01*
X129860000Y-92593250D01*
X129848891Y-92491227D01*
X129810806Y-92372082D01*
X129750208Y-92262657D01*
X129669426Y-92167156D01*
X129571566Y-92089250D01*
X129460387Y-92031933D01*
X129340162Y-91997407D01*
X129215512Y-91986999D01*
X128760750Y-91990000D01*
X128602000Y-92148750D01*
X128602000Y-92752000D01*
X128622000Y-92752000D01*
X128622000Y-92786928D01*
X128328000Y-92786928D01*
X128328000Y-92752000D01*
X128348000Y-92752000D01*
X128348000Y-92148750D01*
X128189250Y-91990000D01*
X127988072Y-91988672D01*
X127988072Y-90875000D01*
X127985000Y-90843809D01*
X127985000Y-90285000D01*
X132033422Y-90285000D01*
X133464991Y-91716570D01*
G37*
%TD.AperFunction*%
D25*
X141505820Y-94410498D02*
X141395506Y-94469463D01*
X141298815Y-94548815D01*
X141219463Y-94645506D01*
X141160498Y-94755820D01*
X141124188Y-94875518D01*
X141111928Y-95000000D01*
X141111928Y-97000000D01*
X141124188Y-97124482D01*
X141160498Y-97244180D01*
X141219463Y-97354494D01*
X141298815Y-97451185D01*
X141395506Y-97530537D01*
X141505820Y-97589502D01*
X141625518Y-97625812D01*
X141750000Y-97638072D01*
X144250000Y-97638072D01*
X144374482Y-97625812D01*
X144494180Y-97589502D01*
X144604494Y-97530537D01*
X144701185Y-97451185D01*
X144780537Y-97354494D01*
X144839502Y-97244180D01*
X144875812Y-97124482D01*
X144888072Y-97000000D01*
X144888072Y-95000000D01*
X144875812Y-94875518D01*
X144839502Y-94755820D01*
X144780537Y-94645506D01*
X144701185Y-94548815D01*
X144604494Y-94469463D01*
X144494180Y-94410498D01*
X144410124Y-94385000D01*
X145915001Y-94385000D01*
X145915000Y-97156401D01*
X145706863Y-97115000D01*
X145493137Y-97115000D01*
X145283517Y-97156696D01*
X145086060Y-97238485D01*
X144908353Y-97357225D01*
X144757225Y-97508353D01*
X144638485Y-97686060D01*
X144556696Y-97883517D01*
X144536847Y-97983304D01*
X144494180Y-97960498D01*
X144374482Y-97924188D01*
X144250000Y-97911928D01*
X141750000Y-97911928D01*
X141625518Y-97924188D01*
X141505820Y-97960498D01*
X141395506Y-98019463D01*
X141298815Y-98098815D01*
X141219463Y-98195506D01*
X141160498Y-98305820D01*
X141124188Y-98425518D01*
X141111928Y-98550000D01*
X141111928Y-99050000D01*
X141124188Y-99174482D01*
X141131725Y-99199329D01*
X141125481Y-99219187D01*
X141115000Y-99318250D01*
X141273750Y-99477000D01*
X141278967Y-99477000D01*
X141298815Y-99501185D01*
X141395506Y-99580537D01*
X141431918Y-99600000D01*
X141395506Y-99619463D01*
X141298815Y-99698815D01*
X141278967Y-99723000D01*
X141273750Y-99723000D01*
X141115000Y-99881750D01*
X141125481Y-99980813D01*
X141131725Y-100000671D01*
X141125168Y-100022288D01*
X141099679Y-100035912D01*
X140995703Y-100121243D01*
X140944088Y-100024679D01*
X140852239Y-99912761D01*
X140824188Y-99889740D01*
X140815260Y-99880812D01*
X140792239Y-99852761D01*
X140680321Y-99760912D01*
X140668072Y-99754365D01*
X140668072Y-99725000D01*
X140655812Y-99600518D01*
X140619502Y-99480820D01*
X140560537Y-99370506D01*
X140481185Y-99273815D01*
X140384494Y-99194463D01*
X140274180Y-99135498D01*
X140154482Y-99099188D01*
X140030000Y-99086928D01*
X139365001Y-99086928D01*
X139365001Y-98413072D01*
X140230000Y-98413072D01*
X140354482Y-98400812D01*
X140474180Y-98364502D01*
X140584494Y-98305537D01*
X140681185Y-98226185D01*
X140760537Y-98129494D01*
X140819502Y-98019180D01*
X140855812Y-97899482D01*
X140868072Y-97775000D01*
X140868072Y-97125000D01*
X140855812Y-97000518D01*
X140848071Y-96975000D01*
X140855812Y-96949482D01*
X140868072Y-96825000D01*
X140865000Y-96785750D01*
X140706250Y-96627000D01*
X140624141Y-96627000D01*
X140584494Y-96594463D01*
X140474180Y-96535498D01*
X140357159Y-96500000D01*
X140474180Y-96464502D01*
X140584494Y-96405537D01*
X140624141Y-96373000D01*
X140706250Y-96373000D01*
X140865000Y-96214250D01*
X140868072Y-96175000D01*
X140855812Y-96050518D01*
X140848071Y-96025000D01*
X140855812Y-95999482D01*
X140868072Y-95875000D01*
X140868072Y-95225000D01*
X140855812Y-95100518D01*
X140819502Y-94980820D01*
X140760537Y-94870506D01*
X140681185Y-94773815D01*
X140584494Y-94694463D01*
X140474180Y-94635498D01*
X140385000Y-94608446D01*
X140385000Y-94558215D01*
X140476958Y-94446164D01*
X140509651Y-94385000D01*
X141589876Y-94385000D01*
X141505820Y-94410498D01*
%TA.AperFunction,Conductor*%
D26*
G36*
X141505820Y-94410498D02*
G01*
X141395506Y-94469463D01*
X141298815Y-94548815D01*
X141219463Y-94645506D01*
X141160498Y-94755820D01*
X141124188Y-94875518D01*
X141111928Y-95000000D01*
X141111928Y-97000000D01*
X141124188Y-97124482D01*
X141160498Y-97244180D01*
X141219463Y-97354494D01*
X141298815Y-97451185D01*
X141395506Y-97530537D01*
X141505820Y-97589502D01*
X141625518Y-97625812D01*
X141750000Y-97638072D01*
X144250000Y-97638072D01*
X144374482Y-97625812D01*
X144494180Y-97589502D01*
X144604494Y-97530537D01*
X144701185Y-97451185D01*
X144780537Y-97354494D01*
X144839502Y-97244180D01*
X144875812Y-97124482D01*
X144888072Y-97000000D01*
X144888072Y-95000000D01*
X144875812Y-94875518D01*
X144839502Y-94755820D01*
X144780537Y-94645506D01*
X144701185Y-94548815D01*
X144604494Y-94469463D01*
X144494180Y-94410498D01*
X144410124Y-94385000D01*
X145915001Y-94385000D01*
X145915000Y-97156401D01*
X145706863Y-97115000D01*
X145493137Y-97115000D01*
X145283517Y-97156696D01*
X145086060Y-97238485D01*
X144908353Y-97357225D01*
X144757225Y-97508353D01*
X144638485Y-97686060D01*
X144556696Y-97883517D01*
X144536847Y-97983304D01*
X144494180Y-97960498D01*
X144374482Y-97924188D01*
X144250000Y-97911928D01*
X141750000Y-97911928D01*
X141625518Y-97924188D01*
X141505820Y-97960498D01*
X141395506Y-98019463D01*
X141298815Y-98098815D01*
X141219463Y-98195506D01*
X141160498Y-98305820D01*
X141124188Y-98425518D01*
X141111928Y-98550000D01*
X141111928Y-99050000D01*
X141124188Y-99174482D01*
X141131725Y-99199329D01*
X141125481Y-99219187D01*
X141115000Y-99318250D01*
X141273750Y-99477000D01*
X141278967Y-99477000D01*
X141298815Y-99501185D01*
X141395506Y-99580537D01*
X141431918Y-99600000D01*
X141395506Y-99619463D01*
X141298815Y-99698815D01*
X141278967Y-99723000D01*
X141273750Y-99723000D01*
X141115000Y-99881750D01*
X141125481Y-99980813D01*
X141131725Y-100000671D01*
X141125168Y-100022288D01*
X141099679Y-100035912D01*
X140995703Y-100121243D01*
X140944088Y-100024679D01*
X140852239Y-99912761D01*
X140824188Y-99889740D01*
X140815260Y-99880812D01*
X140792239Y-99852761D01*
X140680321Y-99760912D01*
X140668072Y-99754365D01*
X140668072Y-99725000D01*
X140655812Y-99600518D01*
X140619502Y-99480820D01*
X140560537Y-99370506D01*
X140481185Y-99273815D01*
X140384494Y-99194463D01*
X140274180Y-99135498D01*
X140154482Y-99099188D01*
X140030000Y-99086928D01*
X139365001Y-99086928D01*
X139365001Y-98413072D01*
X140230000Y-98413072D01*
X140354482Y-98400812D01*
X140474180Y-98364502D01*
X140584494Y-98305537D01*
X140681185Y-98226185D01*
X140760537Y-98129494D01*
X140819502Y-98019180D01*
X140855812Y-97899482D01*
X140868072Y-97775000D01*
X140868072Y-97125000D01*
X140855812Y-97000518D01*
X140848071Y-96975000D01*
X140855812Y-96949482D01*
X140868072Y-96825000D01*
X140865000Y-96785750D01*
X140706250Y-96627000D01*
X140624141Y-96627000D01*
X140584494Y-96594463D01*
X140474180Y-96535498D01*
X140357159Y-96500000D01*
X140474180Y-96464502D01*
X140584494Y-96405537D01*
X140624141Y-96373000D01*
X140706250Y-96373000D01*
X140865000Y-96214250D01*
X140868072Y-96175000D01*
X140855812Y-96050518D01*
X140848071Y-96025000D01*
X140855812Y-95999482D01*
X140868072Y-95875000D01*
X140868072Y-95225000D01*
X140855812Y-95100518D01*
X140819502Y-94980820D01*
X140760537Y-94870506D01*
X140681185Y-94773815D01*
X140584494Y-94694463D01*
X140474180Y-94635498D01*
X140385000Y-94608446D01*
X140385000Y-94558215D01*
X140476958Y-94446164D01*
X140509651Y-94385000D01*
X141589876Y-94385000D01*
X141505820Y-94410498D01*
G37*
%TD.AperFunction*%
D25*
X124361250Y-87873000D02*
X125198000Y-87873000D01*
X125198000Y-87853000D01*
X125452000Y-87853000D01*
X125452000Y-87873000D01*
X125472000Y-87873000D01*
X125472000Y-88127000D01*
X125452000Y-88127000D01*
X125452000Y-88147000D01*
X125198000Y-88147000D01*
X125198000Y-88127000D01*
X124361250Y-88127000D01*
X124202500Y-88285750D01*
X124199428Y-88700000D01*
X124211688Y-88824482D01*
X124247998Y-88944180D01*
X124301725Y-89044695D01*
X124209744Y-89082795D01*
X124040226Y-89196063D01*
X123896063Y-89340226D01*
X123782795Y-89509744D01*
X123704774Y-89698102D01*
X123665000Y-89898061D01*
X123665000Y-90101939D01*
X123669062Y-90122362D01*
X123626132Y-90126590D01*
X123500000Y-90164852D01*
X123373868Y-90126590D01*
X123225000Y-90111928D01*
X122975000Y-90111928D01*
X122826132Y-90126590D01*
X122700000Y-90164852D01*
X122573868Y-90126590D01*
X122425000Y-90111928D01*
X122175000Y-90111928D01*
X122026132Y-90126590D01*
X121900000Y-90164852D01*
X121773868Y-90126590D01*
X121625000Y-90111928D01*
X121375000Y-90111928D01*
X121226132Y-90126590D01*
X121082985Y-90170013D01*
X120951060Y-90240529D01*
X120835427Y-90335427D01*
X120740529Y-90451060D01*
X120670013Y-90582985D01*
X120626590Y-90726132D01*
X120611928Y-90875000D01*
X120611928Y-91986928D01*
X119500000Y-91986928D01*
X119351132Y-92001590D01*
X119207985Y-92045013D01*
X119077050Y-92115000D01*
X117389802Y-92115000D01*
X117135000Y-91860198D01*
X117135000Y-91798061D01*
X117095226Y-91598102D01*
X117017205Y-91409744D01*
X116903937Y-91240226D01*
X116759774Y-91096063D01*
X116590256Y-90982795D01*
X116530182Y-90957911D01*
X116642205Y-90790256D01*
X116720226Y-90601898D01*
X116760000Y-90401939D01*
X116760000Y-90198061D01*
X116720226Y-89998102D01*
X116642205Y-89809744D01*
X116528937Y-89640226D01*
X116384774Y-89496063D01*
X116360000Y-89479510D01*
X116360000Y-87879444D01*
X116398102Y-87895226D01*
X116598061Y-87935000D01*
X116801939Y-87935000D01*
X117001898Y-87895226D01*
X117190256Y-87817205D01*
X117313300Y-87734990D01*
X124223240Y-87734990D01*
X124361250Y-87873000D01*
%TA.AperFunction,Conductor*%
D26*
G36*
X124361250Y-87873000D02*
G01*
X125198000Y-87873000D01*
X125198000Y-87853000D01*
X125452000Y-87853000D01*
X125452000Y-87873000D01*
X125472000Y-87873000D01*
X125472000Y-88127000D01*
X125452000Y-88127000D01*
X125452000Y-88147000D01*
X125198000Y-88147000D01*
X125198000Y-88127000D01*
X124361250Y-88127000D01*
X124202500Y-88285750D01*
X124199428Y-88700000D01*
X124211688Y-88824482D01*
X124247998Y-88944180D01*
X124301725Y-89044695D01*
X124209744Y-89082795D01*
X124040226Y-89196063D01*
X123896063Y-89340226D01*
X123782795Y-89509744D01*
X123704774Y-89698102D01*
X123665000Y-89898061D01*
X123665000Y-90101939D01*
X123669062Y-90122362D01*
X123626132Y-90126590D01*
X123500000Y-90164852D01*
X123373868Y-90126590D01*
X123225000Y-90111928D01*
X122975000Y-90111928D01*
X122826132Y-90126590D01*
X122700000Y-90164852D01*
X122573868Y-90126590D01*
X122425000Y-90111928D01*
X122175000Y-90111928D01*
X122026132Y-90126590D01*
X121900000Y-90164852D01*
X121773868Y-90126590D01*
X121625000Y-90111928D01*
X121375000Y-90111928D01*
X121226132Y-90126590D01*
X121082985Y-90170013D01*
X120951060Y-90240529D01*
X120835427Y-90335427D01*
X120740529Y-90451060D01*
X120670013Y-90582985D01*
X120626590Y-90726132D01*
X120611928Y-90875000D01*
X120611928Y-91986928D01*
X119500000Y-91986928D01*
X119351132Y-92001590D01*
X119207985Y-92045013D01*
X119077050Y-92115000D01*
X117389802Y-92115000D01*
X117135000Y-91860198D01*
X117135000Y-91798061D01*
X117095226Y-91598102D01*
X117017205Y-91409744D01*
X116903937Y-91240226D01*
X116759774Y-91096063D01*
X116590256Y-90982795D01*
X116530182Y-90957911D01*
X116642205Y-90790256D01*
X116720226Y-90601898D01*
X116760000Y-90401939D01*
X116760000Y-90198061D01*
X116720226Y-89998102D01*
X116642205Y-89809744D01*
X116528937Y-89640226D01*
X116384774Y-89496063D01*
X116360000Y-89479510D01*
X116360000Y-87879444D01*
X116398102Y-87895226D01*
X116598061Y-87935000D01*
X116801939Y-87935000D01*
X117001898Y-87895226D01*
X117190256Y-87817205D01*
X117313300Y-87734990D01*
X124223240Y-87734990D01*
X124361250Y-87873000D01*
G37*
%TD.AperFunction*%
D25*
X147505655Y-81229345D02*
X147571114Y-81283066D01*
X147461613Y-81341595D01*
X147327038Y-81452038D01*
X147216595Y-81586613D01*
X147134528Y-81740149D01*
X147083992Y-81906745D01*
X147066928Y-82079999D01*
X147066928Y-83320001D01*
X147083992Y-83493255D01*
X147134528Y-83659851D01*
X147216595Y-83813387D01*
X147327038Y-83947962D01*
X147461613Y-84058405D01*
X147615149Y-84140472D01*
X147781745Y-84191008D01*
X147954999Y-84208072D01*
X148242529Y-84208072D01*
X148198153Y-84274485D01*
X148063596Y-84599335D01*
X147995000Y-84944193D01*
X147995000Y-85295807D01*
X148063596Y-85640665D01*
X148122301Y-85782393D01*
X148110719Y-85900000D01*
X148115001Y-85943479D01*
X148115000Y-89235532D01*
X148098815Y-89248815D01*
X148019463Y-89345506D01*
X148013363Y-89356918D01*
X147980537Y-89295506D01*
X147901185Y-89198815D01*
X147804494Y-89119463D01*
X147694180Y-89060498D01*
X147574482Y-89024188D01*
X147450000Y-89011928D01*
X147285750Y-89015000D01*
X147127000Y-89173750D01*
X147127000Y-89923000D01*
X147147000Y-89923000D01*
X147147000Y-90177000D01*
X147127000Y-90177000D01*
X147127000Y-90197000D01*
X146873000Y-90197000D01*
X146873000Y-90177000D01*
X146073750Y-90177000D01*
X145989143Y-90261607D01*
X145980537Y-90245506D01*
X145901185Y-90148815D01*
X145885000Y-90135532D01*
X145885000Y-89650000D01*
X145911928Y-89650000D01*
X145915000Y-89764250D01*
X146073750Y-89923000D01*
X146873000Y-89923000D01*
X146873000Y-89173750D01*
X146714250Y-89015000D01*
X146550000Y-89011928D01*
X146425518Y-89024188D01*
X146305820Y-89060498D01*
X146195506Y-89119463D01*
X146098815Y-89198815D01*
X146019463Y-89295506D01*
X145960498Y-89405820D01*
X145924188Y-89525518D01*
X145911928Y-89650000D01*
X145885000Y-89650000D01*
X145885000Y-81045000D01*
X147354367Y-81045000D01*
X147505655Y-81229345D01*
%TA.AperFunction,Conductor*%
D26*
G36*
X147505655Y-81229345D02*
G01*
X147571114Y-81283066D01*
X147461613Y-81341595D01*
X147327038Y-81452038D01*
X147216595Y-81586613D01*
X147134528Y-81740149D01*
X147083992Y-81906745D01*
X147066928Y-82079999D01*
X147066928Y-83320001D01*
X147083992Y-83493255D01*
X147134528Y-83659851D01*
X147216595Y-83813387D01*
X147327038Y-83947962D01*
X147461613Y-84058405D01*
X147615149Y-84140472D01*
X147781745Y-84191008D01*
X147954999Y-84208072D01*
X148242529Y-84208072D01*
X148198153Y-84274485D01*
X148063596Y-84599335D01*
X147995000Y-84944193D01*
X147995000Y-85295807D01*
X148063596Y-85640665D01*
X148122301Y-85782393D01*
X148110719Y-85900000D01*
X148115001Y-85943479D01*
X148115000Y-89235532D01*
X148098815Y-89248815D01*
X148019463Y-89345506D01*
X148013363Y-89356918D01*
X147980537Y-89295506D01*
X147901185Y-89198815D01*
X147804494Y-89119463D01*
X147694180Y-89060498D01*
X147574482Y-89024188D01*
X147450000Y-89011928D01*
X147285750Y-89015000D01*
X147127000Y-89173750D01*
X147127000Y-89923000D01*
X147147000Y-89923000D01*
X147147000Y-90177000D01*
X147127000Y-90177000D01*
X147127000Y-90197000D01*
X146873000Y-90197000D01*
X146873000Y-90177000D01*
X146073750Y-90177000D01*
X145989143Y-90261607D01*
X145980537Y-90245506D01*
X145901185Y-90148815D01*
X145885000Y-90135532D01*
X145885000Y-89650000D01*
X145911928Y-89650000D01*
X145915000Y-89764250D01*
X146073750Y-89923000D01*
X146873000Y-89923000D01*
X146873000Y-89173750D01*
X146714250Y-89015000D01*
X146550000Y-89011928D01*
X146425518Y-89024188D01*
X146305820Y-89060498D01*
X146195506Y-89119463D01*
X146098815Y-89198815D01*
X146019463Y-89295506D01*
X145960498Y-89405820D01*
X145924188Y-89525518D01*
X145911928Y-89650000D01*
X145885000Y-89650000D01*
X145885000Y-81045000D01*
X147354367Y-81045000D01*
X147505655Y-81229345D01*
G37*
%TD.AperFunction*%
%TD*%
M02*
