%TF.GenerationSoftware,KiCad,Pcbnew,(5.1.7)-1*%
%TF.CreationDate,2020-10-05T16:07:01+02:00*%
%TF.ProjectId,Templogger,54656d70-6c6f-4676-9765-722e6b696361,rev?*%
%TF.SameCoordinates,Original*%
%TF.FileFunction,Copper,L2,Bot*%
%TF.FilePolarity,Positive*%
%FSLAX46Y46*%
G04 Gerber Fmt 4.6, Leading zero omitted, Abs format (unit mm)*
G04 Created by KiCad (PCBNEW (5.1.7)-1) date 2020-10-05 16:07:01*
%MOMM*%
%LPD*%
G01*
G04 APERTURE LIST*
%TA.AperFunction,ComponentPad*%
%ADD10C,1.740000*%
%TD*%
%TA.AperFunction,ComponentPad*%
%ADD11O,2.190000X1.740000*%
%TD*%
%TA.AperFunction,ComponentPad*%
%ADD12C,2.300000*%
%TD*%
%TA.AperFunction,ComponentPad*%
%ADD13R,2.300000X2.300000*%
%TD*%
%TA.AperFunction,ComponentPad*%
%ADD14O,2.000000X3.600000*%
%TD*%
%TA.AperFunction,ViaPad*%
%ADD15C,0.800000*%
%TD*%
%TA.AperFunction,Conductor*%
%ADD16C,0.250000*%
%TD*%
%TA.AperFunction,Conductor*%
%ADD17C,0.500000*%
%TD*%
%TA.AperFunction,Conductor*%
%ADD18C,1.000000*%
%TD*%
%TA.AperFunction,Conductor*%
%ADD19C,0.254000*%
%TD*%
%TA.AperFunction,Conductor*%
%ADD20C,0.100000*%
%TD*%
G04 APERTURE END LIST*
D10*
%TO.P,J9,4*%
%TO.N,GNDD*%
X144380000Y-109900000D03*
%TO.P,J9,3*%
%TO.N,SDA*%
X141840000Y-109900000D03*
%TO.P,J9,2*%
%TO.N,SCL*%
X139300000Y-109900000D03*
%TO.P,J9,1*%
%TO.N,+3V3*%
%TA.AperFunction,ComponentPad*%
G36*
G01*
X135890000Y-110520001D02*
X135890000Y-109279999D01*
G75*
G02*
X136139999Y-109030000I249999J0D01*
G01*
X137380001Y-109030000D01*
G75*
G02*
X137630000Y-109279999I0J-249999D01*
G01*
X137630000Y-110520001D01*
G75*
G02*
X137380001Y-110770000I-249999J0D01*
G01*
X136139999Y-110770000D01*
G75*
G02*
X135890000Y-110520001I0J249999D01*
G01*
G37*
%TD.AperFunction*%
%TD*%
D11*
%TO.P,J8,2*%
%TO.N,Net-(D1-Pad3)*%
X148800000Y-80160000D03*
%TO.P,J8,1*%
%TO.N,+5V*%
%TA.AperFunction,ComponentPad*%
G36*
G01*
X149645001Y-83570000D02*
X147954999Y-83570000D01*
G75*
G02*
X147705000Y-83320001I0J249999D01*
G01*
X147705000Y-82079999D01*
G75*
G02*
X147954999Y-81830000I249999J0D01*
G01*
X149645001Y-81830000D01*
G75*
G02*
X149895000Y-82079999I0J-249999D01*
G01*
X149895000Y-83320001D01*
G75*
G02*
X149645001Y-83570000I-249999J0D01*
G01*
G37*
%TD.AperFunction*%
%TD*%
D12*
%TO.P,K1,5*%
%TO.N,+5V*%
X149780000Y-85120000D03*
%TO.P,K1,4*%
%TO.N,N/C*%
X134540000Y-85120000D03*
%TO.P,K1,3*%
%TO.N,Net-(J5-Pad1)*%
X132000000Y-77500000D03*
%TO.P,K1,2*%
%TO.N,Net-(J5-Pad2)*%
X139620000Y-77500000D03*
D13*
%TO.P,K1,1*%
%TO.N,Net-(D1-Pad3)*%
X149780000Y-77500000D03*
%TD*%
D14*
%TO.P,J5,2*%
%TO.N,Net-(J5-Pad2)*%
X120000000Y-80000000D03*
%TO.P,J5,1*%
%TO.N,Net-(J5-Pad1)*%
%TA.AperFunction,ComponentPad*%
G36*
G01*
X126000000Y-78450000D02*
X126000000Y-81550000D01*
G75*
G02*
X125750000Y-81800000I-250000J0D01*
G01*
X124250000Y-81800000D01*
G75*
G02*
X124000000Y-81550000I0J250000D01*
G01*
X124000000Y-78450000D01*
G75*
G02*
X124250000Y-78200000I250000J0D01*
G01*
X125750000Y-78200000D01*
G75*
G02*
X126000000Y-78450000I0J-250000D01*
G01*
G37*
%TD.AperFunction*%
%TD*%
D11*
%TO.P,J4,2*%
%TO.N,Net-(IC4-Pad3)*%
X101000000Y-112440000D03*
%TO.P,J4,1*%
%TO.N,Net-(IC4-Pad2)*%
%TA.AperFunction,ComponentPad*%
G36*
G01*
X100154999Y-109030000D02*
X101845001Y-109030000D01*
G75*
G02*
X102095000Y-109279999I0J-249999D01*
G01*
X102095000Y-110520001D01*
G75*
G02*
X101845001Y-110770000I-249999J0D01*
G01*
X100154999Y-110770000D01*
G75*
G02*
X99905000Y-110520001I0J249999D01*
G01*
X99905000Y-109279999D01*
G75*
G02*
X100154999Y-109030000I249999J0D01*
G01*
G37*
%TD.AperFunction*%
%TD*%
%TO.P,J3,2*%
%TO.N,Net-(IC3-Pad3)*%
X101000000Y-102540000D03*
%TO.P,J3,1*%
%TO.N,Net-(IC3-Pad2)*%
%TA.AperFunction,ComponentPad*%
G36*
G01*
X100154999Y-99130000D02*
X101845001Y-99130000D01*
G75*
G02*
X102095000Y-99379999I0J-249999D01*
G01*
X102095000Y-100620001D01*
G75*
G02*
X101845001Y-100870000I-249999J0D01*
G01*
X100154999Y-100870000D01*
G75*
G02*
X99905000Y-100620001I0J249999D01*
G01*
X99905000Y-99379999D01*
G75*
G02*
X100154999Y-99130000I249999J0D01*
G01*
G37*
%TD.AperFunction*%
%TD*%
%TO.P,J2,2*%
%TO.N,Net-(IC2-Pad3)*%
X101000000Y-92540000D03*
%TO.P,J2,1*%
%TO.N,Net-(IC2-Pad2)*%
%TA.AperFunction,ComponentPad*%
G36*
G01*
X100154999Y-89130000D02*
X101845001Y-89130000D01*
G75*
G02*
X102095000Y-89379999I0J-249999D01*
G01*
X102095000Y-90620001D01*
G75*
G02*
X101845001Y-90870000I-249999J0D01*
G01*
X100154999Y-90870000D01*
G75*
G02*
X99905000Y-90620001I0J249999D01*
G01*
X99905000Y-89379999D01*
G75*
G02*
X100154999Y-89130000I249999J0D01*
G01*
G37*
%TD.AperFunction*%
%TD*%
%TO.P,J1,2*%
%TO.N,Net-(IC1-Pad3)*%
X101000000Y-82540000D03*
%TO.P,J1,1*%
%TO.N,Net-(IC1-Pad2)*%
%TA.AperFunction,ComponentPad*%
G36*
G01*
X100154999Y-79130000D02*
X101845001Y-79130000D01*
G75*
G02*
X102095000Y-79379999I0J-249999D01*
G01*
X102095000Y-80620001D01*
G75*
G02*
X101845001Y-80870000I-249999J0D01*
G01*
X100154999Y-80870000D01*
G75*
G02*
X99905000Y-80620001I0J249999D01*
G01*
X99905000Y-79379999D01*
G75*
G02*
X100154999Y-79130000I249999J0D01*
G01*
G37*
%TD.AperFunction*%
%TD*%
D15*
%TO.N,GNDD*%
X139500000Y-105000000D03*
X117500000Y-105500000D03*
X104000000Y-105000000D03*
X141100000Y-99600000D03*
X129600000Y-91400000D03*
X120400000Y-88500000D03*
X147300000Y-87400000D03*
%TO.N,NRST*%
X124700000Y-90000000D03*
X122125000Y-112375000D03*
%TO.N,+3V3*%
X116700000Y-86900000D03*
X109000000Y-84617000D03*
X134100000Y-99700000D03*
X134200000Y-102900000D03*
%TO.N,MISO*%
X115900000Y-95300000D03*
X111275000Y-95275000D03*
%TO.N,CS4*%
X115725000Y-90300000D03*
X117700000Y-97600000D03*
%TO.N,CS1*%
X116100000Y-91900000D03*
X114275000Y-91800000D03*
%TO.N,CS2*%
X116100000Y-93100000D03*
X114275000Y-93800000D03*
%TO.N,SWCLK*%
X125847214Y-97305571D03*
X127200000Y-113075000D03*
%TO.N,SWDIO*%
X125400000Y-98200000D03*
X130200000Y-113600000D03*
%TO.N,relay*%
X144100000Y-92200000D03*
X130100000Y-97800000D03*
%TD*%
D16*
%TO.N,NRST*%
X124700000Y-90000000D02*
X122125000Y-92575000D01*
X122125000Y-92575000D02*
X122125000Y-112375000D01*
D17*
%TO.N,+3V3*%
X116700000Y-86900000D02*
X114417000Y-84617000D01*
X114417000Y-84617000D02*
X109000000Y-84617000D01*
D16*
X134100000Y-99700000D02*
X134100000Y-102800000D01*
X134100000Y-102800000D02*
X134200000Y-102900000D01*
%TO.N,MISO*%
X115900000Y-95300000D02*
X111300000Y-95300000D01*
X111300000Y-95300000D02*
X111275000Y-95275000D01*
%TO.N,CS4*%
X115725000Y-90300000D02*
X117700000Y-92275000D01*
X117700000Y-92275000D02*
X117700000Y-97600000D01*
%TO.N,CS1*%
X116100000Y-91900000D02*
X114375000Y-91900000D01*
X114375000Y-91900000D02*
X114275000Y-91800000D01*
%TO.N,CS2*%
X116100000Y-93100000D02*
X114975000Y-93100000D01*
X114975000Y-93100000D02*
X114275000Y-93800000D01*
D18*
%TO.N,Net-(J5-Pad2)*%
X120000000Y-80000000D02*
X122500010Y-82500010D01*
X134619990Y-82500010D02*
X139620000Y-77500000D01*
X122500010Y-82500010D02*
X134619990Y-82500010D01*
%TO.N,Net-(J5-Pad1)*%
X127500000Y-77500000D02*
X125000000Y-80000000D01*
X132000000Y-77500000D02*
X127500000Y-77500000D01*
D16*
%TO.N,SWCLK*%
X126247213Y-97705570D02*
X126247213Y-112547213D01*
X125847214Y-97305571D02*
X126247213Y-97705570D01*
X126247213Y-112547213D02*
X126775000Y-113075000D01*
X126775000Y-113075000D02*
X127200000Y-113075000D01*
%TO.N,SWDIO*%
X125400000Y-98200000D02*
X125400000Y-112800000D01*
X125400000Y-112800000D02*
X126400000Y-113800000D01*
X126400000Y-113800000D02*
X130000000Y-113800000D01*
X130000000Y-113800000D02*
X130200000Y-113600000D01*
%TO.N,relay*%
X144100000Y-92200000D02*
X138500000Y-97800000D01*
X138500000Y-97800000D02*
X130100000Y-97800000D01*
%TD*%
D19*
%TO.N,GNDD*%
X151340000Y-75865015D02*
X151284494Y-75819463D01*
X151174180Y-75760498D01*
X151054482Y-75724188D01*
X150930000Y-75711928D01*
X148630000Y-75711928D01*
X148505518Y-75724188D01*
X148385820Y-75760498D01*
X148275506Y-75819463D01*
X148178815Y-75898815D01*
X148099463Y-75995506D01*
X148040498Y-76105820D01*
X148004188Y-76225518D01*
X147991928Y-76350000D01*
X147991928Y-78650000D01*
X148002845Y-78760841D01*
X147996275Y-78762834D01*
X147734821Y-78902583D01*
X147505655Y-79090655D01*
X147317583Y-79319821D01*
X147177834Y-79581275D01*
X147091776Y-79864968D01*
X147062718Y-80160000D01*
X147091776Y-80455032D01*
X147177834Y-80738725D01*
X147317583Y-81000179D01*
X147505655Y-81229345D01*
X147571114Y-81283066D01*
X147461613Y-81341595D01*
X147327038Y-81452038D01*
X147216595Y-81586613D01*
X147134528Y-81740149D01*
X147083992Y-81906745D01*
X147066928Y-82079999D01*
X147066928Y-83320001D01*
X147083992Y-83493255D01*
X147134528Y-83659851D01*
X147216595Y-83813387D01*
X147327038Y-83947962D01*
X147461613Y-84058405D01*
X147615149Y-84140472D01*
X147781745Y-84191008D01*
X147954999Y-84208072D01*
X148242529Y-84208072D01*
X148198153Y-84274485D01*
X148063596Y-84599335D01*
X147995000Y-84944193D01*
X147995000Y-85295807D01*
X148063596Y-85640665D01*
X148198153Y-85965515D01*
X148393500Y-86257871D01*
X148642129Y-86506500D01*
X148934485Y-86701847D01*
X149259335Y-86836404D01*
X149604193Y-86905000D01*
X149955807Y-86905000D01*
X150300665Y-86836404D01*
X150625515Y-86701847D01*
X150917871Y-86506500D01*
X151166500Y-86257871D01*
X151340000Y-85998211D01*
X151340001Y-113840000D01*
X131207538Y-113840000D01*
X131235000Y-113701939D01*
X131235000Y-113498061D01*
X131195226Y-113298102D01*
X131117205Y-113109744D01*
X131003937Y-112940226D01*
X130859774Y-112796063D01*
X130690256Y-112682795D01*
X130501898Y-112604774D01*
X130301939Y-112565000D01*
X130098061Y-112565000D01*
X129898102Y-112604774D01*
X129709744Y-112682795D01*
X129540226Y-112796063D01*
X129396063Y-112940226D01*
X129329396Y-113040000D01*
X128235000Y-113040000D01*
X128235000Y-112973061D01*
X128195226Y-112773102D01*
X128117205Y-112584744D01*
X128003937Y-112415226D01*
X127859774Y-112271063D01*
X127690256Y-112157795D01*
X127501898Y-112079774D01*
X127301939Y-112040000D01*
X127098061Y-112040000D01*
X127007213Y-112058071D01*
X127007213Y-109279999D01*
X135251928Y-109279999D01*
X135251928Y-110520001D01*
X135268992Y-110693255D01*
X135319528Y-110859851D01*
X135401595Y-111013387D01*
X135512038Y-111147962D01*
X135646613Y-111258405D01*
X135800149Y-111340472D01*
X135966745Y-111391008D01*
X136139999Y-111408072D01*
X137380001Y-111408072D01*
X137553255Y-111391008D01*
X137719851Y-111340472D01*
X137873387Y-111258405D01*
X138007962Y-111147962D01*
X138118405Y-111013387D01*
X138176433Y-110904825D01*
X138340618Y-111069010D01*
X138587115Y-111233714D01*
X138861008Y-111347164D01*
X139151770Y-111405000D01*
X139448230Y-111405000D01*
X139738992Y-111347164D01*
X140012885Y-111233714D01*
X140259382Y-111069010D01*
X140469010Y-110859382D01*
X140570000Y-110708240D01*
X140670990Y-110859382D01*
X140880618Y-111069010D01*
X141127115Y-111233714D01*
X141401008Y-111347164D01*
X141691770Y-111405000D01*
X141988230Y-111405000D01*
X142278992Y-111347164D01*
X142552885Y-111233714D01*
X142799382Y-111069010D01*
X142925720Y-110942672D01*
X143516933Y-110942672D01*
X143596988Y-111193789D01*
X143864439Y-111321687D01*
X144151703Y-111394950D01*
X144447740Y-111410764D01*
X144741174Y-111368520D01*
X145020728Y-111269841D01*
X145163012Y-111193789D01*
X145243067Y-110942672D01*
X144380000Y-110079605D01*
X143516933Y-110942672D01*
X142925720Y-110942672D01*
X143009010Y-110859382D01*
X143119719Y-110693694D01*
X143337328Y-110763067D01*
X144200395Y-109900000D01*
X144559605Y-109900000D01*
X145422672Y-110763067D01*
X145673789Y-110683012D01*
X145801687Y-110415561D01*
X145874950Y-110128297D01*
X145890764Y-109832260D01*
X145848520Y-109538826D01*
X145749841Y-109259272D01*
X145673789Y-109116988D01*
X145422672Y-109036933D01*
X144559605Y-109900000D01*
X144200395Y-109900000D01*
X143337328Y-109036933D01*
X143119719Y-109106306D01*
X143009010Y-108940618D01*
X142925720Y-108857328D01*
X143516933Y-108857328D01*
X144380000Y-109720395D01*
X145243067Y-108857328D01*
X145163012Y-108606211D01*
X144895561Y-108478313D01*
X144608297Y-108405050D01*
X144312260Y-108389236D01*
X144018826Y-108431480D01*
X143739272Y-108530159D01*
X143596988Y-108606211D01*
X143516933Y-108857328D01*
X142925720Y-108857328D01*
X142799382Y-108730990D01*
X142552885Y-108566286D01*
X142278992Y-108452836D01*
X141988230Y-108395000D01*
X141691770Y-108395000D01*
X141401008Y-108452836D01*
X141127115Y-108566286D01*
X140880618Y-108730990D01*
X140670990Y-108940618D01*
X140570000Y-109091760D01*
X140469010Y-108940618D01*
X140259382Y-108730990D01*
X140012885Y-108566286D01*
X139738992Y-108452836D01*
X139448230Y-108395000D01*
X139151770Y-108395000D01*
X138861008Y-108452836D01*
X138587115Y-108566286D01*
X138340618Y-108730990D01*
X138176433Y-108895175D01*
X138118405Y-108786613D01*
X138007962Y-108652038D01*
X137873387Y-108541595D01*
X137719851Y-108459528D01*
X137553255Y-108408992D01*
X137380001Y-108391928D01*
X136139999Y-108391928D01*
X135966745Y-108408992D01*
X135800149Y-108459528D01*
X135646613Y-108541595D01*
X135512038Y-108652038D01*
X135401595Y-108786613D01*
X135319528Y-108940149D01*
X135268992Y-109106745D01*
X135251928Y-109279999D01*
X127007213Y-109279999D01*
X127007213Y-99598061D01*
X133065000Y-99598061D01*
X133065000Y-99801939D01*
X133104774Y-100001898D01*
X133182795Y-100190256D01*
X133296063Y-100359774D01*
X133340000Y-100403711D01*
X133340001Y-102324129D01*
X133282795Y-102409744D01*
X133204774Y-102598102D01*
X133165000Y-102798061D01*
X133165000Y-103001939D01*
X133204774Y-103201898D01*
X133282795Y-103390256D01*
X133396063Y-103559774D01*
X133540226Y-103703937D01*
X133709744Y-103817205D01*
X133898102Y-103895226D01*
X134098061Y-103935000D01*
X134301939Y-103935000D01*
X134501898Y-103895226D01*
X134690256Y-103817205D01*
X134859774Y-103703937D01*
X135003937Y-103559774D01*
X135117205Y-103390256D01*
X135195226Y-103201898D01*
X135235000Y-103001939D01*
X135235000Y-102798061D01*
X135195226Y-102598102D01*
X135151748Y-102493137D01*
X144515000Y-102493137D01*
X144515000Y-102706863D01*
X144556696Y-102916483D01*
X144638485Y-103113940D01*
X144757225Y-103291647D01*
X144908353Y-103442775D01*
X145086060Y-103561515D01*
X145283517Y-103643304D01*
X145493137Y-103685000D01*
X145706863Y-103685000D01*
X145916483Y-103643304D01*
X146113940Y-103561515D01*
X146291647Y-103442775D01*
X146442775Y-103291647D01*
X146561515Y-103113940D01*
X146643304Y-102916483D01*
X146685000Y-102706863D01*
X146685000Y-102493137D01*
X146643304Y-102283517D01*
X146561515Y-102086060D01*
X146442775Y-101908353D01*
X146291647Y-101757225D01*
X146113940Y-101638485D01*
X145916483Y-101556696D01*
X145706863Y-101515000D01*
X145493137Y-101515000D01*
X145283517Y-101556696D01*
X145086060Y-101638485D01*
X144908353Y-101757225D01*
X144757225Y-101908353D01*
X144638485Y-102086060D01*
X144556696Y-102283517D01*
X144515000Y-102493137D01*
X135151748Y-102493137D01*
X135117205Y-102409744D01*
X135003937Y-102240226D01*
X134860000Y-102096289D01*
X134860000Y-100403711D01*
X134903937Y-100359774D01*
X135017205Y-100190256D01*
X135095226Y-100001898D01*
X135135000Y-99801939D01*
X135135000Y-99598061D01*
X135095226Y-99398102D01*
X135017205Y-99209744D01*
X134903937Y-99040226D01*
X134759774Y-98896063D01*
X134590256Y-98782795D01*
X134401898Y-98704774D01*
X134201939Y-98665000D01*
X133998061Y-98665000D01*
X133798102Y-98704774D01*
X133609744Y-98782795D01*
X133440226Y-98896063D01*
X133296063Y-99040226D01*
X133182795Y-99209744D01*
X133104774Y-99398102D01*
X133065000Y-99598061D01*
X127007213Y-99598061D01*
X127007213Y-97742892D01*
X127010889Y-97705569D01*
X127010150Y-97698061D01*
X129065000Y-97698061D01*
X129065000Y-97901939D01*
X129104774Y-98101898D01*
X129182795Y-98290256D01*
X129296063Y-98459774D01*
X129440226Y-98603937D01*
X129609744Y-98717205D01*
X129798102Y-98795226D01*
X129998061Y-98835000D01*
X130201939Y-98835000D01*
X130401898Y-98795226D01*
X130590256Y-98717205D01*
X130759774Y-98603937D01*
X130803711Y-98560000D01*
X138462678Y-98560000D01*
X138500000Y-98563676D01*
X138537322Y-98560000D01*
X138537333Y-98560000D01*
X138648986Y-98549003D01*
X138792247Y-98505546D01*
X138924276Y-98434974D01*
X139040001Y-98340001D01*
X139063804Y-98310997D01*
X139281664Y-98093137D01*
X144515000Y-98093137D01*
X144515000Y-98306863D01*
X144556696Y-98516483D01*
X144638485Y-98713940D01*
X144757225Y-98891647D01*
X144908353Y-99042775D01*
X145086060Y-99161515D01*
X145283517Y-99243304D01*
X145493137Y-99285000D01*
X145706863Y-99285000D01*
X145916483Y-99243304D01*
X146113940Y-99161515D01*
X146291647Y-99042775D01*
X146442775Y-98891647D01*
X146561515Y-98713940D01*
X146643304Y-98516483D01*
X146685000Y-98306863D01*
X146685000Y-98093137D01*
X146643304Y-97883517D01*
X146561515Y-97686060D01*
X146442775Y-97508353D01*
X146291647Y-97357225D01*
X146113940Y-97238485D01*
X145916483Y-97156696D01*
X145706863Y-97115000D01*
X145493137Y-97115000D01*
X145283517Y-97156696D01*
X145086060Y-97238485D01*
X144908353Y-97357225D01*
X144757225Y-97508353D01*
X144638485Y-97686060D01*
X144556696Y-97883517D01*
X144515000Y-98093137D01*
X139281664Y-98093137D01*
X144139802Y-93235000D01*
X144201939Y-93235000D01*
X144401898Y-93195226D01*
X144590256Y-93117205D01*
X144759774Y-93003937D01*
X144903937Y-92859774D01*
X145017205Y-92690256D01*
X145095226Y-92501898D01*
X145135000Y-92301939D01*
X145135000Y-92098061D01*
X145095226Y-91898102D01*
X145017205Y-91709744D01*
X144903937Y-91540226D01*
X144759774Y-91396063D01*
X144590256Y-91282795D01*
X144401898Y-91204774D01*
X144201939Y-91165000D01*
X143998061Y-91165000D01*
X143798102Y-91204774D01*
X143609744Y-91282795D01*
X143440226Y-91396063D01*
X143296063Y-91540226D01*
X143182795Y-91709744D01*
X143104774Y-91898102D01*
X143065000Y-92098061D01*
X143065000Y-92160198D01*
X138185199Y-97040000D01*
X130803711Y-97040000D01*
X130759774Y-96996063D01*
X130590256Y-96882795D01*
X130401898Y-96804774D01*
X130201939Y-96765000D01*
X129998061Y-96765000D01*
X129798102Y-96804774D01*
X129609744Y-96882795D01*
X129440226Y-96996063D01*
X129296063Y-97140226D01*
X129182795Y-97309744D01*
X129104774Y-97498102D01*
X129065000Y-97698061D01*
X127010150Y-97698061D01*
X127007213Y-97668247D01*
X127007213Y-97668237D01*
X126996216Y-97556584D01*
X126952759Y-97413323D01*
X126882214Y-97281345D01*
X126882214Y-97203632D01*
X126842440Y-97003673D01*
X126764419Y-96815315D01*
X126651151Y-96645797D01*
X126506988Y-96501634D01*
X126337470Y-96388366D01*
X126149112Y-96310345D01*
X125949153Y-96270571D01*
X125745275Y-96270571D01*
X125545316Y-96310345D01*
X125356958Y-96388366D01*
X125187440Y-96501634D01*
X125043277Y-96645797D01*
X124930009Y-96815315D01*
X124851988Y-97003673D01*
X124812214Y-97203632D01*
X124812214Y-97347962D01*
X124740226Y-97396063D01*
X124596063Y-97540226D01*
X124482795Y-97709744D01*
X124404774Y-97898102D01*
X124365000Y-98098061D01*
X124365000Y-98301939D01*
X124404774Y-98501898D01*
X124482795Y-98690256D01*
X124596063Y-98859774D01*
X124640000Y-98903711D01*
X124640001Y-112762668D01*
X124636324Y-112800000D01*
X124640001Y-112837333D01*
X124648736Y-112926014D01*
X124650998Y-112948985D01*
X124694454Y-113092246D01*
X124765026Y-113224276D01*
X124836109Y-113310890D01*
X124860000Y-113340001D01*
X124888998Y-113363799D01*
X125365198Y-113840000D01*
X101794383Y-113840000D01*
X101803725Y-113837166D01*
X102065179Y-113697417D01*
X102294345Y-113509345D01*
X102482417Y-113280179D01*
X102622166Y-113018725D01*
X102708224Y-112735032D01*
X102737282Y-112440000D01*
X102720841Y-112273061D01*
X121090000Y-112273061D01*
X121090000Y-112476939D01*
X121129774Y-112676898D01*
X121207795Y-112865256D01*
X121321063Y-113034774D01*
X121465226Y-113178937D01*
X121634744Y-113292205D01*
X121823102Y-113370226D01*
X122023061Y-113410000D01*
X122226939Y-113410000D01*
X122426898Y-113370226D01*
X122615256Y-113292205D01*
X122784774Y-113178937D01*
X122928937Y-113034774D01*
X123042205Y-112865256D01*
X123120226Y-112676898D01*
X123160000Y-112476939D01*
X123160000Y-112273061D01*
X123120226Y-112073102D01*
X123042205Y-111884744D01*
X122928937Y-111715226D01*
X122885000Y-111671289D01*
X122885000Y-92889801D01*
X124739802Y-91035000D01*
X124801939Y-91035000D01*
X125001898Y-90995226D01*
X125190256Y-90917205D01*
X125359774Y-90803937D01*
X125503937Y-90659774D01*
X125617205Y-90490256D01*
X125695226Y-90301898D01*
X125735000Y-90101939D01*
X125735000Y-89898061D01*
X125695226Y-89698102D01*
X125617205Y-89509744D01*
X125503937Y-89340226D01*
X125359774Y-89196063D01*
X125190256Y-89082795D01*
X125001898Y-89004774D01*
X124801939Y-88965000D01*
X124598061Y-88965000D01*
X124398102Y-89004774D01*
X124209744Y-89082795D01*
X124040226Y-89196063D01*
X123896063Y-89340226D01*
X123782795Y-89509744D01*
X123704774Y-89698102D01*
X123665000Y-89898061D01*
X123665000Y-89960198D01*
X121614003Y-92011196D01*
X121584999Y-92034999D01*
X121538018Y-92092246D01*
X121490026Y-92150724D01*
X121443554Y-92237667D01*
X121419454Y-92282754D01*
X121375997Y-92426015D01*
X121365000Y-92537668D01*
X121365000Y-92537678D01*
X121361324Y-92575000D01*
X121365000Y-92612322D01*
X121365001Y-111671288D01*
X121321063Y-111715226D01*
X121207795Y-111884744D01*
X121129774Y-112073102D01*
X121090000Y-112273061D01*
X102720841Y-112273061D01*
X102708224Y-112144968D01*
X102622166Y-111861275D01*
X102482417Y-111599821D01*
X102294345Y-111370655D01*
X102228886Y-111316934D01*
X102338387Y-111258405D01*
X102472962Y-111147962D01*
X102583405Y-111013387D01*
X102665472Y-110859851D01*
X102716008Y-110693255D01*
X102733072Y-110520001D01*
X102733072Y-109279999D01*
X102716008Y-109106745D01*
X102665472Y-108940149D01*
X102583405Y-108786613D01*
X102472962Y-108652038D01*
X102338387Y-108541595D01*
X102184851Y-108459528D01*
X102018255Y-108408992D01*
X101845001Y-108391928D01*
X100154999Y-108391928D01*
X99981745Y-108408992D01*
X99815149Y-108459528D01*
X99661613Y-108541595D01*
X99527038Y-108652038D01*
X99416595Y-108786613D01*
X99334528Y-108940149D01*
X99283992Y-109106745D01*
X99266928Y-109279999D01*
X99266928Y-110520001D01*
X99283992Y-110693255D01*
X99334528Y-110859851D01*
X99416595Y-111013387D01*
X99527038Y-111147962D01*
X99661613Y-111258405D01*
X99771114Y-111316934D01*
X99705655Y-111370655D01*
X99517583Y-111599821D01*
X99377834Y-111861275D01*
X99291776Y-112144968D01*
X99262718Y-112440000D01*
X99291776Y-112735032D01*
X99377834Y-113018725D01*
X99517583Y-113280179D01*
X99705655Y-113509345D01*
X99934821Y-113697417D01*
X100196275Y-113837166D01*
X100205617Y-113840000D01*
X98160000Y-113840000D01*
X98160000Y-102540000D01*
X99262718Y-102540000D01*
X99291776Y-102835032D01*
X99377834Y-103118725D01*
X99517583Y-103380179D01*
X99705655Y-103609345D01*
X99934821Y-103797417D01*
X100196275Y-103937166D01*
X100479968Y-104023224D01*
X100701064Y-104045000D01*
X101298936Y-104045000D01*
X101520032Y-104023224D01*
X101803725Y-103937166D01*
X102065179Y-103797417D01*
X102294345Y-103609345D01*
X102482417Y-103380179D01*
X102622166Y-103118725D01*
X102708224Y-102835032D01*
X102737282Y-102540000D01*
X102708224Y-102244968D01*
X102622166Y-101961275D01*
X102482417Y-101699821D01*
X102294345Y-101470655D01*
X102228886Y-101416934D01*
X102338387Y-101358405D01*
X102472962Y-101247962D01*
X102583405Y-101113387D01*
X102665472Y-100959851D01*
X102716008Y-100793255D01*
X102733072Y-100620001D01*
X102733072Y-99379999D01*
X102716008Y-99206745D01*
X102665472Y-99040149D01*
X102583405Y-98886613D01*
X102472962Y-98752038D01*
X102338387Y-98641595D01*
X102184851Y-98559528D01*
X102018255Y-98508992D01*
X101845001Y-98491928D01*
X100154999Y-98491928D01*
X99981745Y-98508992D01*
X99815149Y-98559528D01*
X99661613Y-98641595D01*
X99527038Y-98752038D01*
X99416595Y-98886613D01*
X99334528Y-99040149D01*
X99283992Y-99206745D01*
X99266928Y-99379999D01*
X99266928Y-100620001D01*
X99283992Y-100793255D01*
X99334528Y-100959851D01*
X99416595Y-101113387D01*
X99527038Y-101247962D01*
X99661613Y-101358405D01*
X99771114Y-101416934D01*
X99705655Y-101470655D01*
X99517583Y-101699821D01*
X99377834Y-101961275D01*
X99291776Y-102244968D01*
X99262718Y-102540000D01*
X98160000Y-102540000D01*
X98160000Y-95173061D01*
X110240000Y-95173061D01*
X110240000Y-95376939D01*
X110279774Y-95576898D01*
X110357795Y-95765256D01*
X110471063Y-95934774D01*
X110615226Y-96078937D01*
X110784744Y-96192205D01*
X110973102Y-96270226D01*
X111173061Y-96310000D01*
X111376939Y-96310000D01*
X111576898Y-96270226D01*
X111765256Y-96192205D01*
X111934774Y-96078937D01*
X111953711Y-96060000D01*
X115196289Y-96060000D01*
X115240226Y-96103937D01*
X115409744Y-96217205D01*
X115598102Y-96295226D01*
X115798061Y-96335000D01*
X116001939Y-96335000D01*
X116201898Y-96295226D01*
X116390256Y-96217205D01*
X116559774Y-96103937D01*
X116703937Y-95959774D01*
X116817205Y-95790256D01*
X116895226Y-95601898D01*
X116935000Y-95401939D01*
X116935000Y-95198061D01*
X116895226Y-94998102D01*
X116817205Y-94809744D01*
X116703937Y-94640226D01*
X116559774Y-94496063D01*
X116390256Y-94382795D01*
X116201898Y-94304774D01*
X116001939Y-94265000D01*
X115798061Y-94265000D01*
X115598102Y-94304774D01*
X115409744Y-94382795D01*
X115240226Y-94496063D01*
X115196289Y-94540000D01*
X114998711Y-94540000D01*
X115078937Y-94459774D01*
X115192205Y-94290256D01*
X115270226Y-94101898D01*
X115310000Y-93901939D01*
X115310000Y-93860000D01*
X115396289Y-93860000D01*
X115440226Y-93903937D01*
X115609744Y-94017205D01*
X115798102Y-94095226D01*
X115998061Y-94135000D01*
X116201939Y-94135000D01*
X116401898Y-94095226D01*
X116590256Y-94017205D01*
X116759774Y-93903937D01*
X116903937Y-93759774D01*
X116940000Y-93705801D01*
X116940001Y-96896288D01*
X116896063Y-96940226D01*
X116782795Y-97109744D01*
X116704774Y-97298102D01*
X116665000Y-97498061D01*
X116665000Y-97701939D01*
X116704774Y-97901898D01*
X116782795Y-98090256D01*
X116896063Y-98259774D01*
X117040226Y-98403937D01*
X117209744Y-98517205D01*
X117398102Y-98595226D01*
X117598061Y-98635000D01*
X117801939Y-98635000D01*
X118001898Y-98595226D01*
X118190256Y-98517205D01*
X118359774Y-98403937D01*
X118503937Y-98259774D01*
X118617205Y-98090256D01*
X118695226Y-97901898D01*
X118735000Y-97701939D01*
X118735000Y-97498061D01*
X118695226Y-97298102D01*
X118617205Y-97109744D01*
X118503937Y-96940226D01*
X118460000Y-96896289D01*
X118460000Y-92312325D01*
X118463676Y-92275000D01*
X118460000Y-92237675D01*
X118460000Y-92237667D01*
X118449003Y-92126014D01*
X118405546Y-91982753D01*
X118334974Y-91850724D01*
X118240001Y-91734999D01*
X118211004Y-91711202D01*
X116760000Y-90260199D01*
X116760000Y-90198061D01*
X116720226Y-89998102D01*
X116642205Y-89809744D01*
X116528937Y-89640226D01*
X116384774Y-89496063D01*
X116215256Y-89382795D01*
X116026898Y-89304774D01*
X115826939Y-89265000D01*
X115623061Y-89265000D01*
X115423102Y-89304774D01*
X115234744Y-89382795D01*
X115065226Y-89496063D01*
X114921063Y-89640226D01*
X114807795Y-89809744D01*
X114729774Y-89998102D01*
X114690000Y-90198061D01*
X114690000Y-90401939D01*
X114729774Y-90601898D01*
X114807795Y-90790256D01*
X114921063Y-90959774D01*
X115065226Y-91103937D01*
X115119198Y-91140000D01*
X115078711Y-91140000D01*
X114934774Y-90996063D01*
X114765256Y-90882795D01*
X114576898Y-90804774D01*
X114376939Y-90765000D01*
X114173061Y-90765000D01*
X113973102Y-90804774D01*
X113784744Y-90882795D01*
X113615226Y-90996063D01*
X113471063Y-91140226D01*
X113357795Y-91309744D01*
X113279774Y-91498102D01*
X113240000Y-91698061D01*
X113240000Y-91901939D01*
X113279774Y-92101898D01*
X113357795Y-92290256D01*
X113471063Y-92459774D01*
X113615226Y-92603937D01*
X113784744Y-92717205D01*
X113973102Y-92795226D01*
X113997103Y-92800000D01*
X113973102Y-92804774D01*
X113784744Y-92882795D01*
X113615226Y-92996063D01*
X113471063Y-93140226D01*
X113357795Y-93309744D01*
X113279774Y-93498102D01*
X113240000Y-93698061D01*
X113240000Y-93901939D01*
X113279774Y-94101898D01*
X113357795Y-94290256D01*
X113471063Y-94459774D01*
X113551289Y-94540000D01*
X112003711Y-94540000D01*
X111934774Y-94471063D01*
X111765256Y-94357795D01*
X111576898Y-94279774D01*
X111376939Y-94240000D01*
X111173061Y-94240000D01*
X110973102Y-94279774D01*
X110784744Y-94357795D01*
X110615226Y-94471063D01*
X110471063Y-94615226D01*
X110357795Y-94784744D01*
X110279774Y-94973102D01*
X110240000Y-95173061D01*
X98160000Y-95173061D01*
X98160000Y-92540000D01*
X99262718Y-92540000D01*
X99291776Y-92835032D01*
X99377834Y-93118725D01*
X99517583Y-93380179D01*
X99705655Y-93609345D01*
X99934821Y-93797417D01*
X100196275Y-93937166D01*
X100479968Y-94023224D01*
X100701064Y-94045000D01*
X101298936Y-94045000D01*
X101520032Y-94023224D01*
X101803725Y-93937166D01*
X102065179Y-93797417D01*
X102294345Y-93609345D01*
X102482417Y-93380179D01*
X102622166Y-93118725D01*
X102708224Y-92835032D01*
X102737282Y-92540000D01*
X102708224Y-92244968D01*
X102622166Y-91961275D01*
X102482417Y-91699821D01*
X102294345Y-91470655D01*
X102228886Y-91416934D01*
X102338387Y-91358405D01*
X102472962Y-91247962D01*
X102583405Y-91113387D01*
X102665472Y-90959851D01*
X102716008Y-90793255D01*
X102733072Y-90620001D01*
X102733072Y-89379999D01*
X102716008Y-89206745D01*
X102665472Y-89040149D01*
X102583405Y-88886613D01*
X102472962Y-88752038D01*
X102338387Y-88641595D01*
X102184851Y-88559528D01*
X102018255Y-88508992D01*
X101845001Y-88491928D01*
X100154999Y-88491928D01*
X99981745Y-88508992D01*
X99815149Y-88559528D01*
X99661613Y-88641595D01*
X99527038Y-88752038D01*
X99416595Y-88886613D01*
X99334528Y-89040149D01*
X99283992Y-89206745D01*
X99266928Y-89379999D01*
X99266928Y-90620001D01*
X99283992Y-90793255D01*
X99334528Y-90959851D01*
X99416595Y-91113387D01*
X99527038Y-91247962D01*
X99661613Y-91358405D01*
X99771114Y-91416934D01*
X99705655Y-91470655D01*
X99517583Y-91699821D01*
X99377834Y-91961275D01*
X99291776Y-92244968D01*
X99262718Y-92540000D01*
X98160000Y-92540000D01*
X98160000Y-84515061D01*
X107965000Y-84515061D01*
X107965000Y-84718939D01*
X108004774Y-84918898D01*
X108082795Y-85107256D01*
X108196063Y-85276774D01*
X108340226Y-85420937D01*
X108509744Y-85534205D01*
X108698102Y-85612226D01*
X108898061Y-85652000D01*
X109101939Y-85652000D01*
X109301898Y-85612226D01*
X109490256Y-85534205D01*
X109538454Y-85502000D01*
X114050422Y-85502000D01*
X115693465Y-87145044D01*
X115704774Y-87201898D01*
X115782795Y-87390256D01*
X115896063Y-87559774D01*
X116040226Y-87703937D01*
X116209744Y-87817205D01*
X116398102Y-87895226D01*
X116598061Y-87935000D01*
X116801939Y-87935000D01*
X117001898Y-87895226D01*
X117190256Y-87817205D01*
X117359774Y-87703937D01*
X117503937Y-87559774D01*
X117617205Y-87390256D01*
X117695226Y-87201898D01*
X117735000Y-87001939D01*
X117735000Y-86798061D01*
X117695226Y-86598102D01*
X117617205Y-86409744D01*
X117503937Y-86240226D01*
X117359774Y-86096063D01*
X117190256Y-85982795D01*
X117001898Y-85904774D01*
X116945044Y-85893465D01*
X115073534Y-84021956D01*
X115045817Y-83988183D01*
X114911059Y-83877589D01*
X114757313Y-83795411D01*
X114590490Y-83744805D01*
X114460477Y-83732000D01*
X114460469Y-83732000D01*
X114417000Y-83727719D01*
X114373531Y-83732000D01*
X109538454Y-83732000D01*
X109490256Y-83699795D01*
X109301898Y-83621774D01*
X109101939Y-83582000D01*
X108898061Y-83582000D01*
X108698102Y-83621774D01*
X108509744Y-83699795D01*
X108340226Y-83813063D01*
X108196063Y-83957226D01*
X108082795Y-84126744D01*
X108004774Y-84315102D01*
X107965000Y-84515061D01*
X98160000Y-84515061D01*
X98160000Y-82540000D01*
X99262718Y-82540000D01*
X99291776Y-82835032D01*
X99377834Y-83118725D01*
X99517583Y-83380179D01*
X99705655Y-83609345D01*
X99934821Y-83797417D01*
X100196275Y-83937166D01*
X100479968Y-84023224D01*
X100701064Y-84045000D01*
X101298936Y-84045000D01*
X101520032Y-84023224D01*
X101803725Y-83937166D01*
X102065179Y-83797417D01*
X102294345Y-83609345D01*
X102482417Y-83380179D01*
X102622166Y-83118725D01*
X102708224Y-82835032D01*
X102737282Y-82540000D01*
X102708224Y-82244968D01*
X102622166Y-81961275D01*
X102482417Y-81699821D01*
X102294345Y-81470655D01*
X102228886Y-81416934D01*
X102338387Y-81358405D01*
X102472962Y-81247962D01*
X102583405Y-81113387D01*
X102665472Y-80959851D01*
X102716008Y-80793255D01*
X102733072Y-80620001D01*
X102733072Y-79379999D01*
X102716008Y-79206745D01*
X102689597Y-79119678D01*
X118365000Y-79119678D01*
X118365000Y-80880321D01*
X118388657Y-81120515D01*
X118482148Y-81428714D01*
X118633969Y-81712751D01*
X118838286Y-81961714D01*
X119087248Y-82166031D01*
X119371285Y-82317852D01*
X119679484Y-82411343D01*
X120000000Y-82442911D01*
X120320515Y-82411343D01*
X120628714Y-82317852D01*
X120683459Y-82288590D01*
X121658019Y-83263151D01*
X121693561Y-83306459D01*
X121866387Y-83448294D01*
X122034503Y-83538153D01*
X122063563Y-83553686D01*
X122277511Y-83618587D01*
X122500009Y-83640501D01*
X122555761Y-83635010D01*
X133549529Y-83635010D01*
X133402129Y-83733500D01*
X133153500Y-83982129D01*
X132958153Y-84274485D01*
X132823596Y-84599335D01*
X132755000Y-84944193D01*
X132755000Y-85295807D01*
X132823596Y-85640665D01*
X132958153Y-85965515D01*
X133153500Y-86257871D01*
X133402129Y-86506500D01*
X133694485Y-86701847D01*
X134019335Y-86836404D01*
X134364193Y-86905000D01*
X134715807Y-86905000D01*
X135060665Y-86836404D01*
X135385515Y-86701847D01*
X135677871Y-86506500D01*
X135926500Y-86257871D01*
X136121847Y-85965515D01*
X136256404Y-85640665D01*
X136325000Y-85295807D01*
X136325000Y-84944193D01*
X136256404Y-84599335D01*
X136121847Y-84274485D01*
X135926500Y-83982129D01*
X135677871Y-83733500D01*
X135385515Y-83538153D01*
X135216486Y-83468139D01*
X135253613Y-83448294D01*
X135426439Y-83306459D01*
X135461986Y-83263145D01*
X139440806Y-79284326D01*
X139444193Y-79285000D01*
X139795807Y-79285000D01*
X140140665Y-79216404D01*
X140465515Y-79081847D01*
X140757871Y-78886500D01*
X141006500Y-78637871D01*
X141201847Y-78345515D01*
X141336404Y-78020665D01*
X141405000Y-77675807D01*
X141405000Y-77324193D01*
X141336404Y-76979335D01*
X141201847Y-76654485D01*
X141006500Y-76362129D01*
X140757871Y-76113500D01*
X140465515Y-75918153D01*
X140140665Y-75783596D01*
X139795807Y-75715000D01*
X139444193Y-75715000D01*
X139099335Y-75783596D01*
X138774485Y-75918153D01*
X138482129Y-76113500D01*
X138233500Y-76362129D01*
X138038153Y-76654485D01*
X137903596Y-76979335D01*
X137835000Y-77324193D01*
X137835000Y-77675807D01*
X137835674Y-77679194D01*
X134149859Y-81365010D01*
X126638072Y-81365010D01*
X126638072Y-79967059D01*
X127970132Y-78635000D01*
X130611582Y-78635000D01*
X130613500Y-78637871D01*
X130862129Y-78886500D01*
X131154485Y-79081847D01*
X131479335Y-79216404D01*
X131824193Y-79285000D01*
X132175807Y-79285000D01*
X132520665Y-79216404D01*
X132845515Y-79081847D01*
X133137871Y-78886500D01*
X133386500Y-78637871D01*
X133581847Y-78345515D01*
X133716404Y-78020665D01*
X133785000Y-77675807D01*
X133785000Y-77324193D01*
X133716404Y-76979335D01*
X133581847Y-76654485D01*
X133386500Y-76362129D01*
X133137871Y-76113500D01*
X132845515Y-75918153D01*
X132520665Y-75783596D01*
X132175807Y-75715000D01*
X131824193Y-75715000D01*
X131479335Y-75783596D01*
X131154485Y-75918153D01*
X130862129Y-76113500D01*
X130613500Y-76362129D01*
X130611582Y-76365000D01*
X127555751Y-76365000D01*
X127500000Y-76359509D01*
X127444248Y-76365000D01*
X127277501Y-76381423D01*
X127063553Y-76446324D01*
X126866377Y-76551716D01*
X126693551Y-76693551D01*
X126658009Y-76736859D01*
X125825504Y-77569364D01*
X125750000Y-77561928D01*
X124250000Y-77561928D01*
X124076746Y-77578992D01*
X123910150Y-77629528D01*
X123756614Y-77711595D01*
X123622038Y-77822038D01*
X123511595Y-77956614D01*
X123429528Y-78110150D01*
X123378992Y-78276746D01*
X123361928Y-78450000D01*
X123361928Y-81365010D01*
X122970142Y-81365010D01*
X121635000Y-80029869D01*
X121635000Y-79119678D01*
X121611343Y-78879484D01*
X121517852Y-78571285D01*
X121366031Y-78287248D01*
X121161714Y-78038286D01*
X120912752Y-77833969D01*
X120628715Y-77682148D01*
X120320516Y-77588657D01*
X120000000Y-77557089D01*
X119679485Y-77588657D01*
X119371286Y-77682148D01*
X119087249Y-77833969D01*
X118838287Y-78038286D01*
X118633970Y-78287248D01*
X118482149Y-78571285D01*
X118388658Y-78879484D01*
X118365000Y-79119678D01*
X102689597Y-79119678D01*
X102665472Y-79040149D01*
X102583405Y-78886613D01*
X102472962Y-78752038D01*
X102338387Y-78641595D01*
X102184851Y-78559528D01*
X102018255Y-78508992D01*
X101845001Y-78491928D01*
X100154999Y-78491928D01*
X99981745Y-78508992D01*
X99815149Y-78559528D01*
X99661613Y-78641595D01*
X99527038Y-78752038D01*
X99416595Y-78886613D01*
X99334528Y-79040149D01*
X99283992Y-79206745D01*
X99266928Y-79379999D01*
X99266928Y-80620001D01*
X99283992Y-80793255D01*
X99334528Y-80959851D01*
X99416595Y-81113387D01*
X99527038Y-81247962D01*
X99661613Y-81358405D01*
X99771114Y-81416934D01*
X99705655Y-81470655D01*
X99517583Y-81699821D01*
X99377834Y-81961275D01*
X99291776Y-82244968D01*
X99262718Y-82540000D01*
X98160000Y-82540000D01*
X98160000Y-75660000D01*
X151340000Y-75660000D01*
X151340000Y-75865015D01*
%TA.AperFunction,Conductor*%
D20*
G36*
X151340000Y-75865015D02*
G01*
X151284494Y-75819463D01*
X151174180Y-75760498D01*
X151054482Y-75724188D01*
X150930000Y-75711928D01*
X148630000Y-75711928D01*
X148505518Y-75724188D01*
X148385820Y-75760498D01*
X148275506Y-75819463D01*
X148178815Y-75898815D01*
X148099463Y-75995506D01*
X148040498Y-76105820D01*
X148004188Y-76225518D01*
X147991928Y-76350000D01*
X147991928Y-78650000D01*
X148002845Y-78760841D01*
X147996275Y-78762834D01*
X147734821Y-78902583D01*
X147505655Y-79090655D01*
X147317583Y-79319821D01*
X147177834Y-79581275D01*
X147091776Y-79864968D01*
X147062718Y-80160000D01*
X147091776Y-80455032D01*
X147177834Y-80738725D01*
X147317583Y-81000179D01*
X147505655Y-81229345D01*
X147571114Y-81283066D01*
X147461613Y-81341595D01*
X147327038Y-81452038D01*
X147216595Y-81586613D01*
X147134528Y-81740149D01*
X147083992Y-81906745D01*
X147066928Y-82079999D01*
X147066928Y-83320001D01*
X147083992Y-83493255D01*
X147134528Y-83659851D01*
X147216595Y-83813387D01*
X147327038Y-83947962D01*
X147461613Y-84058405D01*
X147615149Y-84140472D01*
X147781745Y-84191008D01*
X147954999Y-84208072D01*
X148242529Y-84208072D01*
X148198153Y-84274485D01*
X148063596Y-84599335D01*
X147995000Y-84944193D01*
X147995000Y-85295807D01*
X148063596Y-85640665D01*
X148198153Y-85965515D01*
X148393500Y-86257871D01*
X148642129Y-86506500D01*
X148934485Y-86701847D01*
X149259335Y-86836404D01*
X149604193Y-86905000D01*
X149955807Y-86905000D01*
X150300665Y-86836404D01*
X150625515Y-86701847D01*
X150917871Y-86506500D01*
X151166500Y-86257871D01*
X151340000Y-85998211D01*
X151340001Y-113840000D01*
X131207538Y-113840000D01*
X131235000Y-113701939D01*
X131235000Y-113498061D01*
X131195226Y-113298102D01*
X131117205Y-113109744D01*
X131003937Y-112940226D01*
X130859774Y-112796063D01*
X130690256Y-112682795D01*
X130501898Y-112604774D01*
X130301939Y-112565000D01*
X130098061Y-112565000D01*
X129898102Y-112604774D01*
X129709744Y-112682795D01*
X129540226Y-112796063D01*
X129396063Y-112940226D01*
X129329396Y-113040000D01*
X128235000Y-113040000D01*
X128235000Y-112973061D01*
X128195226Y-112773102D01*
X128117205Y-112584744D01*
X128003937Y-112415226D01*
X127859774Y-112271063D01*
X127690256Y-112157795D01*
X127501898Y-112079774D01*
X127301939Y-112040000D01*
X127098061Y-112040000D01*
X127007213Y-112058071D01*
X127007213Y-109279999D01*
X135251928Y-109279999D01*
X135251928Y-110520001D01*
X135268992Y-110693255D01*
X135319528Y-110859851D01*
X135401595Y-111013387D01*
X135512038Y-111147962D01*
X135646613Y-111258405D01*
X135800149Y-111340472D01*
X135966745Y-111391008D01*
X136139999Y-111408072D01*
X137380001Y-111408072D01*
X137553255Y-111391008D01*
X137719851Y-111340472D01*
X137873387Y-111258405D01*
X138007962Y-111147962D01*
X138118405Y-111013387D01*
X138176433Y-110904825D01*
X138340618Y-111069010D01*
X138587115Y-111233714D01*
X138861008Y-111347164D01*
X139151770Y-111405000D01*
X139448230Y-111405000D01*
X139738992Y-111347164D01*
X140012885Y-111233714D01*
X140259382Y-111069010D01*
X140469010Y-110859382D01*
X140570000Y-110708240D01*
X140670990Y-110859382D01*
X140880618Y-111069010D01*
X141127115Y-111233714D01*
X141401008Y-111347164D01*
X141691770Y-111405000D01*
X141988230Y-111405000D01*
X142278992Y-111347164D01*
X142552885Y-111233714D01*
X142799382Y-111069010D01*
X142925720Y-110942672D01*
X143516933Y-110942672D01*
X143596988Y-111193789D01*
X143864439Y-111321687D01*
X144151703Y-111394950D01*
X144447740Y-111410764D01*
X144741174Y-111368520D01*
X145020728Y-111269841D01*
X145163012Y-111193789D01*
X145243067Y-110942672D01*
X144380000Y-110079605D01*
X143516933Y-110942672D01*
X142925720Y-110942672D01*
X143009010Y-110859382D01*
X143119719Y-110693694D01*
X143337328Y-110763067D01*
X144200395Y-109900000D01*
X144559605Y-109900000D01*
X145422672Y-110763067D01*
X145673789Y-110683012D01*
X145801687Y-110415561D01*
X145874950Y-110128297D01*
X145890764Y-109832260D01*
X145848520Y-109538826D01*
X145749841Y-109259272D01*
X145673789Y-109116988D01*
X145422672Y-109036933D01*
X144559605Y-109900000D01*
X144200395Y-109900000D01*
X143337328Y-109036933D01*
X143119719Y-109106306D01*
X143009010Y-108940618D01*
X142925720Y-108857328D01*
X143516933Y-108857328D01*
X144380000Y-109720395D01*
X145243067Y-108857328D01*
X145163012Y-108606211D01*
X144895561Y-108478313D01*
X144608297Y-108405050D01*
X144312260Y-108389236D01*
X144018826Y-108431480D01*
X143739272Y-108530159D01*
X143596988Y-108606211D01*
X143516933Y-108857328D01*
X142925720Y-108857328D01*
X142799382Y-108730990D01*
X142552885Y-108566286D01*
X142278992Y-108452836D01*
X141988230Y-108395000D01*
X141691770Y-108395000D01*
X141401008Y-108452836D01*
X141127115Y-108566286D01*
X140880618Y-108730990D01*
X140670990Y-108940618D01*
X140570000Y-109091760D01*
X140469010Y-108940618D01*
X140259382Y-108730990D01*
X140012885Y-108566286D01*
X139738992Y-108452836D01*
X139448230Y-108395000D01*
X139151770Y-108395000D01*
X138861008Y-108452836D01*
X138587115Y-108566286D01*
X138340618Y-108730990D01*
X138176433Y-108895175D01*
X138118405Y-108786613D01*
X138007962Y-108652038D01*
X137873387Y-108541595D01*
X137719851Y-108459528D01*
X137553255Y-108408992D01*
X137380001Y-108391928D01*
X136139999Y-108391928D01*
X135966745Y-108408992D01*
X135800149Y-108459528D01*
X135646613Y-108541595D01*
X135512038Y-108652038D01*
X135401595Y-108786613D01*
X135319528Y-108940149D01*
X135268992Y-109106745D01*
X135251928Y-109279999D01*
X127007213Y-109279999D01*
X127007213Y-99598061D01*
X133065000Y-99598061D01*
X133065000Y-99801939D01*
X133104774Y-100001898D01*
X133182795Y-100190256D01*
X133296063Y-100359774D01*
X133340000Y-100403711D01*
X133340001Y-102324129D01*
X133282795Y-102409744D01*
X133204774Y-102598102D01*
X133165000Y-102798061D01*
X133165000Y-103001939D01*
X133204774Y-103201898D01*
X133282795Y-103390256D01*
X133396063Y-103559774D01*
X133540226Y-103703937D01*
X133709744Y-103817205D01*
X133898102Y-103895226D01*
X134098061Y-103935000D01*
X134301939Y-103935000D01*
X134501898Y-103895226D01*
X134690256Y-103817205D01*
X134859774Y-103703937D01*
X135003937Y-103559774D01*
X135117205Y-103390256D01*
X135195226Y-103201898D01*
X135235000Y-103001939D01*
X135235000Y-102798061D01*
X135195226Y-102598102D01*
X135151748Y-102493137D01*
X144515000Y-102493137D01*
X144515000Y-102706863D01*
X144556696Y-102916483D01*
X144638485Y-103113940D01*
X144757225Y-103291647D01*
X144908353Y-103442775D01*
X145086060Y-103561515D01*
X145283517Y-103643304D01*
X145493137Y-103685000D01*
X145706863Y-103685000D01*
X145916483Y-103643304D01*
X146113940Y-103561515D01*
X146291647Y-103442775D01*
X146442775Y-103291647D01*
X146561515Y-103113940D01*
X146643304Y-102916483D01*
X146685000Y-102706863D01*
X146685000Y-102493137D01*
X146643304Y-102283517D01*
X146561515Y-102086060D01*
X146442775Y-101908353D01*
X146291647Y-101757225D01*
X146113940Y-101638485D01*
X145916483Y-101556696D01*
X145706863Y-101515000D01*
X145493137Y-101515000D01*
X145283517Y-101556696D01*
X145086060Y-101638485D01*
X144908353Y-101757225D01*
X144757225Y-101908353D01*
X144638485Y-102086060D01*
X144556696Y-102283517D01*
X144515000Y-102493137D01*
X135151748Y-102493137D01*
X135117205Y-102409744D01*
X135003937Y-102240226D01*
X134860000Y-102096289D01*
X134860000Y-100403711D01*
X134903937Y-100359774D01*
X135017205Y-100190256D01*
X135095226Y-100001898D01*
X135135000Y-99801939D01*
X135135000Y-99598061D01*
X135095226Y-99398102D01*
X135017205Y-99209744D01*
X134903937Y-99040226D01*
X134759774Y-98896063D01*
X134590256Y-98782795D01*
X134401898Y-98704774D01*
X134201939Y-98665000D01*
X133998061Y-98665000D01*
X133798102Y-98704774D01*
X133609744Y-98782795D01*
X133440226Y-98896063D01*
X133296063Y-99040226D01*
X133182795Y-99209744D01*
X133104774Y-99398102D01*
X133065000Y-99598061D01*
X127007213Y-99598061D01*
X127007213Y-97742892D01*
X127010889Y-97705569D01*
X127010150Y-97698061D01*
X129065000Y-97698061D01*
X129065000Y-97901939D01*
X129104774Y-98101898D01*
X129182795Y-98290256D01*
X129296063Y-98459774D01*
X129440226Y-98603937D01*
X129609744Y-98717205D01*
X129798102Y-98795226D01*
X129998061Y-98835000D01*
X130201939Y-98835000D01*
X130401898Y-98795226D01*
X130590256Y-98717205D01*
X130759774Y-98603937D01*
X130803711Y-98560000D01*
X138462678Y-98560000D01*
X138500000Y-98563676D01*
X138537322Y-98560000D01*
X138537333Y-98560000D01*
X138648986Y-98549003D01*
X138792247Y-98505546D01*
X138924276Y-98434974D01*
X139040001Y-98340001D01*
X139063804Y-98310997D01*
X139281664Y-98093137D01*
X144515000Y-98093137D01*
X144515000Y-98306863D01*
X144556696Y-98516483D01*
X144638485Y-98713940D01*
X144757225Y-98891647D01*
X144908353Y-99042775D01*
X145086060Y-99161515D01*
X145283517Y-99243304D01*
X145493137Y-99285000D01*
X145706863Y-99285000D01*
X145916483Y-99243304D01*
X146113940Y-99161515D01*
X146291647Y-99042775D01*
X146442775Y-98891647D01*
X146561515Y-98713940D01*
X146643304Y-98516483D01*
X146685000Y-98306863D01*
X146685000Y-98093137D01*
X146643304Y-97883517D01*
X146561515Y-97686060D01*
X146442775Y-97508353D01*
X146291647Y-97357225D01*
X146113940Y-97238485D01*
X145916483Y-97156696D01*
X145706863Y-97115000D01*
X145493137Y-97115000D01*
X145283517Y-97156696D01*
X145086060Y-97238485D01*
X144908353Y-97357225D01*
X144757225Y-97508353D01*
X144638485Y-97686060D01*
X144556696Y-97883517D01*
X144515000Y-98093137D01*
X139281664Y-98093137D01*
X144139802Y-93235000D01*
X144201939Y-93235000D01*
X144401898Y-93195226D01*
X144590256Y-93117205D01*
X144759774Y-93003937D01*
X144903937Y-92859774D01*
X145017205Y-92690256D01*
X145095226Y-92501898D01*
X145135000Y-92301939D01*
X145135000Y-92098061D01*
X145095226Y-91898102D01*
X145017205Y-91709744D01*
X144903937Y-91540226D01*
X144759774Y-91396063D01*
X144590256Y-91282795D01*
X144401898Y-91204774D01*
X144201939Y-91165000D01*
X143998061Y-91165000D01*
X143798102Y-91204774D01*
X143609744Y-91282795D01*
X143440226Y-91396063D01*
X143296063Y-91540226D01*
X143182795Y-91709744D01*
X143104774Y-91898102D01*
X143065000Y-92098061D01*
X143065000Y-92160198D01*
X138185199Y-97040000D01*
X130803711Y-97040000D01*
X130759774Y-96996063D01*
X130590256Y-96882795D01*
X130401898Y-96804774D01*
X130201939Y-96765000D01*
X129998061Y-96765000D01*
X129798102Y-96804774D01*
X129609744Y-96882795D01*
X129440226Y-96996063D01*
X129296063Y-97140226D01*
X129182795Y-97309744D01*
X129104774Y-97498102D01*
X129065000Y-97698061D01*
X127010150Y-97698061D01*
X127007213Y-97668247D01*
X127007213Y-97668237D01*
X126996216Y-97556584D01*
X126952759Y-97413323D01*
X126882214Y-97281345D01*
X126882214Y-97203632D01*
X126842440Y-97003673D01*
X126764419Y-96815315D01*
X126651151Y-96645797D01*
X126506988Y-96501634D01*
X126337470Y-96388366D01*
X126149112Y-96310345D01*
X125949153Y-96270571D01*
X125745275Y-96270571D01*
X125545316Y-96310345D01*
X125356958Y-96388366D01*
X125187440Y-96501634D01*
X125043277Y-96645797D01*
X124930009Y-96815315D01*
X124851988Y-97003673D01*
X124812214Y-97203632D01*
X124812214Y-97347962D01*
X124740226Y-97396063D01*
X124596063Y-97540226D01*
X124482795Y-97709744D01*
X124404774Y-97898102D01*
X124365000Y-98098061D01*
X124365000Y-98301939D01*
X124404774Y-98501898D01*
X124482795Y-98690256D01*
X124596063Y-98859774D01*
X124640000Y-98903711D01*
X124640001Y-112762668D01*
X124636324Y-112800000D01*
X124640001Y-112837333D01*
X124648736Y-112926014D01*
X124650998Y-112948985D01*
X124694454Y-113092246D01*
X124765026Y-113224276D01*
X124836109Y-113310890D01*
X124860000Y-113340001D01*
X124888998Y-113363799D01*
X125365198Y-113840000D01*
X101794383Y-113840000D01*
X101803725Y-113837166D01*
X102065179Y-113697417D01*
X102294345Y-113509345D01*
X102482417Y-113280179D01*
X102622166Y-113018725D01*
X102708224Y-112735032D01*
X102737282Y-112440000D01*
X102720841Y-112273061D01*
X121090000Y-112273061D01*
X121090000Y-112476939D01*
X121129774Y-112676898D01*
X121207795Y-112865256D01*
X121321063Y-113034774D01*
X121465226Y-113178937D01*
X121634744Y-113292205D01*
X121823102Y-113370226D01*
X122023061Y-113410000D01*
X122226939Y-113410000D01*
X122426898Y-113370226D01*
X122615256Y-113292205D01*
X122784774Y-113178937D01*
X122928937Y-113034774D01*
X123042205Y-112865256D01*
X123120226Y-112676898D01*
X123160000Y-112476939D01*
X123160000Y-112273061D01*
X123120226Y-112073102D01*
X123042205Y-111884744D01*
X122928937Y-111715226D01*
X122885000Y-111671289D01*
X122885000Y-92889801D01*
X124739802Y-91035000D01*
X124801939Y-91035000D01*
X125001898Y-90995226D01*
X125190256Y-90917205D01*
X125359774Y-90803937D01*
X125503937Y-90659774D01*
X125617205Y-90490256D01*
X125695226Y-90301898D01*
X125735000Y-90101939D01*
X125735000Y-89898061D01*
X125695226Y-89698102D01*
X125617205Y-89509744D01*
X125503937Y-89340226D01*
X125359774Y-89196063D01*
X125190256Y-89082795D01*
X125001898Y-89004774D01*
X124801939Y-88965000D01*
X124598061Y-88965000D01*
X124398102Y-89004774D01*
X124209744Y-89082795D01*
X124040226Y-89196063D01*
X123896063Y-89340226D01*
X123782795Y-89509744D01*
X123704774Y-89698102D01*
X123665000Y-89898061D01*
X123665000Y-89960198D01*
X121614003Y-92011196D01*
X121584999Y-92034999D01*
X121538018Y-92092246D01*
X121490026Y-92150724D01*
X121443554Y-92237667D01*
X121419454Y-92282754D01*
X121375997Y-92426015D01*
X121365000Y-92537668D01*
X121365000Y-92537678D01*
X121361324Y-92575000D01*
X121365000Y-92612322D01*
X121365001Y-111671288D01*
X121321063Y-111715226D01*
X121207795Y-111884744D01*
X121129774Y-112073102D01*
X121090000Y-112273061D01*
X102720841Y-112273061D01*
X102708224Y-112144968D01*
X102622166Y-111861275D01*
X102482417Y-111599821D01*
X102294345Y-111370655D01*
X102228886Y-111316934D01*
X102338387Y-111258405D01*
X102472962Y-111147962D01*
X102583405Y-111013387D01*
X102665472Y-110859851D01*
X102716008Y-110693255D01*
X102733072Y-110520001D01*
X102733072Y-109279999D01*
X102716008Y-109106745D01*
X102665472Y-108940149D01*
X102583405Y-108786613D01*
X102472962Y-108652038D01*
X102338387Y-108541595D01*
X102184851Y-108459528D01*
X102018255Y-108408992D01*
X101845001Y-108391928D01*
X100154999Y-108391928D01*
X99981745Y-108408992D01*
X99815149Y-108459528D01*
X99661613Y-108541595D01*
X99527038Y-108652038D01*
X99416595Y-108786613D01*
X99334528Y-108940149D01*
X99283992Y-109106745D01*
X99266928Y-109279999D01*
X99266928Y-110520001D01*
X99283992Y-110693255D01*
X99334528Y-110859851D01*
X99416595Y-111013387D01*
X99527038Y-111147962D01*
X99661613Y-111258405D01*
X99771114Y-111316934D01*
X99705655Y-111370655D01*
X99517583Y-111599821D01*
X99377834Y-111861275D01*
X99291776Y-112144968D01*
X99262718Y-112440000D01*
X99291776Y-112735032D01*
X99377834Y-113018725D01*
X99517583Y-113280179D01*
X99705655Y-113509345D01*
X99934821Y-113697417D01*
X100196275Y-113837166D01*
X100205617Y-113840000D01*
X98160000Y-113840000D01*
X98160000Y-102540000D01*
X99262718Y-102540000D01*
X99291776Y-102835032D01*
X99377834Y-103118725D01*
X99517583Y-103380179D01*
X99705655Y-103609345D01*
X99934821Y-103797417D01*
X100196275Y-103937166D01*
X100479968Y-104023224D01*
X100701064Y-104045000D01*
X101298936Y-104045000D01*
X101520032Y-104023224D01*
X101803725Y-103937166D01*
X102065179Y-103797417D01*
X102294345Y-103609345D01*
X102482417Y-103380179D01*
X102622166Y-103118725D01*
X102708224Y-102835032D01*
X102737282Y-102540000D01*
X102708224Y-102244968D01*
X102622166Y-101961275D01*
X102482417Y-101699821D01*
X102294345Y-101470655D01*
X102228886Y-101416934D01*
X102338387Y-101358405D01*
X102472962Y-101247962D01*
X102583405Y-101113387D01*
X102665472Y-100959851D01*
X102716008Y-100793255D01*
X102733072Y-100620001D01*
X102733072Y-99379999D01*
X102716008Y-99206745D01*
X102665472Y-99040149D01*
X102583405Y-98886613D01*
X102472962Y-98752038D01*
X102338387Y-98641595D01*
X102184851Y-98559528D01*
X102018255Y-98508992D01*
X101845001Y-98491928D01*
X100154999Y-98491928D01*
X99981745Y-98508992D01*
X99815149Y-98559528D01*
X99661613Y-98641595D01*
X99527038Y-98752038D01*
X99416595Y-98886613D01*
X99334528Y-99040149D01*
X99283992Y-99206745D01*
X99266928Y-99379999D01*
X99266928Y-100620001D01*
X99283992Y-100793255D01*
X99334528Y-100959851D01*
X99416595Y-101113387D01*
X99527038Y-101247962D01*
X99661613Y-101358405D01*
X99771114Y-101416934D01*
X99705655Y-101470655D01*
X99517583Y-101699821D01*
X99377834Y-101961275D01*
X99291776Y-102244968D01*
X99262718Y-102540000D01*
X98160000Y-102540000D01*
X98160000Y-95173061D01*
X110240000Y-95173061D01*
X110240000Y-95376939D01*
X110279774Y-95576898D01*
X110357795Y-95765256D01*
X110471063Y-95934774D01*
X110615226Y-96078937D01*
X110784744Y-96192205D01*
X110973102Y-96270226D01*
X111173061Y-96310000D01*
X111376939Y-96310000D01*
X111576898Y-96270226D01*
X111765256Y-96192205D01*
X111934774Y-96078937D01*
X111953711Y-96060000D01*
X115196289Y-96060000D01*
X115240226Y-96103937D01*
X115409744Y-96217205D01*
X115598102Y-96295226D01*
X115798061Y-96335000D01*
X116001939Y-96335000D01*
X116201898Y-96295226D01*
X116390256Y-96217205D01*
X116559774Y-96103937D01*
X116703937Y-95959774D01*
X116817205Y-95790256D01*
X116895226Y-95601898D01*
X116935000Y-95401939D01*
X116935000Y-95198061D01*
X116895226Y-94998102D01*
X116817205Y-94809744D01*
X116703937Y-94640226D01*
X116559774Y-94496063D01*
X116390256Y-94382795D01*
X116201898Y-94304774D01*
X116001939Y-94265000D01*
X115798061Y-94265000D01*
X115598102Y-94304774D01*
X115409744Y-94382795D01*
X115240226Y-94496063D01*
X115196289Y-94540000D01*
X114998711Y-94540000D01*
X115078937Y-94459774D01*
X115192205Y-94290256D01*
X115270226Y-94101898D01*
X115310000Y-93901939D01*
X115310000Y-93860000D01*
X115396289Y-93860000D01*
X115440226Y-93903937D01*
X115609744Y-94017205D01*
X115798102Y-94095226D01*
X115998061Y-94135000D01*
X116201939Y-94135000D01*
X116401898Y-94095226D01*
X116590256Y-94017205D01*
X116759774Y-93903937D01*
X116903937Y-93759774D01*
X116940000Y-93705801D01*
X116940001Y-96896288D01*
X116896063Y-96940226D01*
X116782795Y-97109744D01*
X116704774Y-97298102D01*
X116665000Y-97498061D01*
X116665000Y-97701939D01*
X116704774Y-97901898D01*
X116782795Y-98090256D01*
X116896063Y-98259774D01*
X117040226Y-98403937D01*
X117209744Y-98517205D01*
X117398102Y-98595226D01*
X117598061Y-98635000D01*
X117801939Y-98635000D01*
X118001898Y-98595226D01*
X118190256Y-98517205D01*
X118359774Y-98403937D01*
X118503937Y-98259774D01*
X118617205Y-98090256D01*
X118695226Y-97901898D01*
X118735000Y-97701939D01*
X118735000Y-97498061D01*
X118695226Y-97298102D01*
X118617205Y-97109744D01*
X118503937Y-96940226D01*
X118460000Y-96896289D01*
X118460000Y-92312325D01*
X118463676Y-92275000D01*
X118460000Y-92237675D01*
X118460000Y-92237667D01*
X118449003Y-92126014D01*
X118405546Y-91982753D01*
X118334974Y-91850724D01*
X118240001Y-91734999D01*
X118211004Y-91711202D01*
X116760000Y-90260199D01*
X116760000Y-90198061D01*
X116720226Y-89998102D01*
X116642205Y-89809744D01*
X116528937Y-89640226D01*
X116384774Y-89496063D01*
X116215256Y-89382795D01*
X116026898Y-89304774D01*
X115826939Y-89265000D01*
X115623061Y-89265000D01*
X115423102Y-89304774D01*
X115234744Y-89382795D01*
X115065226Y-89496063D01*
X114921063Y-89640226D01*
X114807795Y-89809744D01*
X114729774Y-89998102D01*
X114690000Y-90198061D01*
X114690000Y-90401939D01*
X114729774Y-90601898D01*
X114807795Y-90790256D01*
X114921063Y-90959774D01*
X115065226Y-91103937D01*
X115119198Y-91140000D01*
X115078711Y-91140000D01*
X114934774Y-90996063D01*
X114765256Y-90882795D01*
X114576898Y-90804774D01*
X114376939Y-90765000D01*
X114173061Y-90765000D01*
X113973102Y-90804774D01*
X113784744Y-90882795D01*
X113615226Y-90996063D01*
X113471063Y-91140226D01*
X113357795Y-91309744D01*
X113279774Y-91498102D01*
X113240000Y-91698061D01*
X113240000Y-91901939D01*
X113279774Y-92101898D01*
X113357795Y-92290256D01*
X113471063Y-92459774D01*
X113615226Y-92603937D01*
X113784744Y-92717205D01*
X113973102Y-92795226D01*
X113997103Y-92800000D01*
X113973102Y-92804774D01*
X113784744Y-92882795D01*
X113615226Y-92996063D01*
X113471063Y-93140226D01*
X113357795Y-93309744D01*
X113279774Y-93498102D01*
X113240000Y-93698061D01*
X113240000Y-93901939D01*
X113279774Y-94101898D01*
X113357795Y-94290256D01*
X113471063Y-94459774D01*
X113551289Y-94540000D01*
X112003711Y-94540000D01*
X111934774Y-94471063D01*
X111765256Y-94357795D01*
X111576898Y-94279774D01*
X111376939Y-94240000D01*
X111173061Y-94240000D01*
X110973102Y-94279774D01*
X110784744Y-94357795D01*
X110615226Y-94471063D01*
X110471063Y-94615226D01*
X110357795Y-94784744D01*
X110279774Y-94973102D01*
X110240000Y-95173061D01*
X98160000Y-95173061D01*
X98160000Y-92540000D01*
X99262718Y-92540000D01*
X99291776Y-92835032D01*
X99377834Y-93118725D01*
X99517583Y-93380179D01*
X99705655Y-93609345D01*
X99934821Y-93797417D01*
X100196275Y-93937166D01*
X100479968Y-94023224D01*
X100701064Y-94045000D01*
X101298936Y-94045000D01*
X101520032Y-94023224D01*
X101803725Y-93937166D01*
X102065179Y-93797417D01*
X102294345Y-93609345D01*
X102482417Y-93380179D01*
X102622166Y-93118725D01*
X102708224Y-92835032D01*
X102737282Y-92540000D01*
X102708224Y-92244968D01*
X102622166Y-91961275D01*
X102482417Y-91699821D01*
X102294345Y-91470655D01*
X102228886Y-91416934D01*
X102338387Y-91358405D01*
X102472962Y-91247962D01*
X102583405Y-91113387D01*
X102665472Y-90959851D01*
X102716008Y-90793255D01*
X102733072Y-90620001D01*
X102733072Y-89379999D01*
X102716008Y-89206745D01*
X102665472Y-89040149D01*
X102583405Y-88886613D01*
X102472962Y-88752038D01*
X102338387Y-88641595D01*
X102184851Y-88559528D01*
X102018255Y-88508992D01*
X101845001Y-88491928D01*
X100154999Y-88491928D01*
X99981745Y-88508992D01*
X99815149Y-88559528D01*
X99661613Y-88641595D01*
X99527038Y-88752038D01*
X99416595Y-88886613D01*
X99334528Y-89040149D01*
X99283992Y-89206745D01*
X99266928Y-89379999D01*
X99266928Y-90620001D01*
X99283992Y-90793255D01*
X99334528Y-90959851D01*
X99416595Y-91113387D01*
X99527038Y-91247962D01*
X99661613Y-91358405D01*
X99771114Y-91416934D01*
X99705655Y-91470655D01*
X99517583Y-91699821D01*
X99377834Y-91961275D01*
X99291776Y-92244968D01*
X99262718Y-92540000D01*
X98160000Y-92540000D01*
X98160000Y-84515061D01*
X107965000Y-84515061D01*
X107965000Y-84718939D01*
X108004774Y-84918898D01*
X108082795Y-85107256D01*
X108196063Y-85276774D01*
X108340226Y-85420937D01*
X108509744Y-85534205D01*
X108698102Y-85612226D01*
X108898061Y-85652000D01*
X109101939Y-85652000D01*
X109301898Y-85612226D01*
X109490256Y-85534205D01*
X109538454Y-85502000D01*
X114050422Y-85502000D01*
X115693465Y-87145044D01*
X115704774Y-87201898D01*
X115782795Y-87390256D01*
X115896063Y-87559774D01*
X116040226Y-87703937D01*
X116209744Y-87817205D01*
X116398102Y-87895226D01*
X116598061Y-87935000D01*
X116801939Y-87935000D01*
X117001898Y-87895226D01*
X117190256Y-87817205D01*
X117359774Y-87703937D01*
X117503937Y-87559774D01*
X117617205Y-87390256D01*
X117695226Y-87201898D01*
X117735000Y-87001939D01*
X117735000Y-86798061D01*
X117695226Y-86598102D01*
X117617205Y-86409744D01*
X117503937Y-86240226D01*
X117359774Y-86096063D01*
X117190256Y-85982795D01*
X117001898Y-85904774D01*
X116945044Y-85893465D01*
X115073534Y-84021956D01*
X115045817Y-83988183D01*
X114911059Y-83877589D01*
X114757313Y-83795411D01*
X114590490Y-83744805D01*
X114460477Y-83732000D01*
X114460469Y-83732000D01*
X114417000Y-83727719D01*
X114373531Y-83732000D01*
X109538454Y-83732000D01*
X109490256Y-83699795D01*
X109301898Y-83621774D01*
X109101939Y-83582000D01*
X108898061Y-83582000D01*
X108698102Y-83621774D01*
X108509744Y-83699795D01*
X108340226Y-83813063D01*
X108196063Y-83957226D01*
X108082795Y-84126744D01*
X108004774Y-84315102D01*
X107965000Y-84515061D01*
X98160000Y-84515061D01*
X98160000Y-82540000D01*
X99262718Y-82540000D01*
X99291776Y-82835032D01*
X99377834Y-83118725D01*
X99517583Y-83380179D01*
X99705655Y-83609345D01*
X99934821Y-83797417D01*
X100196275Y-83937166D01*
X100479968Y-84023224D01*
X100701064Y-84045000D01*
X101298936Y-84045000D01*
X101520032Y-84023224D01*
X101803725Y-83937166D01*
X102065179Y-83797417D01*
X102294345Y-83609345D01*
X102482417Y-83380179D01*
X102622166Y-83118725D01*
X102708224Y-82835032D01*
X102737282Y-82540000D01*
X102708224Y-82244968D01*
X102622166Y-81961275D01*
X102482417Y-81699821D01*
X102294345Y-81470655D01*
X102228886Y-81416934D01*
X102338387Y-81358405D01*
X102472962Y-81247962D01*
X102583405Y-81113387D01*
X102665472Y-80959851D01*
X102716008Y-80793255D01*
X102733072Y-80620001D01*
X102733072Y-79379999D01*
X102716008Y-79206745D01*
X102689597Y-79119678D01*
X118365000Y-79119678D01*
X118365000Y-80880321D01*
X118388657Y-81120515D01*
X118482148Y-81428714D01*
X118633969Y-81712751D01*
X118838286Y-81961714D01*
X119087248Y-82166031D01*
X119371285Y-82317852D01*
X119679484Y-82411343D01*
X120000000Y-82442911D01*
X120320515Y-82411343D01*
X120628714Y-82317852D01*
X120683459Y-82288590D01*
X121658019Y-83263151D01*
X121693561Y-83306459D01*
X121866387Y-83448294D01*
X122034503Y-83538153D01*
X122063563Y-83553686D01*
X122277511Y-83618587D01*
X122500009Y-83640501D01*
X122555761Y-83635010D01*
X133549529Y-83635010D01*
X133402129Y-83733500D01*
X133153500Y-83982129D01*
X132958153Y-84274485D01*
X132823596Y-84599335D01*
X132755000Y-84944193D01*
X132755000Y-85295807D01*
X132823596Y-85640665D01*
X132958153Y-85965515D01*
X133153500Y-86257871D01*
X133402129Y-86506500D01*
X133694485Y-86701847D01*
X134019335Y-86836404D01*
X134364193Y-86905000D01*
X134715807Y-86905000D01*
X135060665Y-86836404D01*
X135385515Y-86701847D01*
X135677871Y-86506500D01*
X135926500Y-86257871D01*
X136121847Y-85965515D01*
X136256404Y-85640665D01*
X136325000Y-85295807D01*
X136325000Y-84944193D01*
X136256404Y-84599335D01*
X136121847Y-84274485D01*
X135926500Y-83982129D01*
X135677871Y-83733500D01*
X135385515Y-83538153D01*
X135216486Y-83468139D01*
X135253613Y-83448294D01*
X135426439Y-83306459D01*
X135461986Y-83263145D01*
X139440806Y-79284326D01*
X139444193Y-79285000D01*
X139795807Y-79285000D01*
X140140665Y-79216404D01*
X140465515Y-79081847D01*
X140757871Y-78886500D01*
X141006500Y-78637871D01*
X141201847Y-78345515D01*
X141336404Y-78020665D01*
X141405000Y-77675807D01*
X141405000Y-77324193D01*
X141336404Y-76979335D01*
X141201847Y-76654485D01*
X141006500Y-76362129D01*
X140757871Y-76113500D01*
X140465515Y-75918153D01*
X140140665Y-75783596D01*
X139795807Y-75715000D01*
X139444193Y-75715000D01*
X139099335Y-75783596D01*
X138774485Y-75918153D01*
X138482129Y-76113500D01*
X138233500Y-76362129D01*
X138038153Y-76654485D01*
X137903596Y-76979335D01*
X137835000Y-77324193D01*
X137835000Y-77675807D01*
X137835674Y-77679194D01*
X134149859Y-81365010D01*
X126638072Y-81365010D01*
X126638072Y-79967059D01*
X127970132Y-78635000D01*
X130611582Y-78635000D01*
X130613500Y-78637871D01*
X130862129Y-78886500D01*
X131154485Y-79081847D01*
X131479335Y-79216404D01*
X131824193Y-79285000D01*
X132175807Y-79285000D01*
X132520665Y-79216404D01*
X132845515Y-79081847D01*
X133137871Y-78886500D01*
X133386500Y-78637871D01*
X133581847Y-78345515D01*
X133716404Y-78020665D01*
X133785000Y-77675807D01*
X133785000Y-77324193D01*
X133716404Y-76979335D01*
X133581847Y-76654485D01*
X133386500Y-76362129D01*
X133137871Y-76113500D01*
X132845515Y-75918153D01*
X132520665Y-75783596D01*
X132175807Y-75715000D01*
X131824193Y-75715000D01*
X131479335Y-75783596D01*
X131154485Y-75918153D01*
X130862129Y-76113500D01*
X130613500Y-76362129D01*
X130611582Y-76365000D01*
X127555751Y-76365000D01*
X127500000Y-76359509D01*
X127444248Y-76365000D01*
X127277501Y-76381423D01*
X127063553Y-76446324D01*
X126866377Y-76551716D01*
X126693551Y-76693551D01*
X126658009Y-76736859D01*
X125825504Y-77569364D01*
X125750000Y-77561928D01*
X124250000Y-77561928D01*
X124076746Y-77578992D01*
X123910150Y-77629528D01*
X123756614Y-77711595D01*
X123622038Y-77822038D01*
X123511595Y-77956614D01*
X123429528Y-78110150D01*
X123378992Y-78276746D01*
X123361928Y-78450000D01*
X123361928Y-81365010D01*
X122970142Y-81365010D01*
X121635000Y-80029869D01*
X121635000Y-79119678D01*
X121611343Y-78879484D01*
X121517852Y-78571285D01*
X121366031Y-78287248D01*
X121161714Y-78038286D01*
X120912752Y-77833969D01*
X120628715Y-77682148D01*
X120320516Y-77588657D01*
X120000000Y-77557089D01*
X119679485Y-77588657D01*
X119371286Y-77682148D01*
X119087249Y-77833969D01*
X118838287Y-78038286D01*
X118633970Y-78287248D01*
X118482149Y-78571285D01*
X118388658Y-78879484D01*
X118365000Y-79119678D01*
X102689597Y-79119678D01*
X102665472Y-79040149D01*
X102583405Y-78886613D01*
X102472962Y-78752038D01*
X102338387Y-78641595D01*
X102184851Y-78559528D01*
X102018255Y-78508992D01*
X101845001Y-78491928D01*
X100154999Y-78491928D01*
X99981745Y-78508992D01*
X99815149Y-78559528D01*
X99661613Y-78641595D01*
X99527038Y-78752038D01*
X99416595Y-78886613D01*
X99334528Y-79040149D01*
X99283992Y-79206745D01*
X99266928Y-79379999D01*
X99266928Y-80620001D01*
X99283992Y-80793255D01*
X99334528Y-80959851D01*
X99416595Y-81113387D01*
X99527038Y-81247962D01*
X99661613Y-81358405D01*
X99771114Y-81416934D01*
X99705655Y-81470655D01*
X99517583Y-81699821D01*
X99377834Y-81961275D01*
X99291776Y-82244968D01*
X99262718Y-82540000D01*
X98160000Y-82540000D01*
X98160000Y-75660000D01*
X151340000Y-75660000D01*
X151340000Y-75865015D01*
G37*
%TD.AperFunction*%
%TD*%
M02*
