%TF.GenerationSoftware,KiCad,Pcbnew,(5.1.7)-1*%
%TF.CreationDate,2020-10-05T16:07:02+02:00*%
%TF.ProjectId,Templogger,54656d70-6c6f-4676-9765-722e6b696361,rev?*%
%TF.SameCoordinates,Original*%
%TF.FileFunction,Paste,Top*%
%TF.FilePolarity,Positive*%
%FSLAX46Y46*%
G04 Gerber Fmt 4.6, Leading zero omitted, Abs format (unit mm)*
G04 Created by KiCad (PCBNEW (5.1.7)-1) date 2020-10-05 16:07:02*
%MOMM*%
%LPD*%
G01*
G04 APERTURE LIST*
%ADD10R,1.060000X0.650000*%
%ADD11R,0.900000X0.800000*%
%ADD12R,2.500000X0.500000*%
%ADD13R,2.500000X2.000000*%
%ADD14R,0.740000X2.400000*%
%ADD15R,1.525000X0.650000*%
G04 APERTURE END LIST*
%TO.C,R3*%
G36*
G01*
X134643750Y-104287500D02*
X135556250Y-104287500D01*
G75*
G02*
X135800000Y-104531250I0J-243750D01*
G01*
X135800000Y-105018750D01*
G75*
G02*
X135556250Y-105262500I-243750J0D01*
G01*
X134643750Y-105262500D01*
G75*
G02*
X134400000Y-105018750I0J243750D01*
G01*
X134400000Y-104531250D01*
G75*
G02*
X134643750Y-104287500I243750J0D01*
G01*
G37*
G36*
G01*
X134643750Y-102412500D02*
X135556250Y-102412500D01*
G75*
G02*
X135800000Y-102656250I0J-243750D01*
G01*
X135800000Y-103143750D01*
G75*
G02*
X135556250Y-103387500I-243750J0D01*
G01*
X134643750Y-103387500D01*
G75*
G02*
X134400000Y-103143750I0J243750D01*
G01*
X134400000Y-102656250D01*
G75*
G02*
X134643750Y-102412500I243750J0D01*
G01*
G37*
%TD*%
%TO.C,R2*%
G36*
G01*
X132643750Y-104287500D02*
X133556250Y-104287500D01*
G75*
G02*
X133800000Y-104531250I0J-243750D01*
G01*
X133800000Y-105018750D01*
G75*
G02*
X133556250Y-105262500I-243750J0D01*
G01*
X132643750Y-105262500D01*
G75*
G02*
X132400000Y-105018750I0J243750D01*
G01*
X132400000Y-104531250D01*
G75*
G02*
X132643750Y-104287500I243750J0D01*
G01*
G37*
G36*
G01*
X132643750Y-102412500D02*
X133556250Y-102412500D01*
G75*
G02*
X133800000Y-102656250I0J-243750D01*
G01*
X133800000Y-103143750D01*
G75*
G02*
X133556250Y-103387500I-243750J0D01*
G01*
X132643750Y-103387500D01*
G75*
G02*
X132400000Y-103143750I0J243750D01*
G01*
X132400000Y-102656250D01*
G75*
G02*
X132643750Y-102412500I243750J0D01*
G01*
G37*
%TD*%
%TO.C,C8*%
G36*
G01*
X107612500Y-95343750D02*
X107612500Y-96256250D01*
G75*
G02*
X107368750Y-96500000I-243750J0D01*
G01*
X106881250Y-96500000D01*
G75*
G02*
X106637500Y-96256250I0J243750D01*
G01*
X106637500Y-95343750D01*
G75*
G02*
X106881250Y-95100000I243750J0D01*
G01*
X107368750Y-95100000D01*
G75*
G02*
X107612500Y-95343750I0J-243750D01*
G01*
G37*
G36*
G01*
X109487500Y-95343750D02*
X109487500Y-96256250D01*
G75*
G02*
X109243750Y-96500000I-243750J0D01*
G01*
X108756250Y-96500000D01*
G75*
G02*
X108512500Y-96256250I0J243750D01*
G01*
X108512500Y-95343750D01*
G75*
G02*
X108756250Y-95100000I243750J0D01*
G01*
X109243750Y-95100000D01*
G75*
G02*
X109487500Y-95343750I0J-243750D01*
G01*
G37*
%TD*%
%TO.C,C7*%
G36*
G01*
X107687500Y-85743750D02*
X107687500Y-86656250D01*
G75*
G02*
X107443750Y-86900000I-243750J0D01*
G01*
X106956250Y-86900000D01*
G75*
G02*
X106712500Y-86656250I0J243750D01*
G01*
X106712500Y-85743750D01*
G75*
G02*
X106956250Y-85500000I243750J0D01*
G01*
X107443750Y-85500000D01*
G75*
G02*
X107687500Y-85743750I0J-243750D01*
G01*
G37*
G36*
G01*
X109562500Y-85743750D02*
X109562500Y-86656250D01*
G75*
G02*
X109318750Y-86900000I-243750J0D01*
G01*
X108831250Y-86900000D01*
G75*
G02*
X108587500Y-86656250I0J243750D01*
G01*
X108587500Y-85743750D01*
G75*
G02*
X108831250Y-85500000I243750J0D01*
G01*
X109318750Y-85500000D01*
G75*
G02*
X109562500Y-85743750I0J-243750D01*
G01*
G37*
%TD*%
%TO.C,C6*%
G36*
G01*
X107487500Y-105643750D02*
X107487500Y-106556250D01*
G75*
G02*
X107243750Y-106800000I-243750J0D01*
G01*
X106756250Y-106800000D01*
G75*
G02*
X106512500Y-106556250I0J243750D01*
G01*
X106512500Y-105643750D01*
G75*
G02*
X106756250Y-105400000I243750J0D01*
G01*
X107243750Y-105400000D01*
G75*
G02*
X107487500Y-105643750I0J-243750D01*
G01*
G37*
G36*
G01*
X109362500Y-105643750D02*
X109362500Y-106556250D01*
G75*
G02*
X109118750Y-106800000I-243750J0D01*
G01*
X108631250Y-106800000D01*
G75*
G02*
X108387500Y-106556250I0J243750D01*
G01*
X108387500Y-105643750D01*
G75*
G02*
X108631250Y-105400000I243750J0D01*
G01*
X109118750Y-105400000D01*
G75*
G02*
X109362500Y-105643750I0J-243750D01*
G01*
G37*
%TD*%
%TO.C,C5*%
G36*
G01*
X120012500Y-101743750D02*
X120012500Y-102656250D01*
G75*
G02*
X119768750Y-102900000I-243750J0D01*
G01*
X119281250Y-102900000D01*
G75*
G02*
X119037500Y-102656250I0J243750D01*
G01*
X119037500Y-101743750D01*
G75*
G02*
X119281250Y-101500000I243750J0D01*
G01*
X119768750Y-101500000D01*
G75*
G02*
X120012500Y-101743750I0J-243750D01*
G01*
G37*
G36*
G01*
X121887500Y-101743750D02*
X121887500Y-102656250D01*
G75*
G02*
X121643750Y-102900000I-243750J0D01*
G01*
X121156250Y-102900000D01*
G75*
G02*
X120912500Y-102656250I0J243750D01*
G01*
X120912500Y-101743750D01*
G75*
G02*
X121156250Y-101500000I243750J0D01*
G01*
X121643750Y-101500000D01*
G75*
G02*
X121887500Y-101743750I0J-243750D01*
G01*
G37*
%TD*%
%TO.C,C4*%
G36*
G01*
X125812500Y-87543750D02*
X125812500Y-88456250D01*
G75*
G02*
X125568750Y-88700000I-243750J0D01*
G01*
X125081250Y-88700000D01*
G75*
G02*
X124837500Y-88456250I0J243750D01*
G01*
X124837500Y-87543750D01*
G75*
G02*
X125081250Y-87300000I243750J0D01*
G01*
X125568750Y-87300000D01*
G75*
G02*
X125812500Y-87543750I0J-243750D01*
G01*
G37*
G36*
G01*
X127687500Y-87543750D02*
X127687500Y-88456250D01*
G75*
G02*
X127443750Y-88700000I-243750J0D01*
G01*
X126956250Y-88700000D01*
G75*
G02*
X126712500Y-88456250I0J243750D01*
G01*
X126712500Y-87543750D01*
G75*
G02*
X126956250Y-87300000I243750J0D01*
G01*
X127443750Y-87300000D01*
G75*
G02*
X127687500Y-87543750I0J-243750D01*
G01*
G37*
%TD*%
D10*
%TO.C,U3*%
X137500000Y-97450000D03*
X137500000Y-95550000D03*
X139700000Y-95550000D03*
X139700000Y-96500000D03*
X139700000Y-97450000D03*
%TD*%
%TO.C,U2*%
X139500000Y-101000000D03*
X139500000Y-100050000D03*
X139500000Y-101950000D03*
X137300000Y-101950000D03*
X137300000Y-101000000D03*
X137300000Y-100050000D03*
%TD*%
%TO.C,U1*%
G36*
G01*
X127850000Y-92625000D02*
X129100000Y-92625000D01*
G75*
G02*
X129225000Y-92750000I0J-125000D01*
G01*
X129225000Y-93000000D01*
G75*
G02*
X129100000Y-93125000I-125000J0D01*
G01*
X127850000Y-93125000D01*
G75*
G02*
X127725000Y-93000000I0J125000D01*
G01*
X127725000Y-92750000D01*
G75*
G02*
X127850000Y-92625000I125000J0D01*
G01*
G37*
G36*
G01*
X127850000Y-93425000D02*
X129100000Y-93425000D01*
G75*
G02*
X129225000Y-93550000I0J-125000D01*
G01*
X129225000Y-93800000D01*
G75*
G02*
X129100000Y-93925000I-125000J0D01*
G01*
X127850000Y-93925000D01*
G75*
G02*
X127725000Y-93800000I0J125000D01*
G01*
X127725000Y-93550000D01*
G75*
G02*
X127850000Y-93425000I125000J0D01*
G01*
G37*
G36*
G01*
X127850000Y-94225000D02*
X129100000Y-94225000D01*
G75*
G02*
X129225000Y-94350000I0J-125000D01*
G01*
X129225000Y-94600000D01*
G75*
G02*
X129100000Y-94725000I-125000J0D01*
G01*
X127850000Y-94725000D01*
G75*
G02*
X127725000Y-94600000I0J125000D01*
G01*
X127725000Y-94350000D01*
G75*
G02*
X127850000Y-94225000I125000J0D01*
G01*
G37*
G36*
G01*
X127850000Y-95025000D02*
X129100000Y-95025000D01*
G75*
G02*
X129225000Y-95150000I0J-125000D01*
G01*
X129225000Y-95400000D01*
G75*
G02*
X129100000Y-95525000I-125000J0D01*
G01*
X127850000Y-95525000D01*
G75*
G02*
X127725000Y-95400000I0J125000D01*
G01*
X127725000Y-95150000D01*
G75*
G02*
X127850000Y-95025000I125000J0D01*
G01*
G37*
G36*
G01*
X127850000Y-95825000D02*
X129100000Y-95825000D01*
G75*
G02*
X129225000Y-95950000I0J-125000D01*
G01*
X129225000Y-96200000D01*
G75*
G02*
X129100000Y-96325000I-125000J0D01*
G01*
X127850000Y-96325000D01*
G75*
G02*
X127725000Y-96200000I0J125000D01*
G01*
X127725000Y-95950000D01*
G75*
G02*
X127850000Y-95825000I125000J0D01*
G01*
G37*
G36*
G01*
X127850000Y-96625000D02*
X129100000Y-96625000D01*
G75*
G02*
X129225000Y-96750000I0J-125000D01*
G01*
X129225000Y-97000000D01*
G75*
G02*
X129100000Y-97125000I-125000J0D01*
G01*
X127850000Y-97125000D01*
G75*
G02*
X127725000Y-97000000I0J125000D01*
G01*
X127725000Y-96750000D01*
G75*
G02*
X127850000Y-96625000I125000J0D01*
G01*
G37*
G36*
G01*
X127850000Y-97425000D02*
X129100000Y-97425000D01*
G75*
G02*
X129225000Y-97550000I0J-125000D01*
G01*
X129225000Y-97800000D01*
G75*
G02*
X129100000Y-97925000I-125000J0D01*
G01*
X127850000Y-97925000D01*
G75*
G02*
X127725000Y-97800000I0J125000D01*
G01*
X127725000Y-97550000D01*
G75*
G02*
X127850000Y-97425000I125000J0D01*
G01*
G37*
G36*
G01*
X127850000Y-98225000D02*
X129100000Y-98225000D01*
G75*
G02*
X129225000Y-98350000I0J-125000D01*
G01*
X129225000Y-98600000D01*
G75*
G02*
X129100000Y-98725000I-125000J0D01*
G01*
X127850000Y-98725000D01*
G75*
G02*
X127725000Y-98600000I0J125000D01*
G01*
X127725000Y-98350000D01*
G75*
G02*
X127850000Y-98225000I125000J0D01*
G01*
G37*
G36*
G01*
X126975000Y-99100000D02*
X127225000Y-99100000D01*
G75*
G02*
X127350000Y-99225000I0J-125000D01*
G01*
X127350000Y-100475000D01*
G75*
G02*
X127225000Y-100600000I-125000J0D01*
G01*
X126975000Y-100600000D01*
G75*
G02*
X126850000Y-100475000I0J125000D01*
G01*
X126850000Y-99225000D01*
G75*
G02*
X126975000Y-99100000I125000J0D01*
G01*
G37*
G36*
G01*
X126175000Y-99100000D02*
X126425000Y-99100000D01*
G75*
G02*
X126550000Y-99225000I0J-125000D01*
G01*
X126550000Y-100475000D01*
G75*
G02*
X126425000Y-100600000I-125000J0D01*
G01*
X126175000Y-100600000D01*
G75*
G02*
X126050000Y-100475000I0J125000D01*
G01*
X126050000Y-99225000D01*
G75*
G02*
X126175000Y-99100000I125000J0D01*
G01*
G37*
G36*
G01*
X125375000Y-99100000D02*
X125625000Y-99100000D01*
G75*
G02*
X125750000Y-99225000I0J-125000D01*
G01*
X125750000Y-100475000D01*
G75*
G02*
X125625000Y-100600000I-125000J0D01*
G01*
X125375000Y-100600000D01*
G75*
G02*
X125250000Y-100475000I0J125000D01*
G01*
X125250000Y-99225000D01*
G75*
G02*
X125375000Y-99100000I125000J0D01*
G01*
G37*
G36*
G01*
X124575000Y-99100000D02*
X124825000Y-99100000D01*
G75*
G02*
X124950000Y-99225000I0J-125000D01*
G01*
X124950000Y-100475000D01*
G75*
G02*
X124825000Y-100600000I-125000J0D01*
G01*
X124575000Y-100600000D01*
G75*
G02*
X124450000Y-100475000I0J125000D01*
G01*
X124450000Y-99225000D01*
G75*
G02*
X124575000Y-99100000I125000J0D01*
G01*
G37*
G36*
G01*
X123775000Y-99100000D02*
X124025000Y-99100000D01*
G75*
G02*
X124150000Y-99225000I0J-125000D01*
G01*
X124150000Y-100475000D01*
G75*
G02*
X124025000Y-100600000I-125000J0D01*
G01*
X123775000Y-100600000D01*
G75*
G02*
X123650000Y-100475000I0J125000D01*
G01*
X123650000Y-99225000D01*
G75*
G02*
X123775000Y-99100000I125000J0D01*
G01*
G37*
G36*
G01*
X122975000Y-99100000D02*
X123225000Y-99100000D01*
G75*
G02*
X123350000Y-99225000I0J-125000D01*
G01*
X123350000Y-100475000D01*
G75*
G02*
X123225000Y-100600000I-125000J0D01*
G01*
X122975000Y-100600000D01*
G75*
G02*
X122850000Y-100475000I0J125000D01*
G01*
X122850000Y-99225000D01*
G75*
G02*
X122975000Y-99100000I125000J0D01*
G01*
G37*
G36*
G01*
X122175000Y-99100000D02*
X122425000Y-99100000D01*
G75*
G02*
X122550000Y-99225000I0J-125000D01*
G01*
X122550000Y-100475000D01*
G75*
G02*
X122425000Y-100600000I-125000J0D01*
G01*
X122175000Y-100600000D01*
G75*
G02*
X122050000Y-100475000I0J125000D01*
G01*
X122050000Y-99225000D01*
G75*
G02*
X122175000Y-99100000I125000J0D01*
G01*
G37*
G36*
G01*
X121375000Y-99100000D02*
X121625000Y-99100000D01*
G75*
G02*
X121750000Y-99225000I0J-125000D01*
G01*
X121750000Y-100475000D01*
G75*
G02*
X121625000Y-100600000I-125000J0D01*
G01*
X121375000Y-100600000D01*
G75*
G02*
X121250000Y-100475000I0J125000D01*
G01*
X121250000Y-99225000D01*
G75*
G02*
X121375000Y-99100000I125000J0D01*
G01*
G37*
G36*
G01*
X119500000Y-98225000D02*
X120750000Y-98225000D01*
G75*
G02*
X120875000Y-98350000I0J-125000D01*
G01*
X120875000Y-98600000D01*
G75*
G02*
X120750000Y-98725000I-125000J0D01*
G01*
X119500000Y-98725000D01*
G75*
G02*
X119375000Y-98600000I0J125000D01*
G01*
X119375000Y-98350000D01*
G75*
G02*
X119500000Y-98225000I125000J0D01*
G01*
G37*
G36*
G01*
X119500000Y-97425000D02*
X120750000Y-97425000D01*
G75*
G02*
X120875000Y-97550000I0J-125000D01*
G01*
X120875000Y-97800000D01*
G75*
G02*
X120750000Y-97925000I-125000J0D01*
G01*
X119500000Y-97925000D01*
G75*
G02*
X119375000Y-97800000I0J125000D01*
G01*
X119375000Y-97550000D01*
G75*
G02*
X119500000Y-97425000I125000J0D01*
G01*
G37*
G36*
G01*
X119500000Y-96625000D02*
X120750000Y-96625000D01*
G75*
G02*
X120875000Y-96750000I0J-125000D01*
G01*
X120875000Y-97000000D01*
G75*
G02*
X120750000Y-97125000I-125000J0D01*
G01*
X119500000Y-97125000D01*
G75*
G02*
X119375000Y-97000000I0J125000D01*
G01*
X119375000Y-96750000D01*
G75*
G02*
X119500000Y-96625000I125000J0D01*
G01*
G37*
G36*
G01*
X119500000Y-95825000D02*
X120750000Y-95825000D01*
G75*
G02*
X120875000Y-95950000I0J-125000D01*
G01*
X120875000Y-96200000D01*
G75*
G02*
X120750000Y-96325000I-125000J0D01*
G01*
X119500000Y-96325000D01*
G75*
G02*
X119375000Y-96200000I0J125000D01*
G01*
X119375000Y-95950000D01*
G75*
G02*
X119500000Y-95825000I125000J0D01*
G01*
G37*
G36*
G01*
X119500000Y-95025000D02*
X120750000Y-95025000D01*
G75*
G02*
X120875000Y-95150000I0J-125000D01*
G01*
X120875000Y-95400000D01*
G75*
G02*
X120750000Y-95525000I-125000J0D01*
G01*
X119500000Y-95525000D01*
G75*
G02*
X119375000Y-95400000I0J125000D01*
G01*
X119375000Y-95150000D01*
G75*
G02*
X119500000Y-95025000I125000J0D01*
G01*
G37*
G36*
G01*
X119500000Y-94225000D02*
X120750000Y-94225000D01*
G75*
G02*
X120875000Y-94350000I0J-125000D01*
G01*
X120875000Y-94600000D01*
G75*
G02*
X120750000Y-94725000I-125000J0D01*
G01*
X119500000Y-94725000D01*
G75*
G02*
X119375000Y-94600000I0J125000D01*
G01*
X119375000Y-94350000D01*
G75*
G02*
X119500000Y-94225000I125000J0D01*
G01*
G37*
G36*
G01*
X119500000Y-93425000D02*
X120750000Y-93425000D01*
G75*
G02*
X120875000Y-93550000I0J-125000D01*
G01*
X120875000Y-93800000D01*
G75*
G02*
X120750000Y-93925000I-125000J0D01*
G01*
X119500000Y-93925000D01*
G75*
G02*
X119375000Y-93800000I0J125000D01*
G01*
X119375000Y-93550000D01*
G75*
G02*
X119500000Y-93425000I125000J0D01*
G01*
G37*
G36*
G01*
X119500000Y-92625000D02*
X120750000Y-92625000D01*
G75*
G02*
X120875000Y-92750000I0J-125000D01*
G01*
X120875000Y-93000000D01*
G75*
G02*
X120750000Y-93125000I-125000J0D01*
G01*
X119500000Y-93125000D01*
G75*
G02*
X119375000Y-93000000I0J125000D01*
G01*
X119375000Y-92750000D01*
G75*
G02*
X119500000Y-92625000I125000J0D01*
G01*
G37*
G36*
G01*
X121375000Y-90750000D02*
X121625000Y-90750000D01*
G75*
G02*
X121750000Y-90875000I0J-125000D01*
G01*
X121750000Y-92125000D01*
G75*
G02*
X121625000Y-92250000I-125000J0D01*
G01*
X121375000Y-92250000D01*
G75*
G02*
X121250000Y-92125000I0J125000D01*
G01*
X121250000Y-90875000D01*
G75*
G02*
X121375000Y-90750000I125000J0D01*
G01*
G37*
G36*
G01*
X122175000Y-90750000D02*
X122425000Y-90750000D01*
G75*
G02*
X122550000Y-90875000I0J-125000D01*
G01*
X122550000Y-92125000D01*
G75*
G02*
X122425000Y-92250000I-125000J0D01*
G01*
X122175000Y-92250000D01*
G75*
G02*
X122050000Y-92125000I0J125000D01*
G01*
X122050000Y-90875000D01*
G75*
G02*
X122175000Y-90750000I125000J0D01*
G01*
G37*
G36*
G01*
X122975000Y-90750000D02*
X123225000Y-90750000D01*
G75*
G02*
X123350000Y-90875000I0J-125000D01*
G01*
X123350000Y-92125000D01*
G75*
G02*
X123225000Y-92250000I-125000J0D01*
G01*
X122975000Y-92250000D01*
G75*
G02*
X122850000Y-92125000I0J125000D01*
G01*
X122850000Y-90875000D01*
G75*
G02*
X122975000Y-90750000I125000J0D01*
G01*
G37*
G36*
G01*
X123775000Y-90750000D02*
X124025000Y-90750000D01*
G75*
G02*
X124150000Y-90875000I0J-125000D01*
G01*
X124150000Y-92125000D01*
G75*
G02*
X124025000Y-92250000I-125000J0D01*
G01*
X123775000Y-92250000D01*
G75*
G02*
X123650000Y-92125000I0J125000D01*
G01*
X123650000Y-90875000D01*
G75*
G02*
X123775000Y-90750000I125000J0D01*
G01*
G37*
G36*
G01*
X124575000Y-90750000D02*
X124825000Y-90750000D01*
G75*
G02*
X124950000Y-90875000I0J-125000D01*
G01*
X124950000Y-92125000D01*
G75*
G02*
X124825000Y-92250000I-125000J0D01*
G01*
X124575000Y-92250000D01*
G75*
G02*
X124450000Y-92125000I0J125000D01*
G01*
X124450000Y-90875000D01*
G75*
G02*
X124575000Y-90750000I125000J0D01*
G01*
G37*
G36*
G01*
X125375000Y-90750000D02*
X125625000Y-90750000D01*
G75*
G02*
X125750000Y-90875000I0J-125000D01*
G01*
X125750000Y-92125000D01*
G75*
G02*
X125625000Y-92250000I-125000J0D01*
G01*
X125375000Y-92250000D01*
G75*
G02*
X125250000Y-92125000I0J125000D01*
G01*
X125250000Y-90875000D01*
G75*
G02*
X125375000Y-90750000I125000J0D01*
G01*
G37*
G36*
G01*
X126175000Y-90750000D02*
X126425000Y-90750000D01*
G75*
G02*
X126550000Y-90875000I0J-125000D01*
G01*
X126550000Y-92125000D01*
G75*
G02*
X126425000Y-92250000I-125000J0D01*
G01*
X126175000Y-92250000D01*
G75*
G02*
X126050000Y-92125000I0J125000D01*
G01*
X126050000Y-90875000D01*
G75*
G02*
X126175000Y-90750000I125000J0D01*
G01*
G37*
G36*
G01*
X126975000Y-90750000D02*
X127225000Y-90750000D01*
G75*
G02*
X127350000Y-90875000I0J-125000D01*
G01*
X127350000Y-92125000D01*
G75*
G02*
X127225000Y-92250000I-125000J0D01*
G01*
X126975000Y-92250000D01*
G75*
G02*
X126850000Y-92125000I0J125000D01*
G01*
X126850000Y-90875000D01*
G75*
G02*
X126975000Y-90750000I125000J0D01*
G01*
G37*
%TD*%
%TO.C,R1*%
G36*
G01*
X131887500Y-94456250D02*
X131887500Y-93543750D01*
G75*
G02*
X132131250Y-93300000I243750J0D01*
G01*
X132618750Y-93300000D01*
G75*
G02*
X132862500Y-93543750I0J-243750D01*
G01*
X132862500Y-94456250D01*
G75*
G02*
X132618750Y-94700000I-243750J0D01*
G01*
X132131250Y-94700000D01*
G75*
G02*
X131887500Y-94456250I0J243750D01*
G01*
G37*
G36*
G01*
X130012500Y-94456250D02*
X130012500Y-93543750D01*
G75*
G02*
X130256250Y-93300000I243750J0D01*
G01*
X130743750Y-93300000D01*
G75*
G02*
X130987500Y-93543750I0J-243750D01*
G01*
X130987500Y-94456250D01*
G75*
G02*
X130743750Y-94700000I-243750J0D01*
G01*
X130256250Y-94700000D01*
G75*
G02*
X130012500Y-94456250I0J243750D01*
G01*
G37*
%TD*%
D11*
%TO.C,Q1*%
X145000000Y-91000000D03*
X147000000Y-90050000D03*
X147000000Y-91950000D03*
%TD*%
D12*
%TO.C,J7*%
X143000000Y-98800000D03*
X143000000Y-99600000D03*
X143000000Y-100400000D03*
X143000000Y-101200000D03*
X143000000Y-102000000D03*
D13*
X143000000Y-96000000D03*
X143000000Y-104800000D03*
X148500000Y-96000000D03*
X148500000Y-104800000D03*
%TD*%
D14*
%TO.C,J6*%
X123460000Y-111500000D03*
X123460000Y-107600000D03*
X124730000Y-111500000D03*
X124730000Y-107600000D03*
X126000000Y-111500000D03*
X126000000Y-107600000D03*
X127270000Y-111500000D03*
X127270000Y-107600000D03*
X128540000Y-111500000D03*
X128540000Y-107600000D03*
%TD*%
D15*
%TO.C,IC4*%
X112712000Y-109095000D03*
X112712000Y-110365000D03*
X112712000Y-111635000D03*
X112712000Y-112905000D03*
X107288000Y-112905000D03*
X107288000Y-111635000D03*
X107288000Y-110365000D03*
X107288000Y-109095000D03*
%TD*%
%TO.C,IC3*%
X112712000Y-99095000D03*
X112712000Y-100365000D03*
X112712000Y-101635000D03*
X112712000Y-102905000D03*
X107288000Y-102905000D03*
X107288000Y-101635000D03*
X107288000Y-100365000D03*
X107288000Y-99095000D03*
%TD*%
%TO.C,IC2*%
X112712000Y-89095000D03*
X112712000Y-90365000D03*
X112712000Y-91635000D03*
X112712000Y-92905000D03*
X107288000Y-92905000D03*
X107288000Y-91635000D03*
X107288000Y-90365000D03*
X107288000Y-89095000D03*
%TD*%
%TO.C,IC1*%
X112712000Y-79095000D03*
X112712000Y-80365000D03*
X112712000Y-81635000D03*
X112712000Y-82905000D03*
X107288000Y-82905000D03*
X107288000Y-81635000D03*
X107288000Y-80365000D03*
X107288000Y-79095000D03*
%TD*%
D11*
%TO.C,D1*%
X151000000Y-91050000D03*
X149000000Y-92000000D03*
X149000000Y-90100000D03*
%TD*%
%TO.C,C3*%
G36*
G01*
X138112500Y-93043750D02*
X138112500Y-93956250D01*
G75*
G02*
X137868750Y-94200000I-243750J0D01*
G01*
X137381250Y-94200000D01*
G75*
G02*
X137137500Y-93956250I0J243750D01*
G01*
X137137500Y-93043750D01*
G75*
G02*
X137381250Y-92800000I243750J0D01*
G01*
X137868750Y-92800000D01*
G75*
G02*
X138112500Y-93043750I0J-243750D01*
G01*
G37*
G36*
G01*
X139987500Y-93043750D02*
X139987500Y-93956250D01*
G75*
G02*
X139743750Y-94200000I-243750J0D01*
G01*
X139256250Y-94200000D01*
G75*
G02*
X139012500Y-93956250I0J243750D01*
G01*
X139012500Y-93043750D01*
G75*
G02*
X139256250Y-92800000I243750J0D01*
G01*
X139743750Y-92800000D01*
G75*
G02*
X139987500Y-93043750I0J-243750D01*
G01*
G37*
%TD*%
%TO.C,C2*%
G36*
G01*
X135956250Y-96112500D02*
X135043750Y-96112500D01*
G75*
G02*
X134800000Y-95868750I0J243750D01*
G01*
X134800000Y-95381250D01*
G75*
G02*
X135043750Y-95137500I243750J0D01*
G01*
X135956250Y-95137500D01*
G75*
G02*
X136200000Y-95381250I0J-243750D01*
G01*
X136200000Y-95868750D01*
G75*
G02*
X135956250Y-96112500I-243750J0D01*
G01*
G37*
G36*
G01*
X135956250Y-97987500D02*
X135043750Y-97987500D01*
G75*
G02*
X134800000Y-97743750I0J243750D01*
G01*
X134800000Y-97256250D01*
G75*
G02*
X135043750Y-97012500I243750J0D01*
G01*
X135956250Y-97012500D01*
G75*
G02*
X136200000Y-97256250I0J-243750D01*
G01*
X136200000Y-97743750D01*
G75*
G02*
X135956250Y-97987500I-243750J0D01*
G01*
G37*
%TD*%
%TO.C,C1*%
G36*
G01*
X120956250Y-110987500D02*
X120043750Y-110987500D01*
G75*
G02*
X119800000Y-110743750I0J243750D01*
G01*
X119800000Y-110256250D01*
G75*
G02*
X120043750Y-110012500I243750J0D01*
G01*
X120956250Y-110012500D01*
G75*
G02*
X121200000Y-110256250I0J-243750D01*
G01*
X121200000Y-110743750D01*
G75*
G02*
X120956250Y-110987500I-243750J0D01*
G01*
G37*
G36*
G01*
X120956250Y-112862500D02*
X120043750Y-112862500D01*
G75*
G02*
X119800000Y-112618750I0J243750D01*
G01*
X119800000Y-112131250D01*
G75*
G02*
X120043750Y-111887500I243750J0D01*
G01*
X120956250Y-111887500D01*
G75*
G02*
X121200000Y-112131250I0J-243750D01*
G01*
X121200000Y-112618750D01*
G75*
G02*
X120956250Y-112862500I-243750J0D01*
G01*
G37*
%TD*%
M02*
