%TF.GenerationSoftware,KiCad,Pcbnew,(5.1.7)-1*%
%TF.CreationDate,2020-10-05T16:07:02+02:00*%
%TF.ProjectId,Templogger,54656d70-6c6f-4676-9765-722e6b696361,rev?*%
%TF.SameCoordinates,Original*%
%TF.FileFunction,Legend,Top*%
%TF.FilePolarity,Positive*%
%FSLAX46Y46*%
G04 Gerber Fmt 4.6, Leading zero omitted, Abs format (unit mm)*
G04 Created by KiCad (PCBNEW (5.1.7)-1) date 2020-10-05 16:07:02*
%MOMM*%
%LPD*%
G01*
G04 APERTURE LIST*
%ADD10C,0.150000*%
%ADD11C,0.120000*%
%ADD12C,0.200000*%
%ADD13C,0.254000*%
G04 APERTURE END LIST*
D10*
X100428571Y-76500000D02*
X100333333Y-76452380D01*
X100190476Y-76452380D01*
X100047619Y-76500000D01*
X99952380Y-76595238D01*
X99904761Y-76690476D01*
X99857142Y-76880952D01*
X99857142Y-77023809D01*
X99904761Y-77214285D01*
X99952380Y-77309523D01*
X100047619Y-77404761D01*
X100190476Y-77452380D01*
X100285714Y-77452380D01*
X100428571Y-77404761D01*
X100476190Y-77357142D01*
X100476190Y-77023809D01*
X100285714Y-77023809D01*
X101285714Y-77404761D02*
X101190476Y-77452380D01*
X101000000Y-77452380D01*
X100904761Y-77404761D01*
X100857142Y-77309523D01*
X100857142Y-76928571D01*
X100904761Y-76833333D01*
X101000000Y-76785714D01*
X101190476Y-76785714D01*
X101285714Y-76833333D01*
X101333333Y-76928571D01*
X101333333Y-77023809D01*
X100857142Y-77119047D01*
X101761904Y-77452380D02*
X101761904Y-76785714D01*
X101761904Y-76976190D02*
X101809523Y-76880952D01*
X101857142Y-76833333D01*
X101952380Y-76785714D01*
X102047619Y-76785714D01*
X102238095Y-76785714D02*
X102619047Y-76785714D01*
X102380952Y-76452380D02*
X102380952Y-77309523D01*
X102428571Y-77404761D01*
X102523809Y-77452380D01*
X102619047Y-77452380D01*
X104190476Y-77452380D02*
X103714285Y-77452380D01*
X103714285Y-76452380D01*
X104952380Y-77452380D02*
X104952380Y-76928571D01*
X104904761Y-76833333D01*
X104809523Y-76785714D01*
X104619047Y-76785714D01*
X104523809Y-76833333D01*
X104952380Y-77404761D02*
X104857142Y-77452380D01*
X104619047Y-77452380D01*
X104523809Y-77404761D01*
X104476190Y-77309523D01*
X104476190Y-77214285D01*
X104523809Y-77119047D01*
X104619047Y-77071428D01*
X104857142Y-77071428D01*
X104952380Y-77023809D01*
X105857142Y-76785714D02*
X105857142Y-77452380D01*
X105428571Y-76785714D02*
X105428571Y-77309523D01*
X105476190Y-77404761D01*
X105571428Y-77452380D01*
X105714285Y-77452380D01*
X105809523Y-77404761D01*
X105857142Y-77357142D01*
X106333333Y-77452380D02*
X106333333Y-76785714D01*
X106333333Y-76976190D02*
X106380952Y-76880952D01*
X106428571Y-76833333D01*
X106523809Y-76785714D01*
X106619047Y-76785714D01*
X106952380Y-77452380D02*
X106952380Y-76785714D01*
X106952380Y-76452380D02*
X106904761Y-76500000D01*
X106952380Y-76547619D01*
X107000000Y-76500000D01*
X106952380Y-76452380D01*
X106952380Y-76547619D01*
X107285714Y-76785714D02*
X107666666Y-76785714D01*
X107428571Y-76452380D02*
X107428571Y-77309523D01*
X107476190Y-77404761D01*
X107571428Y-77452380D01*
X107666666Y-77452380D01*
X107952380Y-77404761D02*
X108047619Y-77452380D01*
X108238095Y-77452380D01*
X108333333Y-77404761D01*
X108380952Y-77309523D01*
X108380952Y-77261904D01*
X108333333Y-77166666D01*
X108238095Y-77119047D01*
X108095238Y-77119047D01*
X108000000Y-77071428D01*
X107952380Y-76976190D01*
X107952380Y-76928571D01*
X108000000Y-76833333D01*
X108095238Y-76785714D01*
X108238095Y-76785714D01*
X108333333Y-76833333D01*
X109190476Y-77404761D02*
X109095238Y-77452380D01*
X108904761Y-77452380D01*
X108809523Y-77404761D01*
X108761904Y-77309523D01*
X108761904Y-76928571D01*
X108809523Y-76833333D01*
X108904761Y-76785714D01*
X109095238Y-76785714D01*
X109190476Y-76833333D01*
X109238095Y-76928571D01*
X109238095Y-77023809D01*
X108761904Y-77119047D01*
X109666666Y-76785714D02*
X109666666Y-77452380D01*
X109666666Y-76880952D02*
X109714285Y-76833333D01*
X109809523Y-76785714D01*
X109952380Y-76785714D01*
X110047619Y-76833333D01*
X110095238Y-76928571D01*
X110095238Y-77452380D01*
D11*
%TO.C,R3*%
X134390000Y-103578922D02*
X134390000Y-104096078D01*
X135810000Y-103578922D02*
X135810000Y-104096078D01*
%TO.C,R2*%
X132390000Y-103578922D02*
X132390000Y-104096078D01*
X133810000Y-103578922D02*
X133810000Y-104096078D01*
%TO.C,J9*%
X133850000Y-106940000D02*
X136260000Y-106940000D01*
X133850000Y-109350000D02*
X133850000Y-106940000D01*
X146990000Y-107240000D02*
X134150000Y-107240000D01*
X146990000Y-109770000D02*
X146990000Y-107240000D01*
X146860000Y-109770000D02*
X146990000Y-109770000D01*
X146860000Y-111580000D02*
X146860000Y-109770000D01*
X146990000Y-111580000D02*
X146860000Y-111580000D01*
X146990000Y-112560000D02*
X146990000Y-111580000D01*
X144490000Y-112560000D02*
X146990000Y-112560000D01*
X144490000Y-114060000D02*
X144490000Y-112560000D01*
X136650000Y-114060000D02*
X144490000Y-114060000D01*
X136650000Y-112560000D02*
X136650000Y-114060000D01*
X134150000Y-112560000D02*
X136650000Y-112560000D01*
X134150000Y-111580000D02*
X134150000Y-112560000D01*
X134280000Y-111580000D02*
X134150000Y-111580000D01*
X134280000Y-109770000D02*
X134280000Y-111580000D01*
X134150000Y-109770000D02*
X134280000Y-109770000D01*
X134150000Y-107240000D02*
X134150000Y-109770000D01*
%TO.C,J8*%
X146370000Y-79360000D02*
X145770000Y-79360000D01*
X146370000Y-80960000D02*
X146370000Y-79360000D01*
X145770000Y-80960000D02*
X146370000Y-80960000D01*
X146370000Y-81900000D02*
X145770000Y-81900000D01*
X146370000Y-83500000D02*
X146370000Y-81900000D01*
X145770000Y-83500000D02*
X146370000Y-83500000D01*
X151790000Y-80410000D02*
X150790000Y-80410000D01*
X151790000Y-82450000D02*
X150790000Y-82450000D01*
X150260000Y-80410000D02*
X150790000Y-80160000D01*
X150260000Y-82450000D02*
X150260000Y-80410000D01*
X150790000Y-82700000D02*
X150260000Y-82450000D01*
X150790000Y-80160000D02*
X151790000Y-80160000D01*
X150790000Y-82700000D02*
X150790000Y-80160000D01*
X151790000Y-82700000D02*
X150790000Y-82700000D01*
X146800000Y-84370000D02*
X150800000Y-84370000D01*
X145770000Y-78780000D02*
X145770000Y-84080000D01*
X151790000Y-78780000D02*
X145770000Y-78780000D01*
X151790000Y-84080000D02*
X151790000Y-78780000D01*
X145770000Y-84080000D02*
X151790000Y-84080000D01*
%TO.C,C8*%
X108321078Y-96510000D02*
X107803922Y-96510000D01*
X108321078Y-95090000D02*
X107803922Y-95090000D01*
%TO.C,C7*%
X108396078Y-86910000D02*
X107878922Y-86910000D01*
X108396078Y-85490000D02*
X107878922Y-85490000D01*
%TO.C,C6*%
X108196078Y-106810000D02*
X107678922Y-106810000D01*
X108196078Y-105390000D02*
X107678922Y-105390000D01*
%TO.C,C5*%
X120721078Y-102910000D02*
X120203922Y-102910000D01*
X120721078Y-101490000D02*
X120203922Y-101490000D01*
%TO.C,C4*%
X126521078Y-88710000D02*
X126003922Y-88710000D01*
X126521078Y-87290000D02*
X126003922Y-87290000D01*
%TO.C,U3*%
X139500000Y-94890000D02*
X137700000Y-94890000D01*
X137700000Y-98110000D02*
X140150000Y-98110000D01*
%TO.C,U2*%
X137500000Y-102610000D02*
X139300000Y-102610000D01*
X139300000Y-99390000D02*
X136850000Y-99390000D01*
%TO.C,U1*%
X120690000Y-98985000D02*
X120690000Y-99285000D01*
X120690000Y-99285000D02*
X120990000Y-99285000D01*
X120690000Y-92365000D02*
X120690000Y-92065000D01*
X120690000Y-92065000D02*
X120990000Y-92065000D01*
X127910000Y-98985000D02*
X127910000Y-99285000D01*
X127910000Y-99285000D02*
X127610000Y-99285000D01*
X127910000Y-92365000D02*
X127910000Y-92065000D01*
X127910000Y-92065000D02*
X127610000Y-92065000D01*
X127610000Y-92065000D02*
X127610000Y-90750000D01*
%TO.C,R1*%
X131178922Y-93290000D02*
X131696078Y-93290000D01*
X131178922Y-94710000D02*
X131696078Y-94710000D01*
%TO.C,Q1*%
X145240000Y-89420000D02*
X145240000Y-90350000D01*
X145240000Y-92580000D02*
X145240000Y-91650000D01*
X145240000Y-92580000D02*
X147400000Y-92580000D01*
X145240000Y-89420000D02*
X146700000Y-89420000D01*
%TO.C,K1*%
X132000000Y-78770000D02*
X132000000Y-81310000D01*
X136445000Y-81310000D02*
X132635000Y-83850000D01*
X134540000Y-83850000D02*
X134540000Y-82580000D01*
X139620000Y-78770000D02*
X139620000Y-81310000D01*
X139620000Y-81310000D02*
X136445000Y-81310000D01*
X147750000Y-80550000D02*
X146730000Y-81560000D01*
X147240000Y-85120000D02*
X148510000Y-85120000D01*
X147240000Y-82330000D02*
X147240000Y-85120000D01*
X147240000Y-77500000D02*
X147240000Y-79790000D01*
X148510000Y-77500000D02*
X147240000Y-77500000D01*
X147240000Y-79790000D02*
X147750000Y-79790000D01*
X147750000Y-79790000D02*
X147750000Y-82330000D01*
X147750000Y-82330000D02*
X147240000Y-82330000D01*
X147240000Y-82330000D02*
X146730000Y-82330000D01*
X146730000Y-82330000D02*
X146730000Y-79790000D01*
X146730000Y-79790000D02*
X147240000Y-79790000D01*
X151460000Y-75810000D02*
X130320000Y-75810000D01*
X130320000Y-75810000D02*
X130320000Y-86810000D01*
X151460000Y-75810000D02*
X151460000Y-86810000D01*
X151460000Y-86810000D02*
X130320000Y-86810000D01*
X136572000Y-81310000D02*
G75*
G03*
X136572000Y-81310000I-127000J0D01*
G01*
%TO.C,J7*%
X147050000Y-104360000D02*
X144450000Y-104360000D01*
X144450000Y-96440000D02*
X147050000Y-96440000D01*
X142140000Y-103600000D02*
X142140000Y-102450000D01*
X142140000Y-102450000D02*
X141550000Y-102450000D01*
X141550000Y-102450000D02*
X141550000Y-101750000D01*
X142140000Y-98350000D02*
X142140000Y-97200000D01*
X149950000Y-104360000D02*
X151610000Y-104360000D01*
X151610000Y-104360000D02*
X151610000Y-96440000D01*
X151610000Y-96440000D02*
X149950000Y-96440000D01*
%TO.C,J6*%
X129235000Y-107785000D02*
X129235000Y-111315000D01*
X122765000Y-107785000D02*
X122765000Y-111315000D01*
X129170000Y-106460000D02*
X129170000Y-107785000D01*
X129235000Y-107785000D02*
X129170000Y-107785000D01*
X129235000Y-111315000D02*
X129170000Y-111315000D01*
X122830000Y-107785000D02*
X122765000Y-107785000D01*
X122830000Y-111315000D02*
X122765000Y-111315000D01*
%TO.C,J5*%
X128610000Y-84910000D02*
X128610000Y-76090000D01*
X128610000Y-76090000D02*
X116390000Y-76090000D01*
X116390000Y-76090000D02*
X116390000Y-84910000D01*
X116390000Y-84910000D02*
X128610000Y-84910000D01*
X128610000Y-84100000D02*
X126110000Y-84100000D01*
X116390000Y-84100000D02*
X118890000Y-84100000D01*
X124000000Y-84100000D02*
X121000000Y-84100000D01*
X126000000Y-83100000D02*
X126000000Y-84910000D01*
X126000000Y-84910000D02*
X124000000Y-84910000D01*
X124000000Y-84910000D02*
X124000000Y-83100000D01*
X124000000Y-83100000D02*
X126000000Y-83100000D01*
X121000000Y-83100000D02*
X121000000Y-84910000D01*
X121000000Y-84910000D02*
X119000000Y-84910000D01*
X119000000Y-84910000D02*
X119000000Y-83100000D01*
X119000000Y-83100000D02*
X121000000Y-83100000D01*
X123000000Y-77800000D02*
X122000000Y-77800000D01*
X127000000Y-77800000D02*
X127700000Y-77800000D01*
X127700000Y-77800000D02*
X127700000Y-83100000D01*
X127700000Y-83100000D02*
X117300000Y-83100000D01*
X117300000Y-83100000D02*
X117300000Y-77800000D01*
X117300000Y-77800000D02*
X118000000Y-77800000D01*
X124700000Y-85710000D02*
X125000000Y-85110000D01*
X125000000Y-85110000D02*
X125300000Y-85710000D01*
X125300000Y-85710000D02*
X124700000Y-85710000D01*
X118013159Y-77784179D02*
G75*
G02*
X122000000Y-77800000I1986841J-1665821D01*
G01*
X123013159Y-77784179D02*
G75*
G02*
X127000000Y-77800000I1986841J-1665821D01*
G01*
%TO.C,J4*%
X104030000Y-108520000D02*
X98010000Y-108520000D01*
X98010000Y-108520000D02*
X98010000Y-113820000D01*
X98010000Y-113820000D02*
X104030000Y-113820000D01*
X104030000Y-113820000D02*
X104030000Y-108520000D01*
X103000000Y-108230000D02*
X99000000Y-108230000D01*
X98010000Y-109900000D02*
X99010000Y-109900000D01*
X99010000Y-109900000D02*
X99010000Y-112440000D01*
X99010000Y-112440000D02*
X98010000Y-112440000D01*
X99010000Y-109900000D02*
X99540000Y-110150000D01*
X99540000Y-110150000D02*
X99540000Y-112190000D01*
X99540000Y-112190000D02*
X99010000Y-112440000D01*
X98010000Y-110150000D02*
X99010000Y-110150000D01*
X98010000Y-112190000D02*
X99010000Y-112190000D01*
X104030000Y-109100000D02*
X103430000Y-109100000D01*
X103430000Y-109100000D02*
X103430000Y-110700000D01*
X103430000Y-110700000D02*
X104030000Y-110700000D01*
X104030000Y-111640000D02*
X103430000Y-111640000D01*
X103430000Y-111640000D02*
X103430000Y-113240000D01*
X103430000Y-113240000D02*
X104030000Y-113240000D01*
%TO.C,J3*%
X104030000Y-98620000D02*
X98010000Y-98620000D01*
X98010000Y-98620000D02*
X98010000Y-103920000D01*
X98010000Y-103920000D02*
X104030000Y-103920000D01*
X104030000Y-103920000D02*
X104030000Y-98620000D01*
X103000000Y-98330000D02*
X99000000Y-98330000D01*
X98010000Y-100000000D02*
X99010000Y-100000000D01*
X99010000Y-100000000D02*
X99010000Y-102540000D01*
X99010000Y-102540000D02*
X98010000Y-102540000D01*
X99010000Y-100000000D02*
X99540000Y-100250000D01*
X99540000Y-100250000D02*
X99540000Y-102290000D01*
X99540000Y-102290000D02*
X99010000Y-102540000D01*
X98010000Y-100250000D02*
X99010000Y-100250000D01*
X98010000Y-102290000D02*
X99010000Y-102290000D01*
X104030000Y-99200000D02*
X103430000Y-99200000D01*
X103430000Y-99200000D02*
X103430000Y-100800000D01*
X103430000Y-100800000D02*
X104030000Y-100800000D01*
X104030000Y-101740000D02*
X103430000Y-101740000D01*
X103430000Y-101740000D02*
X103430000Y-103340000D01*
X103430000Y-103340000D02*
X104030000Y-103340000D01*
%TO.C,J2*%
X104030000Y-88620000D02*
X98010000Y-88620000D01*
X98010000Y-88620000D02*
X98010000Y-93920000D01*
X98010000Y-93920000D02*
X104030000Y-93920000D01*
X104030000Y-93920000D02*
X104030000Y-88620000D01*
X103000000Y-88330000D02*
X99000000Y-88330000D01*
X98010000Y-90000000D02*
X99010000Y-90000000D01*
X99010000Y-90000000D02*
X99010000Y-92540000D01*
X99010000Y-92540000D02*
X98010000Y-92540000D01*
X99010000Y-90000000D02*
X99540000Y-90250000D01*
X99540000Y-90250000D02*
X99540000Y-92290000D01*
X99540000Y-92290000D02*
X99010000Y-92540000D01*
X98010000Y-90250000D02*
X99010000Y-90250000D01*
X98010000Y-92290000D02*
X99010000Y-92290000D01*
X104030000Y-89200000D02*
X103430000Y-89200000D01*
X103430000Y-89200000D02*
X103430000Y-90800000D01*
X103430000Y-90800000D02*
X104030000Y-90800000D01*
X104030000Y-91740000D02*
X103430000Y-91740000D01*
X103430000Y-91740000D02*
X103430000Y-93340000D01*
X103430000Y-93340000D02*
X104030000Y-93340000D01*
%TO.C,J1*%
X104030000Y-78620000D02*
X98010000Y-78620000D01*
X98010000Y-78620000D02*
X98010000Y-83920000D01*
X98010000Y-83920000D02*
X104030000Y-83920000D01*
X104030000Y-83920000D02*
X104030000Y-78620000D01*
X103000000Y-78330000D02*
X99000000Y-78330000D01*
X98010000Y-80000000D02*
X99010000Y-80000000D01*
X99010000Y-80000000D02*
X99010000Y-82540000D01*
X99010000Y-82540000D02*
X98010000Y-82540000D01*
X99010000Y-80000000D02*
X99540000Y-80250000D01*
X99540000Y-80250000D02*
X99540000Y-82290000D01*
X99540000Y-82290000D02*
X99010000Y-82540000D01*
X98010000Y-80250000D02*
X99010000Y-80250000D01*
X98010000Y-82290000D02*
X99010000Y-82290000D01*
X104030000Y-79200000D02*
X103430000Y-79200000D01*
X103430000Y-79200000D02*
X103430000Y-80800000D01*
X103430000Y-80800000D02*
X104030000Y-80800000D01*
X104030000Y-81740000D02*
X103430000Y-81740000D01*
X103430000Y-81740000D02*
X103430000Y-83340000D01*
X103430000Y-83340000D02*
X104030000Y-83340000D01*
D12*
%TO.C,IC4*%
X108400000Y-108550000D02*
X111600000Y-108550000D01*
X111600000Y-108550000D02*
X111600000Y-113450000D01*
X111600000Y-113450000D02*
X108400000Y-113450000D01*
X108400000Y-113450000D02*
X108400000Y-108550000D01*
X106525000Y-108420000D02*
X108050000Y-108420000D01*
%TO.C,IC3*%
X108400000Y-98550000D02*
X111600000Y-98550000D01*
X111600000Y-98550000D02*
X111600000Y-103450000D01*
X111600000Y-103450000D02*
X108400000Y-103450000D01*
X108400000Y-103450000D02*
X108400000Y-98550000D01*
X106525000Y-98420000D02*
X108050000Y-98420000D01*
%TO.C,IC2*%
X108400000Y-88550000D02*
X111600000Y-88550000D01*
X111600000Y-88550000D02*
X111600000Y-93450000D01*
X111600000Y-93450000D02*
X108400000Y-93450000D01*
X108400000Y-93450000D02*
X108400000Y-88550000D01*
X106525000Y-88420000D02*
X108050000Y-88420000D01*
%TO.C,IC1*%
X108400000Y-78550000D02*
X111600000Y-78550000D01*
X111600000Y-78550000D02*
X111600000Y-83450000D01*
X111600000Y-83450000D02*
X108400000Y-83450000D01*
X108400000Y-83450000D02*
X108400000Y-78550000D01*
X106525000Y-78420000D02*
X108050000Y-78420000D01*
D11*
%TO.C,D1*%
X150760000Y-92630000D02*
X150760000Y-91700000D01*
X150760000Y-89470000D02*
X150760000Y-90400000D01*
X150760000Y-89470000D02*
X148600000Y-89470000D01*
X150760000Y-92630000D02*
X149300000Y-92630000D01*
%TO.C,C3*%
X138821078Y-94210000D02*
X138303922Y-94210000D01*
X138821078Y-92790000D02*
X138303922Y-92790000D01*
%TO.C,C2*%
X134790000Y-96821078D02*
X134790000Y-96303922D01*
X136210000Y-96821078D02*
X136210000Y-96303922D01*
%TO.C,C1*%
X119790000Y-111696078D02*
X119790000Y-111178922D01*
X121210000Y-111696078D02*
X121210000Y-111178922D01*
%TO.C,R3*%
D10*
X137202380Y-104004166D02*
X136726190Y-104337500D01*
X137202380Y-104575595D02*
X136202380Y-104575595D01*
X136202380Y-104194642D01*
X136250000Y-104099404D01*
X136297619Y-104051785D01*
X136392857Y-104004166D01*
X136535714Y-104004166D01*
X136630952Y-104051785D01*
X136678571Y-104099404D01*
X136726190Y-104194642D01*
X136726190Y-104575595D01*
X136202380Y-103670833D02*
X136202380Y-103051785D01*
X136583333Y-103385119D01*
X136583333Y-103242261D01*
X136630952Y-103147023D01*
X136678571Y-103099404D01*
X136773809Y-103051785D01*
X137011904Y-103051785D01*
X137107142Y-103099404D01*
X137154761Y-103147023D01*
X137202380Y-103242261D01*
X137202380Y-103527976D01*
X137154761Y-103623214D01*
X137107142Y-103670833D01*
%TO.C,R2*%
X135202380Y-104004166D02*
X134726190Y-104337500D01*
X135202380Y-104575595D02*
X134202380Y-104575595D01*
X134202380Y-104194642D01*
X134250000Y-104099404D01*
X134297619Y-104051785D01*
X134392857Y-104004166D01*
X134535714Y-104004166D01*
X134630952Y-104051785D01*
X134678571Y-104099404D01*
X134726190Y-104194642D01*
X134726190Y-104575595D01*
X134297619Y-103623214D02*
X134250000Y-103575595D01*
X134202380Y-103480357D01*
X134202380Y-103242261D01*
X134250000Y-103147023D01*
X134297619Y-103099404D01*
X134392857Y-103051785D01*
X134488095Y-103051785D01*
X134630952Y-103099404D01*
X135202380Y-103670833D01*
X135202380Y-103051785D01*
%TO.C,J9*%
X140236666Y-105602380D02*
X140236666Y-106316666D01*
X140189047Y-106459523D01*
X140093809Y-106554761D01*
X139950952Y-106602380D01*
X139855714Y-106602380D01*
X140760476Y-106602380D02*
X140950952Y-106602380D01*
X141046190Y-106554761D01*
X141093809Y-106507142D01*
X141189047Y-106364285D01*
X141236666Y-106173809D01*
X141236666Y-105792857D01*
X141189047Y-105697619D01*
X141141428Y-105650000D01*
X141046190Y-105602380D01*
X140855714Y-105602380D01*
X140760476Y-105650000D01*
X140712857Y-105697619D01*
X140665238Y-105792857D01*
X140665238Y-106030952D01*
X140712857Y-106126190D01*
X140760476Y-106173809D01*
X140855714Y-106221428D01*
X141046190Y-106221428D01*
X141141428Y-106173809D01*
X141189047Y-106126190D01*
X141236666Y-106030952D01*
%TO.C,J8*%
X144132380Y-81763333D02*
X144846666Y-81763333D01*
X144989523Y-81810952D01*
X145084761Y-81906190D01*
X145132380Y-82049047D01*
X145132380Y-82144285D01*
X144560952Y-81144285D02*
X144513333Y-81239523D01*
X144465714Y-81287142D01*
X144370476Y-81334761D01*
X144322857Y-81334761D01*
X144227619Y-81287142D01*
X144180000Y-81239523D01*
X144132380Y-81144285D01*
X144132380Y-80953809D01*
X144180000Y-80858571D01*
X144227619Y-80810952D01*
X144322857Y-80763333D01*
X144370476Y-80763333D01*
X144465714Y-80810952D01*
X144513333Y-80858571D01*
X144560952Y-80953809D01*
X144560952Y-81144285D01*
X144608571Y-81239523D01*
X144656190Y-81287142D01*
X144751428Y-81334761D01*
X144941904Y-81334761D01*
X145037142Y-81287142D01*
X145084761Y-81239523D01*
X145132380Y-81144285D01*
X145132380Y-80953809D01*
X145084761Y-80858571D01*
X145037142Y-80810952D01*
X144941904Y-80763333D01*
X144751428Y-80763333D01*
X144656190Y-80810952D01*
X144608571Y-80858571D01*
X144560952Y-80953809D01*
%TO.C,C8*%
X107895833Y-97807142D02*
X107848214Y-97854761D01*
X107705357Y-97902380D01*
X107610119Y-97902380D01*
X107467261Y-97854761D01*
X107372023Y-97759523D01*
X107324404Y-97664285D01*
X107276785Y-97473809D01*
X107276785Y-97330952D01*
X107324404Y-97140476D01*
X107372023Y-97045238D01*
X107467261Y-96950000D01*
X107610119Y-96902380D01*
X107705357Y-96902380D01*
X107848214Y-96950000D01*
X107895833Y-96997619D01*
X108467261Y-97330952D02*
X108372023Y-97283333D01*
X108324404Y-97235714D01*
X108276785Y-97140476D01*
X108276785Y-97092857D01*
X108324404Y-96997619D01*
X108372023Y-96950000D01*
X108467261Y-96902380D01*
X108657738Y-96902380D01*
X108752976Y-96950000D01*
X108800595Y-96997619D01*
X108848214Y-97092857D01*
X108848214Y-97140476D01*
X108800595Y-97235714D01*
X108752976Y-97283333D01*
X108657738Y-97330952D01*
X108467261Y-97330952D01*
X108372023Y-97378571D01*
X108324404Y-97426190D01*
X108276785Y-97521428D01*
X108276785Y-97711904D01*
X108324404Y-97807142D01*
X108372023Y-97854761D01*
X108467261Y-97902380D01*
X108657738Y-97902380D01*
X108752976Y-97854761D01*
X108800595Y-97807142D01*
X108848214Y-97711904D01*
X108848214Y-97521428D01*
X108800595Y-97426190D01*
X108752976Y-97378571D01*
X108657738Y-97330952D01*
%TO.C,C7*%
X107970833Y-88207142D02*
X107923214Y-88254761D01*
X107780357Y-88302380D01*
X107685119Y-88302380D01*
X107542261Y-88254761D01*
X107447023Y-88159523D01*
X107399404Y-88064285D01*
X107351785Y-87873809D01*
X107351785Y-87730952D01*
X107399404Y-87540476D01*
X107447023Y-87445238D01*
X107542261Y-87350000D01*
X107685119Y-87302380D01*
X107780357Y-87302380D01*
X107923214Y-87350000D01*
X107970833Y-87397619D01*
X108304166Y-87302380D02*
X108970833Y-87302380D01*
X108542261Y-88302380D01*
%TO.C,C6*%
X107770833Y-108107142D02*
X107723214Y-108154761D01*
X107580357Y-108202380D01*
X107485119Y-108202380D01*
X107342261Y-108154761D01*
X107247023Y-108059523D01*
X107199404Y-107964285D01*
X107151785Y-107773809D01*
X107151785Y-107630952D01*
X107199404Y-107440476D01*
X107247023Y-107345238D01*
X107342261Y-107250000D01*
X107485119Y-107202380D01*
X107580357Y-107202380D01*
X107723214Y-107250000D01*
X107770833Y-107297619D01*
X108627976Y-107202380D02*
X108437500Y-107202380D01*
X108342261Y-107250000D01*
X108294642Y-107297619D01*
X108199404Y-107440476D01*
X108151785Y-107630952D01*
X108151785Y-108011904D01*
X108199404Y-108107142D01*
X108247023Y-108154761D01*
X108342261Y-108202380D01*
X108532738Y-108202380D01*
X108627976Y-108154761D01*
X108675595Y-108107142D01*
X108723214Y-108011904D01*
X108723214Y-107773809D01*
X108675595Y-107678571D01*
X108627976Y-107630952D01*
X108532738Y-107583333D01*
X108342261Y-107583333D01*
X108247023Y-107630952D01*
X108199404Y-107678571D01*
X108151785Y-107773809D01*
%TO.C,C5*%
X120295833Y-104207142D02*
X120248214Y-104254761D01*
X120105357Y-104302380D01*
X120010119Y-104302380D01*
X119867261Y-104254761D01*
X119772023Y-104159523D01*
X119724404Y-104064285D01*
X119676785Y-103873809D01*
X119676785Y-103730952D01*
X119724404Y-103540476D01*
X119772023Y-103445238D01*
X119867261Y-103350000D01*
X120010119Y-103302380D01*
X120105357Y-103302380D01*
X120248214Y-103350000D01*
X120295833Y-103397619D01*
X121200595Y-103302380D02*
X120724404Y-103302380D01*
X120676785Y-103778571D01*
X120724404Y-103730952D01*
X120819642Y-103683333D01*
X121057738Y-103683333D01*
X121152976Y-103730952D01*
X121200595Y-103778571D01*
X121248214Y-103873809D01*
X121248214Y-104111904D01*
X121200595Y-104207142D01*
X121152976Y-104254761D01*
X121057738Y-104302380D01*
X120819642Y-104302380D01*
X120724404Y-104254761D01*
X120676785Y-104207142D01*
%TO.C,C4*%
X126095833Y-90007142D02*
X126048214Y-90054761D01*
X125905357Y-90102380D01*
X125810119Y-90102380D01*
X125667261Y-90054761D01*
X125572023Y-89959523D01*
X125524404Y-89864285D01*
X125476785Y-89673809D01*
X125476785Y-89530952D01*
X125524404Y-89340476D01*
X125572023Y-89245238D01*
X125667261Y-89150000D01*
X125810119Y-89102380D01*
X125905357Y-89102380D01*
X126048214Y-89150000D01*
X126095833Y-89197619D01*
X126952976Y-89435714D02*
X126952976Y-90102380D01*
X126714880Y-89054761D02*
X126476785Y-89769047D01*
X127095833Y-89769047D01*
%TO.C,U3*%
X137838095Y-98852380D02*
X137838095Y-99661904D01*
X137885714Y-99757142D01*
X137933333Y-99804761D01*
X138028571Y-99852380D01*
X138219047Y-99852380D01*
X138314285Y-99804761D01*
X138361904Y-99757142D01*
X138409523Y-99661904D01*
X138409523Y-98852380D01*
X138790476Y-98852380D02*
X139409523Y-98852380D01*
X139076190Y-99233333D01*
X139219047Y-99233333D01*
X139314285Y-99280952D01*
X139361904Y-99328571D01*
X139409523Y-99423809D01*
X139409523Y-99661904D01*
X139361904Y-99757142D01*
X139314285Y-99804761D01*
X139219047Y-99852380D01*
X138933333Y-99852380D01*
X138838095Y-99804761D01*
X138790476Y-99757142D01*
%TO.C,U2*%
X137638095Y-97552380D02*
X137638095Y-98361904D01*
X137685714Y-98457142D01*
X137733333Y-98504761D01*
X137828571Y-98552380D01*
X138019047Y-98552380D01*
X138114285Y-98504761D01*
X138161904Y-98457142D01*
X138209523Y-98361904D01*
X138209523Y-97552380D01*
X138638095Y-97647619D02*
X138685714Y-97600000D01*
X138780952Y-97552380D01*
X139019047Y-97552380D01*
X139114285Y-97600000D01*
X139161904Y-97647619D01*
X139209523Y-97742857D01*
X139209523Y-97838095D01*
X139161904Y-97980952D01*
X138590476Y-98552380D01*
X139209523Y-98552380D01*
%TO.C,U1*%
X129632380Y-96436904D02*
X130441904Y-96436904D01*
X130537142Y-96389285D01*
X130584761Y-96341666D01*
X130632380Y-96246428D01*
X130632380Y-96055952D01*
X130584761Y-95960714D01*
X130537142Y-95913095D01*
X130441904Y-95865476D01*
X129632380Y-95865476D01*
X130632380Y-94865476D02*
X130632380Y-95436904D01*
X130632380Y-95151190D02*
X129632380Y-95151190D01*
X129775238Y-95246428D01*
X129870476Y-95341666D01*
X129918095Y-95436904D01*
%TO.C,R1*%
X131270833Y-92802380D02*
X130937500Y-92326190D01*
X130699404Y-92802380D02*
X130699404Y-91802380D01*
X131080357Y-91802380D01*
X131175595Y-91850000D01*
X131223214Y-91897619D01*
X131270833Y-91992857D01*
X131270833Y-92135714D01*
X131223214Y-92230952D01*
X131175595Y-92278571D01*
X131080357Y-92326190D01*
X130699404Y-92326190D01*
X132223214Y-92802380D02*
X131651785Y-92802380D01*
X131937500Y-92802380D02*
X131937500Y-91802380D01*
X131842261Y-91945238D01*
X131747023Y-92040476D01*
X131651785Y-92088095D01*
%TO.C,Q1*%
X145904761Y-94047619D02*
X145809523Y-94000000D01*
X145714285Y-93904761D01*
X145571428Y-93761904D01*
X145476190Y-93714285D01*
X145380952Y-93714285D01*
X145428571Y-93952380D02*
X145333333Y-93904761D01*
X145238095Y-93809523D01*
X145190476Y-93619047D01*
X145190476Y-93285714D01*
X145238095Y-93095238D01*
X145333333Y-93000000D01*
X145428571Y-92952380D01*
X145619047Y-92952380D01*
X145714285Y-93000000D01*
X145809523Y-93095238D01*
X145857142Y-93285714D01*
X145857142Y-93619047D01*
X145809523Y-93809523D01*
X145714285Y-93904761D01*
X145619047Y-93952380D01*
X145428571Y-93952380D01*
X146809523Y-93952380D02*
X146238095Y-93952380D01*
X146523809Y-93952380D02*
X146523809Y-92952380D01*
X146428571Y-93095238D01*
X146333333Y-93190476D01*
X146238095Y-93238095D01*
%TO.C,K1*%
X139541904Y-88452380D02*
X139541904Y-87452380D01*
X140113333Y-88452380D02*
X139684761Y-87880952D01*
X140113333Y-87452380D02*
X139541904Y-88023809D01*
X141065714Y-88452380D02*
X140494285Y-88452380D01*
X140780000Y-88452380D02*
X140780000Y-87452380D01*
X140684761Y-87595238D01*
X140589523Y-87690476D01*
X140494285Y-87738095D01*
%TO.C,J7*%
X139802380Y-100733333D02*
X140516666Y-100733333D01*
X140659523Y-100780952D01*
X140754761Y-100876190D01*
X140802380Y-101019047D01*
X140802380Y-101114285D01*
X139802380Y-100352380D02*
X139802380Y-99685714D01*
X140802380Y-100114285D01*
%TO.C,J6*%
X129687380Y-109883333D02*
X130401666Y-109883333D01*
X130544523Y-109930952D01*
X130639761Y-110026190D01*
X130687380Y-110169047D01*
X130687380Y-110264285D01*
X129687380Y-108978571D02*
X129687380Y-109169047D01*
X129735000Y-109264285D01*
X129782619Y-109311904D01*
X129925476Y-109407142D01*
X130115952Y-109454761D01*
X130496904Y-109454761D01*
X130592142Y-109407142D01*
X130639761Y-109359523D01*
X130687380Y-109264285D01*
X130687380Y-109073809D01*
X130639761Y-108978571D01*
X130592142Y-108930952D01*
X130496904Y-108883333D01*
X130258809Y-108883333D01*
X130163571Y-108930952D01*
X130115952Y-108978571D01*
X130068333Y-109073809D01*
X130068333Y-109264285D01*
X130115952Y-109359523D01*
X130163571Y-109407142D01*
X130258809Y-109454761D01*
%TO.C,J5*%
X122166666Y-85452380D02*
X122166666Y-86166666D01*
X122119047Y-86309523D01*
X122023809Y-86404761D01*
X121880952Y-86452380D01*
X121785714Y-86452380D01*
X123119047Y-85452380D02*
X122642857Y-85452380D01*
X122595238Y-85928571D01*
X122642857Y-85880952D01*
X122738095Y-85833333D01*
X122976190Y-85833333D01*
X123071428Y-85880952D01*
X123119047Y-85928571D01*
X123166666Y-86023809D01*
X123166666Y-86261904D01*
X123119047Y-86357142D01*
X123071428Y-86404761D01*
X122976190Y-86452380D01*
X122738095Y-86452380D01*
X122642857Y-86404761D01*
X122595238Y-86357142D01*
%TO.C,J4*%
X104572380Y-111503333D02*
X105286666Y-111503333D01*
X105429523Y-111550952D01*
X105524761Y-111646190D01*
X105572380Y-111789047D01*
X105572380Y-111884285D01*
X104905714Y-110598571D02*
X105572380Y-110598571D01*
X104524761Y-110836666D02*
X105239047Y-111074761D01*
X105239047Y-110455714D01*
%TO.C,J3*%
X104572380Y-101603333D02*
X105286666Y-101603333D01*
X105429523Y-101650952D01*
X105524761Y-101746190D01*
X105572380Y-101889047D01*
X105572380Y-101984285D01*
X104572380Y-101222380D02*
X104572380Y-100603333D01*
X104953333Y-100936666D01*
X104953333Y-100793809D01*
X105000952Y-100698571D01*
X105048571Y-100650952D01*
X105143809Y-100603333D01*
X105381904Y-100603333D01*
X105477142Y-100650952D01*
X105524761Y-100698571D01*
X105572380Y-100793809D01*
X105572380Y-101079523D01*
X105524761Y-101174761D01*
X105477142Y-101222380D01*
%TO.C,J2*%
X104572380Y-91603333D02*
X105286666Y-91603333D01*
X105429523Y-91650952D01*
X105524761Y-91746190D01*
X105572380Y-91889047D01*
X105572380Y-91984285D01*
X104667619Y-91174761D02*
X104620000Y-91127142D01*
X104572380Y-91031904D01*
X104572380Y-90793809D01*
X104620000Y-90698571D01*
X104667619Y-90650952D01*
X104762857Y-90603333D01*
X104858095Y-90603333D01*
X105000952Y-90650952D01*
X105572380Y-91222380D01*
X105572380Y-90603333D01*
%TO.C,J1*%
X104572380Y-81603333D02*
X105286666Y-81603333D01*
X105429523Y-81650952D01*
X105524761Y-81746190D01*
X105572380Y-81889047D01*
X105572380Y-81984285D01*
X105572380Y-80603333D02*
X105572380Y-81174761D01*
X105572380Y-80889047D02*
X104572380Y-80889047D01*
X104715238Y-80984285D01*
X104810476Y-81079523D01*
X104858095Y-81174761D01*
%TO.C,IC4*%
D13*
X108760238Y-111574523D02*
X108760238Y-110304523D01*
X110090714Y-111453571D02*
X110030238Y-111514047D01*
X109848809Y-111574523D01*
X109727857Y-111574523D01*
X109546428Y-111514047D01*
X109425476Y-111393095D01*
X109365000Y-111272142D01*
X109304523Y-111030238D01*
X109304523Y-110848809D01*
X109365000Y-110606904D01*
X109425476Y-110485952D01*
X109546428Y-110365000D01*
X109727857Y-110304523D01*
X109848809Y-110304523D01*
X110030238Y-110365000D01*
X110090714Y-110425476D01*
X111179285Y-110727857D02*
X111179285Y-111574523D01*
X110876904Y-110244047D02*
X110574523Y-111151190D01*
X111360714Y-111151190D01*
%TO.C,IC3*%
X108760238Y-101574523D02*
X108760238Y-100304523D01*
X110090714Y-101453571D02*
X110030238Y-101514047D01*
X109848809Y-101574523D01*
X109727857Y-101574523D01*
X109546428Y-101514047D01*
X109425476Y-101393095D01*
X109365000Y-101272142D01*
X109304523Y-101030238D01*
X109304523Y-100848809D01*
X109365000Y-100606904D01*
X109425476Y-100485952D01*
X109546428Y-100365000D01*
X109727857Y-100304523D01*
X109848809Y-100304523D01*
X110030238Y-100365000D01*
X110090714Y-100425476D01*
X110514047Y-100304523D02*
X111300238Y-100304523D01*
X110876904Y-100788333D01*
X111058333Y-100788333D01*
X111179285Y-100848809D01*
X111239761Y-100909285D01*
X111300238Y-101030238D01*
X111300238Y-101332619D01*
X111239761Y-101453571D01*
X111179285Y-101514047D01*
X111058333Y-101574523D01*
X110695476Y-101574523D01*
X110574523Y-101514047D01*
X110514047Y-101453571D01*
%TO.C,IC2*%
X108760238Y-91574523D02*
X108760238Y-90304523D01*
X110090714Y-91453571D02*
X110030238Y-91514047D01*
X109848809Y-91574523D01*
X109727857Y-91574523D01*
X109546428Y-91514047D01*
X109425476Y-91393095D01*
X109365000Y-91272142D01*
X109304523Y-91030238D01*
X109304523Y-90848809D01*
X109365000Y-90606904D01*
X109425476Y-90485952D01*
X109546428Y-90365000D01*
X109727857Y-90304523D01*
X109848809Y-90304523D01*
X110030238Y-90365000D01*
X110090714Y-90425476D01*
X110574523Y-90425476D02*
X110635000Y-90365000D01*
X110755952Y-90304523D01*
X111058333Y-90304523D01*
X111179285Y-90365000D01*
X111239761Y-90425476D01*
X111300238Y-90546428D01*
X111300238Y-90667380D01*
X111239761Y-90848809D01*
X110514047Y-91574523D01*
X111300238Y-91574523D01*
%TO.C,IC1*%
X108760238Y-81574523D02*
X108760238Y-80304523D01*
X110090714Y-81453571D02*
X110030238Y-81514047D01*
X109848809Y-81574523D01*
X109727857Y-81574523D01*
X109546428Y-81514047D01*
X109425476Y-81393095D01*
X109365000Y-81272142D01*
X109304523Y-81030238D01*
X109304523Y-80848809D01*
X109365000Y-80606904D01*
X109425476Y-80485952D01*
X109546428Y-80365000D01*
X109727857Y-80304523D01*
X109848809Y-80304523D01*
X110030238Y-80365000D01*
X110090714Y-80425476D01*
X111300238Y-81574523D02*
X110574523Y-81574523D01*
X110937380Y-81574523D02*
X110937380Y-80304523D01*
X110816428Y-80485952D01*
X110695476Y-80606904D01*
X110574523Y-80667380D01*
%TO.C,D1*%
D10*
X149261904Y-89002380D02*
X149261904Y-88002380D01*
X149500000Y-88002380D01*
X149642857Y-88050000D01*
X149738095Y-88145238D01*
X149785714Y-88240476D01*
X149833333Y-88430952D01*
X149833333Y-88573809D01*
X149785714Y-88764285D01*
X149738095Y-88859523D01*
X149642857Y-88954761D01*
X149500000Y-89002380D01*
X149261904Y-89002380D01*
X150785714Y-89002380D02*
X150214285Y-89002380D01*
X150500000Y-89002380D02*
X150500000Y-88002380D01*
X150404761Y-88145238D01*
X150309523Y-88240476D01*
X150214285Y-88288095D01*
%TO.C,C3*%
X138395833Y-95507142D02*
X138348214Y-95554761D01*
X138205357Y-95602380D01*
X138110119Y-95602380D01*
X137967261Y-95554761D01*
X137872023Y-95459523D01*
X137824404Y-95364285D01*
X137776785Y-95173809D01*
X137776785Y-95030952D01*
X137824404Y-94840476D01*
X137872023Y-94745238D01*
X137967261Y-94650000D01*
X138110119Y-94602380D01*
X138205357Y-94602380D01*
X138348214Y-94650000D01*
X138395833Y-94697619D01*
X138729166Y-94602380D02*
X139348214Y-94602380D01*
X139014880Y-94983333D01*
X139157738Y-94983333D01*
X139252976Y-95030952D01*
X139300595Y-95078571D01*
X139348214Y-95173809D01*
X139348214Y-95411904D01*
X139300595Y-95507142D01*
X139252976Y-95554761D01*
X139157738Y-95602380D01*
X138872023Y-95602380D01*
X138776785Y-95554761D01*
X138729166Y-95507142D01*
%TO.C,C2*%
X134207142Y-96729166D02*
X134254761Y-96776785D01*
X134302380Y-96919642D01*
X134302380Y-97014880D01*
X134254761Y-97157738D01*
X134159523Y-97252976D01*
X134064285Y-97300595D01*
X133873809Y-97348214D01*
X133730952Y-97348214D01*
X133540476Y-97300595D01*
X133445238Y-97252976D01*
X133350000Y-97157738D01*
X133302380Y-97014880D01*
X133302380Y-96919642D01*
X133350000Y-96776785D01*
X133397619Y-96729166D01*
X133397619Y-96348214D02*
X133350000Y-96300595D01*
X133302380Y-96205357D01*
X133302380Y-95967261D01*
X133350000Y-95872023D01*
X133397619Y-95824404D01*
X133492857Y-95776785D01*
X133588095Y-95776785D01*
X133730952Y-95824404D01*
X134302380Y-96395833D01*
X134302380Y-95776785D01*
%TO.C,C1*%
X119207142Y-111604166D02*
X119254761Y-111651785D01*
X119302380Y-111794642D01*
X119302380Y-111889880D01*
X119254761Y-112032738D01*
X119159523Y-112127976D01*
X119064285Y-112175595D01*
X118873809Y-112223214D01*
X118730952Y-112223214D01*
X118540476Y-112175595D01*
X118445238Y-112127976D01*
X118350000Y-112032738D01*
X118302380Y-111889880D01*
X118302380Y-111794642D01*
X118350000Y-111651785D01*
X118397619Y-111604166D01*
X119302380Y-110651785D02*
X119302380Y-111223214D01*
X119302380Y-110937500D02*
X118302380Y-110937500D01*
X118445238Y-111032738D01*
X118540476Y-111127976D01*
X118588095Y-111223214D01*
%TD*%
M02*
