G04 #@! TF.GenerationSoftware,KiCad,Pcbnew,(5.1.6)-1*
G04 #@! TF.CreationDate,2020-10-31T14:21:40+01:00*
G04 #@! TF.ProjectId,Batmonitor,4261746d-6f6e-4697-946f-722e6b696361,rev?*
G04 #@! TF.SameCoordinates,Original*
G04 #@! TF.FileFunction,Legend,Bot*
G04 #@! TF.FilePolarity,Positive*
%FSLAX46Y46*%
G04 Gerber Fmt 4.6, Leading zero omitted, Abs format (unit mm)*
G04 Created by KiCad (PCBNEW (5.1.6)-1) date 2020-10-31 14:21:40*
%MOMM*%
%LPD*%
G01*
G04 APERTURE LIST*
%ADD10C,0.120000*%
%ADD11C,0.150000*%
G04 APERTURE END LIST*
D10*
X146000000Y-86460000D02*
X146000000Y-85960000D01*
X115000000Y-86460000D02*
X115000000Y-85960000D01*
X146000000Y-86460000D02*
X115000000Y-86460000D01*
D11*
X123000000Y-90460000D02*
X123000000Y-93460000D01*
X136000000Y-90460000D02*
X123000000Y-90460000D01*
X136000000Y-93460000D02*
X136000000Y-90460000D01*
X146000000Y-85960000D02*
X146000000Y-64960000D01*
X115000000Y-81460000D02*
X146000000Y-81460000D01*
X115000000Y-64960000D02*
X115000000Y-85960000D01*
X146000000Y-64960000D02*
X115000000Y-64960000D01*
X148000000Y-93460000D02*
X148000000Y-60460000D01*
X113000000Y-93460000D02*
X148000000Y-93460000D01*
X113000000Y-60460000D02*
X113000000Y-93460000D01*
X148000000Y-60460000D02*
X113000000Y-60460000D01*
X148761904Y-60412380D02*
X148761904Y-61221904D01*
X148714285Y-61317142D01*
X148666666Y-61364761D01*
X148571428Y-61412380D01*
X148380952Y-61412380D01*
X148285714Y-61364761D01*
X148238095Y-61317142D01*
X148190476Y-61221904D01*
X148190476Y-60412380D01*
X147285714Y-60745714D02*
X147285714Y-61412380D01*
X147523809Y-60364761D02*
X147761904Y-61079047D01*
X147142857Y-61079047D01*
M02*
