G04 #@! TF.GenerationSoftware,KiCad,Pcbnew,(5.1.6)-1*
G04 #@! TF.CreationDate,2020-10-31T14:21:40+01:00*
G04 #@! TF.ProjectId,Batmonitor,4261746d-6f6e-4697-946f-722e6b696361,rev?*
G04 #@! TF.SameCoordinates,Original*
G04 #@! TF.FileFunction,Legend,Top*
G04 #@! TF.FilePolarity,Positive*
%FSLAX46Y46*%
G04 Gerber Fmt 4.6, Leading zero omitted, Abs format (unit mm)*
G04 Created by KiCad (PCBNEW (5.1.6)-1) date 2020-10-31 14:21:40*
%MOMM*%
%LPD*%
G01*
G04 APERTURE LIST*
%ADD10C,0.150000*%
%ADD11C,0.120000*%
%ADD12C,0.100000*%
%ADD13C,0.254000*%
G04 APERTURE END LIST*
D10*
X126928571Y-136000000D02*
X126833333Y-135952380D01*
X126690476Y-135952380D01*
X126547619Y-136000000D01*
X126452380Y-136095238D01*
X126404761Y-136190476D01*
X126357142Y-136380952D01*
X126357142Y-136523809D01*
X126404761Y-136714285D01*
X126452380Y-136809523D01*
X126547619Y-136904761D01*
X126690476Y-136952380D01*
X126785714Y-136952380D01*
X126928571Y-136904761D01*
X126976190Y-136857142D01*
X126976190Y-136523809D01*
X126785714Y-136523809D01*
X127785714Y-136904761D02*
X127690476Y-136952380D01*
X127500000Y-136952380D01*
X127404761Y-136904761D01*
X127357142Y-136809523D01*
X127357142Y-136428571D01*
X127404761Y-136333333D01*
X127500000Y-136285714D01*
X127690476Y-136285714D01*
X127785714Y-136333333D01*
X127833333Y-136428571D01*
X127833333Y-136523809D01*
X127357142Y-136619047D01*
X128261904Y-136952380D02*
X128261904Y-136285714D01*
X128261904Y-136476190D02*
X128309523Y-136380952D01*
X128357142Y-136333333D01*
X128452380Y-136285714D01*
X128547619Y-136285714D01*
X128738095Y-136285714D02*
X129119047Y-136285714D01*
X128880952Y-135952380D02*
X128880952Y-136809523D01*
X128928571Y-136904761D01*
X129023809Y-136952380D01*
X129119047Y-136952380D01*
X130690476Y-136952380D02*
X130214285Y-136952380D01*
X130214285Y-135952380D01*
X131452380Y-136952380D02*
X131452380Y-136428571D01*
X131404761Y-136333333D01*
X131309523Y-136285714D01*
X131119047Y-136285714D01*
X131023809Y-136333333D01*
X131452380Y-136904761D02*
X131357142Y-136952380D01*
X131119047Y-136952380D01*
X131023809Y-136904761D01*
X130976190Y-136809523D01*
X130976190Y-136714285D01*
X131023809Y-136619047D01*
X131119047Y-136571428D01*
X131357142Y-136571428D01*
X131452380Y-136523809D01*
X132357142Y-136285714D02*
X132357142Y-136952380D01*
X131928571Y-136285714D02*
X131928571Y-136809523D01*
X131976190Y-136904761D01*
X132071428Y-136952380D01*
X132214285Y-136952380D01*
X132309523Y-136904761D01*
X132357142Y-136857142D01*
X132833333Y-136952380D02*
X132833333Y-136285714D01*
X132833333Y-136476190D02*
X132880952Y-136380952D01*
X132928571Y-136333333D01*
X133023809Y-136285714D01*
X133119047Y-136285714D01*
X133452380Y-136952380D02*
X133452380Y-136285714D01*
X133452380Y-135952380D02*
X133404761Y-136000000D01*
X133452380Y-136047619D01*
X133500000Y-136000000D01*
X133452380Y-135952380D01*
X133452380Y-136047619D01*
X133785714Y-136285714D02*
X134166666Y-136285714D01*
X133928571Y-135952380D02*
X133928571Y-136809523D01*
X133976190Y-136904761D01*
X134071428Y-136952380D01*
X134166666Y-136952380D01*
X134452380Y-136904761D02*
X134547619Y-136952380D01*
X134738095Y-136952380D01*
X134833333Y-136904761D01*
X134880952Y-136809523D01*
X134880952Y-136761904D01*
X134833333Y-136666666D01*
X134738095Y-136619047D01*
X134595238Y-136619047D01*
X134500000Y-136571428D01*
X134452380Y-136476190D01*
X134452380Y-136428571D01*
X134500000Y-136333333D01*
X134595238Y-136285714D01*
X134738095Y-136285714D01*
X134833333Y-136333333D01*
X135690476Y-136904761D02*
X135595238Y-136952380D01*
X135404761Y-136952380D01*
X135309523Y-136904761D01*
X135261904Y-136809523D01*
X135261904Y-136428571D01*
X135309523Y-136333333D01*
X135404761Y-136285714D01*
X135595238Y-136285714D01*
X135690476Y-136333333D01*
X135738095Y-136428571D01*
X135738095Y-136523809D01*
X135261904Y-136619047D01*
X136166666Y-136285714D02*
X136166666Y-136952380D01*
X136166666Y-136380952D02*
X136214285Y-136333333D01*
X136309523Y-136285714D01*
X136452380Y-136285714D01*
X136547619Y-136333333D01*
X136595238Y-136428571D01*
X136595238Y-136952380D01*
X140309523Y-86833333D02*
X140261904Y-86785714D01*
X140166666Y-86642857D01*
X140119047Y-86547619D01*
X140071428Y-86404761D01*
X140023809Y-86166666D01*
X140023809Y-85976190D01*
X140071428Y-85738095D01*
X140119047Y-85595238D01*
X140166666Y-85500000D01*
X140261904Y-85357142D01*
X140309523Y-85309523D01*
X141119047Y-86404761D02*
X141023809Y-86452380D01*
X140833333Y-86452380D01*
X140738095Y-86404761D01*
X140690476Y-86357142D01*
X140642857Y-86261904D01*
X140642857Y-85976190D01*
X140690476Y-85880952D01*
X140738095Y-85833333D01*
X140833333Y-85785714D01*
X141023809Y-85785714D01*
X141119047Y-85833333D01*
X141452380Y-86833333D02*
X141500000Y-86785714D01*
X141595238Y-86642857D01*
X141642857Y-86547619D01*
X141690476Y-86404761D01*
X141738095Y-86166666D01*
X141738095Y-85976190D01*
X141690476Y-85738095D01*
X141642857Y-85595238D01*
X141595238Y-85500000D01*
X141500000Y-85357142D01*
X141452380Y-85309523D01*
X142166666Y-85547619D02*
X142214285Y-85500000D01*
X142309523Y-85452380D01*
X142547619Y-85452380D01*
X142642857Y-85500000D01*
X142690476Y-85547619D01*
X142738095Y-85642857D01*
X142738095Y-85738095D01*
X142690476Y-85880952D01*
X142119047Y-86452380D01*
X142738095Y-86452380D01*
X143357142Y-85452380D02*
X143452380Y-85452380D01*
X143547619Y-85500000D01*
X143595238Y-85547619D01*
X143642857Y-85642857D01*
X143690476Y-85833333D01*
X143690476Y-86071428D01*
X143642857Y-86261904D01*
X143595238Y-86357142D01*
X143547619Y-86404761D01*
X143452380Y-86452380D01*
X143357142Y-86452380D01*
X143261904Y-86404761D01*
X143214285Y-86357142D01*
X143166666Y-86261904D01*
X143119047Y-86071428D01*
X143119047Y-85833333D01*
X143166666Y-85642857D01*
X143214285Y-85547619D01*
X143261904Y-85500000D01*
X143357142Y-85452380D01*
X144071428Y-85547619D02*
X144119047Y-85500000D01*
X144214285Y-85452380D01*
X144452380Y-85452380D01*
X144547619Y-85500000D01*
X144595238Y-85547619D01*
X144642857Y-85642857D01*
X144642857Y-85738095D01*
X144595238Y-85880952D01*
X144023809Y-86452380D01*
X144642857Y-86452380D01*
X145261904Y-85452380D02*
X145357142Y-85452380D01*
X145452380Y-85500000D01*
X145500000Y-85547619D01*
X145547619Y-85642857D01*
X145595238Y-85833333D01*
X145595238Y-86071428D01*
X145547619Y-86261904D01*
X145500000Y-86357142D01*
X145452380Y-86404761D01*
X145357142Y-86452380D01*
X145261904Y-86452380D01*
X145166666Y-86404761D01*
X145119047Y-86357142D01*
X145071428Y-86261904D01*
X145023809Y-86071428D01*
X145023809Y-85833333D01*
X145071428Y-85642857D01*
X145119047Y-85547619D01*
X145166666Y-85500000D01*
X145261904Y-85452380D01*
X147309523Y-85500000D02*
X147214285Y-85452380D01*
X147071428Y-85452380D01*
X146928571Y-85500000D01*
X146833333Y-85595238D01*
X146785714Y-85690476D01*
X146738095Y-85880952D01*
X146738095Y-86023809D01*
X146785714Y-86214285D01*
X146833333Y-86309523D01*
X146928571Y-86404761D01*
X147071428Y-86452380D01*
X147166666Y-86452380D01*
X147309523Y-86404761D01*
X147357142Y-86357142D01*
X147357142Y-86023809D01*
X147166666Y-86023809D01*
X148166666Y-86404761D02*
X148071428Y-86452380D01*
X147880952Y-86452380D01*
X147785714Y-86404761D01*
X147738095Y-86309523D01*
X147738095Y-85928571D01*
X147785714Y-85833333D01*
X147880952Y-85785714D01*
X148071428Y-85785714D01*
X148166666Y-85833333D01*
X148214285Y-85928571D01*
X148214285Y-86023809D01*
X147738095Y-86119047D01*
X148642857Y-86452380D02*
X148642857Y-85785714D01*
X148642857Y-85976190D02*
X148690476Y-85880952D01*
X148738095Y-85833333D01*
X148833333Y-85785714D01*
X148928571Y-85785714D01*
X149119047Y-85785714D02*
X149500000Y-85785714D01*
X149261904Y-85452380D02*
X149261904Y-86309523D01*
X149309523Y-86404761D01*
X149404761Y-86452380D01*
X149500000Y-86452380D01*
X151071428Y-86452380D02*
X150595238Y-86452380D01*
X150595238Y-85452380D01*
X151833333Y-86452380D02*
X151833333Y-85928571D01*
X151785714Y-85833333D01*
X151690476Y-85785714D01*
X151500000Y-85785714D01*
X151404761Y-85833333D01*
X151833333Y-86404761D02*
X151738095Y-86452380D01*
X151500000Y-86452380D01*
X151404761Y-86404761D01*
X151357142Y-86309523D01*
X151357142Y-86214285D01*
X151404761Y-86119047D01*
X151500000Y-86071428D01*
X151738095Y-86071428D01*
X151833333Y-86023809D01*
X152738095Y-85785714D02*
X152738095Y-86452380D01*
X152309523Y-85785714D02*
X152309523Y-86309523D01*
X152357142Y-86404761D01*
X152452380Y-86452380D01*
X152595238Y-86452380D01*
X152690476Y-86404761D01*
X152738095Y-86357142D01*
X153214285Y-86452380D02*
X153214285Y-85785714D01*
X153214285Y-85976190D02*
X153261904Y-85880952D01*
X153309523Y-85833333D01*
X153404761Y-85785714D01*
X153500000Y-85785714D01*
X153833333Y-86452380D02*
X153833333Y-85785714D01*
X153833333Y-85452380D02*
X153785714Y-85500000D01*
X153833333Y-85547619D01*
X153880952Y-85500000D01*
X153833333Y-85452380D01*
X153833333Y-85547619D01*
X154166666Y-85785714D02*
X154547619Y-85785714D01*
X154309523Y-85452380D02*
X154309523Y-86309523D01*
X154357142Y-86404761D01*
X154452380Y-86452380D01*
X154547619Y-86452380D01*
X154833333Y-86404761D02*
X154928571Y-86452380D01*
X155119047Y-86452380D01*
X155214285Y-86404761D01*
X155261904Y-86309523D01*
X155261904Y-86261904D01*
X155214285Y-86166666D01*
X155119047Y-86119047D01*
X154976190Y-86119047D01*
X154880952Y-86071428D01*
X154833333Y-85976190D01*
X154833333Y-85928571D01*
X154880952Y-85833333D01*
X154976190Y-85785714D01*
X155119047Y-85785714D01*
X155214285Y-85833333D01*
X156071428Y-86404761D02*
X155976190Y-86452380D01*
X155785714Y-86452380D01*
X155690476Y-86404761D01*
X155642857Y-86309523D01*
X155642857Y-85928571D01*
X155690476Y-85833333D01*
X155785714Y-85785714D01*
X155976190Y-85785714D01*
X156071428Y-85833333D01*
X156119047Y-85928571D01*
X156119047Y-86023809D01*
X155642857Y-86119047D01*
X156547619Y-85785714D02*
X156547619Y-86452380D01*
X156547619Y-85880952D02*
X156595238Y-85833333D01*
X156690476Y-85785714D01*
X156833333Y-85785714D01*
X156928571Y-85833333D01*
X156976190Y-85928571D01*
X156976190Y-86452380D01*
D11*
X146178922Y-99210000D02*
X146696078Y-99210000D01*
X146178922Y-97790000D02*
X146696078Y-97790000D01*
X146178922Y-101210000D02*
X146696078Y-101210000D01*
X146178922Y-99790000D02*
X146696078Y-99790000D01*
D12*
X151010000Y-132690000D02*
X151010000Y-128690000D01*
X142010000Y-132690000D02*
X142010000Y-128690000D01*
D11*
X110890000Y-90496078D02*
X110890000Y-89978922D01*
X112310000Y-90496078D02*
X112310000Y-89978922D01*
X124045000Y-93425000D02*
X125545000Y-93425000D01*
X125545000Y-93425000D02*
X125545000Y-93155000D01*
X125545000Y-93155000D02*
X128375000Y-93155000D01*
X124045000Y-86525000D02*
X125545000Y-86525000D01*
X125545000Y-86525000D02*
X125545000Y-86795000D01*
X125545000Y-86795000D02*
X126645000Y-86795000D01*
X134220000Y-113880000D02*
X123300000Y-113880000D01*
X134220000Y-128120000D02*
X123300000Y-128120000D01*
X134220000Y-115880000D02*
X134220000Y-113880000D01*
X134220000Y-126120000D02*
X134220000Y-128120000D01*
X125380000Y-118120000D02*
X123300000Y-118120000D01*
X125380000Y-123880000D02*
X123300000Y-123880000D01*
X125380000Y-123880000D02*
X125380000Y-118120000D01*
X138620000Y-115880000D02*
X138620000Y-126120000D01*
X138620000Y-126120000D02*
X134220000Y-126120000D01*
X138620000Y-115880000D02*
X134220000Y-115880000D01*
X138620000Y-119345000D02*
X140500000Y-119345000D01*
X138620000Y-121255000D02*
X140500000Y-121255000D01*
X138620000Y-123165000D02*
X140500000Y-123165000D01*
X138620000Y-122655000D02*
X140500000Y-122655000D01*
X138620000Y-120745000D02*
X140500000Y-120745000D01*
X138620000Y-118835000D02*
X140500000Y-118835000D01*
X155870000Y-98500000D02*
X161890000Y-98500000D01*
X161890000Y-98500000D02*
X161890000Y-88120000D01*
X161890000Y-88120000D02*
X155870000Y-88120000D01*
X155870000Y-88120000D02*
X155870000Y-98500000D01*
X156900000Y-98790000D02*
X160900000Y-98790000D01*
X161890000Y-97120000D02*
X160890000Y-97120000D01*
X160890000Y-97120000D02*
X160890000Y-89500000D01*
X160890000Y-89500000D02*
X161890000Y-89500000D01*
X160890000Y-97120000D02*
X160360000Y-96870000D01*
X160360000Y-96870000D02*
X160360000Y-89750000D01*
X160360000Y-89750000D02*
X160890000Y-89500000D01*
X161890000Y-96870000D02*
X160890000Y-96870000D01*
X161890000Y-89750000D02*
X160890000Y-89750000D01*
X155870000Y-97920000D02*
X156470000Y-97920000D01*
X156470000Y-97920000D02*
X156470000Y-96320000D01*
X156470000Y-96320000D02*
X155870000Y-96320000D01*
X155870000Y-95380000D02*
X156470000Y-95380000D01*
X156470000Y-95380000D02*
X156470000Y-93780000D01*
X156470000Y-93780000D02*
X155870000Y-93780000D01*
X155870000Y-92840000D02*
X156470000Y-92840000D01*
X156470000Y-92840000D02*
X156470000Y-91240000D01*
X156470000Y-91240000D02*
X155870000Y-91240000D01*
X155870000Y-90300000D02*
X156470000Y-90300000D01*
X156470000Y-90300000D02*
X156470000Y-88700000D01*
X156470000Y-88700000D02*
X155870000Y-88700000D01*
X153970000Y-123000000D02*
X159990000Y-123000000D01*
X159990000Y-123000000D02*
X159990000Y-112620000D01*
X159990000Y-112620000D02*
X153970000Y-112620000D01*
X153970000Y-112620000D02*
X153970000Y-123000000D01*
X155000000Y-123290000D02*
X159000000Y-123290000D01*
X159990000Y-121620000D02*
X158990000Y-121620000D01*
X158990000Y-121620000D02*
X158990000Y-114000000D01*
X158990000Y-114000000D02*
X159990000Y-114000000D01*
X158990000Y-121620000D02*
X158460000Y-121370000D01*
X158460000Y-121370000D02*
X158460000Y-114250000D01*
X158460000Y-114250000D02*
X158990000Y-114000000D01*
X159990000Y-121370000D02*
X158990000Y-121370000D01*
X159990000Y-114250000D02*
X158990000Y-114250000D01*
X153970000Y-122420000D02*
X154570000Y-122420000D01*
X154570000Y-122420000D02*
X154570000Y-120820000D01*
X154570000Y-120820000D02*
X153970000Y-120820000D01*
X153970000Y-119880000D02*
X154570000Y-119880000D01*
X154570000Y-119880000D02*
X154570000Y-118280000D01*
X154570000Y-118280000D02*
X153970000Y-118280000D01*
X153970000Y-117340000D02*
X154570000Y-117340000D01*
X154570000Y-117340000D02*
X154570000Y-115740000D01*
X154570000Y-115740000D02*
X153970000Y-115740000D01*
X153970000Y-114800000D02*
X154570000Y-114800000D01*
X154570000Y-114800000D02*
X154570000Y-113200000D01*
X154570000Y-113200000D02*
X153970000Y-113200000D01*
D12*
X113310000Y-132810000D02*
X113310000Y-128810000D01*
X104310000Y-132810000D02*
X104310000Y-128810000D01*
X113190000Y-119810000D02*
X113190000Y-115810000D01*
X104190000Y-119810000D02*
X104190000Y-115810000D01*
D11*
X146696078Y-97210000D02*
X146178922Y-97210000D01*
X146696078Y-95790000D02*
X146178922Y-95790000D01*
X136278922Y-93990000D02*
X136796078Y-93990000D01*
X136278922Y-95410000D02*
X136796078Y-95410000D01*
X134875000Y-80095000D02*
X136825000Y-80095000D01*
X134875000Y-80095000D02*
X132925000Y-80095000D01*
X134875000Y-74975000D02*
X136825000Y-74975000D01*
X134875000Y-74975000D02*
X131425000Y-74975000D01*
X102790000Y-94000000D02*
X102790000Y-94410000D01*
X102790000Y-94410000D02*
X109210000Y-94410000D01*
X109210000Y-94410000D02*
X109210000Y-94130000D01*
X109210000Y-92400000D02*
X109210000Y-90000000D01*
X109210000Y-88400000D02*
X109210000Y-87990000D01*
X109210000Y-87990000D02*
X102790000Y-87990000D01*
X102790000Y-87990000D02*
X102790000Y-88400000D01*
X102790000Y-90000000D02*
X102790000Y-92400000D01*
X102790000Y-87000000D02*
X102790000Y-87410000D01*
X102790000Y-87410000D02*
X109210000Y-87410000D01*
X109210000Y-87410000D02*
X109210000Y-87130000D01*
X109210000Y-85400000D02*
X109210000Y-83000000D01*
X109210000Y-81400000D02*
X109210000Y-80990000D01*
X109210000Y-80990000D02*
X102790000Y-80990000D01*
X102790000Y-80990000D02*
X102790000Y-81400000D01*
X102790000Y-83000000D02*
X102790000Y-85400000D01*
X112310000Y-80978922D02*
X112310000Y-81496078D01*
X110890000Y-80978922D02*
X110890000Y-81496078D01*
X127678922Y-84490000D02*
X128196078Y-84490000D01*
X127678922Y-85910000D02*
X128196078Y-85910000D01*
X128003922Y-94090000D02*
X128521078Y-94090000D01*
X128003922Y-95510000D02*
X128521078Y-95510000D01*
X113600000Y-94850000D02*
X113600000Y-98150000D01*
X113600000Y-98150000D02*
X119000000Y-98150000D01*
X113600000Y-94850000D02*
X119000000Y-94850000D01*
X116302064Y-100410000D02*
X115097936Y-100410000D01*
X116302064Y-98590000D02*
X115097936Y-98590000D01*
X125810000Y-84870000D02*
X125810000Y-83110000D01*
X122740000Y-83110000D02*
X122740000Y-85540000D01*
X151660000Y-71980000D02*
X151660000Y-71050000D01*
X151660000Y-68820000D02*
X151660000Y-69750000D01*
X151660000Y-68820000D02*
X149500000Y-68820000D01*
X151660000Y-71980000D02*
X150200000Y-71980000D01*
X129590000Y-65021078D02*
X129590000Y-64503922D01*
X131010000Y-65021078D02*
X131010000Y-64503922D01*
X130310000Y-79578922D02*
X130310000Y-80096078D01*
X128890000Y-79578922D02*
X128890000Y-80096078D01*
X116321078Y-75210000D02*
X115803922Y-75210000D01*
X116321078Y-73790000D02*
X115803922Y-73790000D01*
X107795000Y-68485000D02*
X104265000Y-68485000D01*
X107795000Y-62015000D02*
X104265000Y-62015000D01*
X109120000Y-68420000D02*
X107795000Y-68420000D01*
X107795000Y-68485000D02*
X107795000Y-68420000D01*
X104265000Y-68485000D02*
X104265000Y-68420000D01*
X107795000Y-62080000D02*
X107795000Y-62015000D01*
X104265000Y-62080000D02*
X104265000Y-62015000D01*
X104196078Y-71710000D02*
X103678922Y-71710000D01*
X104196078Y-70290000D02*
X103678922Y-70290000D01*
X148720000Y-79290000D02*
X148720000Y-80220000D01*
X148720000Y-82450000D02*
X148720000Y-81520000D01*
X148720000Y-82450000D02*
X150880000Y-82450000D01*
X148720000Y-79290000D02*
X150180000Y-79290000D01*
X127310000Y-77610000D02*
X127610000Y-77610000D01*
X127610000Y-77610000D02*
X127610000Y-77310000D01*
X120690000Y-77610000D02*
X120390000Y-77610000D01*
X120390000Y-77610000D02*
X120390000Y-77310000D01*
X127310000Y-70390000D02*
X127610000Y-70390000D01*
X127610000Y-70390000D02*
X127610000Y-70690000D01*
X120690000Y-70390000D02*
X120390000Y-70390000D01*
X120390000Y-70390000D02*
X120390000Y-70690000D01*
X120390000Y-70690000D02*
X119075000Y-70690000D01*
X155090000Y-77023922D02*
X155090000Y-77541078D01*
X153670000Y-77023922D02*
X153670000Y-77541078D01*
X155090000Y-80523922D02*
X155090000Y-81041078D01*
X153670000Y-80523922D02*
X153670000Y-81041078D01*
X153090000Y-80498922D02*
X153090000Y-81016078D01*
X151670000Y-80498922D02*
X151670000Y-81016078D01*
X125490000Y-65021078D02*
X125490000Y-64503922D01*
X126910000Y-65021078D02*
X126910000Y-64503922D01*
X127590000Y-65021078D02*
X127590000Y-64503922D01*
X129010000Y-65021078D02*
X129010000Y-64503922D01*
X121321078Y-67710000D02*
X120803922Y-67710000D01*
X121321078Y-66290000D02*
X120803922Y-66290000D01*
X116258578Y-77210000D02*
X115741422Y-77210000D01*
X116258578Y-75790000D02*
X115741422Y-75790000D01*
X115678922Y-77790000D02*
X116196078Y-77790000D01*
X115678922Y-79210000D02*
X116196078Y-79210000D01*
X155850000Y-83300000D02*
X161870000Y-83300000D01*
X161870000Y-83300000D02*
X161870000Y-72920000D01*
X161870000Y-72920000D02*
X155850000Y-72920000D01*
X155850000Y-72920000D02*
X155850000Y-83300000D01*
X156880000Y-83590000D02*
X160880000Y-83590000D01*
X161870000Y-81920000D02*
X160870000Y-81920000D01*
X160870000Y-81920000D02*
X160870000Y-74300000D01*
X160870000Y-74300000D02*
X161870000Y-74300000D01*
X160870000Y-81920000D02*
X160340000Y-81670000D01*
X160340000Y-81670000D02*
X160340000Y-74550000D01*
X160340000Y-74550000D02*
X160870000Y-74300000D01*
X161870000Y-81670000D02*
X160870000Y-81670000D01*
X161870000Y-74550000D02*
X160870000Y-74550000D01*
X155850000Y-82720000D02*
X156450000Y-82720000D01*
X156450000Y-82720000D02*
X156450000Y-81120000D01*
X156450000Y-81120000D02*
X155850000Y-81120000D01*
X155850000Y-80180000D02*
X156450000Y-80180000D01*
X156450000Y-80180000D02*
X156450000Y-78580000D01*
X156450000Y-78580000D02*
X155850000Y-78580000D01*
X155850000Y-77640000D02*
X156450000Y-77640000D01*
X156450000Y-77640000D02*
X156450000Y-76040000D01*
X156450000Y-76040000D02*
X155850000Y-76040000D01*
X155850000Y-75100000D02*
X156450000Y-75100000D01*
X156450000Y-75100000D02*
X156450000Y-73500000D01*
X156450000Y-73500000D02*
X155850000Y-73500000D01*
X155970000Y-69920000D02*
X161990000Y-69920000D01*
X161990000Y-69920000D02*
X161990000Y-64620000D01*
X161990000Y-64620000D02*
X155970000Y-64620000D01*
X155970000Y-64620000D02*
X155970000Y-69920000D01*
X157000000Y-70210000D02*
X161000000Y-70210000D01*
X161990000Y-68540000D02*
X160990000Y-68540000D01*
X160990000Y-68540000D02*
X160990000Y-66000000D01*
X160990000Y-66000000D02*
X161990000Y-66000000D01*
X160990000Y-68540000D02*
X160460000Y-68290000D01*
X160460000Y-68290000D02*
X160460000Y-66250000D01*
X160460000Y-66250000D02*
X160990000Y-66000000D01*
X161990000Y-68290000D02*
X160990000Y-68290000D01*
X161990000Y-66250000D02*
X160990000Y-66250000D01*
X155970000Y-69340000D02*
X156570000Y-69340000D01*
X156570000Y-69340000D02*
X156570000Y-67740000D01*
X156570000Y-67740000D02*
X155970000Y-67740000D01*
X155970000Y-66800000D02*
X156570000Y-66800000D01*
X156570000Y-66800000D02*
X156570000Y-65200000D01*
X156570000Y-65200000D02*
X155970000Y-65200000D01*
X122110000Y-83178922D02*
X122110000Y-83696078D01*
X120690000Y-83178922D02*
X120690000Y-83696078D01*
D10*
X145794642Y-97302380D02*
X145461309Y-96826190D01*
X145223214Y-97302380D02*
X145223214Y-96302380D01*
X145604166Y-96302380D01*
X145699404Y-96350000D01*
X145747023Y-96397619D01*
X145794642Y-96492857D01*
X145794642Y-96635714D01*
X145747023Y-96730952D01*
X145699404Y-96778571D01*
X145604166Y-96826190D01*
X145223214Y-96826190D01*
X146747023Y-97302380D02*
X146175595Y-97302380D01*
X146461309Y-97302380D02*
X146461309Y-96302380D01*
X146366071Y-96445238D01*
X146270833Y-96540476D01*
X146175595Y-96588095D01*
X147699404Y-97302380D02*
X147127976Y-97302380D01*
X147413690Y-97302380D02*
X147413690Y-96302380D01*
X147318452Y-96445238D01*
X147223214Y-96540476D01*
X147127976Y-96588095D01*
X145794642Y-99302380D02*
X145461309Y-98826190D01*
X145223214Y-99302380D02*
X145223214Y-98302380D01*
X145604166Y-98302380D01*
X145699404Y-98350000D01*
X145747023Y-98397619D01*
X145794642Y-98492857D01*
X145794642Y-98635714D01*
X145747023Y-98730952D01*
X145699404Y-98778571D01*
X145604166Y-98826190D01*
X145223214Y-98826190D01*
X146747023Y-99302380D02*
X146175595Y-99302380D01*
X146461309Y-99302380D02*
X146461309Y-98302380D01*
X146366071Y-98445238D01*
X146270833Y-98540476D01*
X146175595Y-98588095D01*
X147366071Y-98302380D02*
X147461309Y-98302380D01*
X147556547Y-98350000D01*
X147604166Y-98397619D01*
X147651785Y-98492857D01*
X147699404Y-98683333D01*
X147699404Y-98921428D01*
X147651785Y-99111904D01*
X147604166Y-99207142D01*
X147556547Y-99254761D01*
X147461309Y-99302380D01*
X147366071Y-99302380D01*
X147270833Y-99254761D01*
X147223214Y-99207142D01*
X147175595Y-99111904D01*
X147127976Y-98921428D01*
X147127976Y-98683333D01*
X147175595Y-98492857D01*
X147223214Y-98397619D01*
X147270833Y-98350000D01*
X147366071Y-98302380D01*
D13*
X146086666Y-129994523D02*
X146086666Y-130901666D01*
X146026190Y-131083095D01*
X145905238Y-131204047D01*
X145723809Y-131264523D01*
X145602857Y-131264523D01*
X146872857Y-130538809D02*
X146751904Y-130478333D01*
X146691428Y-130417857D01*
X146630952Y-130296904D01*
X146630952Y-130236428D01*
X146691428Y-130115476D01*
X146751904Y-130055000D01*
X146872857Y-129994523D01*
X147114761Y-129994523D01*
X147235714Y-130055000D01*
X147296190Y-130115476D01*
X147356666Y-130236428D01*
X147356666Y-130296904D01*
X147296190Y-130417857D01*
X147235714Y-130478333D01*
X147114761Y-130538809D01*
X146872857Y-130538809D01*
X146751904Y-130599285D01*
X146691428Y-130659761D01*
X146630952Y-130780714D01*
X146630952Y-131022619D01*
X146691428Y-131143571D01*
X146751904Y-131204047D01*
X146872857Y-131264523D01*
X147114761Y-131264523D01*
X147235714Y-131204047D01*
X147296190Y-131143571D01*
X147356666Y-131022619D01*
X147356666Y-130780714D01*
X147296190Y-130659761D01*
X147235714Y-130599285D01*
X147114761Y-130538809D01*
D10*
X110402380Y-90880357D02*
X109926190Y-91213690D01*
X110402380Y-91451785D02*
X109402380Y-91451785D01*
X109402380Y-91070833D01*
X109450000Y-90975595D01*
X109497619Y-90927976D01*
X109592857Y-90880357D01*
X109735714Y-90880357D01*
X109830952Y-90927976D01*
X109878571Y-90975595D01*
X109926190Y-91070833D01*
X109926190Y-91451785D01*
X110402380Y-89927976D02*
X110402380Y-90499404D01*
X110402380Y-90213690D02*
X109402380Y-90213690D01*
X109545238Y-90308928D01*
X109640476Y-90404166D01*
X109688095Y-90499404D01*
X109830952Y-89356547D02*
X109783333Y-89451785D01*
X109735714Y-89499404D01*
X109640476Y-89547023D01*
X109592857Y-89547023D01*
X109497619Y-89499404D01*
X109450000Y-89451785D01*
X109402380Y-89356547D01*
X109402380Y-89166071D01*
X109450000Y-89070833D01*
X109497619Y-89023214D01*
X109592857Y-88975595D01*
X109640476Y-88975595D01*
X109735714Y-89023214D01*
X109783333Y-89070833D01*
X109830952Y-89166071D01*
X109830952Y-89356547D01*
X109878571Y-89451785D01*
X109926190Y-89499404D01*
X110021428Y-89547023D01*
X110211904Y-89547023D01*
X110307142Y-89499404D01*
X110354761Y-89451785D01*
X110402380Y-89356547D01*
X110402380Y-89166071D01*
X110354761Y-89070833D01*
X110307142Y-89023214D01*
X110211904Y-88975595D01*
X110021428Y-88975595D01*
X109926190Y-89023214D01*
X109878571Y-89070833D01*
X109830952Y-89166071D01*
X122313095Y-93927380D02*
X122313095Y-94736904D01*
X122360714Y-94832142D01*
X122408333Y-94879761D01*
X122503571Y-94927380D01*
X122694047Y-94927380D01*
X122789285Y-94879761D01*
X122836904Y-94832142D01*
X122884523Y-94736904D01*
X122884523Y-93927380D01*
X123836904Y-93927380D02*
X123360714Y-93927380D01*
X123313095Y-94403571D01*
X123360714Y-94355952D01*
X123455952Y-94308333D01*
X123694047Y-94308333D01*
X123789285Y-94355952D01*
X123836904Y-94403571D01*
X123884523Y-94498809D01*
X123884523Y-94736904D01*
X123836904Y-94832142D01*
X123789285Y-94879761D01*
X123694047Y-94927380D01*
X123455952Y-94927380D01*
X123360714Y-94879761D01*
X123313095Y-94832142D01*
X124152380Y-121761904D02*
X124961904Y-121761904D01*
X125057142Y-121714285D01*
X125104761Y-121666666D01*
X125152380Y-121571428D01*
X125152380Y-121380952D01*
X125104761Y-121285714D01*
X125057142Y-121238095D01*
X124961904Y-121190476D01*
X124152380Y-121190476D01*
X124247619Y-120761904D02*
X124200000Y-120714285D01*
X124152380Y-120619047D01*
X124152380Y-120380952D01*
X124200000Y-120285714D01*
X124247619Y-120238095D01*
X124342857Y-120190476D01*
X124438095Y-120190476D01*
X124580952Y-120238095D01*
X125152380Y-120809523D01*
X125152380Y-120190476D01*
X154232380Y-93643333D02*
X154946666Y-93643333D01*
X155089523Y-93690952D01*
X155184761Y-93786190D01*
X155232380Y-93929047D01*
X155232380Y-94024285D01*
X154232380Y-93262380D02*
X154232380Y-92595714D01*
X155232380Y-93024285D01*
X152332380Y-118143333D02*
X153046666Y-118143333D01*
X153189523Y-118190952D01*
X153284761Y-118286190D01*
X153332380Y-118429047D01*
X153332380Y-118524285D01*
X152332380Y-117238571D02*
X152332380Y-117429047D01*
X152380000Y-117524285D01*
X152427619Y-117571904D01*
X152570476Y-117667142D01*
X152760952Y-117714761D01*
X153141904Y-117714761D01*
X153237142Y-117667142D01*
X153284761Y-117619523D01*
X153332380Y-117524285D01*
X153332380Y-117333809D01*
X153284761Y-117238571D01*
X153237142Y-117190952D01*
X153141904Y-117143333D01*
X152903809Y-117143333D01*
X152808571Y-117190952D01*
X152760952Y-117238571D01*
X152713333Y-117333809D01*
X152713333Y-117524285D01*
X152760952Y-117619523D01*
X152808571Y-117667142D01*
X152903809Y-117714761D01*
D13*
X108386666Y-130114523D02*
X108386666Y-131021666D01*
X108326190Y-131203095D01*
X108205238Y-131324047D01*
X108023809Y-131384523D01*
X107902857Y-131384523D01*
X109596190Y-130114523D02*
X108991428Y-130114523D01*
X108930952Y-130719285D01*
X108991428Y-130658809D01*
X109112380Y-130598333D01*
X109414761Y-130598333D01*
X109535714Y-130658809D01*
X109596190Y-130719285D01*
X109656666Y-130840238D01*
X109656666Y-131142619D01*
X109596190Y-131263571D01*
X109535714Y-131324047D01*
X109414761Y-131384523D01*
X109112380Y-131384523D01*
X108991428Y-131324047D01*
X108930952Y-131263571D01*
X108266666Y-117114523D02*
X108266666Y-118021666D01*
X108206190Y-118203095D01*
X108085238Y-118324047D01*
X107903809Y-118384523D01*
X107782857Y-118384523D01*
X109415714Y-117537857D02*
X109415714Y-118384523D01*
X109113333Y-117054047D02*
X108810952Y-117961190D01*
X109597142Y-117961190D01*
D10*
X146270833Y-98507142D02*
X146223214Y-98554761D01*
X146080357Y-98602380D01*
X145985119Y-98602380D01*
X145842261Y-98554761D01*
X145747023Y-98459523D01*
X145699404Y-98364285D01*
X145651785Y-98173809D01*
X145651785Y-98030952D01*
X145699404Y-97840476D01*
X145747023Y-97745238D01*
X145842261Y-97650000D01*
X145985119Y-97602380D01*
X146080357Y-97602380D01*
X146223214Y-97650000D01*
X146270833Y-97697619D01*
X146604166Y-97602380D02*
X147223214Y-97602380D01*
X146889880Y-97983333D01*
X147032738Y-97983333D01*
X147127976Y-98030952D01*
X147175595Y-98078571D01*
X147223214Y-98173809D01*
X147223214Y-98411904D01*
X147175595Y-98507142D01*
X147127976Y-98554761D01*
X147032738Y-98602380D01*
X146747023Y-98602380D01*
X146651785Y-98554761D01*
X146604166Y-98507142D01*
X136370833Y-93407142D02*
X136323214Y-93454761D01*
X136180357Y-93502380D01*
X136085119Y-93502380D01*
X135942261Y-93454761D01*
X135847023Y-93359523D01*
X135799404Y-93264285D01*
X135751785Y-93073809D01*
X135751785Y-92930952D01*
X135799404Y-92740476D01*
X135847023Y-92645238D01*
X135942261Y-92550000D01*
X136085119Y-92502380D01*
X136180357Y-92502380D01*
X136323214Y-92550000D01*
X136370833Y-92597619D01*
X137323214Y-93502380D02*
X136751785Y-93502380D01*
X137037500Y-93502380D02*
X137037500Y-92502380D01*
X136942261Y-92645238D01*
X136847023Y-92740476D01*
X136751785Y-92788095D01*
X134113095Y-73587380D02*
X134113095Y-74396904D01*
X134160714Y-74492142D01*
X134208333Y-74539761D01*
X134303571Y-74587380D01*
X134494047Y-74587380D01*
X134589285Y-74539761D01*
X134636904Y-74492142D01*
X134684523Y-74396904D01*
X134684523Y-73587380D01*
X135065476Y-73587380D02*
X135732142Y-73587380D01*
X135303571Y-74587380D01*
X104666666Y-95844761D02*
X104809523Y-95892380D01*
X105047619Y-95892380D01*
X105142857Y-95844761D01*
X105190476Y-95797142D01*
X105238095Y-95701904D01*
X105238095Y-95606666D01*
X105190476Y-95511428D01*
X105142857Y-95463809D01*
X105047619Y-95416190D01*
X104857142Y-95368571D01*
X104761904Y-95320952D01*
X104714285Y-95273333D01*
X104666666Y-95178095D01*
X104666666Y-95082857D01*
X104714285Y-94987619D01*
X104761904Y-94940000D01*
X104857142Y-94892380D01*
X105095238Y-94892380D01*
X105238095Y-94940000D01*
X105571428Y-94892380D02*
X105809523Y-95892380D01*
X106000000Y-95178095D01*
X106190476Y-95892380D01*
X106428571Y-94892380D01*
X106761904Y-94987619D02*
X106809523Y-94940000D01*
X106904761Y-94892380D01*
X107142857Y-94892380D01*
X107238095Y-94940000D01*
X107285714Y-94987619D01*
X107333333Y-95082857D01*
X107333333Y-95178095D01*
X107285714Y-95320952D01*
X106714285Y-95892380D01*
X107333333Y-95892380D01*
X104666666Y-88844761D02*
X104809523Y-88892380D01*
X105047619Y-88892380D01*
X105142857Y-88844761D01*
X105190476Y-88797142D01*
X105238095Y-88701904D01*
X105238095Y-88606666D01*
X105190476Y-88511428D01*
X105142857Y-88463809D01*
X105047619Y-88416190D01*
X104857142Y-88368571D01*
X104761904Y-88320952D01*
X104714285Y-88273333D01*
X104666666Y-88178095D01*
X104666666Y-88082857D01*
X104714285Y-87987619D01*
X104761904Y-87940000D01*
X104857142Y-87892380D01*
X105095238Y-87892380D01*
X105238095Y-87940000D01*
X105571428Y-87892380D02*
X105809523Y-88892380D01*
X106000000Y-88178095D01*
X106190476Y-88892380D01*
X106428571Y-87892380D01*
X107333333Y-88892380D02*
X106761904Y-88892380D01*
X107047619Y-88892380D02*
X107047619Y-87892380D01*
X106952380Y-88035238D01*
X106857142Y-88130476D01*
X106761904Y-88178095D01*
X113702380Y-81880357D02*
X113226190Y-82213690D01*
X113702380Y-82451785D02*
X112702380Y-82451785D01*
X112702380Y-82070833D01*
X112750000Y-81975595D01*
X112797619Y-81927976D01*
X112892857Y-81880357D01*
X113035714Y-81880357D01*
X113130952Y-81927976D01*
X113178571Y-81975595D01*
X113226190Y-82070833D01*
X113226190Y-82451785D01*
X113702380Y-80927976D02*
X113702380Y-81499404D01*
X113702380Y-81213690D02*
X112702380Y-81213690D01*
X112845238Y-81308928D01*
X112940476Y-81404166D01*
X112988095Y-81499404D01*
X112702380Y-80594642D02*
X112702380Y-79927976D01*
X113702380Y-80356547D01*
X127294642Y-83907142D02*
X127247023Y-83954761D01*
X127104166Y-84002380D01*
X127008928Y-84002380D01*
X126866071Y-83954761D01*
X126770833Y-83859523D01*
X126723214Y-83764285D01*
X126675595Y-83573809D01*
X126675595Y-83430952D01*
X126723214Y-83240476D01*
X126770833Y-83145238D01*
X126866071Y-83050000D01*
X127008928Y-83002380D01*
X127104166Y-83002380D01*
X127247023Y-83050000D01*
X127294642Y-83097619D01*
X128247023Y-84002380D02*
X127675595Y-84002380D01*
X127961309Y-84002380D02*
X127961309Y-83002380D01*
X127866071Y-83145238D01*
X127770833Y-83240476D01*
X127675595Y-83288095D01*
X128866071Y-83002380D02*
X128961309Y-83002380D01*
X129056547Y-83050000D01*
X129104166Y-83097619D01*
X129151785Y-83192857D01*
X129199404Y-83383333D01*
X129199404Y-83621428D01*
X129151785Y-83811904D01*
X129104166Y-83907142D01*
X129056547Y-83954761D01*
X128961309Y-84002380D01*
X128866071Y-84002380D01*
X128770833Y-83954761D01*
X128723214Y-83907142D01*
X128675595Y-83811904D01*
X128627976Y-83621428D01*
X128627976Y-83383333D01*
X128675595Y-83192857D01*
X128723214Y-83097619D01*
X128770833Y-83050000D01*
X128866071Y-83002380D01*
X128095833Y-93507142D02*
X128048214Y-93554761D01*
X127905357Y-93602380D01*
X127810119Y-93602380D01*
X127667261Y-93554761D01*
X127572023Y-93459523D01*
X127524404Y-93364285D01*
X127476785Y-93173809D01*
X127476785Y-93030952D01*
X127524404Y-92840476D01*
X127572023Y-92745238D01*
X127667261Y-92650000D01*
X127810119Y-92602380D01*
X127905357Y-92602380D01*
X128048214Y-92650000D01*
X128095833Y-92697619D01*
X128572023Y-93602380D02*
X128762500Y-93602380D01*
X128857738Y-93554761D01*
X128905357Y-93507142D01*
X129000595Y-93364285D01*
X129048214Y-93173809D01*
X129048214Y-92792857D01*
X129000595Y-92697619D01*
X128952976Y-92650000D01*
X128857738Y-92602380D01*
X128667261Y-92602380D01*
X128572023Y-92650000D01*
X128524404Y-92697619D01*
X128476785Y-92792857D01*
X128476785Y-93030952D01*
X128524404Y-93126190D01*
X128572023Y-93173809D01*
X128667261Y-93221428D01*
X128857738Y-93221428D01*
X128952976Y-93173809D01*
X129000595Y-93126190D01*
X129048214Y-93030952D01*
X116261904Y-94452380D02*
X116261904Y-93452380D01*
X116500000Y-93452380D01*
X116642857Y-93500000D01*
X116738095Y-93595238D01*
X116785714Y-93690476D01*
X116833333Y-93880952D01*
X116833333Y-94023809D01*
X116785714Y-94214285D01*
X116738095Y-94309523D01*
X116642857Y-94404761D01*
X116500000Y-94452380D01*
X116261904Y-94452380D01*
X117214285Y-93547619D02*
X117261904Y-93500000D01*
X117357142Y-93452380D01*
X117595238Y-93452380D01*
X117690476Y-93500000D01*
X117738095Y-93547619D01*
X117785714Y-93642857D01*
X117785714Y-93738095D01*
X117738095Y-93880952D01*
X117166666Y-94452380D01*
X117785714Y-94452380D01*
X115533333Y-101772380D02*
X115200000Y-101296190D01*
X114961904Y-101772380D02*
X114961904Y-100772380D01*
X115342857Y-100772380D01*
X115438095Y-100820000D01*
X115485714Y-100867619D01*
X115533333Y-100962857D01*
X115533333Y-101105714D01*
X115485714Y-101200952D01*
X115438095Y-101248571D01*
X115342857Y-101296190D01*
X114961904Y-101296190D01*
X116009523Y-101772380D02*
X116200000Y-101772380D01*
X116295238Y-101724761D01*
X116342857Y-101677142D01*
X116438095Y-101534285D01*
X116485714Y-101343809D01*
X116485714Y-100962857D01*
X116438095Y-100867619D01*
X116390476Y-100820000D01*
X116295238Y-100772380D01*
X116104761Y-100772380D01*
X116009523Y-100820000D01*
X115961904Y-100867619D01*
X115914285Y-100962857D01*
X115914285Y-101200952D01*
X115961904Y-101296190D01*
X116009523Y-101343809D01*
X116104761Y-101391428D01*
X116295238Y-101391428D01*
X116390476Y-101343809D01*
X116438095Y-101296190D01*
X116485714Y-101200952D01*
X121252380Y-84751904D02*
X122061904Y-84751904D01*
X122157142Y-84704285D01*
X122204761Y-84656666D01*
X122252380Y-84561428D01*
X122252380Y-84370952D01*
X122204761Y-84275714D01*
X122157142Y-84228095D01*
X122061904Y-84180476D01*
X121252380Y-84180476D01*
X122252380Y-83180476D02*
X122252380Y-83751904D01*
X122252380Y-83466190D02*
X121252380Y-83466190D01*
X121395238Y-83561428D01*
X121490476Y-83656666D01*
X121538095Y-83751904D01*
X150804761Y-68447619D02*
X150709523Y-68400000D01*
X150614285Y-68304761D01*
X150471428Y-68161904D01*
X150376190Y-68114285D01*
X150280952Y-68114285D01*
X150328571Y-68352380D02*
X150233333Y-68304761D01*
X150138095Y-68209523D01*
X150090476Y-68019047D01*
X150090476Y-67685714D01*
X150138095Y-67495238D01*
X150233333Y-67400000D01*
X150328571Y-67352380D01*
X150519047Y-67352380D01*
X150614285Y-67400000D01*
X150709523Y-67495238D01*
X150757142Y-67685714D01*
X150757142Y-68019047D01*
X150709523Y-68209523D01*
X150614285Y-68304761D01*
X150519047Y-68352380D01*
X150328571Y-68352380D01*
X151709523Y-68352380D02*
X151138095Y-68352380D01*
X151423809Y-68352380D02*
X151423809Y-67352380D01*
X151328571Y-67495238D01*
X151233333Y-67590476D01*
X151138095Y-67638095D01*
X129007142Y-64929166D02*
X129054761Y-64976785D01*
X129102380Y-65119642D01*
X129102380Y-65214880D01*
X129054761Y-65357738D01*
X128959523Y-65452976D01*
X128864285Y-65500595D01*
X128673809Y-65548214D01*
X128530952Y-65548214D01*
X128340476Y-65500595D01*
X128245238Y-65452976D01*
X128150000Y-65357738D01*
X128102380Y-65214880D01*
X128102380Y-65119642D01*
X128150000Y-64976785D01*
X128197619Y-64929166D01*
X128530952Y-64357738D02*
X128483333Y-64452976D01*
X128435714Y-64500595D01*
X128340476Y-64548214D01*
X128292857Y-64548214D01*
X128197619Y-64500595D01*
X128150000Y-64452976D01*
X128102380Y-64357738D01*
X128102380Y-64167261D01*
X128150000Y-64072023D01*
X128197619Y-64024404D01*
X128292857Y-63976785D01*
X128340476Y-63976785D01*
X128435714Y-64024404D01*
X128483333Y-64072023D01*
X128530952Y-64167261D01*
X128530952Y-64357738D01*
X128578571Y-64452976D01*
X128626190Y-64500595D01*
X128721428Y-64548214D01*
X128911904Y-64548214D01*
X129007142Y-64500595D01*
X129054761Y-64452976D01*
X129102380Y-64357738D01*
X129102380Y-64167261D01*
X129054761Y-64072023D01*
X129007142Y-64024404D01*
X128911904Y-63976785D01*
X128721428Y-63976785D01*
X128626190Y-64024404D01*
X128578571Y-64072023D01*
X128530952Y-64167261D01*
X131607142Y-80004166D02*
X131654761Y-80051785D01*
X131702380Y-80194642D01*
X131702380Y-80289880D01*
X131654761Y-80432738D01*
X131559523Y-80527976D01*
X131464285Y-80575595D01*
X131273809Y-80623214D01*
X131130952Y-80623214D01*
X130940476Y-80575595D01*
X130845238Y-80527976D01*
X130750000Y-80432738D01*
X130702380Y-80289880D01*
X130702380Y-80194642D01*
X130750000Y-80051785D01*
X130797619Y-80004166D01*
X130702380Y-79670833D02*
X130702380Y-79004166D01*
X131702380Y-79432738D01*
X115895833Y-76507142D02*
X115848214Y-76554761D01*
X115705357Y-76602380D01*
X115610119Y-76602380D01*
X115467261Y-76554761D01*
X115372023Y-76459523D01*
X115324404Y-76364285D01*
X115276785Y-76173809D01*
X115276785Y-76030952D01*
X115324404Y-75840476D01*
X115372023Y-75745238D01*
X115467261Y-75650000D01*
X115610119Y-75602380D01*
X115705357Y-75602380D01*
X115848214Y-75650000D01*
X115895833Y-75697619D01*
X116752976Y-75602380D02*
X116562500Y-75602380D01*
X116467261Y-75650000D01*
X116419642Y-75697619D01*
X116324404Y-75840476D01*
X116276785Y-76030952D01*
X116276785Y-76411904D01*
X116324404Y-76507142D01*
X116372023Y-76554761D01*
X116467261Y-76602380D01*
X116657738Y-76602380D01*
X116752976Y-76554761D01*
X116800595Y-76507142D01*
X116848214Y-76411904D01*
X116848214Y-76173809D01*
X116800595Y-76078571D01*
X116752976Y-76030952D01*
X116657738Y-75983333D01*
X116467261Y-75983333D01*
X116372023Y-76030952D01*
X116324404Y-76078571D01*
X116276785Y-76173809D01*
X105696666Y-68937380D02*
X105696666Y-69651666D01*
X105649047Y-69794523D01*
X105553809Y-69889761D01*
X105410952Y-69937380D01*
X105315714Y-69937380D01*
X106077619Y-68937380D02*
X106696666Y-68937380D01*
X106363333Y-69318333D01*
X106506190Y-69318333D01*
X106601428Y-69365952D01*
X106649047Y-69413571D01*
X106696666Y-69508809D01*
X106696666Y-69746904D01*
X106649047Y-69842142D01*
X106601428Y-69889761D01*
X106506190Y-69937380D01*
X106220476Y-69937380D01*
X106125238Y-69889761D01*
X106077619Y-69842142D01*
X103770833Y-73007142D02*
X103723214Y-73054761D01*
X103580357Y-73102380D01*
X103485119Y-73102380D01*
X103342261Y-73054761D01*
X103247023Y-72959523D01*
X103199404Y-72864285D01*
X103151785Y-72673809D01*
X103151785Y-72530952D01*
X103199404Y-72340476D01*
X103247023Y-72245238D01*
X103342261Y-72150000D01*
X103485119Y-72102380D01*
X103580357Y-72102380D01*
X103723214Y-72150000D01*
X103770833Y-72197619D01*
X104675595Y-72102380D02*
X104199404Y-72102380D01*
X104151785Y-72578571D01*
X104199404Y-72530952D01*
X104294642Y-72483333D01*
X104532738Y-72483333D01*
X104627976Y-72530952D01*
X104675595Y-72578571D01*
X104723214Y-72673809D01*
X104723214Y-72911904D01*
X104675595Y-73007142D01*
X104627976Y-73054761D01*
X104532738Y-73102380D01*
X104294642Y-73102380D01*
X104199404Y-73054761D01*
X104151785Y-73007142D01*
X148741904Y-83822380D02*
X148741904Y-82822380D01*
X148980000Y-82822380D01*
X149122857Y-82870000D01*
X149218095Y-82965238D01*
X149265714Y-83060476D01*
X149313333Y-83250952D01*
X149313333Y-83393809D01*
X149265714Y-83584285D01*
X149218095Y-83679523D01*
X149122857Y-83774761D01*
X148980000Y-83822380D01*
X148741904Y-83822380D01*
X150265714Y-83822380D02*
X149694285Y-83822380D01*
X149980000Y-83822380D02*
X149980000Y-82822380D01*
X149884761Y-82965238D01*
X149789523Y-83060476D01*
X149694285Y-83108095D01*
X123238095Y-67572380D02*
X123238095Y-68381904D01*
X123285714Y-68477142D01*
X123333333Y-68524761D01*
X123428571Y-68572380D01*
X123619047Y-68572380D01*
X123714285Y-68524761D01*
X123761904Y-68477142D01*
X123809523Y-68381904D01*
X123809523Y-67572380D01*
X124190476Y-67572380D02*
X124809523Y-67572380D01*
X124476190Y-67953333D01*
X124619047Y-67953333D01*
X124714285Y-68000952D01*
X124761904Y-68048571D01*
X124809523Y-68143809D01*
X124809523Y-68381904D01*
X124761904Y-68477142D01*
X124714285Y-68524761D01*
X124619047Y-68572380D01*
X124333333Y-68572380D01*
X124238095Y-68524761D01*
X124190476Y-68477142D01*
X156482380Y-77449166D02*
X156006190Y-77782500D01*
X156482380Y-78020595D02*
X155482380Y-78020595D01*
X155482380Y-77639642D01*
X155530000Y-77544404D01*
X155577619Y-77496785D01*
X155672857Y-77449166D01*
X155815714Y-77449166D01*
X155910952Y-77496785D01*
X155958571Y-77544404D01*
X156006190Y-77639642D01*
X156006190Y-78020595D01*
X155910952Y-76877738D02*
X155863333Y-76972976D01*
X155815714Y-77020595D01*
X155720476Y-77068214D01*
X155672857Y-77068214D01*
X155577619Y-77020595D01*
X155530000Y-76972976D01*
X155482380Y-76877738D01*
X155482380Y-76687261D01*
X155530000Y-76592023D01*
X155577619Y-76544404D01*
X155672857Y-76496785D01*
X155720476Y-76496785D01*
X155815714Y-76544404D01*
X155863333Y-76592023D01*
X155910952Y-76687261D01*
X155910952Y-76877738D01*
X155958571Y-76972976D01*
X156006190Y-77020595D01*
X156101428Y-77068214D01*
X156291904Y-77068214D01*
X156387142Y-77020595D01*
X156434761Y-76972976D01*
X156482380Y-76877738D01*
X156482380Y-76687261D01*
X156434761Y-76592023D01*
X156387142Y-76544404D01*
X156291904Y-76496785D01*
X156101428Y-76496785D01*
X156006190Y-76544404D01*
X155958571Y-76592023D01*
X155910952Y-76687261D01*
X156482380Y-80949166D02*
X156006190Y-81282500D01*
X156482380Y-81520595D02*
X155482380Y-81520595D01*
X155482380Y-81139642D01*
X155530000Y-81044404D01*
X155577619Y-80996785D01*
X155672857Y-80949166D01*
X155815714Y-80949166D01*
X155910952Y-80996785D01*
X155958571Y-81044404D01*
X156006190Y-81139642D01*
X156006190Y-81520595D01*
X155482380Y-80615833D02*
X155482380Y-79949166D01*
X156482380Y-80377738D01*
X154482380Y-80924166D02*
X154006190Y-81257500D01*
X154482380Y-81495595D02*
X153482380Y-81495595D01*
X153482380Y-81114642D01*
X153530000Y-81019404D01*
X153577619Y-80971785D01*
X153672857Y-80924166D01*
X153815714Y-80924166D01*
X153910952Y-80971785D01*
X153958571Y-81019404D01*
X154006190Y-81114642D01*
X154006190Y-81495595D01*
X153482380Y-80067023D02*
X153482380Y-80257500D01*
X153530000Y-80352738D01*
X153577619Y-80400357D01*
X153720476Y-80495595D01*
X153910952Y-80543214D01*
X154291904Y-80543214D01*
X154387142Y-80495595D01*
X154434761Y-80447976D01*
X154482380Y-80352738D01*
X154482380Y-80162261D01*
X154434761Y-80067023D01*
X154387142Y-80019404D01*
X154291904Y-79971785D01*
X154053809Y-79971785D01*
X153958571Y-80019404D01*
X153910952Y-80067023D01*
X153863333Y-80162261D01*
X153863333Y-80352738D01*
X153910952Y-80447976D01*
X153958571Y-80495595D01*
X154053809Y-80543214D01*
X125002380Y-64929166D02*
X124526190Y-65262500D01*
X125002380Y-65500595D02*
X124002380Y-65500595D01*
X124002380Y-65119642D01*
X124050000Y-65024404D01*
X124097619Y-64976785D01*
X124192857Y-64929166D01*
X124335714Y-64929166D01*
X124430952Y-64976785D01*
X124478571Y-65024404D01*
X124526190Y-65119642D01*
X124526190Y-65500595D01*
X124002380Y-64024404D02*
X124002380Y-64500595D01*
X124478571Y-64548214D01*
X124430952Y-64500595D01*
X124383333Y-64405357D01*
X124383333Y-64167261D01*
X124430952Y-64072023D01*
X124478571Y-64024404D01*
X124573809Y-63976785D01*
X124811904Y-63976785D01*
X124907142Y-64024404D01*
X124954761Y-64072023D01*
X125002380Y-64167261D01*
X125002380Y-64405357D01*
X124954761Y-64500595D01*
X124907142Y-64548214D01*
X127102380Y-64929166D02*
X126626190Y-65262500D01*
X127102380Y-65500595D02*
X126102380Y-65500595D01*
X126102380Y-65119642D01*
X126150000Y-65024404D01*
X126197619Y-64976785D01*
X126292857Y-64929166D01*
X126435714Y-64929166D01*
X126530952Y-64976785D01*
X126578571Y-65024404D01*
X126626190Y-65119642D01*
X126626190Y-65500595D01*
X126435714Y-64072023D02*
X127102380Y-64072023D01*
X126054761Y-64310119D02*
X126769047Y-64548214D01*
X126769047Y-63929166D01*
X120895833Y-69102380D02*
X120562500Y-68626190D01*
X120324404Y-69102380D02*
X120324404Y-68102380D01*
X120705357Y-68102380D01*
X120800595Y-68150000D01*
X120848214Y-68197619D01*
X120895833Y-68292857D01*
X120895833Y-68435714D01*
X120848214Y-68530952D01*
X120800595Y-68578571D01*
X120705357Y-68626190D01*
X120324404Y-68626190D01*
X121229166Y-68102380D02*
X121848214Y-68102380D01*
X121514880Y-68483333D01*
X121657738Y-68483333D01*
X121752976Y-68530952D01*
X121800595Y-68578571D01*
X121848214Y-68673809D01*
X121848214Y-68911904D01*
X121800595Y-69007142D01*
X121752976Y-69054761D01*
X121657738Y-69102380D01*
X121372023Y-69102380D01*
X121276785Y-69054761D01*
X121229166Y-69007142D01*
X115833333Y-78602380D02*
X115500000Y-78126190D01*
X115261904Y-78602380D02*
X115261904Y-77602380D01*
X115642857Y-77602380D01*
X115738095Y-77650000D01*
X115785714Y-77697619D01*
X115833333Y-77792857D01*
X115833333Y-77935714D01*
X115785714Y-78030952D01*
X115738095Y-78078571D01*
X115642857Y-78126190D01*
X115261904Y-78126190D01*
X116214285Y-77697619D02*
X116261904Y-77650000D01*
X116357142Y-77602380D01*
X116595238Y-77602380D01*
X116690476Y-77650000D01*
X116738095Y-77697619D01*
X116785714Y-77792857D01*
X116785714Y-77888095D01*
X116738095Y-78030952D01*
X116166666Y-78602380D01*
X116785714Y-78602380D01*
X115770833Y-77302380D02*
X115437500Y-76826190D01*
X115199404Y-77302380D02*
X115199404Y-76302380D01*
X115580357Y-76302380D01*
X115675595Y-76350000D01*
X115723214Y-76397619D01*
X115770833Y-76492857D01*
X115770833Y-76635714D01*
X115723214Y-76730952D01*
X115675595Y-76778571D01*
X115580357Y-76826190D01*
X115199404Y-76826190D01*
X116723214Y-77302380D02*
X116151785Y-77302380D01*
X116437500Y-77302380D02*
X116437500Y-76302380D01*
X116342261Y-76445238D01*
X116247023Y-76540476D01*
X116151785Y-76588095D01*
X154212380Y-78443333D02*
X154926666Y-78443333D01*
X155069523Y-78490952D01*
X155164761Y-78586190D01*
X155212380Y-78729047D01*
X155212380Y-78824285D01*
X154307619Y-78014761D02*
X154260000Y-77967142D01*
X154212380Y-77871904D01*
X154212380Y-77633809D01*
X154260000Y-77538571D01*
X154307619Y-77490952D01*
X154402857Y-77443333D01*
X154498095Y-77443333D01*
X154640952Y-77490952D01*
X155212380Y-78062380D01*
X155212380Y-77443333D01*
X154332380Y-67603333D02*
X155046666Y-67603333D01*
X155189523Y-67650952D01*
X155284761Y-67746190D01*
X155332380Y-67889047D01*
X155332380Y-67984285D01*
X155332380Y-66603333D02*
X155332380Y-67174761D01*
X155332380Y-66889047D02*
X154332380Y-66889047D01*
X154475238Y-66984285D01*
X154570476Y-67079523D01*
X154618095Y-67174761D01*
X123407142Y-83604166D02*
X123454761Y-83651785D01*
X123502380Y-83794642D01*
X123502380Y-83889880D01*
X123454761Y-84032738D01*
X123359523Y-84127976D01*
X123264285Y-84175595D01*
X123073809Y-84223214D01*
X122930952Y-84223214D01*
X122740476Y-84175595D01*
X122645238Y-84127976D01*
X122550000Y-84032738D01*
X122502380Y-83889880D01*
X122502380Y-83794642D01*
X122550000Y-83651785D01*
X122597619Y-83604166D01*
X122597619Y-83223214D02*
X122550000Y-83175595D01*
X122502380Y-83080357D01*
X122502380Y-82842261D01*
X122550000Y-82747023D01*
X122597619Y-82699404D01*
X122692857Y-82651785D01*
X122788095Y-82651785D01*
X122930952Y-82699404D01*
X123502380Y-83270833D01*
X123502380Y-82651785D01*
M02*
