M48
; DRILL file {KiCad (5.1.6)-1} date 10/31/20 14:21:43
; FORMAT={-:-/ absolute / inch / decimal}
; #@! TF.CreationDate,2020-10-31T14:21:43+01:00
; #@! TF.GenerationSoftware,Kicad,Pcbnew,(5.1.6)-1
; #@! TF.FileFunction,Plated,1,2,PTH
FMAT,2
INCH
T1C0.0157
T2C0.0197
T3C0.0315
T4C0.0469
T5C0.0472
T6C0.0659
T7C0.0787
T8C0.1181
%
G90
G05
T1
X4.0709Y-3.3268
X4.1772Y-2.622
X4.1772Y-2.6693
X4.3976Y-3.7244
X4.4488Y-3.1024
X4.5984Y-3.3346
X4.6654Y-2.7283
X4.7756Y-3.0
X4.9409Y-2.8346
X4.9606Y-2.9134
X4.9724Y-3.1575
X4.9764Y-2.811
X5.0512Y-2.6339
X5.0551Y-3.2638
X5.1535Y-2.8976
X5.252Y-2.8976
X5.3307Y-3.6693
X5.3346Y-2.9488
X5.3976Y-2.6142
X5.4567Y-3.1811
X5.5906Y-3.7598
X5.7874Y-2.874
T2
X4.6437Y-4.4882
X4.6437Y-4.5406
X4.6437Y-4.5933
X4.6437Y-4.6457
X4.6437Y-4.8819
X4.6437Y-4.9343
X4.6437Y-4.987
X4.6437Y-5.0394
X4.6591Y-4.4409
X4.6591Y-4.6929
X4.6591Y-4.8346
X4.6591Y-5.0866
X4.6996Y-4.4114
X4.6996Y-4.7224
X4.6996Y-4.8051
X4.6996Y-5.1161
X4.7492Y-4.4114
X4.7492Y-4.7224
X4.7492Y-4.8051
X4.7492Y-5.1161
X4.7898Y-4.4409
X4.7898Y-4.6929
X4.7898Y-4.8346
X4.7898Y-5.0866
X4.8051Y-4.4882
X4.8051Y-4.5406
X4.8051Y-4.5933
X4.8051Y-4.6457
X4.8051Y-4.8819
X4.8051Y-4.9343
X4.8051Y-4.987
X4.8051Y-5.0394
T3
X4.9756Y-2.4197
X5.0756Y-2.4197
X5.1756Y-2.4197
X5.2756Y-2.4197
X5.5669Y-4.6886
X5.5669Y-4.7638
X5.5669Y-4.839
T4
X6.2559Y-3.5236
X6.2559Y-3.6236
X6.2559Y-3.7236
X6.2559Y-3.8236
X6.1811Y-4.4882
X6.1811Y-4.5882
X6.1811Y-4.6882
X6.1811Y-4.7882
T5
X6.2598Y-2.5984
X6.2598Y-2.6984
X6.2551Y-2.9252
X6.2551Y-3.0252
X6.2551Y-3.1252
X6.2551Y-3.2252
T6
X4.1291Y-4.4882
X4.1291Y-4.7882
X4.2291Y-4.4882
X4.2291Y-4.7882
X4.3291Y-4.4882
X4.3291Y-4.7882
X4.4291Y-4.4882
X4.4291Y-4.7882
X4.1339Y-5.0
X4.1339Y-5.3
X4.2339Y-5.0
X4.2339Y-5.3
X4.3339Y-5.0
X4.3339Y-5.3
X4.4339Y-5.0
X4.4339Y-5.3
X5.6181Y-4.9953
X5.6181Y-5.2953
X5.7181Y-4.9953
X5.7181Y-5.2953
X5.8181Y-4.9953
X5.8181Y-5.2953
X5.9181Y-4.9953
X5.9181Y-5.2953
T8
X4.5276Y-2.4803
X4.5276Y-3.5811
X5.7268Y-2.4803
X5.7268Y-3.5811
T7
G00X4.7244Y-4.6457
M15
G01X4.7244Y-4.4882
M16
G05
G00X4.7244Y-5.0394
M15
G01X4.7244Y-4.8819
M16
G05
T0
M30
