G04 #@! TF.GenerationSoftware,KiCad,Pcbnew,(5.1.6)-1*
G04 #@! TF.CreationDate,2020-10-31T14:21:40+01:00*
G04 #@! TF.ProjectId,Batmonitor,4261746d-6f6e-4697-946f-722e6b696361,rev?*
G04 #@! TF.SameCoordinates,Original*
G04 #@! TF.FileFunction,Copper,L2,Bot*
G04 #@! TF.FilePolarity,Positive*
%FSLAX46Y46*%
G04 Gerber Fmt 4.6, Leading zero omitted, Abs format (unit mm)*
G04 Created by KiCad (PCBNEW (5.1.6)-1) date 2020-10-31 14:21:40*
%MOMM*%
%LPD*%
G01*
G04 APERTURE LIST*
G04 #@! TA.AperFunction,ComponentPad*
%ADD10C,1.700000*%
G04 #@! TD*
G04 #@! TA.AperFunction,ComponentPad*
%ADD11C,4.000000*%
G04 #@! TD*
G04 #@! TA.AperFunction,ComponentPad*
%ADD12C,2.300000*%
G04 #@! TD*
G04 #@! TA.AperFunction,ComponentPad*
%ADD13O,6.000000X9.000000*%
G04 #@! TD*
G04 #@! TA.AperFunction,ComponentPad*
%ADD14R,1.500000X1.500000*%
G04 #@! TD*
G04 #@! TA.AperFunction,ComponentPad*
%ADD15C,1.500000*%
G04 #@! TD*
G04 #@! TA.AperFunction,ComponentPad*
%ADD16C,0.800000*%
G04 #@! TD*
G04 #@! TA.AperFunction,ComponentPad*
%ADD17O,2.190000X1.740000*%
G04 #@! TD*
G04 #@! TA.AperFunction,ComponentPad*
%ADD18O,2.200000X1.740000*%
G04 #@! TD*
G04 #@! TA.AperFunction,ViaPad*
%ADD19C,0.800000*%
G04 #@! TD*
G04 #@! TA.AperFunction,Conductor*
%ADD20C,1.000000*%
G04 #@! TD*
G04 #@! TA.AperFunction,Conductor*
%ADD21C,0.250000*%
G04 #@! TD*
G04 #@! TA.AperFunction,Conductor*
%ADD22C,0.500000*%
G04 #@! TD*
G04 #@! TA.AperFunction,Conductor*
%ADD23C,0.254000*%
G04 #@! TD*
G04 APERTURE END LIST*
D10*
X134000000Y-61460000D03*
X131460000Y-61460000D03*
X128920000Y-61460000D03*
X126380000Y-61460000D03*
D11*
X145460000Y-63000000D03*
X115000000Y-63000000D03*
X115000000Y-90960000D03*
X145460000Y-90960000D03*
D12*
X142700000Y-126880000D03*
X145240000Y-126880000D03*
X147780000Y-126880000D03*
X150320000Y-126880000D03*
X150320000Y-134500000D03*
X147780000Y-134500000D03*
X145240000Y-134500000D03*
X142700000Y-134500000D03*
D13*
X120000000Y-126000000D03*
X120000000Y-116000000D03*
D14*
X141400000Y-122910000D03*
D15*
X141400000Y-119090000D03*
X141400000Y-121000000D03*
G04 #@! TA.AperFunction,ComponentPad*
G36*
G01*
X119007477Y-122219047D02*
X119007477Y-122219047D01*
G75*
G02*
X119200953Y-121687477I362523J169047D01*
G01*
X119200953Y-121687477D01*
G75*
G02*
X119732523Y-121880953I169047J-362523D01*
G01*
X119732523Y-121880953D01*
G75*
G02*
X119539047Y-122412523I-362523J-169047D01*
G01*
X119539047Y-122412523D01*
G75*
G02*
X119007477Y-122219047I-169047J362523D01*
G01*
G37*
G04 #@! TD.AperFunction*
G04 #@! TA.AperFunction,ComponentPad*
G36*
G01*
X120992523Y-122219047D02*
X120992523Y-122219047D01*
G75*
G02*
X120460953Y-122412523I-362523J169047D01*
G01*
X120460953Y-122412523D01*
G75*
G02*
X120267477Y-121880953I169047J362523D01*
G01*
X120267477Y-121880953D01*
G75*
G02*
X120799047Y-121687477I362523J-169047D01*
G01*
X120799047Y-121687477D01*
G75*
G02*
X120992523Y-122219047I-169047J-362523D01*
G01*
G37*
G04 #@! TD.AperFunction*
D16*
X121660000Y-122800000D03*
X118340000Y-122800000D03*
X119370000Y-129950000D03*
X120630000Y-129950000D03*
X121660000Y-129200000D03*
X118340000Y-129200000D03*
X122050000Y-125330000D03*
X122050000Y-126670000D03*
X122050000Y-124000000D03*
X122050000Y-128000000D03*
X117950000Y-125330000D03*
X117950000Y-126670000D03*
X117950000Y-128000000D03*
X117950000Y-124000000D03*
X121660000Y-119200000D03*
X118340000Y-119200000D03*
G04 #@! TA.AperFunction,ComponentPad*
G36*
G01*
X120267477Y-120119047D02*
X120267477Y-120119047D01*
G75*
G02*
X120460953Y-119587477I362523J169047D01*
G01*
X120460953Y-119587477D01*
G75*
G02*
X120992523Y-119780953I169047J-362523D01*
G01*
X120992523Y-119780953D01*
G75*
G02*
X120799047Y-120312523I-362523J-169047D01*
G01*
X120799047Y-120312523D01*
G75*
G02*
X120267477Y-120119047I-169047J362523D01*
G01*
G37*
G04 #@! TD.AperFunction*
G04 #@! TA.AperFunction,ComponentPad*
G36*
G01*
X119732523Y-120119047D02*
X119732523Y-120119047D01*
G75*
G02*
X119200953Y-120312523I-362523J169047D01*
G01*
X119200953Y-120312523D01*
G75*
G02*
X119007477Y-119780953I169047J362523D01*
G01*
X119007477Y-119780953D01*
G75*
G02*
X119539047Y-119587477I362523J-169047D01*
G01*
X119539047Y-119587477D01*
G75*
G02*
X119732523Y-120119047I-169047J-362523D01*
G01*
G37*
G04 #@! TD.AperFunction*
X121660000Y-112800000D03*
X118340000Y-112800000D03*
X119370000Y-112050000D03*
X122050000Y-114000000D03*
X122050000Y-115330000D03*
X122050000Y-116670000D03*
X122050000Y-118000000D03*
X117950000Y-114000000D03*
X117950000Y-115330000D03*
X117950000Y-116670000D03*
X117950000Y-118000000D03*
X120630000Y-112050000D03*
D17*
X158900000Y-89500000D03*
X158900000Y-92040000D03*
X158900000Y-94580000D03*
G04 #@! TA.AperFunction,ComponentPad*
G36*
G01*
X159745001Y-97990000D02*
X158054999Y-97990000D01*
G75*
G02*
X157805000Y-97740001I0J249999D01*
G01*
X157805000Y-96499999D01*
G75*
G02*
X158054999Y-96250000I249999J0D01*
G01*
X159745001Y-96250000D01*
G75*
G02*
X159995000Y-96499999I0J-249999D01*
G01*
X159995000Y-97740001D01*
G75*
G02*
X159745001Y-97990000I-249999J0D01*
G01*
G37*
G04 #@! TD.AperFunction*
X157000000Y-114000000D03*
X157000000Y-116540000D03*
X157000000Y-119080000D03*
G04 #@! TA.AperFunction,ComponentPad*
G36*
G01*
X157845001Y-122490000D02*
X156154999Y-122490000D01*
G75*
G02*
X155905000Y-122240001I0J249999D01*
G01*
X155905000Y-120999999D01*
G75*
G02*
X156154999Y-120750000I249999J0D01*
G01*
X157845001Y-120750000D01*
G75*
G02*
X158095000Y-120999999I0J-249999D01*
G01*
X158095000Y-122240001D01*
G75*
G02*
X157845001Y-122490000I-249999J0D01*
G01*
G37*
G04 #@! TD.AperFunction*
D12*
X105000000Y-127000000D03*
X107540000Y-127000000D03*
X110080000Y-127000000D03*
X112620000Y-127000000D03*
X112620000Y-134620000D03*
X110080000Y-134620000D03*
X107540000Y-134620000D03*
X105000000Y-134620000D03*
X104880000Y-114000000D03*
X107420000Y-114000000D03*
X109960000Y-114000000D03*
X112500000Y-114000000D03*
X112500000Y-121620000D03*
X109960000Y-121620000D03*
X107420000Y-121620000D03*
X104880000Y-121620000D03*
D18*
X158880000Y-74300000D03*
X158880000Y-76840000D03*
X158880000Y-79380000D03*
G04 #@! TA.AperFunction,ComponentPad*
G36*
G01*
X159730001Y-82790000D02*
X158029999Y-82790000D01*
G75*
G02*
X157780000Y-82540001I0J249999D01*
G01*
X157780000Y-81299999D01*
G75*
G02*
X158029999Y-81050000I249999J0D01*
G01*
X159730001Y-81050000D01*
G75*
G02*
X159980000Y-81299999I0J-249999D01*
G01*
X159980000Y-82540001D01*
G75*
G02*
X159730001Y-82790000I-249999J0D01*
G01*
G37*
G04 #@! TD.AperFunction*
X159000000Y-66000000D03*
G04 #@! TA.AperFunction,ComponentPad*
G36*
G01*
X159850001Y-69410000D02*
X158149999Y-69410000D01*
G75*
G02*
X157900000Y-69160001I0J249999D01*
G01*
X157900000Y-67919999D01*
G75*
G02*
X158149999Y-67670000I249999J0D01*
G01*
X159850001Y-67670000D01*
G75*
G02*
X160100000Y-67919999I0J-249999D01*
G01*
X160100000Y-69160001D01*
G75*
G02*
X159850001Y-69410000I-249999J0D01*
G01*
G37*
G04 #@! TD.AperFunction*
D19*
X126000000Y-74000000D03*
X118500000Y-69300000D03*
X147000000Y-73000000D03*
X128300000Y-66900000D03*
X137100000Y-66400000D03*
X138600000Y-80800000D03*
X103400000Y-84500000D03*
X126300000Y-80200000D03*
X116800000Y-84700000D03*
X128400000Y-82900000D03*
X142000000Y-95500000D03*
X135500000Y-74900000D03*
X126400000Y-71400000D03*
X106100000Y-66600000D03*
X125500000Y-72000000D03*
X106100000Y-67800000D03*
X130900000Y-73600000D03*
X133400000Y-73600000D03*
X111700000Y-94600000D03*
X113000000Y-78800000D03*
X135400000Y-93200000D03*
X121300000Y-76200000D03*
D20*
X135500000Y-62960000D02*
X134000000Y-61460000D01*
X135500000Y-74900000D02*
X135500000Y-62960000D01*
D21*
X126400000Y-71400000D02*
X121600000Y-66600000D01*
X121600000Y-66600000D02*
X106100000Y-66600000D01*
X125100001Y-71600001D02*
X125100001Y-71100001D01*
X125500000Y-72000000D02*
X125100001Y-71600001D01*
X125100001Y-71100001D02*
X121800000Y-67800000D01*
X121800000Y-67800000D02*
X106100000Y-67800000D01*
X130900000Y-73600000D02*
X133400000Y-73600000D01*
X111700000Y-94600000D02*
X111700000Y-80100000D01*
X111700000Y-80100000D02*
X113000000Y-78800000D01*
D22*
X141400000Y-122910000D02*
X149090000Y-122910000D01*
X152920000Y-119080000D02*
X157000000Y-119080000D01*
X149090000Y-122910000D02*
X152920000Y-119080000D01*
D21*
X135400000Y-93200000D02*
X121300000Y-79100000D01*
X121300000Y-79100000D02*
X121300000Y-76200000D01*
D22*
X123320010Y-112679990D02*
X120000000Y-116000000D01*
X158545010Y-113453234D02*
X157771766Y-112679990D01*
X157771766Y-112679990D02*
X123320010Y-112679990D01*
X158545010Y-120074990D02*
X158545010Y-113453234D01*
X157000000Y-121620000D02*
X158545010Y-120074990D01*
X140199999Y-124379999D02*
X142700000Y-126880000D01*
X140199999Y-121139341D02*
X140199999Y-124379999D01*
X140339340Y-121000000D02*
X140199999Y-121139341D01*
X141400000Y-121000000D02*
X140339340Y-121000000D01*
X141400000Y-121000000D02*
X140000000Y-121000000D01*
X144713998Y-114000000D02*
X157000000Y-114000000D01*
X140000000Y-118713998D02*
X144713998Y-114000000D01*
X140000000Y-121000000D02*
X140000000Y-118713998D01*
X141400000Y-119090000D02*
X150910000Y-119090000D01*
X153460000Y-116540000D02*
X157000000Y-116540000D01*
X150910000Y-119090000D02*
X153460000Y-116540000D01*
D23*
G36*
X113751859Y-60664893D02*
G01*
X113320285Y-60953262D01*
X112953262Y-61320285D01*
X112664893Y-61751859D01*
X112466261Y-62231399D01*
X112365000Y-62740475D01*
X112365000Y-63259525D01*
X112466261Y-63768601D01*
X112664893Y-64248141D01*
X112953262Y-64679715D01*
X113320285Y-65046738D01*
X113751859Y-65335107D01*
X114231399Y-65533739D01*
X114740475Y-65635000D01*
X115259525Y-65635000D01*
X115768601Y-65533739D01*
X116248141Y-65335107D01*
X116679715Y-65046738D01*
X117046738Y-64679715D01*
X117335107Y-64248141D01*
X117533739Y-63768601D01*
X117635000Y-63259525D01*
X117635000Y-62740475D01*
X117533739Y-62231399D01*
X117335107Y-61751859D01*
X117046738Y-61320285D01*
X116679715Y-60953262D01*
X116248141Y-60664893D01*
X116236328Y-60660000D01*
X125128549Y-60660000D01*
X125064010Y-60756589D01*
X124952068Y-61026842D01*
X124895000Y-61313740D01*
X124895000Y-61606260D01*
X124952068Y-61893158D01*
X125064010Y-62163411D01*
X125226525Y-62406632D01*
X125433368Y-62613475D01*
X125676589Y-62775990D01*
X125946842Y-62887932D01*
X126233740Y-62945000D01*
X126526260Y-62945000D01*
X126813158Y-62887932D01*
X127083411Y-62775990D01*
X127326632Y-62613475D01*
X127533475Y-62406632D01*
X127650000Y-62232240D01*
X127766525Y-62406632D01*
X127973368Y-62613475D01*
X128216589Y-62775990D01*
X128486842Y-62887932D01*
X128773740Y-62945000D01*
X129066260Y-62945000D01*
X129353158Y-62887932D01*
X129623411Y-62775990D01*
X129866632Y-62613475D01*
X129991710Y-62488397D01*
X130611208Y-62488397D01*
X130688843Y-62737472D01*
X130952883Y-62863371D01*
X131236411Y-62935339D01*
X131528531Y-62950611D01*
X131818019Y-62908599D01*
X132093747Y-62810919D01*
X132231157Y-62737472D01*
X132308792Y-62488397D01*
X131460000Y-61639605D01*
X130611208Y-62488397D01*
X129991710Y-62488397D01*
X130073475Y-62406632D01*
X130189311Y-62233271D01*
X130431603Y-62308792D01*
X131280395Y-61460000D01*
X131266253Y-61445858D01*
X131445858Y-61266253D01*
X131460000Y-61280395D01*
X131474143Y-61266253D01*
X131653748Y-61445858D01*
X131639605Y-61460000D01*
X132488397Y-62308792D01*
X132730689Y-62233271D01*
X132846525Y-62406632D01*
X133053368Y-62613475D01*
X133296589Y-62775990D01*
X133566842Y-62887932D01*
X133853740Y-62945000D01*
X133879869Y-62945000D01*
X134365001Y-63430133D01*
X134365000Y-73225131D01*
X134317205Y-73109744D01*
X134203937Y-72940226D01*
X134059774Y-72796063D01*
X133890256Y-72682795D01*
X133701898Y-72604774D01*
X133501939Y-72565000D01*
X133298061Y-72565000D01*
X133098102Y-72604774D01*
X132909744Y-72682795D01*
X132740226Y-72796063D01*
X132696289Y-72840000D01*
X131603711Y-72840000D01*
X131559774Y-72796063D01*
X131390256Y-72682795D01*
X131201898Y-72604774D01*
X131001939Y-72565000D01*
X130798061Y-72565000D01*
X130598102Y-72604774D01*
X130409744Y-72682795D01*
X130240226Y-72796063D01*
X130096063Y-72940226D01*
X129982795Y-73109744D01*
X129904774Y-73298102D01*
X129865000Y-73498061D01*
X129865000Y-73701939D01*
X129904774Y-73901898D01*
X129982795Y-74090256D01*
X130096063Y-74259774D01*
X130240226Y-74403937D01*
X130409744Y-74517205D01*
X130598102Y-74595226D01*
X130798061Y-74635000D01*
X131001939Y-74635000D01*
X131201898Y-74595226D01*
X131390256Y-74517205D01*
X131559774Y-74403937D01*
X131603711Y-74360000D01*
X132696289Y-74360000D01*
X132740226Y-74403937D01*
X132909744Y-74517205D01*
X133098102Y-74595226D01*
X133298061Y-74635000D01*
X133501939Y-74635000D01*
X133701898Y-74595226D01*
X133890256Y-74517205D01*
X134059774Y-74403937D01*
X134203937Y-74259774D01*
X134317205Y-74090256D01*
X134365000Y-73974869D01*
X134365000Y-74955751D01*
X134381423Y-75122498D01*
X134446324Y-75336446D01*
X134551716Y-75533623D01*
X134693551Y-75706449D01*
X134866377Y-75848284D01*
X135063553Y-75953676D01*
X135277501Y-76018577D01*
X135500000Y-76040491D01*
X135722498Y-76018577D01*
X135936446Y-75953676D01*
X136133623Y-75848284D01*
X136306449Y-75706449D01*
X136448284Y-75533623D01*
X136553676Y-75336447D01*
X136618577Y-75122499D01*
X136635000Y-74955752D01*
X136635000Y-74300000D01*
X157137718Y-74300000D01*
X157166776Y-74595032D01*
X157252834Y-74878725D01*
X157392583Y-75140179D01*
X157580655Y-75369345D01*
X157809821Y-75557417D01*
X157833362Y-75570000D01*
X157809821Y-75582583D01*
X157580655Y-75770655D01*
X157392583Y-75999821D01*
X157252834Y-76261275D01*
X157166776Y-76544968D01*
X157137718Y-76840000D01*
X157166776Y-77135032D01*
X157252834Y-77418725D01*
X157392583Y-77680179D01*
X157580655Y-77909345D01*
X157809821Y-78097417D01*
X157833362Y-78110000D01*
X157809821Y-78122583D01*
X157580655Y-78310655D01*
X157392583Y-78539821D01*
X157252834Y-78801275D01*
X157166776Y-79084968D01*
X157137718Y-79380000D01*
X157166776Y-79675032D01*
X157252834Y-79958725D01*
X157392583Y-80220179D01*
X157580655Y-80449345D01*
X157646114Y-80503066D01*
X157536613Y-80561595D01*
X157402038Y-80672038D01*
X157291595Y-80806613D01*
X157209528Y-80960149D01*
X157158992Y-81126745D01*
X157141928Y-81299999D01*
X157141928Y-82540001D01*
X157158992Y-82713255D01*
X157209528Y-82879851D01*
X157291595Y-83033387D01*
X157402038Y-83167962D01*
X157536613Y-83278405D01*
X157690149Y-83360472D01*
X157856745Y-83411008D01*
X158029999Y-83428072D01*
X159730001Y-83428072D01*
X159903255Y-83411008D01*
X160069851Y-83360472D01*
X160223387Y-83278405D01*
X160357962Y-83167962D01*
X160468405Y-83033387D01*
X160550472Y-82879851D01*
X160601008Y-82713255D01*
X160618072Y-82540001D01*
X160618072Y-81299999D01*
X160601008Y-81126745D01*
X160550472Y-80960149D01*
X160468405Y-80806613D01*
X160357962Y-80672038D01*
X160223387Y-80561595D01*
X160113886Y-80503066D01*
X160179345Y-80449345D01*
X160367417Y-80220179D01*
X160507166Y-79958725D01*
X160593224Y-79675032D01*
X160622282Y-79380000D01*
X160593224Y-79084968D01*
X160507166Y-78801275D01*
X160367417Y-78539821D01*
X160179345Y-78310655D01*
X159950179Y-78122583D01*
X159926638Y-78110000D01*
X159950179Y-78097417D01*
X160179345Y-77909345D01*
X160367417Y-77680179D01*
X160507166Y-77418725D01*
X160593224Y-77135032D01*
X160622282Y-76840000D01*
X160593224Y-76544968D01*
X160507166Y-76261275D01*
X160367417Y-75999821D01*
X160179345Y-75770655D01*
X159950179Y-75582583D01*
X159926638Y-75570000D01*
X159950179Y-75557417D01*
X160179345Y-75369345D01*
X160367417Y-75140179D01*
X160507166Y-74878725D01*
X160593224Y-74595032D01*
X160622282Y-74300000D01*
X160593224Y-74004968D01*
X160507166Y-73721275D01*
X160367417Y-73459821D01*
X160179345Y-73230655D01*
X159950179Y-73042583D01*
X159688725Y-72902834D01*
X159405032Y-72816776D01*
X159183936Y-72795000D01*
X158576064Y-72795000D01*
X158354968Y-72816776D01*
X158071275Y-72902834D01*
X157809821Y-73042583D01*
X157580655Y-73230655D01*
X157392583Y-73459821D01*
X157252834Y-73721275D01*
X157166776Y-74004968D01*
X157137718Y-74300000D01*
X136635000Y-74300000D01*
X136635000Y-66000000D01*
X157257718Y-66000000D01*
X157286776Y-66295032D01*
X157372834Y-66578725D01*
X157512583Y-66840179D01*
X157700655Y-67069345D01*
X157766114Y-67123066D01*
X157656613Y-67181595D01*
X157522038Y-67292038D01*
X157411595Y-67426613D01*
X157329528Y-67580149D01*
X157278992Y-67746745D01*
X157261928Y-67919999D01*
X157261928Y-69160001D01*
X157278992Y-69333255D01*
X157329528Y-69499851D01*
X157411595Y-69653387D01*
X157522038Y-69787962D01*
X157656613Y-69898405D01*
X157810149Y-69980472D01*
X157976745Y-70031008D01*
X158149999Y-70048072D01*
X159850001Y-70048072D01*
X160023255Y-70031008D01*
X160189851Y-69980472D01*
X160343387Y-69898405D01*
X160477962Y-69787962D01*
X160588405Y-69653387D01*
X160670472Y-69499851D01*
X160721008Y-69333255D01*
X160738072Y-69160001D01*
X160738072Y-67919999D01*
X160721008Y-67746745D01*
X160670472Y-67580149D01*
X160588405Y-67426613D01*
X160477962Y-67292038D01*
X160343387Y-67181595D01*
X160233886Y-67123066D01*
X160299345Y-67069345D01*
X160487417Y-66840179D01*
X160627166Y-66578725D01*
X160713224Y-66295032D01*
X160742282Y-66000000D01*
X160713224Y-65704968D01*
X160627166Y-65421275D01*
X160487417Y-65159821D01*
X160299345Y-64930655D01*
X160070179Y-64742583D01*
X159808725Y-64602834D01*
X159525032Y-64516776D01*
X159303936Y-64495000D01*
X158696064Y-64495000D01*
X158474968Y-64516776D01*
X158191275Y-64602834D01*
X157929821Y-64742583D01*
X157700655Y-64930655D01*
X157512583Y-65159821D01*
X157372834Y-65421275D01*
X157286776Y-65704968D01*
X157257718Y-66000000D01*
X136635000Y-66000000D01*
X136635000Y-63015741D01*
X136640490Y-62959999D01*
X136635000Y-62904257D01*
X136635000Y-62904248D01*
X136618577Y-62737501D01*
X136553676Y-62523553D01*
X136448284Y-62326377D01*
X136306449Y-62153551D01*
X136263140Y-62118008D01*
X135485000Y-61339869D01*
X135485000Y-61313740D01*
X135427932Y-61026842D01*
X135315990Y-60756589D01*
X135251451Y-60660000D01*
X144223672Y-60660000D01*
X144211859Y-60664893D01*
X143780285Y-60953262D01*
X143413262Y-61320285D01*
X143124893Y-61751859D01*
X142926261Y-62231399D01*
X142825000Y-62740475D01*
X142825000Y-63259525D01*
X142926261Y-63768601D01*
X143124893Y-64248141D01*
X143413262Y-64679715D01*
X143780285Y-65046738D01*
X144211859Y-65335107D01*
X144691399Y-65533739D01*
X145200475Y-65635000D01*
X145719525Y-65635000D01*
X146228601Y-65533739D01*
X146708141Y-65335107D01*
X147139715Y-65046738D01*
X147506738Y-64679715D01*
X147795107Y-64248141D01*
X147993739Y-63768601D01*
X148095000Y-63259525D01*
X148095000Y-62740475D01*
X147993739Y-62231399D01*
X147795107Y-61751859D01*
X147506738Y-61320285D01*
X147139715Y-60953262D01*
X146708141Y-60664893D01*
X146696328Y-60660000D01*
X162340001Y-60660000D01*
X162340000Y-103840000D01*
X161032419Y-103840000D01*
X161000000Y-103836807D01*
X160967581Y-103840000D01*
X160870617Y-103849550D01*
X160793314Y-103873000D01*
X155706686Y-103873000D01*
X155629383Y-103849550D01*
X155532419Y-103840000D01*
X155500000Y-103836807D01*
X155467581Y-103840000D01*
X113532419Y-103840000D01*
X113500000Y-103836807D01*
X113467581Y-103840000D01*
X113370617Y-103849550D01*
X113293314Y-103873000D01*
X108206686Y-103873000D01*
X108129383Y-103849550D01*
X108032419Y-103840000D01*
X108000000Y-103836807D01*
X107967581Y-103840000D01*
X101660000Y-103840000D01*
X101660000Y-94498061D01*
X110665000Y-94498061D01*
X110665000Y-94701939D01*
X110704774Y-94901898D01*
X110782795Y-95090256D01*
X110896063Y-95259774D01*
X111040226Y-95403937D01*
X111209744Y-95517205D01*
X111398102Y-95595226D01*
X111598061Y-95635000D01*
X111801939Y-95635000D01*
X112001898Y-95595226D01*
X112190256Y-95517205D01*
X112359774Y-95403937D01*
X112503937Y-95259774D01*
X112617205Y-95090256D01*
X112695226Y-94901898D01*
X112735000Y-94701939D01*
X112735000Y-94498061D01*
X112695226Y-94298102D01*
X112617205Y-94109744D01*
X112503937Y-93940226D01*
X112460000Y-93896289D01*
X112460000Y-91697125D01*
X112466261Y-91728601D01*
X112664893Y-92208141D01*
X112953262Y-92639715D01*
X113320285Y-93006738D01*
X113751859Y-93295107D01*
X114231399Y-93493739D01*
X114740475Y-93595000D01*
X115259525Y-93595000D01*
X115768601Y-93493739D01*
X116248141Y-93295107D01*
X116679715Y-93006738D01*
X117046738Y-92639715D01*
X117335107Y-92208141D01*
X117533739Y-91728601D01*
X117635000Y-91219525D01*
X117635000Y-90700475D01*
X117533739Y-90191399D01*
X117335107Y-89711859D01*
X117046738Y-89280285D01*
X116679715Y-88913262D01*
X116248141Y-88624893D01*
X115768601Y-88426261D01*
X115259525Y-88325000D01*
X114740475Y-88325000D01*
X114231399Y-88426261D01*
X113751859Y-88624893D01*
X113320285Y-88913262D01*
X112953262Y-89280285D01*
X112664893Y-89711859D01*
X112466261Y-90191399D01*
X112460000Y-90222875D01*
X112460000Y-80414801D01*
X113039802Y-79835000D01*
X113101939Y-79835000D01*
X113301898Y-79795226D01*
X113490256Y-79717205D01*
X113659774Y-79603937D01*
X113803937Y-79459774D01*
X113917205Y-79290256D01*
X113995226Y-79101898D01*
X114035000Y-78901939D01*
X114035000Y-78698061D01*
X113995226Y-78498102D01*
X113917205Y-78309744D01*
X113803937Y-78140226D01*
X113659774Y-77996063D01*
X113490256Y-77882795D01*
X113301898Y-77804774D01*
X113101939Y-77765000D01*
X112898061Y-77765000D01*
X112698102Y-77804774D01*
X112509744Y-77882795D01*
X112340226Y-77996063D01*
X112196063Y-78140226D01*
X112082795Y-78309744D01*
X112004774Y-78498102D01*
X111965000Y-78698061D01*
X111965000Y-78760198D01*
X111188998Y-79536201D01*
X111160000Y-79559999D01*
X111136202Y-79588997D01*
X111136201Y-79588998D01*
X111065026Y-79675724D01*
X110994454Y-79807754D01*
X110950998Y-79951015D01*
X110936324Y-80100000D01*
X110940001Y-80137332D01*
X110940000Y-93896289D01*
X110896063Y-93940226D01*
X110782795Y-94109744D01*
X110704774Y-94298102D01*
X110665000Y-94498061D01*
X101660000Y-94498061D01*
X101660000Y-76098061D01*
X120265000Y-76098061D01*
X120265000Y-76301939D01*
X120304774Y-76501898D01*
X120382795Y-76690256D01*
X120496063Y-76859774D01*
X120540001Y-76903712D01*
X120540000Y-79062677D01*
X120536324Y-79100000D01*
X120540000Y-79137322D01*
X120540000Y-79137332D01*
X120550997Y-79248985D01*
X120590739Y-79380000D01*
X120594454Y-79392246D01*
X120665026Y-79524276D01*
X120704871Y-79572826D01*
X120759999Y-79640001D01*
X120789003Y-79663804D01*
X134365000Y-93239802D01*
X134365000Y-93301939D01*
X134404774Y-93501898D01*
X134482795Y-93690256D01*
X134596063Y-93859774D01*
X134740226Y-94003937D01*
X134909744Y-94117205D01*
X135098102Y-94195226D01*
X135298061Y-94235000D01*
X135501939Y-94235000D01*
X135701898Y-94195226D01*
X135890256Y-94117205D01*
X136059774Y-94003937D01*
X136203937Y-93859774D01*
X136317205Y-93690256D01*
X136395226Y-93501898D01*
X136435000Y-93301939D01*
X136435000Y-93098061D01*
X136395226Y-92898102D01*
X136317205Y-92709744D01*
X136203937Y-92540226D01*
X136059774Y-92396063D01*
X135890256Y-92282795D01*
X135701898Y-92204774D01*
X135501939Y-92165000D01*
X135439802Y-92165000D01*
X133975277Y-90700475D01*
X142825000Y-90700475D01*
X142825000Y-91219525D01*
X142926261Y-91728601D01*
X143124893Y-92208141D01*
X143413262Y-92639715D01*
X143780285Y-93006738D01*
X144211859Y-93295107D01*
X144691399Y-93493739D01*
X145200475Y-93595000D01*
X145719525Y-93595000D01*
X146228601Y-93493739D01*
X146708141Y-93295107D01*
X147139715Y-93006738D01*
X147506738Y-92639715D01*
X147795107Y-92208141D01*
X147864753Y-92040000D01*
X157162718Y-92040000D01*
X157191776Y-92335032D01*
X157277834Y-92618725D01*
X157417583Y-92880179D01*
X157605655Y-93109345D01*
X157834821Y-93297417D01*
X157858362Y-93310000D01*
X157834821Y-93322583D01*
X157605655Y-93510655D01*
X157417583Y-93739821D01*
X157277834Y-94001275D01*
X157191776Y-94284968D01*
X157162718Y-94580000D01*
X157191776Y-94875032D01*
X157277834Y-95158725D01*
X157417583Y-95420179D01*
X157605655Y-95649345D01*
X157671114Y-95703066D01*
X157561613Y-95761595D01*
X157427038Y-95872038D01*
X157316595Y-96006613D01*
X157234528Y-96160149D01*
X157183992Y-96326745D01*
X157166928Y-96499999D01*
X157166928Y-97740001D01*
X157183992Y-97913255D01*
X157234528Y-98079851D01*
X157316595Y-98233387D01*
X157427038Y-98367962D01*
X157561613Y-98478405D01*
X157715149Y-98560472D01*
X157881745Y-98611008D01*
X158054999Y-98628072D01*
X159745001Y-98628072D01*
X159918255Y-98611008D01*
X160084851Y-98560472D01*
X160238387Y-98478405D01*
X160372962Y-98367962D01*
X160483405Y-98233387D01*
X160565472Y-98079851D01*
X160616008Y-97913255D01*
X160633072Y-97740001D01*
X160633072Y-96499999D01*
X160616008Y-96326745D01*
X160565472Y-96160149D01*
X160483405Y-96006613D01*
X160372962Y-95872038D01*
X160238387Y-95761595D01*
X160128886Y-95703066D01*
X160194345Y-95649345D01*
X160382417Y-95420179D01*
X160522166Y-95158725D01*
X160608224Y-94875032D01*
X160637282Y-94580000D01*
X160608224Y-94284968D01*
X160522166Y-94001275D01*
X160382417Y-93739821D01*
X160194345Y-93510655D01*
X159965179Y-93322583D01*
X159941638Y-93310000D01*
X159965179Y-93297417D01*
X160194345Y-93109345D01*
X160382417Y-92880179D01*
X160522166Y-92618725D01*
X160608224Y-92335032D01*
X160637282Y-92040000D01*
X160608224Y-91744968D01*
X160522166Y-91461275D01*
X160382417Y-91199821D01*
X160194345Y-90970655D01*
X159965179Y-90782583D01*
X159936848Y-90767440D01*
X160077433Y-90674708D01*
X160288306Y-90466326D01*
X160454474Y-90220809D01*
X160569551Y-89947591D01*
X160586302Y-89860031D01*
X160465246Y-89627000D01*
X159027000Y-89627000D01*
X159027000Y-89647000D01*
X158773000Y-89647000D01*
X158773000Y-89627000D01*
X157334754Y-89627000D01*
X157213698Y-89860031D01*
X157230449Y-89947591D01*
X157345526Y-90220809D01*
X157511694Y-90466326D01*
X157722567Y-90674708D01*
X157863152Y-90767440D01*
X157834821Y-90782583D01*
X157605655Y-90970655D01*
X157417583Y-91199821D01*
X157277834Y-91461275D01*
X157191776Y-91744968D01*
X157162718Y-92040000D01*
X147864753Y-92040000D01*
X147993739Y-91728601D01*
X148095000Y-91219525D01*
X148095000Y-90700475D01*
X147993739Y-90191399D01*
X147795107Y-89711859D01*
X147506738Y-89280285D01*
X147366422Y-89139969D01*
X157213698Y-89139969D01*
X157334754Y-89373000D01*
X158773000Y-89373000D01*
X158773000Y-88149624D01*
X159027000Y-88149624D01*
X159027000Y-89373000D01*
X160465246Y-89373000D01*
X160586302Y-89139969D01*
X160569551Y-89052409D01*
X160454474Y-88779191D01*
X160288306Y-88533674D01*
X160077433Y-88325292D01*
X159829958Y-88162053D01*
X159555392Y-88050231D01*
X159264286Y-87994123D01*
X159027000Y-88149624D01*
X158773000Y-88149624D01*
X158535714Y-87994123D01*
X158244608Y-88050231D01*
X157970042Y-88162053D01*
X157722567Y-88325292D01*
X157511694Y-88533674D01*
X157345526Y-88779191D01*
X157230449Y-89052409D01*
X157213698Y-89139969D01*
X147366422Y-89139969D01*
X147139715Y-88913262D01*
X146708141Y-88624893D01*
X146228601Y-88426261D01*
X145719525Y-88325000D01*
X145200475Y-88325000D01*
X144691399Y-88426261D01*
X144211859Y-88624893D01*
X143780285Y-88913262D01*
X143413262Y-89280285D01*
X143124893Y-89711859D01*
X142926261Y-90191399D01*
X142825000Y-90700475D01*
X133975277Y-90700475D01*
X122060000Y-78785199D01*
X122060000Y-76903711D01*
X122103937Y-76859774D01*
X122217205Y-76690256D01*
X122295226Y-76501898D01*
X122335000Y-76301939D01*
X122335000Y-76098061D01*
X122295226Y-75898102D01*
X122217205Y-75709744D01*
X122103937Y-75540226D01*
X121959774Y-75396063D01*
X121790256Y-75282795D01*
X121601898Y-75204774D01*
X121401939Y-75165000D01*
X121198061Y-75165000D01*
X120998102Y-75204774D01*
X120809744Y-75282795D01*
X120640226Y-75396063D01*
X120496063Y-75540226D01*
X120382795Y-75709744D01*
X120304774Y-75898102D01*
X120265000Y-76098061D01*
X101660000Y-76098061D01*
X101660000Y-66498061D01*
X105065000Y-66498061D01*
X105065000Y-66701939D01*
X105104774Y-66901898D01*
X105182795Y-67090256D01*
X105256123Y-67200000D01*
X105182795Y-67309744D01*
X105104774Y-67498102D01*
X105065000Y-67698061D01*
X105065000Y-67901939D01*
X105104774Y-68101898D01*
X105182795Y-68290256D01*
X105296063Y-68459774D01*
X105440226Y-68603937D01*
X105609744Y-68717205D01*
X105798102Y-68795226D01*
X105998061Y-68835000D01*
X106201939Y-68835000D01*
X106401898Y-68795226D01*
X106590256Y-68717205D01*
X106759774Y-68603937D01*
X106803711Y-68560000D01*
X121485199Y-68560000D01*
X124340001Y-71414803D01*
X124340001Y-71562679D01*
X124336325Y-71600001D01*
X124340001Y-71637323D01*
X124340001Y-71637333D01*
X124350998Y-71748986D01*
X124385789Y-71863677D01*
X124394455Y-71892247D01*
X124465000Y-72024226D01*
X124465000Y-72101939D01*
X124504774Y-72301898D01*
X124582795Y-72490256D01*
X124696063Y-72659774D01*
X124840226Y-72803937D01*
X125009744Y-72917205D01*
X125198102Y-72995226D01*
X125398061Y-73035000D01*
X125601939Y-73035000D01*
X125801898Y-72995226D01*
X125990256Y-72917205D01*
X126159774Y-72803937D01*
X126303937Y-72659774D01*
X126417205Y-72490256D01*
X126440093Y-72435000D01*
X126501939Y-72435000D01*
X126701898Y-72395226D01*
X126890256Y-72317205D01*
X127059774Y-72203937D01*
X127203937Y-72059774D01*
X127317205Y-71890256D01*
X127395226Y-71701898D01*
X127435000Y-71501939D01*
X127435000Y-71298061D01*
X127395226Y-71098102D01*
X127317205Y-70909744D01*
X127203937Y-70740226D01*
X127059774Y-70596063D01*
X126890256Y-70482795D01*
X126701898Y-70404774D01*
X126501939Y-70365000D01*
X126439802Y-70365000D01*
X122163804Y-66089003D01*
X122140001Y-66059999D01*
X122024276Y-65965026D01*
X121892247Y-65894454D01*
X121748986Y-65850997D01*
X121637333Y-65840000D01*
X121637322Y-65840000D01*
X121600000Y-65836324D01*
X121562678Y-65840000D01*
X106803711Y-65840000D01*
X106759774Y-65796063D01*
X106590256Y-65682795D01*
X106401898Y-65604774D01*
X106201939Y-65565000D01*
X105998061Y-65565000D01*
X105798102Y-65604774D01*
X105609744Y-65682795D01*
X105440226Y-65796063D01*
X105296063Y-65940226D01*
X105182795Y-66109744D01*
X105104774Y-66298102D01*
X105065000Y-66498061D01*
X101660000Y-66498061D01*
X101660000Y-60660000D01*
X113763672Y-60660000D01*
X113751859Y-60664893D01*
G37*
X113751859Y-60664893D02*
X113320285Y-60953262D01*
X112953262Y-61320285D01*
X112664893Y-61751859D01*
X112466261Y-62231399D01*
X112365000Y-62740475D01*
X112365000Y-63259525D01*
X112466261Y-63768601D01*
X112664893Y-64248141D01*
X112953262Y-64679715D01*
X113320285Y-65046738D01*
X113751859Y-65335107D01*
X114231399Y-65533739D01*
X114740475Y-65635000D01*
X115259525Y-65635000D01*
X115768601Y-65533739D01*
X116248141Y-65335107D01*
X116679715Y-65046738D01*
X117046738Y-64679715D01*
X117335107Y-64248141D01*
X117533739Y-63768601D01*
X117635000Y-63259525D01*
X117635000Y-62740475D01*
X117533739Y-62231399D01*
X117335107Y-61751859D01*
X117046738Y-61320285D01*
X116679715Y-60953262D01*
X116248141Y-60664893D01*
X116236328Y-60660000D01*
X125128549Y-60660000D01*
X125064010Y-60756589D01*
X124952068Y-61026842D01*
X124895000Y-61313740D01*
X124895000Y-61606260D01*
X124952068Y-61893158D01*
X125064010Y-62163411D01*
X125226525Y-62406632D01*
X125433368Y-62613475D01*
X125676589Y-62775990D01*
X125946842Y-62887932D01*
X126233740Y-62945000D01*
X126526260Y-62945000D01*
X126813158Y-62887932D01*
X127083411Y-62775990D01*
X127326632Y-62613475D01*
X127533475Y-62406632D01*
X127650000Y-62232240D01*
X127766525Y-62406632D01*
X127973368Y-62613475D01*
X128216589Y-62775990D01*
X128486842Y-62887932D01*
X128773740Y-62945000D01*
X129066260Y-62945000D01*
X129353158Y-62887932D01*
X129623411Y-62775990D01*
X129866632Y-62613475D01*
X129991710Y-62488397D01*
X130611208Y-62488397D01*
X130688843Y-62737472D01*
X130952883Y-62863371D01*
X131236411Y-62935339D01*
X131528531Y-62950611D01*
X131818019Y-62908599D01*
X132093747Y-62810919D01*
X132231157Y-62737472D01*
X132308792Y-62488397D01*
X131460000Y-61639605D01*
X130611208Y-62488397D01*
X129991710Y-62488397D01*
X130073475Y-62406632D01*
X130189311Y-62233271D01*
X130431603Y-62308792D01*
X131280395Y-61460000D01*
X131266253Y-61445858D01*
X131445858Y-61266253D01*
X131460000Y-61280395D01*
X131474143Y-61266253D01*
X131653748Y-61445858D01*
X131639605Y-61460000D01*
X132488397Y-62308792D01*
X132730689Y-62233271D01*
X132846525Y-62406632D01*
X133053368Y-62613475D01*
X133296589Y-62775990D01*
X133566842Y-62887932D01*
X133853740Y-62945000D01*
X133879869Y-62945000D01*
X134365001Y-63430133D01*
X134365000Y-73225131D01*
X134317205Y-73109744D01*
X134203937Y-72940226D01*
X134059774Y-72796063D01*
X133890256Y-72682795D01*
X133701898Y-72604774D01*
X133501939Y-72565000D01*
X133298061Y-72565000D01*
X133098102Y-72604774D01*
X132909744Y-72682795D01*
X132740226Y-72796063D01*
X132696289Y-72840000D01*
X131603711Y-72840000D01*
X131559774Y-72796063D01*
X131390256Y-72682795D01*
X131201898Y-72604774D01*
X131001939Y-72565000D01*
X130798061Y-72565000D01*
X130598102Y-72604774D01*
X130409744Y-72682795D01*
X130240226Y-72796063D01*
X130096063Y-72940226D01*
X129982795Y-73109744D01*
X129904774Y-73298102D01*
X129865000Y-73498061D01*
X129865000Y-73701939D01*
X129904774Y-73901898D01*
X129982795Y-74090256D01*
X130096063Y-74259774D01*
X130240226Y-74403937D01*
X130409744Y-74517205D01*
X130598102Y-74595226D01*
X130798061Y-74635000D01*
X131001939Y-74635000D01*
X131201898Y-74595226D01*
X131390256Y-74517205D01*
X131559774Y-74403937D01*
X131603711Y-74360000D01*
X132696289Y-74360000D01*
X132740226Y-74403937D01*
X132909744Y-74517205D01*
X133098102Y-74595226D01*
X133298061Y-74635000D01*
X133501939Y-74635000D01*
X133701898Y-74595226D01*
X133890256Y-74517205D01*
X134059774Y-74403937D01*
X134203937Y-74259774D01*
X134317205Y-74090256D01*
X134365000Y-73974869D01*
X134365000Y-74955751D01*
X134381423Y-75122498D01*
X134446324Y-75336446D01*
X134551716Y-75533623D01*
X134693551Y-75706449D01*
X134866377Y-75848284D01*
X135063553Y-75953676D01*
X135277501Y-76018577D01*
X135500000Y-76040491D01*
X135722498Y-76018577D01*
X135936446Y-75953676D01*
X136133623Y-75848284D01*
X136306449Y-75706449D01*
X136448284Y-75533623D01*
X136553676Y-75336447D01*
X136618577Y-75122499D01*
X136635000Y-74955752D01*
X136635000Y-74300000D01*
X157137718Y-74300000D01*
X157166776Y-74595032D01*
X157252834Y-74878725D01*
X157392583Y-75140179D01*
X157580655Y-75369345D01*
X157809821Y-75557417D01*
X157833362Y-75570000D01*
X157809821Y-75582583D01*
X157580655Y-75770655D01*
X157392583Y-75999821D01*
X157252834Y-76261275D01*
X157166776Y-76544968D01*
X157137718Y-76840000D01*
X157166776Y-77135032D01*
X157252834Y-77418725D01*
X157392583Y-77680179D01*
X157580655Y-77909345D01*
X157809821Y-78097417D01*
X157833362Y-78110000D01*
X157809821Y-78122583D01*
X157580655Y-78310655D01*
X157392583Y-78539821D01*
X157252834Y-78801275D01*
X157166776Y-79084968D01*
X157137718Y-79380000D01*
X157166776Y-79675032D01*
X157252834Y-79958725D01*
X157392583Y-80220179D01*
X157580655Y-80449345D01*
X157646114Y-80503066D01*
X157536613Y-80561595D01*
X157402038Y-80672038D01*
X157291595Y-80806613D01*
X157209528Y-80960149D01*
X157158992Y-81126745D01*
X157141928Y-81299999D01*
X157141928Y-82540001D01*
X157158992Y-82713255D01*
X157209528Y-82879851D01*
X157291595Y-83033387D01*
X157402038Y-83167962D01*
X157536613Y-83278405D01*
X157690149Y-83360472D01*
X157856745Y-83411008D01*
X158029999Y-83428072D01*
X159730001Y-83428072D01*
X159903255Y-83411008D01*
X160069851Y-83360472D01*
X160223387Y-83278405D01*
X160357962Y-83167962D01*
X160468405Y-83033387D01*
X160550472Y-82879851D01*
X160601008Y-82713255D01*
X160618072Y-82540001D01*
X160618072Y-81299999D01*
X160601008Y-81126745D01*
X160550472Y-80960149D01*
X160468405Y-80806613D01*
X160357962Y-80672038D01*
X160223387Y-80561595D01*
X160113886Y-80503066D01*
X160179345Y-80449345D01*
X160367417Y-80220179D01*
X160507166Y-79958725D01*
X160593224Y-79675032D01*
X160622282Y-79380000D01*
X160593224Y-79084968D01*
X160507166Y-78801275D01*
X160367417Y-78539821D01*
X160179345Y-78310655D01*
X159950179Y-78122583D01*
X159926638Y-78110000D01*
X159950179Y-78097417D01*
X160179345Y-77909345D01*
X160367417Y-77680179D01*
X160507166Y-77418725D01*
X160593224Y-77135032D01*
X160622282Y-76840000D01*
X160593224Y-76544968D01*
X160507166Y-76261275D01*
X160367417Y-75999821D01*
X160179345Y-75770655D01*
X159950179Y-75582583D01*
X159926638Y-75570000D01*
X159950179Y-75557417D01*
X160179345Y-75369345D01*
X160367417Y-75140179D01*
X160507166Y-74878725D01*
X160593224Y-74595032D01*
X160622282Y-74300000D01*
X160593224Y-74004968D01*
X160507166Y-73721275D01*
X160367417Y-73459821D01*
X160179345Y-73230655D01*
X159950179Y-73042583D01*
X159688725Y-72902834D01*
X159405032Y-72816776D01*
X159183936Y-72795000D01*
X158576064Y-72795000D01*
X158354968Y-72816776D01*
X158071275Y-72902834D01*
X157809821Y-73042583D01*
X157580655Y-73230655D01*
X157392583Y-73459821D01*
X157252834Y-73721275D01*
X157166776Y-74004968D01*
X157137718Y-74300000D01*
X136635000Y-74300000D01*
X136635000Y-66000000D01*
X157257718Y-66000000D01*
X157286776Y-66295032D01*
X157372834Y-66578725D01*
X157512583Y-66840179D01*
X157700655Y-67069345D01*
X157766114Y-67123066D01*
X157656613Y-67181595D01*
X157522038Y-67292038D01*
X157411595Y-67426613D01*
X157329528Y-67580149D01*
X157278992Y-67746745D01*
X157261928Y-67919999D01*
X157261928Y-69160001D01*
X157278992Y-69333255D01*
X157329528Y-69499851D01*
X157411595Y-69653387D01*
X157522038Y-69787962D01*
X157656613Y-69898405D01*
X157810149Y-69980472D01*
X157976745Y-70031008D01*
X158149999Y-70048072D01*
X159850001Y-70048072D01*
X160023255Y-70031008D01*
X160189851Y-69980472D01*
X160343387Y-69898405D01*
X160477962Y-69787962D01*
X160588405Y-69653387D01*
X160670472Y-69499851D01*
X160721008Y-69333255D01*
X160738072Y-69160001D01*
X160738072Y-67919999D01*
X160721008Y-67746745D01*
X160670472Y-67580149D01*
X160588405Y-67426613D01*
X160477962Y-67292038D01*
X160343387Y-67181595D01*
X160233886Y-67123066D01*
X160299345Y-67069345D01*
X160487417Y-66840179D01*
X160627166Y-66578725D01*
X160713224Y-66295032D01*
X160742282Y-66000000D01*
X160713224Y-65704968D01*
X160627166Y-65421275D01*
X160487417Y-65159821D01*
X160299345Y-64930655D01*
X160070179Y-64742583D01*
X159808725Y-64602834D01*
X159525032Y-64516776D01*
X159303936Y-64495000D01*
X158696064Y-64495000D01*
X158474968Y-64516776D01*
X158191275Y-64602834D01*
X157929821Y-64742583D01*
X157700655Y-64930655D01*
X157512583Y-65159821D01*
X157372834Y-65421275D01*
X157286776Y-65704968D01*
X157257718Y-66000000D01*
X136635000Y-66000000D01*
X136635000Y-63015741D01*
X136640490Y-62959999D01*
X136635000Y-62904257D01*
X136635000Y-62904248D01*
X136618577Y-62737501D01*
X136553676Y-62523553D01*
X136448284Y-62326377D01*
X136306449Y-62153551D01*
X136263140Y-62118008D01*
X135485000Y-61339869D01*
X135485000Y-61313740D01*
X135427932Y-61026842D01*
X135315990Y-60756589D01*
X135251451Y-60660000D01*
X144223672Y-60660000D01*
X144211859Y-60664893D01*
X143780285Y-60953262D01*
X143413262Y-61320285D01*
X143124893Y-61751859D01*
X142926261Y-62231399D01*
X142825000Y-62740475D01*
X142825000Y-63259525D01*
X142926261Y-63768601D01*
X143124893Y-64248141D01*
X143413262Y-64679715D01*
X143780285Y-65046738D01*
X144211859Y-65335107D01*
X144691399Y-65533739D01*
X145200475Y-65635000D01*
X145719525Y-65635000D01*
X146228601Y-65533739D01*
X146708141Y-65335107D01*
X147139715Y-65046738D01*
X147506738Y-64679715D01*
X147795107Y-64248141D01*
X147993739Y-63768601D01*
X148095000Y-63259525D01*
X148095000Y-62740475D01*
X147993739Y-62231399D01*
X147795107Y-61751859D01*
X147506738Y-61320285D01*
X147139715Y-60953262D01*
X146708141Y-60664893D01*
X146696328Y-60660000D01*
X162340001Y-60660000D01*
X162340000Y-103840000D01*
X161032419Y-103840000D01*
X161000000Y-103836807D01*
X160967581Y-103840000D01*
X160870617Y-103849550D01*
X160793314Y-103873000D01*
X155706686Y-103873000D01*
X155629383Y-103849550D01*
X155532419Y-103840000D01*
X155500000Y-103836807D01*
X155467581Y-103840000D01*
X113532419Y-103840000D01*
X113500000Y-103836807D01*
X113467581Y-103840000D01*
X113370617Y-103849550D01*
X113293314Y-103873000D01*
X108206686Y-103873000D01*
X108129383Y-103849550D01*
X108032419Y-103840000D01*
X108000000Y-103836807D01*
X107967581Y-103840000D01*
X101660000Y-103840000D01*
X101660000Y-94498061D01*
X110665000Y-94498061D01*
X110665000Y-94701939D01*
X110704774Y-94901898D01*
X110782795Y-95090256D01*
X110896063Y-95259774D01*
X111040226Y-95403937D01*
X111209744Y-95517205D01*
X111398102Y-95595226D01*
X111598061Y-95635000D01*
X111801939Y-95635000D01*
X112001898Y-95595226D01*
X112190256Y-95517205D01*
X112359774Y-95403937D01*
X112503937Y-95259774D01*
X112617205Y-95090256D01*
X112695226Y-94901898D01*
X112735000Y-94701939D01*
X112735000Y-94498061D01*
X112695226Y-94298102D01*
X112617205Y-94109744D01*
X112503937Y-93940226D01*
X112460000Y-93896289D01*
X112460000Y-91697125D01*
X112466261Y-91728601D01*
X112664893Y-92208141D01*
X112953262Y-92639715D01*
X113320285Y-93006738D01*
X113751859Y-93295107D01*
X114231399Y-93493739D01*
X114740475Y-93595000D01*
X115259525Y-93595000D01*
X115768601Y-93493739D01*
X116248141Y-93295107D01*
X116679715Y-93006738D01*
X117046738Y-92639715D01*
X117335107Y-92208141D01*
X117533739Y-91728601D01*
X117635000Y-91219525D01*
X117635000Y-90700475D01*
X117533739Y-90191399D01*
X117335107Y-89711859D01*
X117046738Y-89280285D01*
X116679715Y-88913262D01*
X116248141Y-88624893D01*
X115768601Y-88426261D01*
X115259525Y-88325000D01*
X114740475Y-88325000D01*
X114231399Y-88426261D01*
X113751859Y-88624893D01*
X113320285Y-88913262D01*
X112953262Y-89280285D01*
X112664893Y-89711859D01*
X112466261Y-90191399D01*
X112460000Y-90222875D01*
X112460000Y-80414801D01*
X113039802Y-79835000D01*
X113101939Y-79835000D01*
X113301898Y-79795226D01*
X113490256Y-79717205D01*
X113659774Y-79603937D01*
X113803937Y-79459774D01*
X113917205Y-79290256D01*
X113995226Y-79101898D01*
X114035000Y-78901939D01*
X114035000Y-78698061D01*
X113995226Y-78498102D01*
X113917205Y-78309744D01*
X113803937Y-78140226D01*
X113659774Y-77996063D01*
X113490256Y-77882795D01*
X113301898Y-77804774D01*
X113101939Y-77765000D01*
X112898061Y-77765000D01*
X112698102Y-77804774D01*
X112509744Y-77882795D01*
X112340226Y-77996063D01*
X112196063Y-78140226D01*
X112082795Y-78309744D01*
X112004774Y-78498102D01*
X111965000Y-78698061D01*
X111965000Y-78760198D01*
X111188998Y-79536201D01*
X111160000Y-79559999D01*
X111136202Y-79588997D01*
X111136201Y-79588998D01*
X111065026Y-79675724D01*
X110994454Y-79807754D01*
X110950998Y-79951015D01*
X110936324Y-80100000D01*
X110940001Y-80137332D01*
X110940000Y-93896289D01*
X110896063Y-93940226D01*
X110782795Y-94109744D01*
X110704774Y-94298102D01*
X110665000Y-94498061D01*
X101660000Y-94498061D01*
X101660000Y-76098061D01*
X120265000Y-76098061D01*
X120265000Y-76301939D01*
X120304774Y-76501898D01*
X120382795Y-76690256D01*
X120496063Y-76859774D01*
X120540001Y-76903712D01*
X120540000Y-79062677D01*
X120536324Y-79100000D01*
X120540000Y-79137322D01*
X120540000Y-79137332D01*
X120550997Y-79248985D01*
X120590739Y-79380000D01*
X120594454Y-79392246D01*
X120665026Y-79524276D01*
X120704871Y-79572826D01*
X120759999Y-79640001D01*
X120789003Y-79663804D01*
X134365000Y-93239802D01*
X134365000Y-93301939D01*
X134404774Y-93501898D01*
X134482795Y-93690256D01*
X134596063Y-93859774D01*
X134740226Y-94003937D01*
X134909744Y-94117205D01*
X135098102Y-94195226D01*
X135298061Y-94235000D01*
X135501939Y-94235000D01*
X135701898Y-94195226D01*
X135890256Y-94117205D01*
X136059774Y-94003937D01*
X136203937Y-93859774D01*
X136317205Y-93690256D01*
X136395226Y-93501898D01*
X136435000Y-93301939D01*
X136435000Y-93098061D01*
X136395226Y-92898102D01*
X136317205Y-92709744D01*
X136203937Y-92540226D01*
X136059774Y-92396063D01*
X135890256Y-92282795D01*
X135701898Y-92204774D01*
X135501939Y-92165000D01*
X135439802Y-92165000D01*
X133975277Y-90700475D01*
X142825000Y-90700475D01*
X142825000Y-91219525D01*
X142926261Y-91728601D01*
X143124893Y-92208141D01*
X143413262Y-92639715D01*
X143780285Y-93006738D01*
X144211859Y-93295107D01*
X144691399Y-93493739D01*
X145200475Y-93595000D01*
X145719525Y-93595000D01*
X146228601Y-93493739D01*
X146708141Y-93295107D01*
X147139715Y-93006738D01*
X147506738Y-92639715D01*
X147795107Y-92208141D01*
X147864753Y-92040000D01*
X157162718Y-92040000D01*
X157191776Y-92335032D01*
X157277834Y-92618725D01*
X157417583Y-92880179D01*
X157605655Y-93109345D01*
X157834821Y-93297417D01*
X157858362Y-93310000D01*
X157834821Y-93322583D01*
X157605655Y-93510655D01*
X157417583Y-93739821D01*
X157277834Y-94001275D01*
X157191776Y-94284968D01*
X157162718Y-94580000D01*
X157191776Y-94875032D01*
X157277834Y-95158725D01*
X157417583Y-95420179D01*
X157605655Y-95649345D01*
X157671114Y-95703066D01*
X157561613Y-95761595D01*
X157427038Y-95872038D01*
X157316595Y-96006613D01*
X157234528Y-96160149D01*
X157183992Y-96326745D01*
X157166928Y-96499999D01*
X157166928Y-97740001D01*
X157183992Y-97913255D01*
X157234528Y-98079851D01*
X157316595Y-98233387D01*
X157427038Y-98367962D01*
X157561613Y-98478405D01*
X157715149Y-98560472D01*
X157881745Y-98611008D01*
X158054999Y-98628072D01*
X159745001Y-98628072D01*
X159918255Y-98611008D01*
X160084851Y-98560472D01*
X160238387Y-98478405D01*
X160372962Y-98367962D01*
X160483405Y-98233387D01*
X160565472Y-98079851D01*
X160616008Y-97913255D01*
X160633072Y-97740001D01*
X160633072Y-96499999D01*
X160616008Y-96326745D01*
X160565472Y-96160149D01*
X160483405Y-96006613D01*
X160372962Y-95872038D01*
X160238387Y-95761595D01*
X160128886Y-95703066D01*
X160194345Y-95649345D01*
X160382417Y-95420179D01*
X160522166Y-95158725D01*
X160608224Y-94875032D01*
X160637282Y-94580000D01*
X160608224Y-94284968D01*
X160522166Y-94001275D01*
X160382417Y-93739821D01*
X160194345Y-93510655D01*
X159965179Y-93322583D01*
X159941638Y-93310000D01*
X159965179Y-93297417D01*
X160194345Y-93109345D01*
X160382417Y-92880179D01*
X160522166Y-92618725D01*
X160608224Y-92335032D01*
X160637282Y-92040000D01*
X160608224Y-91744968D01*
X160522166Y-91461275D01*
X160382417Y-91199821D01*
X160194345Y-90970655D01*
X159965179Y-90782583D01*
X159936848Y-90767440D01*
X160077433Y-90674708D01*
X160288306Y-90466326D01*
X160454474Y-90220809D01*
X160569551Y-89947591D01*
X160586302Y-89860031D01*
X160465246Y-89627000D01*
X159027000Y-89627000D01*
X159027000Y-89647000D01*
X158773000Y-89647000D01*
X158773000Y-89627000D01*
X157334754Y-89627000D01*
X157213698Y-89860031D01*
X157230449Y-89947591D01*
X157345526Y-90220809D01*
X157511694Y-90466326D01*
X157722567Y-90674708D01*
X157863152Y-90767440D01*
X157834821Y-90782583D01*
X157605655Y-90970655D01*
X157417583Y-91199821D01*
X157277834Y-91461275D01*
X157191776Y-91744968D01*
X157162718Y-92040000D01*
X147864753Y-92040000D01*
X147993739Y-91728601D01*
X148095000Y-91219525D01*
X148095000Y-90700475D01*
X147993739Y-90191399D01*
X147795107Y-89711859D01*
X147506738Y-89280285D01*
X147366422Y-89139969D01*
X157213698Y-89139969D01*
X157334754Y-89373000D01*
X158773000Y-89373000D01*
X158773000Y-88149624D01*
X159027000Y-88149624D01*
X159027000Y-89373000D01*
X160465246Y-89373000D01*
X160586302Y-89139969D01*
X160569551Y-89052409D01*
X160454474Y-88779191D01*
X160288306Y-88533674D01*
X160077433Y-88325292D01*
X159829958Y-88162053D01*
X159555392Y-88050231D01*
X159264286Y-87994123D01*
X159027000Y-88149624D01*
X158773000Y-88149624D01*
X158535714Y-87994123D01*
X158244608Y-88050231D01*
X157970042Y-88162053D01*
X157722567Y-88325292D01*
X157511694Y-88533674D01*
X157345526Y-88779191D01*
X157230449Y-89052409D01*
X157213698Y-89139969D01*
X147366422Y-89139969D01*
X147139715Y-88913262D01*
X146708141Y-88624893D01*
X146228601Y-88426261D01*
X145719525Y-88325000D01*
X145200475Y-88325000D01*
X144691399Y-88426261D01*
X144211859Y-88624893D01*
X143780285Y-88913262D01*
X143413262Y-89280285D01*
X143124893Y-89711859D01*
X142926261Y-90191399D01*
X142825000Y-90700475D01*
X133975277Y-90700475D01*
X122060000Y-78785199D01*
X122060000Y-76903711D01*
X122103937Y-76859774D01*
X122217205Y-76690256D01*
X122295226Y-76501898D01*
X122335000Y-76301939D01*
X122335000Y-76098061D01*
X122295226Y-75898102D01*
X122217205Y-75709744D01*
X122103937Y-75540226D01*
X121959774Y-75396063D01*
X121790256Y-75282795D01*
X121601898Y-75204774D01*
X121401939Y-75165000D01*
X121198061Y-75165000D01*
X120998102Y-75204774D01*
X120809744Y-75282795D01*
X120640226Y-75396063D01*
X120496063Y-75540226D01*
X120382795Y-75709744D01*
X120304774Y-75898102D01*
X120265000Y-76098061D01*
X101660000Y-76098061D01*
X101660000Y-66498061D01*
X105065000Y-66498061D01*
X105065000Y-66701939D01*
X105104774Y-66901898D01*
X105182795Y-67090256D01*
X105256123Y-67200000D01*
X105182795Y-67309744D01*
X105104774Y-67498102D01*
X105065000Y-67698061D01*
X105065000Y-67901939D01*
X105104774Y-68101898D01*
X105182795Y-68290256D01*
X105296063Y-68459774D01*
X105440226Y-68603937D01*
X105609744Y-68717205D01*
X105798102Y-68795226D01*
X105998061Y-68835000D01*
X106201939Y-68835000D01*
X106401898Y-68795226D01*
X106590256Y-68717205D01*
X106759774Y-68603937D01*
X106803711Y-68560000D01*
X121485199Y-68560000D01*
X124340001Y-71414803D01*
X124340001Y-71562679D01*
X124336325Y-71600001D01*
X124340001Y-71637323D01*
X124340001Y-71637333D01*
X124350998Y-71748986D01*
X124385789Y-71863677D01*
X124394455Y-71892247D01*
X124465000Y-72024226D01*
X124465000Y-72101939D01*
X124504774Y-72301898D01*
X124582795Y-72490256D01*
X124696063Y-72659774D01*
X124840226Y-72803937D01*
X125009744Y-72917205D01*
X125198102Y-72995226D01*
X125398061Y-73035000D01*
X125601939Y-73035000D01*
X125801898Y-72995226D01*
X125990256Y-72917205D01*
X126159774Y-72803937D01*
X126303937Y-72659774D01*
X126417205Y-72490256D01*
X126440093Y-72435000D01*
X126501939Y-72435000D01*
X126701898Y-72395226D01*
X126890256Y-72317205D01*
X127059774Y-72203937D01*
X127203937Y-72059774D01*
X127317205Y-71890256D01*
X127395226Y-71701898D01*
X127435000Y-71501939D01*
X127435000Y-71298061D01*
X127395226Y-71098102D01*
X127317205Y-70909744D01*
X127203937Y-70740226D01*
X127059774Y-70596063D01*
X126890256Y-70482795D01*
X126701898Y-70404774D01*
X126501939Y-70365000D01*
X126439802Y-70365000D01*
X122163804Y-66089003D01*
X122140001Y-66059999D01*
X122024276Y-65965026D01*
X121892247Y-65894454D01*
X121748986Y-65850997D01*
X121637333Y-65840000D01*
X121637322Y-65840000D01*
X121600000Y-65836324D01*
X121562678Y-65840000D01*
X106803711Y-65840000D01*
X106759774Y-65796063D01*
X106590256Y-65682795D01*
X106401898Y-65604774D01*
X106201939Y-65565000D01*
X105998061Y-65565000D01*
X105798102Y-65604774D01*
X105609744Y-65682795D01*
X105440226Y-65796063D01*
X105296063Y-65940226D01*
X105182795Y-66109744D01*
X105104774Y-66298102D01*
X105065000Y-66498061D01*
X101660000Y-66498061D01*
X101660000Y-60660000D01*
X113763672Y-60660000D01*
X113751859Y-60664893D01*
G36*
X162340001Y-110247660D02*
G01*
X162340000Y-138340000D01*
X125127000Y-138340000D01*
X125127000Y-135742349D01*
X141637256Y-135742349D01*
X141751118Y-136022090D01*
X142066296Y-136177961D01*
X142405826Y-136269349D01*
X142756661Y-136292741D01*
X143105319Y-136247240D01*
X143438400Y-136134594D01*
X143648882Y-136022090D01*
X143762744Y-135742349D01*
X144177256Y-135742349D01*
X144291118Y-136022090D01*
X144606296Y-136177961D01*
X144945826Y-136269349D01*
X145296661Y-136292741D01*
X145645319Y-136247240D01*
X145978400Y-136134594D01*
X146188882Y-136022090D01*
X146302744Y-135742349D01*
X146717256Y-135742349D01*
X146831118Y-136022090D01*
X147146296Y-136177961D01*
X147485826Y-136269349D01*
X147836661Y-136292741D01*
X148185319Y-136247240D01*
X148518400Y-136134594D01*
X148728882Y-136022090D01*
X148842744Y-135742349D01*
X149257256Y-135742349D01*
X149371118Y-136022090D01*
X149686296Y-136177961D01*
X150025826Y-136269349D01*
X150376661Y-136292741D01*
X150725319Y-136247240D01*
X151058400Y-136134594D01*
X151268882Y-136022090D01*
X151382744Y-135742349D01*
X150320000Y-134679605D01*
X149257256Y-135742349D01*
X148842744Y-135742349D01*
X147780000Y-134679605D01*
X146717256Y-135742349D01*
X146302744Y-135742349D01*
X145240000Y-134679605D01*
X144177256Y-135742349D01*
X143762744Y-135742349D01*
X142700000Y-134679605D01*
X141637256Y-135742349D01*
X125127000Y-135742349D01*
X125127000Y-134556661D01*
X140907259Y-134556661D01*
X140952760Y-134905319D01*
X141065406Y-135238400D01*
X141177910Y-135448882D01*
X141457651Y-135562744D01*
X142520395Y-134500000D01*
X142879605Y-134500000D01*
X143598968Y-135219363D01*
X143605406Y-135238400D01*
X143717910Y-135448882D01*
X143904389Y-135524784D01*
X143942349Y-135562744D01*
X143970000Y-135551489D01*
X143997651Y-135562744D01*
X144035611Y-135524784D01*
X144222090Y-135448882D01*
X144330282Y-135230113D01*
X145060395Y-134500000D01*
X145419605Y-134500000D01*
X146138968Y-135219363D01*
X146145406Y-135238400D01*
X146257910Y-135448882D01*
X146444389Y-135524784D01*
X146482349Y-135562744D01*
X146510000Y-135551489D01*
X146537651Y-135562744D01*
X146575611Y-135524784D01*
X146762090Y-135448882D01*
X146870282Y-135230113D01*
X147600395Y-134500000D01*
X147959605Y-134500000D01*
X148678968Y-135219363D01*
X148685406Y-135238400D01*
X148797910Y-135448882D01*
X148984389Y-135524784D01*
X149022349Y-135562744D01*
X149050000Y-135551489D01*
X149077651Y-135562744D01*
X149115611Y-135524784D01*
X149302090Y-135448882D01*
X149410282Y-135230113D01*
X150140395Y-134500000D01*
X150499605Y-134500000D01*
X151562349Y-135562744D01*
X151842090Y-135448882D01*
X151997961Y-135133704D01*
X152089349Y-134794174D01*
X152112741Y-134443339D01*
X152067240Y-134094681D01*
X151954594Y-133761600D01*
X151842090Y-133551118D01*
X151562349Y-133437256D01*
X150499605Y-134500000D01*
X150140395Y-134500000D01*
X149421032Y-133780637D01*
X149414594Y-133761600D01*
X149302090Y-133551118D01*
X149115611Y-133475216D01*
X149077651Y-133437256D01*
X149050000Y-133448511D01*
X149022349Y-133437256D01*
X148984389Y-133475216D01*
X148797910Y-133551118D01*
X148689718Y-133769887D01*
X147959605Y-134500000D01*
X147600395Y-134500000D01*
X146881032Y-133780637D01*
X146874594Y-133761600D01*
X146762090Y-133551118D01*
X146575611Y-133475216D01*
X146537651Y-133437256D01*
X146510000Y-133448511D01*
X146482349Y-133437256D01*
X146444389Y-133475216D01*
X146257910Y-133551118D01*
X146149718Y-133769887D01*
X145419605Y-134500000D01*
X145060395Y-134500000D01*
X144341032Y-133780637D01*
X144334594Y-133761600D01*
X144222090Y-133551118D01*
X144035611Y-133475216D01*
X143997651Y-133437256D01*
X143970000Y-133448511D01*
X143942349Y-133437256D01*
X143904389Y-133475216D01*
X143717910Y-133551118D01*
X143609718Y-133769887D01*
X142879605Y-134500000D01*
X142520395Y-134500000D01*
X141457651Y-133437256D01*
X141177910Y-133551118D01*
X141022039Y-133866296D01*
X140930651Y-134205826D01*
X140907259Y-134556661D01*
X125127000Y-134556661D01*
X125127000Y-133257651D01*
X141637256Y-133257651D01*
X142700000Y-134320395D01*
X143762744Y-133257651D01*
X144177256Y-133257651D01*
X145240000Y-134320395D01*
X146302744Y-133257651D01*
X146717256Y-133257651D01*
X147780000Y-134320395D01*
X148842744Y-133257651D01*
X149257256Y-133257651D01*
X150320000Y-134320395D01*
X151382744Y-133257651D01*
X151268882Y-132977910D01*
X150953704Y-132822039D01*
X150614174Y-132730651D01*
X150263339Y-132707259D01*
X149914681Y-132752760D01*
X149581600Y-132865406D01*
X149371118Y-132977910D01*
X149257256Y-133257651D01*
X148842744Y-133257651D01*
X148728882Y-132977910D01*
X148413704Y-132822039D01*
X148074174Y-132730651D01*
X147723339Y-132707259D01*
X147374681Y-132752760D01*
X147041600Y-132865406D01*
X146831118Y-132977910D01*
X146717256Y-133257651D01*
X146302744Y-133257651D01*
X146188882Y-132977910D01*
X145873704Y-132822039D01*
X145534174Y-132730651D01*
X145183339Y-132707259D01*
X144834681Y-132752760D01*
X144501600Y-132865406D01*
X144291118Y-132977910D01*
X144177256Y-133257651D01*
X143762744Y-133257651D01*
X143648882Y-132977910D01*
X143333704Y-132822039D01*
X142994174Y-132730651D01*
X142643339Y-132707259D01*
X142294681Y-132752760D01*
X141961600Y-132865406D01*
X141751118Y-132977910D01*
X141637256Y-133257651D01*
X125127000Y-133257651D01*
X125127000Y-128122349D01*
X141637256Y-128122349D01*
X141751118Y-128402090D01*
X142066296Y-128557961D01*
X142405826Y-128649349D01*
X142756661Y-128672741D01*
X143105319Y-128627240D01*
X143438400Y-128514594D01*
X143648882Y-128402090D01*
X143762744Y-128122349D01*
X144177256Y-128122349D01*
X144291118Y-128402090D01*
X144606296Y-128557961D01*
X144945826Y-128649349D01*
X145296661Y-128672741D01*
X145645319Y-128627240D01*
X145978400Y-128514594D01*
X146188882Y-128402090D01*
X146302744Y-128122349D01*
X146717256Y-128122349D01*
X146831118Y-128402090D01*
X147146296Y-128557961D01*
X147485826Y-128649349D01*
X147836661Y-128672741D01*
X148185319Y-128627240D01*
X148518400Y-128514594D01*
X148728882Y-128402090D01*
X148842744Y-128122349D01*
X149257256Y-128122349D01*
X149371118Y-128402090D01*
X149686296Y-128557961D01*
X150025826Y-128649349D01*
X150376661Y-128672741D01*
X150725319Y-128627240D01*
X151058400Y-128514594D01*
X151268882Y-128402090D01*
X151382744Y-128122349D01*
X150320000Y-127059605D01*
X149257256Y-128122349D01*
X148842744Y-128122349D01*
X147780000Y-127059605D01*
X146717256Y-128122349D01*
X146302744Y-128122349D01*
X145240000Y-127059605D01*
X144177256Y-128122349D01*
X143762744Y-128122349D01*
X142700000Y-127059605D01*
X141637256Y-128122349D01*
X125127000Y-128122349D01*
X125127000Y-126936661D01*
X140907259Y-126936661D01*
X140952760Y-127285319D01*
X141065406Y-127618400D01*
X141177910Y-127828882D01*
X141457651Y-127942744D01*
X142520395Y-126880000D01*
X142879605Y-126880000D01*
X143598968Y-127599363D01*
X143605406Y-127618400D01*
X143717910Y-127828882D01*
X143904389Y-127904784D01*
X143942349Y-127942744D01*
X143970000Y-127931489D01*
X143997651Y-127942744D01*
X144035611Y-127904784D01*
X144222090Y-127828882D01*
X144330282Y-127610113D01*
X145060395Y-126880000D01*
X145419605Y-126880000D01*
X146138968Y-127599363D01*
X146145406Y-127618400D01*
X146257910Y-127828882D01*
X146444389Y-127904784D01*
X146482349Y-127942744D01*
X146510000Y-127931489D01*
X146537651Y-127942744D01*
X146575611Y-127904784D01*
X146762090Y-127828882D01*
X146870282Y-127610113D01*
X147600395Y-126880000D01*
X147959605Y-126880000D01*
X148678968Y-127599363D01*
X148685406Y-127618400D01*
X148797910Y-127828882D01*
X148984389Y-127904784D01*
X149022349Y-127942744D01*
X149050000Y-127931489D01*
X149077651Y-127942744D01*
X149115611Y-127904784D01*
X149302090Y-127828882D01*
X149410282Y-127610113D01*
X150140395Y-126880000D01*
X150499605Y-126880000D01*
X151562349Y-127942744D01*
X151842090Y-127828882D01*
X151997961Y-127513704D01*
X152089349Y-127174174D01*
X152112741Y-126823339D01*
X152067240Y-126474681D01*
X151954594Y-126141600D01*
X151842090Y-125931118D01*
X151562349Y-125817256D01*
X150499605Y-126880000D01*
X150140395Y-126880000D01*
X149421032Y-126160637D01*
X149414594Y-126141600D01*
X149302090Y-125931118D01*
X149115611Y-125855216D01*
X149077651Y-125817256D01*
X149050000Y-125828511D01*
X149022349Y-125817256D01*
X148984389Y-125855216D01*
X148797910Y-125931118D01*
X148689718Y-126149887D01*
X147959605Y-126880000D01*
X147600395Y-126880000D01*
X146881032Y-126160637D01*
X146874594Y-126141600D01*
X146762090Y-125931118D01*
X146575611Y-125855216D01*
X146537651Y-125817256D01*
X146510000Y-125828511D01*
X146482349Y-125817256D01*
X146444389Y-125855216D01*
X146257910Y-125931118D01*
X146149718Y-126149887D01*
X145419605Y-126880000D01*
X145060395Y-126880000D01*
X144341032Y-126160637D01*
X144334594Y-126141600D01*
X144222090Y-125931118D01*
X144035611Y-125855216D01*
X143997651Y-125817256D01*
X143970000Y-125828511D01*
X143942349Y-125817256D01*
X143904389Y-125855216D01*
X143717910Y-125931118D01*
X143609718Y-126149887D01*
X142879605Y-126880000D01*
X142520395Y-126880000D01*
X141457651Y-125817256D01*
X141177910Y-125931118D01*
X141022039Y-126246296D01*
X140930651Y-126585826D01*
X140907259Y-126936661D01*
X125127000Y-126936661D01*
X125127000Y-125637651D01*
X141637256Y-125637651D01*
X142700000Y-126700395D01*
X143762744Y-125637651D01*
X144177256Y-125637651D01*
X145240000Y-126700395D01*
X146302744Y-125637651D01*
X146717256Y-125637651D01*
X147780000Y-126700395D01*
X148842744Y-125637651D01*
X149257256Y-125637651D01*
X150320000Y-126700395D01*
X151382744Y-125637651D01*
X151268882Y-125357910D01*
X150953704Y-125202039D01*
X150614174Y-125110651D01*
X150263339Y-125087259D01*
X149914681Y-125132760D01*
X149581600Y-125245406D01*
X149371118Y-125357910D01*
X149257256Y-125637651D01*
X148842744Y-125637651D01*
X148728882Y-125357910D01*
X148413704Y-125202039D01*
X148074174Y-125110651D01*
X147723339Y-125087259D01*
X147374681Y-125132760D01*
X147041600Y-125245406D01*
X146831118Y-125357910D01*
X146717256Y-125637651D01*
X146302744Y-125637651D01*
X146188882Y-125357910D01*
X145873704Y-125202039D01*
X145534174Y-125110651D01*
X145183339Y-125087259D01*
X144834681Y-125132760D01*
X144501600Y-125245406D01*
X144291118Y-125357910D01*
X144177256Y-125637651D01*
X143762744Y-125637651D01*
X143648882Y-125357910D01*
X143333704Y-125202039D01*
X142994174Y-125110651D01*
X142643339Y-125087259D01*
X142294681Y-125132760D01*
X141961600Y-125245406D01*
X141751118Y-125357910D01*
X141637256Y-125637651D01*
X125127000Y-125637651D01*
X125127000Y-113564990D01*
X155328042Y-113564990D01*
X155313698Y-113639969D01*
X155434754Y-113873000D01*
X156873000Y-113873000D01*
X156873000Y-113853000D01*
X157127000Y-113853000D01*
X157127000Y-113873000D01*
X157147000Y-113873000D01*
X157147000Y-114127000D01*
X157127000Y-114127000D01*
X157127000Y-114147000D01*
X156873000Y-114147000D01*
X156873000Y-114127000D01*
X155434754Y-114127000D01*
X155313698Y-114360031D01*
X155330449Y-114447591D01*
X155445526Y-114720809D01*
X155611694Y-114966326D01*
X155822567Y-115174708D01*
X155963152Y-115267440D01*
X155934821Y-115282583D01*
X155705655Y-115470655D01*
X155554367Y-115655000D01*
X153503469Y-115655000D01*
X153460000Y-115650719D01*
X153416531Y-115655000D01*
X153416523Y-115655000D01*
X153286510Y-115667805D01*
X153119686Y-115718411D01*
X152965941Y-115800589D01*
X152864953Y-115883468D01*
X152864951Y-115883470D01*
X152831183Y-115911183D01*
X152803470Y-115944951D01*
X150543422Y-118205000D01*
X142473685Y-118205000D01*
X142282886Y-118014201D01*
X142056043Y-117862629D01*
X141803989Y-117758225D01*
X141536411Y-117705000D01*
X141263589Y-117705000D01*
X140996011Y-117758225D01*
X140743957Y-117862629D01*
X140517114Y-118014201D01*
X140324201Y-118207114D01*
X140172629Y-118433957D01*
X140068225Y-118686011D01*
X140015000Y-118953589D01*
X140015000Y-119226411D01*
X140068225Y-119493989D01*
X140172629Y-119746043D01*
X140324201Y-119972886D01*
X140392011Y-120040696D01*
X140326549Y-120106157D01*
X140443005Y-120222613D01*
X140204140Y-120288137D01*
X140088240Y-120535116D01*
X140022750Y-120799960D01*
X140010188Y-121072492D01*
X140051035Y-121342238D01*
X140143723Y-121598832D01*
X140201384Y-121706707D01*
X140198815Y-121708815D01*
X140119463Y-121805506D01*
X140060498Y-121915820D01*
X140024188Y-122035518D01*
X140011928Y-122160000D01*
X140011928Y-123660000D01*
X140024188Y-123784482D01*
X140060498Y-123904180D01*
X140119463Y-124014494D01*
X140198815Y-124111185D01*
X140295506Y-124190537D01*
X140405820Y-124249502D01*
X140525518Y-124285812D01*
X140650000Y-124298072D01*
X142150000Y-124298072D01*
X142274482Y-124285812D01*
X142394180Y-124249502D01*
X142504494Y-124190537D01*
X142601185Y-124111185D01*
X142680537Y-124014494D01*
X142739502Y-123904180D01*
X142772621Y-123795000D01*
X149046531Y-123795000D01*
X149090000Y-123799281D01*
X149133469Y-123795000D01*
X149133477Y-123795000D01*
X149263490Y-123782195D01*
X149430313Y-123731589D01*
X149584059Y-123649411D01*
X149718817Y-123538817D01*
X149746534Y-123505044D01*
X153286579Y-119965000D01*
X155554367Y-119965000D01*
X155705655Y-120149345D01*
X155771114Y-120203066D01*
X155661613Y-120261595D01*
X155527038Y-120372038D01*
X155416595Y-120506613D01*
X155334528Y-120660149D01*
X155283992Y-120826745D01*
X155266928Y-120999999D01*
X155266928Y-122240001D01*
X155283992Y-122413255D01*
X155334528Y-122579851D01*
X155416595Y-122733387D01*
X155527038Y-122867962D01*
X155661613Y-122978405D01*
X155815149Y-123060472D01*
X155981745Y-123111008D01*
X156154999Y-123128072D01*
X157845001Y-123128072D01*
X158018255Y-123111008D01*
X158184851Y-123060472D01*
X158338387Y-122978405D01*
X158472962Y-122867962D01*
X158583405Y-122733387D01*
X158665472Y-122579851D01*
X158716008Y-122413255D01*
X158733072Y-122240001D01*
X158733072Y-121138507D01*
X159140060Y-120731519D01*
X159173827Y-120703807D01*
X159211616Y-120657762D01*
X159284420Y-120569050D01*
X159284421Y-120569049D01*
X159366599Y-120415303D01*
X159417205Y-120248480D01*
X159430010Y-120118467D01*
X159430010Y-120118457D01*
X159434291Y-120074991D01*
X159430010Y-120031525D01*
X159430010Y-113496699D01*
X159434291Y-113453233D01*
X159430010Y-113409767D01*
X159430010Y-113409757D01*
X159417205Y-113279744D01*
X159366599Y-113112921D01*
X159284421Y-112959175D01*
X159173827Y-112824417D01*
X159140059Y-112796704D01*
X158428300Y-112084946D01*
X158400583Y-112051173D01*
X158265825Y-111940579D01*
X158112079Y-111858401D01*
X157945256Y-111807795D01*
X157815243Y-111794990D01*
X157815235Y-111794990D01*
X157771766Y-111790709D01*
X157728297Y-111794990D01*
X125127000Y-111794990D01*
X125127000Y-110160000D01*
X149015619Y-110160000D01*
X162340001Y-110247660D01*
G37*
X162340001Y-110247660D02*
X162340000Y-138340000D01*
X125127000Y-138340000D01*
X125127000Y-135742349D01*
X141637256Y-135742349D01*
X141751118Y-136022090D01*
X142066296Y-136177961D01*
X142405826Y-136269349D01*
X142756661Y-136292741D01*
X143105319Y-136247240D01*
X143438400Y-136134594D01*
X143648882Y-136022090D01*
X143762744Y-135742349D01*
X144177256Y-135742349D01*
X144291118Y-136022090D01*
X144606296Y-136177961D01*
X144945826Y-136269349D01*
X145296661Y-136292741D01*
X145645319Y-136247240D01*
X145978400Y-136134594D01*
X146188882Y-136022090D01*
X146302744Y-135742349D01*
X146717256Y-135742349D01*
X146831118Y-136022090D01*
X147146296Y-136177961D01*
X147485826Y-136269349D01*
X147836661Y-136292741D01*
X148185319Y-136247240D01*
X148518400Y-136134594D01*
X148728882Y-136022090D01*
X148842744Y-135742349D01*
X149257256Y-135742349D01*
X149371118Y-136022090D01*
X149686296Y-136177961D01*
X150025826Y-136269349D01*
X150376661Y-136292741D01*
X150725319Y-136247240D01*
X151058400Y-136134594D01*
X151268882Y-136022090D01*
X151382744Y-135742349D01*
X150320000Y-134679605D01*
X149257256Y-135742349D01*
X148842744Y-135742349D01*
X147780000Y-134679605D01*
X146717256Y-135742349D01*
X146302744Y-135742349D01*
X145240000Y-134679605D01*
X144177256Y-135742349D01*
X143762744Y-135742349D01*
X142700000Y-134679605D01*
X141637256Y-135742349D01*
X125127000Y-135742349D01*
X125127000Y-134556661D01*
X140907259Y-134556661D01*
X140952760Y-134905319D01*
X141065406Y-135238400D01*
X141177910Y-135448882D01*
X141457651Y-135562744D01*
X142520395Y-134500000D01*
X142879605Y-134500000D01*
X143598968Y-135219363D01*
X143605406Y-135238400D01*
X143717910Y-135448882D01*
X143904389Y-135524784D01*
X143942349Y-135562744D01*
X143970000Y-135551489D01*
X143997651Y-135562744D01*
X144035611Y-135524784D01*
X144222090Y-135448882D01*
X144330282Y-135230113D01*
X145060395Y-134500000D01*
X145419605Y-134500000D01*
X146138968Y-135219363D01*
X146145406Y-135238400D01*
X146257910Y-135448882D01*
X146444389Y-135524784D01*
X146482349Y-135562744D01*
X146510000Y-135551489D01*
X146537651Y-135562744D01*
X146575611Y-135524784D01*
X146762090Y-135448882D01*
X146870282Y-135230113D01*
X147600395Y-134500000D01*
X147959605Y-134500000D01*
X148678968Y-135219363D01*
X148685406Y-135238400D01*
X148797910Y-135448882D01*
X148984389Y-135524784D01*
X149022349Y-135562744D01*
X149050000Y-135551489D01*
X149077651Y-135562744D01*
X149115611Y-135524784D01*
X149302090Y-135448882D01*
X149410282Y-135230113D01*
X150140395Y-134500000D01*
X150499605Y-134500000D01*
X151562349Y-135562744D01*
X151842090Y-135448882D01*
X151997961Y-135133704D01*
X152089349Y-134794174D01*
X152112741Y-134443339D01*
X152067240Y-134094681D01*
X151954594Y-133761600D01*
X151842090Y-133551118D01*
X151562349Y-133437256D01*
X150499605Y-134500000D01*
X150140395Y-134500000D01*
X149421032Y-133780637D01*
X149414594Y-133761600D01*
X149302090Y-133551118D01*
X149115611Y-133475216D01*
X149077651Y-133437256D01*
X149050000Y-133448511D01*
X149022349Y-133437256D01*
X148984389Y-133475216D01*
X148797910Y-133551118D01*
X148689718Y-133769887D01*
X147959605Y-134500000D01*
X147600395Y-134500000D01*
X146881032Y-133780637D01*
X146874594Y-133761600D01*
X146762090Y-133551118D01*
X146575611Y-133475216D01*
X146537651Y-133437256D01*
X146510000Y-133448511D01*
X146482349Y-133437256D01*
X146444389Y-133475216D01*
X146257910Y-133551118D01*
X146149718Y-133769887D01*
X145419605Y-134500000D01*
X145060395Y-134500000D01*
X144341032Y-133780637D01*
X144334594Y-133761600D01*
X144222090Y-133551118D01*
X144035611Y-133475216D01*
X143997651Y-133437256D01*
X143970000Y-133448511D01*
X143942349Y-133437256D01*
X143904389Y-133475216D01*
X143717910Y-133551118D01*
X143609718Y-133769887D01*
X142879605Y-134500000D01*
X142520395Y-134500000D01*
X141457651Y-133437256D01*
X141177910Y-133551118D01*
X141022039Y-133866296D01*
X140930651Y-134205826D01*
X140907259Y-134556661D01*
X125127000Y-134556661D01*
X125127000Y-133257651D01*
X141637256Y-133257651D01*
X142700000Y-134320395D01*
X143762744Y-133257651D01*
X144177256Y-133257651D01*
X145240000Y-134320395D01*
X146302744Y-133257651D01*
X146717256Y-133257651D01*
X147780000Y-134320395D01*
X148842744Y-133257651D01*
X149257256Y-133257651D01*
X150320000Y-134320395D01*
X151382744Y-133257651D01*
X151268882Y-132977910D01*
X150953704Y-132822039D01*
X150614174Y-132730651D01*
X150263339Y-132707259D01*
X149914681Y-132752760D01*
X149581600Y-132865406D01*
X149371118Y-132977910D01*
X149257256Y-133257651D01*
X148842744Y-133257651D01*
X148728882Y-132977910D01*
X148413704Y-132822039D01*
X148074174Y-132730651D01*
X147723339Y-132707259D01*
X147374681Y-132752760D01*
X147041600Y-132865406D01*
X146831118Y-132977910D01*
X146717256Y-133257651D01*
X146302744Y-133257651D01*
X146188882Y-132977910D01*
X145873704Y-132822039D01*
X145534174Y-132730651D01*
X145183339Y-132707259D01*
X144834681Y-132752760D01*
X144501600Y-132865406D01*
X144291118Y-132977910D01*
X144177256Y-133257651D01*
X143762744Y-133257651D01*
X143648882Y-132977910D01*
X143333704Y-132822039D01*
X142994174Y-132730651D01*
X142643339Y-132707259D01*
X142294681Y-132752760D01*
X141961600Y-132865406D01*
X141751118Y-132977910D01*
X141637256Y-133257651D01*
X125127000Y-133257651D01*
X125127000Y-128122349D01*
X141637256Y-128122349D01*
X141751118Y-128402090D01*
X142066296Y-128557961D01*
X142405826Y-128649349D01*
X142756661Y-128672741D01*
X143105319Y-128627240D01*
X143438400Y-128514594D01*
X143648882Y-128402090D01*
X143762744Y-128122349D01*
X144177256Y-128122349D01*
X144291118Y-128402090D01*
X144606296Y-128557961D01*
X144945826Y-128649349D01*
X145296661Y-128672741D01*
X145645319Y-128627240D01*
X145978400Y-128514594D01*
X146188882Y-128402090D01*
X146302744Y-128122349D01*
X146717256Y-128122349D01*
X146831118Y-128402090D01*
X147146296Y-128557961D01*
X147485826Y-128649349D01*
X147836661Y-128672741D01*
X148185319Y-128627240D01*
X148518400Y-128514594D01*
X148728882Y-128402090D01*
X148842744Y-128122349D01*
X149257256Y-128122349D01*
X149371118Y-128402090D01*
X149686296Y-128557961D01*
X150025826Y-128649349D01*
X150376661Y-128672741D01*
X150725319Y-128627240D01*
X151058400Y-128514594D01*
X151268882Y-128402090D01*
X151382744Y-128122349D01*
X150320000Y-127059605D01*
X149257256Y-128122349D01*
X148842744Y-128122349D01*
X147780000Y-127059605D01*
X146717256Y-128122349D01*
X146302744Y-128122349D01*
X145240000Y-127059605D01*
X144177256Y-128122349D01*
X143762744Y-128122349D01*
X142700000Y-127059605D01*
X141637256Y-128122349D01*
X125127000Y-128122349D01*
X125127000Y-126936661D01*
X140907259Y-126936661D01*
X140952760Y-127285319D01*
X141065406Y-127618400D01*
X141177910Y-127828882D01*
X141457651Y-127942744D01*
X142520395Y-126880000D01*
X142879605Y-126880000D01*
X143598968Y-127599363D01*
X143605406Y-127618400D01*
X143717910Y-127828882D01*
X143904389Y-127904784D01*
X143942349Y-127942744D01*
X143970000Y-127931489D01*
X143997651Y-127942744D01*
X144035611Y-127904784D01*
X144222090Y-127828882D01*
X144330282Y-127610113D01*
X145060395Y-126880000D01*
X145419605Y-126880000D01*
X146138968Y-127599363D01*
X146145406Y-127618400D01*
X146257910Y-127828882D01*
X146444389Y-127904784D01*
X146482349Y-127942744D01*
X146510000Y-127931489D01*
X146537651Y-127942744D01*
X146575611Y-127904784D01*
X146762090Y-127828882D01*
X146870282Y-127610113D01*
X147600395Y-126880000D01*
X147959605Y-126880000D01*
X148678968Y-127599363D01*
X148685406Y-127618400D01*
X148797910Y-127828882D01*
X148984389Y-127904784D01*
X149022349Y-127942744D01*
X149050000Y-127931489D01*
X149077651Y-127942744D01*
X149115611Y-127904784D01*
X149302090Y-127828882D01*
X149410282Y-127610113D01*
X150140395Y-126880000D01*
X150499605Y-126880000D01*
X151562349Y-127942744D01*
X151842090Y-127828882D01*
X151997961Y-127513704D01*
X152089349Y-127174174D01*
X152112741Y-126823339D01*
X152067240Y-126474681D01*
X151954594Y-126141600D01*
X151842090Y-125931118D01*
X151562349Y-125817256D01*
X150499605Y-126880000D01*
X150140395Y-126880000D01*
X149421032Y-126160637D01*
X149414594Y-126141600D01*
X149302090Y-125931118D01*
X149115611Y-125855216D01*
X149077651Y-125817256D01*
X149050000Y-125828511D01*
X149022349Y-125817256D01*
X148984389Y-125855216D01*
X148797910Y-125931118D01*
X148689718Y-126149887D01*
X147959605Y-126880000D01*
X147600395Y-126880000D01*
X146881032Y-126160637D01*
X146874594Y-126141600D01*
X146762090Y-125931118D01*
X146575611Y-125855216D01*
X146537651Y-125817256D01*
X146510000Y-125828511D01*
X146482349Y-125817256D01*
X146444389Y-125855216D01*
X146257910Y-125931118D01*
X146149718Y-126149887D01*
X145419605Y-126880000D01*
X145060395Y-126880000D01*
X144341032Y-126160637D01*
X144334594Y-126141600D01*
X144222090Y-125931118D01*
X144035611Y-125855216D01*
X143997651Y-125817256D01*
X143970000Y-125828511D01*
X143942349Y-125817256D01*
X143904389Y-125855216D01*
X143717910Y-125931118D01*
X143609718Y-126149887D01*
X142879605Y-126880000D01*
X142520395Y-126880000D01*
X141457651Y-125817256D01*
X141177910Y-125931118D01*
X141022039Y-126246296D01*
X140930651Y-126585826D01*
X140907259Y-126936661D01*
X125127000Y-126936661D01*
X125127000Y-125637651D01*
X141637256Y-125637651D01*
X142700000Y-126700395D01*
X143762744Y-125637651D01*
X144177256Y-125637651D01*
X145240000Y-126700395D01*
X146302744Y-125637651D01*
X146717256Y-125637651D01*
X147780000Y-126700395D01*
X148842744Y-125637651D01*
X149257256Y-125637651D01*
X150320000Y-126700395D01*
X151382744Y-125637651D01*
X151268882Y-125357910D01*
X150953704Y-125202039D01*
X150614174Y-125110651D01*
X150263339Y-125087259D01*
X149914681Y-125132760D01*
X149581600Y-125245406D01*
X149371118Y-125357910D01*
X149257256Y-125637651D01*
X148842744Y-125637651D01*
X148728882Y-125357910D01*
X148413704Y-125202039D01*
X148074174Y-125110651D01*
X147723339Y-125087259D01*
X147374681Y-125132760D01*
X147041600Y-125245406D01*
X146831118Y-125357910D01*
X146717256Y-125637651D01*
X146302744Y-125637651D01*
X146188882Y-125357910D01*
X145873704Y-125202039D01*
X145534174Y-125110651D01*
X145183339Y-125087259D01*
X144834681Y-125132760D01*
X144501600Y-125245406D01*
X144291118Y-125357910D01*
X144177256Y-125637651D01*
X143762744Y-125637651D01*
X143648882Y-125357910D01*
X143333704Y-125202039D01*
X142994174Y-125110651D01*
X142643339Y-125087259D01*
X142294681Y-125132760D01*
X141961600Y-125245406D01*
X141751118Y-125357910D01*
X141637256Y-125637651D01*
X125127000Y-125637651D01*
X125127000Y-113564990D01*
X155328042Y-113564990D01*
X155313698Y-113639969D01*
X155434754Y-113873000D01*
X156873000Y-113873000D01*
X156873000Y-113853000D01*
X157127000Y-113853000D01*
X157127000Y-113873000D01*
X157147000Y-113873000D01*
X157147000Y-114127000D01*
X157127000Y-114127000D01*
X157127000Y-114147000D01*
X156873000Y-114147000D01*
X156873000Y-114127000D01*
X155434754Y-114127000D01*
X155313698Y-114360031D01*
X155330449Y-114447591D01*
X155445526Y-114720809D01*
X155611694Y-114966326D01*
X155822567Y-115174708D01*
X155963152Y-115267440D01*
X155934821Y-115282583D01*
X155705655Y-115470655D01*
X155554367Y-115655000D01*
X153503469Y-115655000D01*
X153460000Y-115650719D01*
X153416531Y-115655000D01*
X153416523Y-115655000D01*
X153286510Y-115667805D01*
X153119686Y-115718411D01*
X152965941Y-115800589D01*
X152864953Y-115883468D01*
X152864951Y-115883470D01*
X152831183Y-115911183D01*
X152803470Y-115944951D01*
X150543422Y-118205000D01*
X142473685Y-118205000D01*
X142282886Y-118014201D01*
X142056043Y-117862629D01*
X141803989Y-117758225D01*
X141536411Y-117705000D01*
X141263589Y-117705000D01*
X140996011Y-117758225D01*
X140743957Y-117862629D01*
X140517114Y-118014201D01*
X140324201Y-118207114D01*
X140172629Y-118433957D01*
X140068225Y-118686011D01*
X140015000Y-118953589D01*
X140015000Y-119226411D01*
X140068225Y-119493989D01*
X140172629Y-119746043D01*
X140324201Y-119972886D01*
X140392011Y-120040696D01*
X140326549Y-120106157D01*
X140443005Y-120222613D01*
X140204140Y-120288137D01*
X140088240Y-120535116D01*
X140022750Y-120799960D01*
X140010188Y-121072492D01*
X140051035Y-121342238D01*
X140143723Y-121598832D01*
X140201384Y-121706707D01*
X140198815Y-121708815D01*
X140119463Y-121805506D01*
X140060498Y-121915820D01*
X140024188Y-122035518D01*
X140011928Y-122160000D01*
X140011928Y-123660000D01*
X140024188Y-123784482D01*
X140060498Y-123904180D01*
X140119463Y-124014494D01*
X140198815Y-124111185D01*
X140295506Y-124190537D01*
X140405820Y-124249502D01*
X140525518Y-124285812D01*
X140650000Y-124298072D01*
X142150000Y-124298072D01*
X142274482Y-124285812D01*
X142394180Y-124249502D01*
X142504494Y-124190537D01*
X142601185Y-124111185D01*
X142680537Y-124014494D01*
X142739502Y-123904180D01*
X142772621Y-123795000D01*
X149046531Y-123795000D01*
X149090000Y-123799281D01*
X149133469Y-123795000D01*
X149133477Y-123795000D01*
X149263490Y-123782195D01*
X149430313Y-123731589D01*
X149584059Y-123649411D01*
X149718817Y-123538817D01*
X149746534Y-123505044D01*
X153286579Y-119965000D01*
X155554367Y-119965000D01*
X155705655Y-120149345D01*
X155771114Y-120203066D01*
X155661613Y-120261595D01*
X155527038Y-120372038D01*
X155416595Y-120506613D01*
X155334528Y-120660149D01*
X155283992Y-120826745D01*
X155266928Y-120999999D01*
X155266928Y-122240001D01*
X155283992Y-122413255D01*
X155334528Y-122579851D01*
X155416595Y-122733387D01*
X155527038Y-122867962D01*
X155661613Y-122978405D01*
X155815149Y-123060472D01*
X155981745Y-123111008D01*
X156154999Y-123128072D01*
X157845001Y-123128072D01*
X158018255Y-123111008D01*
X158184851Y-123060472D01*
X158338387Y-122978405D01*
X158472962Y-122867962D01*
X158583405Y-122733387D01*
X158665472Y-122579851D01*
X158716008Y-122413255D01*
X158733072Y-122240001D01*
X158733072Y-121138507D01*
X159140060Y-120731519D01*
X159173827Y-120703807D01*
X159211616Y-120657762D01*
X159284420Y-120569050D01*
X159284421Y-120569049D01*
X159366599Y-120415303D01*
X159417205Y-120248480D01*
X159430010Y-120118467D01*
X159430010Y-120118457D01*
X159434291Y-120074991D01*
X159430010Y-120031525D01*
X159430010Y-113496699D01*
X159434291Y-113453233D01*
X159430010Y-113409767D01*
X159430010Y-113409757D01*
X159417205Y-113279744D01*
X159366599Y-113112921D01*
X159284421Y-112959175D01*
X159173827Y-112824417D01*
X159140059Y-112796704D01*
X158428300Y-112084946D01*
X158400583Y-112051173D01*
X158265825Y-111940579D01*
X158112079Y-111858401D01*
X157945256Y-111807795D01*
X157815243Y-111794990D01*
X157815235Y-111794990D01*
X157771766Y-111790709D01*
X157728297Y-111794990D01*
X125127000Y-111794990D01*
X125127000Y-110160000D01*
X149015619Y-110160000D01*
X162340001Y-110247660D01*
G36*
X141593748Y-120985858D02*
G01*
X141579605Y-121000000D01*
X141593748Y-121014143D01*
X141414143Y-121193748D01*
X141400000Y-121179605D01*
X141385858Y-121193748D01*
X141206253Y-121014143D01*
X141220395Y-121000000D01*
X141206253Y-120985858D01*
X141385858Y-120806253D01*
X141400000Y-120820395D01*
X141414143Y-120806253D01*
X141593748Y-120985858D01*
G37*
X141593748Y-120985858D02*
X141579605Y-121000000D01*
X141593748Y-121014143D01*
X141414143Y-121193748D01*
X141400000Y-121179605D01*
X141385858Y-121193748D01*
X141206253Y-121014143D01*
X141220395Y-121000000D01*
X141206253Y-120985858D01*
X141385858Y-120806253D01*
X141400000Y-120820395D01*
X141414143Y-120806253D01*
X141593748Y-120985858D01*
M02*
