G04 #@! TF.GenerationSoftware,KiCad,Pcbnew,(5.1.6)-1*
G04 #@! TF.CreationDate,2020-10-31T14:21:40+01:00*
G04 #@! TF.ProjectId,Batmonitor,4261746d-6f6e-4697-946f-722e6b696361,rev?*
G04 #@! TF.SameCoordinates,Original*
G04 #@! TF.FileFunction,Paste,Top*
G04 #@! TF.FilePolarity,Positive*
%FSLAX46Y46*%
G04 Gerber Fmt 4.6, Leading zero omitted, Abs format (unit mm)*
G04 Created by KiCad (PCBNEW (5.1.6)-1) date 2020-10-31 14:21:40*
%MOMM*%
%LPD*%
G01*
G04 APERTURE LIST*
%ADD10R,3.050000X2.750000*%
%ADD11R,2.200000X1.200000*%
%ADD12R,2.800000X1.000000*%
%ADD13R,2.500000X1.800000*%
%ADD14R,0.650000X1.220000*%
%ADD15R,0.900000X0.800000*%
%ADD16R,2.400000X0.740000*%
G04 APERTURE END LIST*
G36*
G01*
X146887500Y-98956250D02*
X146887500Y-98043750D01*
G75*
G02*
X147131250Y-97800000I243750J0D01*
G01*
X147618750Y-97800000D01*
G75*
G02*
X147862500Y-98043750I0J-243750D01*
G01*
X147862500Y-98956250D01*
G75*
G02*
X147618750Y-99200000I-243750J0D01*
G01*
X147131250Y-99200000D01*
G75*
G02*
X146887500Y-98956250I0J243750D01*
G01*
G37*
G36*
G01*
X145012500Y-98956250D02*
X145012500Y-98043750D01*
G75*
G02*
X145256250Y-97800000I243750J0D01*
G01*
X145743750Y-97800000D01*
G75*
G02*
X145987500Y-98043750I0J-243750D01*
G01*
X145987500Y-98956250D01*
G75*
G02*
X145743750Y-99200000I-243750J0D01*
G01*
X145256250Y-99200000D01*
G75*
G02*
X145012500Y-98956250I0J243750D01*
G01*
G37*
G36*
G01*
X146887500Y-100956250D02*
X146887500Y-100043750D01*
G75*
G02*
X147131250Y-99800000I243750J0D01*
G01*
X147618750Y-99800000D01*
G75*
G02*
X147862500Y-100043750I0J-243750D01*
G01*
X147862500Y-100956250D01*
G75*
G02*
X147618750Y-101200000I-243750J0D01*
G01*
X147131250Y-101200000D01*
G75*
G02*
X146887500Y-100956250I0J243750D01*
G01*
G37*
G36*
G01*
X145012500Y-100956250D02*
X145012500Y-100043750D01*
G75*
G02*
X145256250Y-99800000I243750J0D01*
G01*
X145743750Y-99800000D01*
G75*
G02*
X145987500Y-100043750I0J-243750D01*
G01*
X145987500Y-100956250D01*
G75*
G02*
X145743750Y-101200000I-243750J0D01*
G01*
X145256250Y-101200000D01*
G75*
G02*
X145012500Y-100956250I0J243750D01*
G01*
G37*
G36*
G01*
X112056250Y-89787500D02*
X111143750Y-89787500D01*
G75*
G02*
X110900000Y-89543750I0J243750D01*
G01*
X110900000Y-89056250D01*
G75*
G02*
X111143750Y-88812500I243750J0D01*
G01*
X112056250Y-88812500D01*
G75*
G02*
X112300000Y-89056250I0J-243750D01*
G01*
X112300000Y-89543750D01*
G75*
G02*
X112056250Y-89787500I-243750J0D01*
G01*
G37*
G36*
G01*
X112056250Y-91662500D02*
X111143750Y-91662500D01*
G75*
G02*
X110900000Y-91418750I0J243750D01*
G01*
X110900000Y-90931250D01*
G75*
G02*
X111143750Y-90687500I243750J0D01*
G01*
X112056250Y-90687500D01*
G75*
G02*
X112300000Y-90931250I0J-243750D01*
G01*
X112300000Y-91418750D01*
G75*
G02*
X112056250Y-91662500I-243750J0D01*
G01*
G37*
D10*
X122650000Y-88450000D03*
X119300000Y-91500000D03*
X122650000Y-91500000D03*
X119300000Y-88450000D03*
D11*
X127275000Y-87695000D03*
X127275000Y-92255000D03*
G36*
G01*
X145987500Y-96043750D02*
X145987500Y-96956250D01*
G75*
G02*
X145743750Y-97200000I-243750J0D01*
G01*
X145256250Y-97200000D01*
G75*
G02*
X145012500Y-96956250I0J243750D01*
G01*
X145012500Y-96043750D01*
G75*
G02*
X145256250Y-95800000I243750J0D01*
G01*
X145743750Y-95800000D01*
G75*
G02*
X145987500Y-96043750I0J-243750D01*
G01*
G37*
G36*
G01*
X147862500Y-96043750D02*
X147862500Y-96956250D01*
G75*
G02*
X147618750Y-97200000I-243750J0D01*
G01*
X147131250Y-97200000D01*
G75*
G02*
X146887500Y-96956250I0J243750D01*
G01*
X146887500Y-96043750D01*
G75*
G02*
X147131250Y-95800000I243750J0D01*
G01*
X147618750Y-95800000D01*
G75*
G02*
X147862500Y-96043750I0J-243750D01*
G01*
G37*
G36*
G01*
X136987500Y-95156250D02*
X136987500Y-94243750D01*
G75*
G02*
X137231250Y-94000000I243750J0D01*
G01*
X137718750Y-94000000D01*
G75*
G02*
X137962500Y-94243750I0J-243750D01*
G01*
X137962500Y-95156250D01*
G75*
G02*
X137718750Y-95400000I-243750J0D01*
G01*
X137231250Y-95400000D01*
G75*
G02*
X136987500Y-95156250I0J243750D01*
G01*
G37*
G36*
G01*
X135112500Y-95156250D02*
X135112500Y-94243750D01*
G75*
G02*
X135356250Y-94000000I243750J0D01*
G01*
X135843750Y-94000000D01*
G75*
G02*
X136087500Y-94243750I0J-243750D01*
G01*
X136087500Y-95156250D01*
G75*
G02*
X135843750Y-95400000I-243750J0D01*
G01*
X135356250Y-95400000D01*
G75*
G02*
X135112500Y-95156250I0J243750D01*
G01*
G37*
G36*
G01*
X136375000Y-75780000D02*
X136375000Y-75480000D01*
G75*
G02*
X136525000Y-75330000I150000J0D01*
G01*
X138175000Y-75330000D01*
G75*
G02*
X138325000Y-75480000I0J-150000D01*
G01*
X138325000Y-75780000D01*
G75*
G02*
X138175000Y-75930000I-150000J0D01*
G01*
X136525000Y-75930000D01*
G75*
G02*
X136375000Y-75780000I0J150000D01*
G01*
G37*
G36*
G01*
X136375000Y-77050000D02*
X136375000Y-76750000D01*
G75*
G02*
X136525000Y-76600000I150000J0D01*
G01*
X138175000Y-76600000D01*
G75*
G02*
X138325000Y-76750000I0J-150000D01*
G01*
X138325000Y-77050000D01*
G75*
G02*
X138175000Y-77200000I-150000J0D01*
G01*
X136525000Y-77200000D01*
G75*
G02*
X136375000Y-77050000I0J150000D01*
G01*
G37*
G36*
G01*
X136375000Y-78320000D02*
X136375000Y-78020000D01*
G75*
G02*
X136525000Y-77870000I150000J0D01*
G01*
X138175000Y-77870000D01*
G75*
G02*
X138325000Y-78020000I0J-150000D01*
G01*
X138325000Y-78320000D01*
G75*
G02*
X138175000Y-78470000I-150000J0D01*
G01*
X136525000Y-78470000D01*
G75*
G02*
X136375000Y-78320000I0J150000D01*
G01*
G37*
G36*
G01*
X136375000Y-79590000D02*
X136375000Y-79290000D01*
G75*
G02*
X136525000Y-79140000I150000J0D01*
G01*
X138175000Y-79140000D01*
G75*
G02*
X138325000Y-79290000I0J-150000D01*
G01*
X138325000Y-79590000D01*
G75*
G02*
X138175000Y-79740000I-150000J0D01*
G01*
X136525000Y-79740000D01*
G75*
G02*
X136375000Y-79590000I0J150000D01*
G01*
G37*
G36*
G01*
X131425000Y-79590000D02*
X131425000Y-79290000D01*
G75*
G02*
X131575000Y-79140000I150000J0D01*
G01*
X133225000Y-79140000D01*
G75*
G02*
X133375000Y-79290000I0J-150000D01*
G01*
X133375000Y-79590000D01*
G75*
G02*
X133225000Y-79740000I-150000J0D01*
G01*
X131575000Y-79740000D01*
G75*
G02*
X131425000Y-79590000I0J150000D01*
G01*
G37*
G36*
G01*
X131425000Y-78320000D02*
X131425000Y-78020000D01*
G75*
G02*
X131575000Y-77870000I150000J0D01*
G01*
X133225000Y-77870000D01*
G75*
G02*
X133375000Y-78020000I0J-150000D01*
G01*
X133375000Y-78320000D01*
G75*
G02*
X133225000Y-78470000I-150000J0D01*
G01*
X131575000Y-78470000D01*
G75*
G02*
X131425000Y-78320000I0J150000D01*
G01*
G37*
G36*
G01*
X131425000Y-77050000D02*
X131425000Y-76750000D01*
G75*
G02*
X131575000Y-76600000I150000J0D01*
G01*
X133225000Y-76600000D01*
G75*
G02*
X133375000Y-76750000I0J-150000D01*
G01*
X133375000Y-77050000D01*
G75*
G02*
X133225000Y-77200000I-150000J0D01*
G01*
X131575000Y-77200000D01*
G75*
G02*
X131425000Y-77050000I0J150000D01*
G01*
G37*
G36*
G01*
X131425000Y-75780000D02*
X131425000Y-75480000D01*
G75*
G02*
X131575000Y-75330000I150000J0D01*
G01*
X133225000Y-75330000D01*
G75*
G02*
X133375000Y-75480000I0J-150000D01*
G01*
X133375000Y-75780000D01*
G75*
G02*
X133225000Y-75930000I-150000J0D01*
G01*
X131575000Y-75930000D01*
G75*
G02*
X131425000Y-75780000I0J150000D01*
G01*
G37*
D12*
X108900000Y-93200000D03*
X103100000Y-93200000D03*
X108900000Y-89200000D03*
X103100000Y-89200000D03*
X108900000Y-86200000D03*
X103100000Y-86200000D03*
X108900000Y-82200000D03*
X103100000Y-82200000D03*
G36*
G01*
X111143750Y-81687500D02*
X112056250Y-81687500D01*
G75*
G02*
X112300000Y-81931250I0J-243750D01*
G01*
X112300000Y-82418750D01*
G75*
G02*
X112056250Y-82662500I-243750J0D01*
G01*
X111143750Y-82662500D01*
G75*
G02*
X110900000Y-82418750I0J243750D01*
G01*
X110900000Y-81931250D01*
G75*
G02*
X111143750Y-81687500I243750J0D01*
G01*
G37*
G36*
G01*
X111143750Y-79812500D02*
X112056250Y-79812500D01*
G75*
G02*
X112300000Y-80056250I0J-243750D01*
G01*
X112300000Y-80543750D01*
G75*
G02*
X112056250Y-80787500I-243750J0D01*
G01*
X111143750Y-80787500D01*
G75*
G02*
X110900000Y-80543750I0J243750D01*
G01*
X110900000Y-80056250D01*
G75*
G02*
X111143750Y-79812500I243750J0D01*
G01*
G37*
G36*
G01*
X128387500Y-85656250D02*
X128387500Y-84743750D01*
G75*
G02*
X128631250Y-84500000I243750J0D01*
G01*
X129118750Y-84500000D01*
G75*
G02*
X129362500Y-84743750I0J-243750D01*
G01*
X129362500Y-85656250D01*
G75*
G02*
X129118750Y-85900000I-243750J0D01*
G01*
X128631250Y-85900000D01*
G75*
G02*
X128387500Y-85656250I0J243750D01*
G01*
G37*
G36*
G01*
X126512500Y-85656250D02*
X126512500Y-84743750D01*
G75*
G02*
X126756250Y-84500000I243750J0D01*
G01*
X127243750Y-84500000D01*
G75*
G02*
X127487500Y-84743750I0J-243750D01*
G01*
X127487500Y-85656250D01*
G75*
G02*
X127243750Y-85900000I-243750J0D01*
G01*
X126756250Y-85900000D01*
G75*
G02*
X126512500Y-85656250I0J243750D01*
G01*
G37*
G36*
G01*
X128712500Y-95256250D02*
X128712500Y-94343750D01*
G75*
G02*
X128956250Y-94100000I243750J0D01*
G01*
X129443750Y-94100000D01*
G75*
G02*
X129687500Y-94343750I0J-243750D01*
G01*
X129687500Y-95256250D01*
G75*
G02*
X129443750Y-95500000I-243750J0D01*
G01*
X128956250Y-95500000D01*
G75*
G02*
X128712500Y-95256250I0J243750D01*
G01*
G37*
G36*
G01*
X126837500Y-95256250D02*
X126837500Y-94343750D01*
G75*
G02*
X127081250Y-94100000I243750J0D01*
G01*
X127568750Y-94100000D01*
G75*
G02*
X127812500Y-94343750I0J-243750D01*
G01*
X127812500Y-95256250D01*
G75*
G02*
X127568750Y-95500000I-243750J0D01*
G01*
X127081250Y-95500000D01*
G75*
G02*
X126837500Y-95256250I0J243750D01*
G01*
G37*
D13*
X119000000Y-96500000D03*
X115000000Y-96500000D03*
G36*
G01*
X114925000Y-98875000D02*
X114925000Y-100125000D01*
G75*
G02*
X114675000Y-100375000I-250000J0D01*
G01*
X113925000Y-100375000D01*
G75*
G02*
X113675000Y-100125000I0J250000D01*
G01*
X113675000Y-98875000D01*
G75*
G02*
X113925000Y-98625000I250000J0D01*
G01*
X114675000Y-98625000D01*
G75*
G02*
X114925000Y-98875000I0J-250000D01*
G01*
G37*
G36*
G01*
X117725000Y-98875000D02*
X117725000Y-100125000D01*
G75*
G02*
X117475000Y-100375000I-250000J0D01*
G01*
X116725000Y-100375000D01*
G75*
G02*
X116475000Y-100125000I0J250000D01*
G01*
X116475000Y-98875000D01*
G75*
G02*
X116725000Y-98625000I250000J0D01*
G01*
X117475000Y-98625000D01*
G75*
G02*
X117725000Y-98875000I0J-250000D01*
G01*
G37*
D14*
X123300000Y-82680000D03*
X125200000Y-82680000D03*
X125200000Y-85300000D03*
X124250000Y-85300000D03*
X123300000Y-85300000D03*
D15*
X151900000Y-70400000D03*
X149900000Y-71350000D03*
X149900000Y-69450000D03*
G36*
G01*
X130756250Y-64312500D02*
X129843750Y-64312500D01*
G75*
G02*
X129600000Y-64068750I0J243750D01*
G01*
X129600000Y-63581250D01*
G75*
G02*
X129843750Y-63337500I243750J0D01*
G01*
X130756250Y-63337500D01*
G75*
G02*
X131000000Y-63581250I0J-243750D01*
G01*
X131000000Y-64068750D01*
G75*
G02*
X130756250Y-64312500I-243750J0D01*
G01*
G37*
G36*
G01*
X130756250Y-66187500D02*
X129843750Y-66187500D01*
G75*
G02*
X129600000Y-65943750I0J243750D01*
G01*
X129600000Y-65456250D01*
G75*
G02*
X129843750Y-65212500I243750J0D01*
G01*
X130756250Y-65212500D01*
G75*
G02*
X131000000Y-65456250I0J-243750D01*
G01*
X131000000Y-65943750D01*
G75*
G02*
X130756250Y-66187500I-243750J0D01*
G01*
G37*
G36*
G01*
X129143750Y-80287500D02*
X130056250Y-80287500D01*
G75*
G02*
X130300000Y-80531250I0J-243750D01*
G01*
X130300000Y-81018750D01*
G75*
G02*
X130056250Y-81262500I-243750J0D01*
G01*
X129143750Y-81262500D01*
G75*
G02*
X128900000Y-81018750I0J243750D01*
G01*
X128900000Y-80531250D01*
G75*
G02*
X129143750Y-80287500I243750J0D01*
G01*
G37*
G36*
G01*
X129143750Y-78412500D02*
X130056250Y-78412500D01*
G75*
G02*
X130300000Y-78656250I0J-243750D01*
G01*
X130300000Y-79143750D01*
G75*
G02*
X130056250Y-79387500I-243750J0D01*
G01*
X129143750Y-79387500D01*
G75*
G02*
X128900000Y-79143750I0J243750D01*
G01*
X128900000Y-78656250D01*
G75*
G02*
X129143750Y-78412500I243750J0D01*
G01*
G37*
G36*
G01*
X115612500Y-74043750D02*
X115612500Y-74956250D01*
G75*
G02*
X115368750Y-75200000I-243750J0D01*
G01*
X114881250Y-75200000D01*
G75*
G02*
X114637500Y-74956250I0J243750D01*
G01*
X114637500Y-74043750D01*
G75*
G02*
X114881250Y-73800000I243750J0D01*
G01*
X115368750Y-73800000D01*
G75*
G02*
X115612500Y-74043750I0J-243750D01*
G01*
G37*
G36*
G01*
X117487500Y-74043750D02*
X117487500Y-74956250D01*
G75*
G02*
X117243750Y-75200000I-243750J0D01*
G01*
X116756250Y-75200000D01*
G75*
G02*
X116512500Y-74956250I0J243750D01*
G01*
X116512500Y-74043750D01*
G75*
G02*
X116756250Y-73800000I243750J0D01*
G01*
X117243750Y-73800000D01*
G75*
G02*
X117487500Y-74043750I0J-243750D01*
G01*
G37*
D16*
X104080000Y-62710000D03*
X107980000Y-62710000D03*
X104080000Y-63980000D03*
X107980000Y-63980000D03*
X104080000Y-65250000D03*
X107980000Y-65250000D03*
X104080000Y-66520000D03*
X107980000Y-66520000D03*
X104080000Y-67790000D03*
X107980000Y-67790000D03*
G36*
G01*
X103487500Y-70543750D02*
X103487500Y-71456250D01*
G75*
G02*
X103243750Y-71700000I-243750J0D01*
G01*
X102756250Y-71700000D01*
G75*
G02*
X102512500Y-71456250I0J243750D01*
G01*
X102512500Y-70543750D01*
G75*
G02*
X102756250Y-70300000I243750J0D01*
G01*
X103243750Y-70300000D01*
G75*
G02*
X103487500Y-70543750I0J-243750D01*
G01*
G37*
G36*
G01*
X105362500Y-70543750D02*
X105362500Y-71456250D01*
G75*
G02*
X105118750Y-71700000I-243750J0D01*
G01*
X104631250Y-71700000D01*
G75*
G02*
X104387500Y-71456250I0J243750D01*
G01*
X104387500Y-70543750D01*
G75*
G02*
X104631250Y-70300000I243750J0D01*
G01*
X105118750Y-70300000D01*
G75*
G02*
X105362500Y-70543750I0J-243750D01*
G01*
G37*
D15*
X148480000Y-80870000D03*
X150480000Y-79920000D03*
X150480000Y-81820000D03*
G36*
G01*
X120950000Y-70450000D02*
X120950000Y-69200000D01*
G75*
G02*
X121075000Y-69075000I125000J0D01*
G01*
X121325000Y-69075000D01*
G75*
G02*
X121450000Y-69200000I0J-125000D01*
G01*
X121450000Y-70450000D01*
G75*
G02*
X121325000Y-70575000I-125000J0D01*
G01*
X121075000Y-70575000D01*
G75*
G02*
X120950000Y-70450000I0J125000D01*
G01*
G37*
G36*
G01*
X121750000Y-70450000D02*
X121750000Y-69200000D01*
G75*
G02*
X121875000Y-69075000I125000J0D01*
G01*
X122125000Y-69075000D01*
G75*
G02*
X122250000Y-69200000I0J-125000D01*
G01*
X122250000Y-70450000D01*
G75*
G02*
X122125000Y-70575000I-125000J0D01*
G01*
X121875000Y-70575000D01*
G75*
G02*
X121750000Y-70450000I0J125000D01*
G01*
G37*
G36*
G01*
X122550000Y-70450000D02*
X122550000Y-69200000D01*
G75*
G02*
X122675000Y-69075000I125000J0D01*
G01*
X122925000Y-69075000D01*
G75*
G02*
X123050000Y-69200000I0J-125000D01*
G01*
X123050000Y-70450000D01*
G75*
G02*
X122925000Y-70575000I-125000J0D01*
G01*
X122675000Y-70575000D01*
G75*
G02*
X122550000Y-70450000I0J125000D01*
G01*
G37*
G36*
G01*
X123350000Y-70450000D02*
X123350000Y-69200000D01*
G75*
G02*
X123475000Y-69075000I125000J0D01*
G01*
X123725000Y-69075000D01*
G75*
G02*
X123850000Y-69200000I0J-125000D01*
G01*
X123850000Y-70450000D01*
G75*
G02*
X123725000Y-70575000I-125000J0D01*
G01*
X123475000Y-70575000D01*
G75*
G02*
X123350000Y-70450000I0J125000D01*
G01*
G37*
G36*
G01*
X124150000Y-70450000D02*
X124150000Y-69200000D01*
G75*
G02*
X124275000Y-69075000I125000J0D01*
G01*
X124525000Y-69075000D01*
G75*
G02*
X124650000Y-69200000I0J-125000D01*
G01*
X124650000Y-70450000D01*
G75*
G02*
X124525000Y-70575000I-125000J0D01*
G01*
X124275000Y-70575000D01*
G75*
G02*
X124150000Y-70450000I0J125000D01*
G01*
G37*
G36*
G01*
X124950000Y-70450000D02*
X124950000Y-69200000D01*
G75*
G02*
X125075000Y-69075000I125000J0D01*
G01*
X125325000Y-69075000D01*
G75*
G02*
X125450000Y-69200000I0J-125000D01*
G01*
X125450000Y-70450000D01*
G75*
G02*
X125325000Y-70575000I-125000J0D01*
G01*
X125075000Y-70575000D01*
G75*
G02*
X124950000Y-70450000I0J125000D01*
G01*
G37*
G36*
G01*
X125750000Y-70450000D02*
X125750000Y-69200000D01*
G75*
G02*
X125875000Y-69075000I125000J0D01*
G01*
X126125000Y-69075000D01*
G75*
G02*
X126250000Y-69200000I0J-125000D01*
G01*
X126250000Y-70450000D01*
G75*
G02*
X126125000Y-70575000I-125000J0D01*
G01*
X125875000Y-70575000D01*
G75*
G02*
X125750000Y-70450000I0J125000D01*
G01*
G37*
G36*
G01*
X126550000Y-70450000D02*
X126550000Y-69200000D01*
G75*
G02*
X126675000Y-69075000I125000J0D01*
G01*
X126925000Y-69075000D01*
G75*
G02*
X127050000Y-69200000I0J-125000D01*
G01*
X127050000Y-70450000D01*
G75*
G02*
X126925000Y-70575000I-125000J0D01*
G01*
X126675000Y-70575000D01*
G75*
G02*
X126550000Y-70450000I0J125000D01*
G01*
G37*
G36*
G01*
X127425000Y-71325000D02*
X127425000Y-71075000D01*
G75*
G02*
X127550000Y-70950000I125000J0D01*
G01*
X128800000Y-70950000D01*
G75*
G02*
X128925000Y-71075000I0J-125000D01*
G01*
X128925000Y-71325000D01*
G75*
G02*
X128800000Y-71450000I-125000J0D01*
G01*
X127550000Y-71450000D01*
G75*
G02*
X127425000Y-71325000I0J125000D01*
G01*
G37*
G36*
G01*
X127425000Y-72125000D02*
X127425000Y-71875000D01*
G75*
G02*
X127550000Y-71750000I125000J0D01*
G01*
X128800000Y-71750000D01*
G75*
G02*
X128925000Y-71875000I0J-125000D01*
G01*
X128925000Y-72125000D01*
G75*
G02*
X128800000Y-72250000I-125000J0D01*
G01*
X127550000Y-72250000D01*
G75*
G02*
X127425000Y-72125000I0J125000D01*
G01*
G37*
G36*
G01*
X127425000Y-72925000D02*
X127425000Y-72675000D01*
G75*
G02*
X127550000Y-72550000I125000J0D01*
G01*
X128800000Y-72550000D01*
G75*
G02*
X128925000Y-72675000I0J-125000D01*
G01*
X128925000Y-72925000D01*
G75*
G02*
X128800000Y-73050000I-125000J0D01*
G01*
X127550000Y-73050000D01*
G75*
G02*
X127425000Y-72925000I0J125000D01*
G01*
G37*
G36*
G01*
X127425000Y-73725000D02*
X127425000Y-73475000D01*
G75*
G02*
X127550000Y-73350000I125000J0D01*
G01*
X128800000Y-73350000D01*
G75*
G02*
X128925000Y-73475000I0J-125000D01*
G01*
X128925000Y-73725000D01*
G75*
G02*
X128800000Y-73850000I-125000J0D01*
G01*
X127550000Y-73850000D01*
G75*
G02*
X127425000Y-73725000I0J125000D01*
G01*
G37*
G36*
G01*
X127425000Y-74525000D02*
X127425000Y-74275000D01*
G75*
G02*
X127550000Y-74150000I125000J0D01*
G01*
X128800000Y-74150000D01*
G75*
G02*
X128925000Y-74275000I0J-125000D01*
G01*
X128925000Y-74525000D01*
G75*
G02*
X128800000Y-74650000I-125000J0D01*
G01*
X127550000Y-74650000D01*
G75*
G02*
X127425000Y-74525000I0J125000D01*
G01*
G37*
G36*
G01*
X127425000Y-75325000D02*
X127425000Y-75075000D01*
G75*
G02*
X127550000Y-74950000I125000J0D01*
G01*
X128800000Y-74950000D01*
G75*
G02*
X128925000Y-75075000I0J-125000D01*
G01*
X128925000Y-75325000D01*
G75*
G02*
X128800000Y-75450000I-125000J0D01*
G01*
X127550000Y-75450000D01*
G75*
G02*
X127425000Y-75325000I0J125000D01*
G01*
G37*
G36*
G01*
X127425000Y-76125000D02*
X127425000Y-75875000D01*
G75*
G02*
X127550000Y-75750000I125000J0D01*
G01*
X128800000Y-75750000D01*
G75*
G02*
X128925000Y-75875000I0J-125000D01*
G01*
X128925000Y-76125000D01*
G75*
G02*
X128800000Y-76250000I-125000J0D01*
G01*
X127550000Y-76250000D01*
G75*
G02*
X127425000Y-76125000I0J125000D01*
G01*
G37*
G36*
G01*
X127425000Y-76925000D02*
X127425000Y-76675000D01*
G75*
G02*
X127550000Y-76550000I125000J0D01*
G01*
X128800000Y-76550000D01*
G75*
G02*
X128925000Y-76675000I0J-125000D01*
G01*
X128925000Y-76925000D01*
G75*
G02*
X128800000Y-77050000I-125000J0D01*
G01*
X127550000Y-77050000D01*
G75*
G02*
X127425000Y-76925000I0J125000D01*
G01*
G37*
G36*
G01*
X126550000Y-78800000D02*
X126550000Y-77550000D01*
G75*
G02*
X126675000Y-77425000I125000J0D01*
G01*
X126925000Y-77425000D01*
G75*
G02*
X127050000Y-77550000I0J-125000D01*
G01*
X127050000Y-78800000D01*
G75*
G02*
X126925000Y-78925000I-125000J0D01*
G01*
X126675000Y-78925000D01*
G75*
G02*
X126550000Y-78800000I0J125000D01*
G01*
G37*
G36*
G01*
X125750000Y-78800000D02*
X125750000Y-77550000D01*
G75*
G02*
X125875000Y-77425000I125000J0D01*
G01*
X126125000Y-77425000D01*
G75*
G02*
X126250000Y-77550000I0J-125000D01*
G01*
X126250000Y-78800000D01*
G75*
G02*
X126125000Y-78925000I-125000J0D01*
G01*
X125875000Y-78925000D01*
G75*
G02*
X125750000Y-78800000I0J125000D01*
G01*
G37*
G36*
G01*
X124950000Y-78800000D02*
X124950000Y-77550000D01*
G75*
G02*
X125075000Y-77425000I125000J0D01*
G01*
X125325000Y-77425000D01*
G75*
G02*
X125450000Y-77550000I0J-125000D01*
G01*
X125450000Y-78800000D01*
G75*
G02*
X125325000Y-78925000I-125000J0D01*
G01*
X125075000Y-78925000D01*
G75*
G02*
X124950000Y-78800000I0J125000D01*
G01*
G37*
G36*
G01*
X124150000Y-78800000D02*
X124150000Y-77550000D01*
G75*
G02*
X124275000Y-77425000I125000J0D01*
G01*
X124525000Y-77425000D01*
G75*
G02*
X124650000Y-77550000I0J-125000D01*
G01*
X124650000Y-78800000D01*
G75*
G02*
X124525000Y-78925000I-125000J0D01*
G01*
X124275000Y-78925000D01*
G75*
G02*
X124150000Y-78800000I0J125000D01*
G01*
G37*
G36*
G01*
X123350000Y-78800000D02*
X123350000Y-77550000D01*
G75*
G02*
X123475000Y-77425000I125000J0D01*
G01*
X123725000Y-77425000D01*
G75*
G02*
X123850000Y-77550000I0J-125000D01*
G01*
X123850000Y-78800000D01*
G75*
G02*
X123725000Y-78925000I-125000J0D01*
G01*
X123475000Y-78925000D01*
G75*
G02*
X123350000Y-78800000I0J125000D01*
G01*
G37*
G36*
G01*
X122550000Y-78800000D02*
X122550000Y-77550000D01*
G75*
G02*
X122675000Y-77425000I125000J0D01*
G01*
X122925000Y-77425000D01*
G75*
G02*
X123050000Y-77550000I0J-125000D01*
G01*
X123050000Y-78800000D01*
G75*
G02*
X122925000Y-78925000I-125000J0D01*
G01*
X122675000Y-78925000D01*
G75*
G02*
X122550000Y-78800000I0J125000D01*
G01*
G37*
G36*
G01*
X121750000Y-78800000D02*
X121750000Y-77550000D01*
G75*
G02*
X121875000Y-77425000I125000J0D01*
G01*
X122125000Y-77425000D01*
G75*
G02*
X122250000Y-77550000I0J-125000D01*
G01*
X122250000Y-78800000D01*
G75*
G02*
X122125000Y-78925000I-125000J0D01*
G01*
X121875000Y-78925000D01*
G75*
G02*
X121750000Y-78800000I0J125000D01*
G01*
G37*
G36*
G01*
X120950000Y-78800000D02*
X120950000Y-77550000D01*
G75*
G02*
X121075000Y-77425000I125000J0D01*
G01*
X121325000Y-77425000D01*
G75*
G02*
X121450000Y-77550000I0J-125000D01*
G01*
X121450000Y-78800000D01*
G75*
G02*
X121325000Y-78925000I-125000J0D01*
G01*
X121075000Y-78925000D01*
G75*
G02*
X120950000Y-78800000I0J125000D01*
G01*
G37*
G36*
G01*
X119075000Y-76925000D02*
X119075000Y-76675000D01*
G75*
G02*
X119200000Y-76550000I125000J0D01*
G01*
X120450000Y-76550000D01*
G75*
G02*
X120575000Y-76675000I0J-125000D01*
G01*
X120575000Y-76925000D01*
G75*
G02*
X120450000Y-77050000I-125000J0D01*
G01*
X119200000Y-77050000D01*
G75*
G02*
X119075000Y-76925000I0J125000D01*
G01*
G37*
G36*
G01*
X119075000Y-76125000D02*
X119075000Y-75875000D01*
G75*
G02*
X119200000Y-75750000I125000J0D01*
G01*
X120450000Y-75750000D01*
G75*
G02*
X120575000Y-75875000I0J-125000D01*
G01*
X120575000Y-76125000D01*
G75*
G02*
X120450000Y-76250000I-125000J0D01*
G01*
X119200000Y-76250000D01*
G75*
G02*
X119075000Y-76125000I0J125000D01*
G01*
G37*
G36*
G01*
X119075000Y-75325000D02*
X119075000Y-75075000D01*
G75*
G02*
X119200000Y-74950000I125000J0D01*
G01*
X120450000Y-74950000D01*
G75*
G02*
X120575000Y-75075000I0J-125000D01*
G01*
X120575000Y-75325000D01*
G75*
G02*
X120450000Y-75450000I-125000J0D01*
G01*
X119200000Y-75450000D01*
G75*
G02*
X119075000Y-75325000I0J125000D01*
G01*
G37*
G36*
G01*
X119075000Y-74525000D02*
X119075000Y-74275000D01*
G75*
G02*
X119200000Y-74150000I125000J0D01*
G01*
X120450000Y-74150000D01*
G75*
G02*
X120575000Y-74275000I0J-125000D01*
G01*
X120575000Y-74525000D01*
G75*
G02*
X120450000Y-74650000I-125000J0D01*
G01*
X119200000Y-74650000D01*
G75*
G02*
X119075000Y-74525000I0J125000D01*
G01*
G37*
G36*
G01*
X119075000Y-73725000D02*
X119075000Y-73475000D01*
G75*
G02*
X119200000Y-73350000I125000J0D01*
G01*
X120450000Y-73350000D01*
G75*
G02*
X120575000Y-73475000I0J-125000D01*
G01*
X120575000Y-73725000D01*
G75*
G02*
X120450000Y-73850000I-125000J0D01*
G01*
X119200000Y-73850000D01*
G75*
G02*
X119075000Y-73725000I0J125000D01*
G01*
G37*
G36*
G01*
X119075000Y-72925000D02*
X119075000Y-72675000D01*
G75*
G02*
X119200000Y-72550000I125000J0D01*
G01*
X120450000Y-72550000D01*
G75*
G02*
X120575000Y-72675000I0J-125000D01*
G01*
X120575000Y-72925000D01*
G75*
G02*
X120450000Y-73050000I-125000J0D01*
G01*
X119200000Y-73050000D01*
G75*
G02*
X119075000Y-72925000I0J125000D01*
G01*
G37*
G36*
G01*
X119075000Y-72125000D02*
X119075000Y-71875000D01*
G75*
G02*
X119200000Y-71750000I125000J0D01*
G01*
X120450000Y-71750000D01*
G75*
G02*
X120575000Y-71875000I0J-125000D01*
G01*
X120575000Y-72125000D01*
G75*
G02*
X120450000Y-72250000I-125000J0D01*
G01*
X119200000Y-72250000D01*
G75*
G02*
X119075000Y-72125000I0J125000D01*
G01*
G37*
G36*
G01*
X119075000Y-71325000D02*
X119075000Y-71075000D01*
G75*
G02*
X119200000Y-70950000I125000J0D01*
G01*
X120450000Y-70950000D01*
G75*
G02*
X120575000Y-71075000I0J-125000D01*
G01*
X120575000Y-71325000D01*
G75*
G02*
X120450000Y-71450000I-125000J0D01*
G01*
X119200000Y-71450000D01*
G75*
G02*
X119075000Y-71325000I0J125000D01*
G01*
G37*
G36*
G01*
X153923750Y-77732500D02*
X154836250Y-77732500D01*
G75*
G02*
X155080000Y-77976250I0J-243750D01*
G01*
X155080000Y-78463750D01*
G75*
G02*
X154836250Y-78707500I-243750J0D01*
G01*
X153923750Y-78707500D01*
G75*
G02*
X153680000Y-78463750I0J243750D01*
G01*
X153680000Y-77976250D01*
G75*
G02*
X153923750Y-77732500I243750J0D01*
G01*
G37*
G36*
G01*
X153923750Y-75857500D02*
X154836250Y-75857500D01*
G75*
G02*
X155080000Y-76101250I0J-243750D01*
G01*
X155080000Y-76588750D01*
G75*
G02*
X154836250Y-76832500I-243750J0D01*
G01*
X153923750Y-76832500D01*
G75*
G02*
X153680000Y-76588750I0J243750D01*
G01*
X153680000Y-76101250D01*
G75*
G02*
X153923750Y-75857500I243750J0D01*
G01*
G37*
G36*
G01*
X153923750Y-81232500D02*
X154836250Y-81232500D01*
G75*
G02*
X155080000Y-81476250I0J-243750D01*
G01*
X155080000Y-81963750D01*
G75*
G02*
X154836250Y-82207500I-243750J0D01*
G01*
X153923750Y-82207500D01*
G75*
G02*
X153680000Y-81963750I0J243750D01*
G01*
X153680000Y-81476250D01*
G75*
G02*
X153923750Y-81232500I243750J0D01*
G01*
G37*
G36*
G01*
X153923750Y-79357500D02*
X154836250Y-79357500D01*
G75*
G02*
X155080000Y-79601250I0J-243750D01*
G01*
X155080000Y-80088750D01*
G75*
G02*
X154836250Y-80332500I-243750J0D01*
G01*
X153923750Y-80332500D01*
G75*
G02*
X153680000Y-80088750I0J243750D01*
G01*
X153680000Y-79601250D01*
G75*
G02*
X153923750Y-79357500I243750J0D01*
G01*
G37*
G36*
G01*
X151923750Y-81207500D02*
X152836250Y-81207500D01*
G75*
G02*
X153080000Y-81451250I0J-243750D01*
G01*
X153080000Y-81938750D01*
G75*
G02*
X152836250Y-82182500I-243750J0D01*
G01*
X151923750Y-82182500D01*
G75*
G02*
X151680000Y-81938750I0J243750D01*
G01*
X151680000Y-81451250D01*
G75*
G02*
X151923750Y-81207500I243750J0D01*
G01*
G37*
G36*
G01*
X151923750Y-79332500D02*
X152836250Y-79332500D01*
G75*
G02*
X153080000Y-79576250I0J-243750D01*
G01*
X153080000Y-80063750D01*
G75*
G02*
X152836250Y-80307500I-243750J0D01*
G01*
X151923750Y-80307500D01*
G75*
G02*
X151680000Y-80063750I0J243750D01*
G01*
X151680000Y-79576250D01*
G75*
G02*
X151923750Y-79332500I243750J0D01*
G01*
G37*
G36*
G01*
X126656250Y-64312500D02*
X125743750Y-64312500D01*
G75*
G02*
X125500000Y-64068750I0J243750D01*
G01*
X125500000Y-63581250D01*
G75*
G02*
X125743750Y-63337500I243750J0D01*
G01*
X126656250Y-63337500D01*
G75*
G02*
X126900000Y-63581250I0J-243750D01*
G01*
X126900000Y-64068750D01*
G75*
G02*
X126656250Y-64312500I-243750J0D01*
G01*
G37*
G36*
G01*
X126656250Y-66187500D02*
X125743750Y-66187500D01*
G75*
G02*
X125500000Y-65943750I0J243750D01*
G01*
X125500000Y-65456250D01*
G75*
G02*
X125743750Y-65212500I243750J0D01*
G01*
X126656250Y-65212500D01*
G75*
G02*
X126900000Y-65456250I0J-243750D01*
G01*
X126900000Y-65943750D01*
G75*
G02*
X126656250Y-66187500I-243750J0D01*
G01*
G37*
G36*
G01*
X128756250Y-64312500D02*
X127843750Y-64312500D01*
G75*
G02*
X127600000Y-64068750I0J243750D01*
G01*
X127600000Y-63581250D01*
G75*
G02*
X127843750Y-63337500I243750J0D01*
G01*
X128756250Y-63337500D01*
G75*
G02*
X129000000Y-63581250I0J-243750D01*
G01*
X129000000Y-64068750D01*
G75*
G02*
X128756250Y-64312500I-243750J0D01*
G01*
G37*
G36*
G01*
X128756250Y-66187500D02*
X127843750Y-66187500D01*
G75*
G02*
X127600000Y-65943750I0J243750D01*
G01*
X127600000Y-65456250D01*
G75*
G02*
X127843750Y-65212500I243750J0D01*
G01*
X128756250Y-65212500D01*
G75*
G02*
X129000000Y-65456250I0J-243750D01*
G01*
X129000000Y-65943750D01*
G75*
G02*
X128756250Y-66187500I-243750J0D01*
G01*
G37*
G36*
G01*
X120612500Y-66543750D02*
X120612500Y-67456250D01*
G75*
G02*
X120368750Y-67700000I-243750J0D01*
G01*
X119881250Y-67700000D01*
G75*
G02*
X119637500Y-67456250I0J243750D01*
G01*
X119637500Y-66543750D01*
G75*
G02*
X119881250Y-66300000I243750J0D01*
G01*
X120368750Y-66300000D01*
G75*
G02*
X120612500Y-66543750I0J-243750D01*
G01*
G37*
G36*
G01*
X122487500Y-66543750D02*
X122487500Y-67456250D01*
G75*
G02*
X122243750Y-67700000I-243750J0D01*
G01*
X121756250Y-67700000D01*
G75*
G02*
X121512500Y-67456250I0J243750D01*
G01*
X121512500Y-66543750D01*
G75*
G02*
X121756250Y-66300000I243750J0D01*
G01*
X122243750Y-66300000D01*
G75*
G02*
X122487500Y-66543750I0J-243750D01*
G01*
G37*
G36*
G01*
X115550000Y-76043750D02*
X115550000Y-76956250D01*
G75*
G02*
X115306250Y-77200000I-243750J0D01*
G01*
X114818750Y-77200000D01*
G75*
G02*
X114575000Y-76956250I0J243750D01*
G01*
X114575000Y-76043750D01*
G75*
G02*
X114818750Y-75800000I243750J0D01*
G01*
X115306250Y-75800000D01*
G75*
G02*
X115550000Y-76043750I0J-243750D01*
G01*
G37*
G36*
G01*
X117425000Y-76043750D02*
X117425000Y-76956250D01*
G75*
G02*
X117181250Y-77200000I-243750J0D01*
G01*
X116693750Y-77200000D01*
G75*
G02*
X116450000Y-76956250I0J243750D01*
G01*
X116450000Y-76043750D01*
G75*
G02*
X116693750Y-75800000I243750J0D01*
G01*
X117181250Y-75800000D01*
G75*
G02*
X117425000Y-76043750I0J-243750D01*
G01*
G37*
G36*
G01*
X116387500Y-78956250D02*
X116387500Y-78043750D01*
G75*
G02*
X116631250Y-77800000I243750J0D01*
G01*
X117118750Y-77800000D01*
G75*
G02*
X117362500Y-78043750I0J-243750D01*
G01*
X117362500Y-78956250D01*
G75*
G02*
X117118750Y-79200000I-243750J0D01*
G01*
X116631250Y-79200000D01*
G75*
G02*
X116387500Y-78956250I0J243750D01*
G01*
G37*
G36*
G01*
X114512500Y-78956250D02*
X114512500Y-78043750D01*
G75*
G02*
X114756250Y-77800000I243750J0D01*
G01*
X115243750Y-77800000D01*
G75*
G02*
X115487500Y-78043750I0J-243750D01*
G01*
X115487500Y-78956250D01*
G75*
G02*
X115243750Y-79200000I-243750J0D01*
G01*
X114756250Y-79200000D01*
G75*
G02*
X114512500Y-78956250I0J243750D01*
G01*
G37*
G36*
G01*
X120943750Y-83887500D02*
X121856250Y-83887500D01*
G75*
G02*
X122100000Y-84131250I0J-243750D01*
G01*
X122100000Y-84618750D01*
G75*
G02*
X121856250Y-84862500I-243750J0D01*
G01*
X120943750Y-84862500D01*
G75*
G02*
X120700000Y-84618750I0J243750D01*
G01*
X120700000Y-84131250D01*
G75*
G02*
X120943750Y-83887500I243750J0D01*
G01*
G37*
G36*
G01*
X120943750Y-82012500D02*
X121856250Y-82012500D01*
G75*
G02*
X122100000Y-82256250I0J-243750D01*
G01*
X122100000Y-82743750D01*
G75*
G02*
X121856250Y-82987500I-243750J0D01*
G01*
X120943750Y-82987500D01*
G75*
G02*
X120700000Y-82743750I0J243750D01*
G01*
X120700000Y-82256250D01*
G75*
G02*
X120943750Y-82012500I243750J0D01*
G01*
G37*
M02*
